#N canvas 955 388 352 601 10;
#X obj 40 508 circle 0.1;
#X obj 40 255 t a b;
#X obj 40 378 translateXYZ 0 0 0;
#X obj 40 280 t a b b b b;
#X obj 40 102 r gemhead;
#X obj 40 173 separator;
#X floatatom 189 292 5 0 0 0 - - -, f 5;
#X obj 40 478 alpha 1;
#X obj 189 319 * 0.5;
#N canvas 0 22 464 533 color 0;
#X obj 37 388 colorRGB 1 1 1 0.3;
#X obj 68 359 unpack f f f;
#X obj 125 177 sel 0 1 2 3 4 5;
#X msg 125 207 0.53 0.53 0.77;
#X msg 139 230 0.13 0.69 0.45;
#X msg 154 249 0.71 0.19 0.28;
#X msg 167 270 0.35 0.47 0.83;
#X obj 36 309 inlet;
#X obj 37 419 outlet;
#X obj 299 384 inlet;
#X obj 128 134 inlet;
#X msg 183 294 0.54 0.32 0.8;
#X connect 0 0 8 0;
#X connect 1 0 0 1;
#X connect 1 1 0 2;
#X connect 1 2 0 3;
#X connect 2 0 3 0;
#X connect 2 1 4 0;
#X connect 2 2 5 0;
#X connect 2 3 6 0;
#X connect 2 4 11 0;
#X connect 3 0 1 0;
#X connect 4 0 1 0;
#X connect 5 0 1 0;
#X connect 6 0 1 0;
#X connect 7 0 0 0;
#X connect 9 0 0 4;
#X connect 10 0 2 0;
#X connect 11 0 1 0;
#X restore 40 414 pd color;
#X obj 125 9 r tocircle;
#X floatatom 90 219 5 0 0 0 - - -, f 5;
#X obj 125 89 unpack f f f f f f;
#X obj 40 128 spigot 0;
#X obj 189 341 + 0.5;
#X obj 125 31 route /circle;
#X obj 125 60 route \$1;
#X obj 90 238 - 14.16;
#X obj 245 123 tgl 15 0 empty empty empty 17 7 0 10 -262144 -1 -1 1
1;
#X connect 1 0 3 0;
#X connect 2 0 9 0;
#X connect 3 0 2 0;
#X connect 4 0 13 0;
#X connect 5 0 1 0;
#X connect 6 0 8 0;
#X connect 7 0 0 0;
#X connect 8 0 14 0;
#X connect 9 0 7 0;
#X connect 10 0 15 0;
#X connect 11 0 17 0;
#X connect 12 0 11 0;
#X connect 12 1 2 2;
#X connect 12 2 0 1;
#X connect 12 3 6 0;
#X connect 12 4 9 1;
#X connect 12 5 13 1;
#X connect 12 5 18 0;
#X connect 13 0 5 0;
#X connect 14 0 9 2;
#X connect 15 0 16 0;
#X connect 16 0 12 0;
#X connect 17 0 2 1;
