#N canvas 154 39 903 662 10;
#X obj 143 542 curve 2;
#X obj 390 97 + 1;
#X obj 42 74 t a b b;
#X obj 407 74 v \$0_id;
#X obj 114 100 v \$0_id_1;
#X obj 61 101 v \$0_id;
#X obj 255 522 +;
#X obj 283 523 +;
#X obj 312 521 +;
#X obj 270 401 -;
#X obj 298 401 -;
#X obj 327 401 -;
#X obj 604 317 bng 15 250 50 0 empty empty empty 17 7 0 10 -262144
-1 -1;
#X obj 604 453 line;
#X obj 255 551 pack f f f;
#X obj 270 488 expr -1*($f1*$f2);
#X obj 298 462 expr -1*($f1*$f2);
#X obj 327 438 expr -1*($f1*$f2);
#X obj 390 141 v \$0_id_1;
#X obj 42 15 separator;
#X obj 373 5 f \$1;
#X obj 474 130 r gobal_bang;
#X obj 474 391 line;
#X obj 42 47 t a b;
#X msg 501 206 1;
#X obj 61 129 outlet;
#X obj 114 129 outlet;
#X obj 199 213 inlet;
#X obj 317 225 inlet;
#X obj 42 -9 inlet;
#X floatatom 390 119 5 0 0 0 - - -;
#X obj 689 173 bng 15 250 50 0 empty empty empty 17 7 0 10 -262144
-1 -1;
#X obj 689 136 route;
#X obj 373 30 t f f f f;
#X obj 716 90 expr $f1+5;
#X msg 604 426 0 \, 1 \$1;
#X msg 641 344 0;
#X obj 501 456 line;
#X msg 630 398 1;
#X obj 501 481 sel 0;
#X obj 604 480 sel 1;
#X floatatom 716 113 5 0 0 0 - - -;
#X obj 604 377 t f b;
#X obj 162 514 k_between;
#X obj 557 54 t b b;
#X obj 557 30 r gobal_end;
#X msg 589 107 1;
#X msg 689 222 1 \, 0 \$1;
#X msg 557 131 1 \, 0 \$1;
#X obj 557 154 line;
#X msg -4 465 width \$1;
#X obj 603 212 inlet;
#X floatatom 407 52 5 0 0 0 - - -;
#X obj 21 524 distance_N;
#X obj 735 30 s \$0-time;
#X obj 578 81 r \$0-time;
#X obj 495 231 r \$0-time;
#X obj 631 320 r \$0-time;
#X obj 710 170 r \$0-time;
#X obj 21 571 expr int($f1*globetime);
#X obj 604 295 route \$1 1000;
#X obj 501 514 outlet;
#X obj 42 267 colorRGB 1 1 1 1;
#X msg -48 137 1;
#X floatatom -24 167 5 0 0 0 - - -;
#X obj -62 115 moses 1;
#X floatatom -24 222 5 0 0 0 - - -;
#X obj 199 278 unpack f f f;
#X obj 317 282 unpack f f f;
#X obj 42 348 spigot;
#X obj 75 325 tgl 15 0 empty empty empty 17 7 0 10 -262144 -1 -1 1
1;
#X obj 75 301 > 0.0001;
#X msg 474 300 0.001 \, 1 \$1;
#X obj 689 197 f 10;
#X obj 604 345 f 10;
#X obj 474 259 f 10;
#X obj 557 106 f 10;
#X obj 474 154 del 10;
#X obj 664 379 loadbang;
#X msg 664 403 1;
#X floatatom 170 471 5 0 0 0 - - -;
#X obj 143 421 t a b;
#X obj 652 480 s \$0-go;
#X obj 474 422 s \$0-go;
#X obj 75 231 r \$0-go;
#X obj 441 481 s \$0-go2;
#X obj 170 444 list;
#X obj 191 417 r \$0-go2;
#X obj 557 177 s \$0-go2;
#X obj 78 473 r \$0-right;
#X obj 187 490 r \$0-right;
#X obj 21 496 r \$0-left;
#X obj 213 461 r \$0-left;
#X obj 399 409 r \$0-go;
#X obj 317 252 t a a;
#X obj 358 255 s \$0-right;
#X obj 199 245 t a a;
#X obj 240 248 s \$0-left;
#X obj 268 313 t f f;
#X obj 233 347 t f f;
#X obj 199 319 t f f;
#X obj 603 237 s \$0-num;
#X obj 604 265 r \$0-num;
#X obj 689 64 r \$0-num;
#X obj -62 66 r \$0-num;
#X floatatom -62 88 5 0 0 0 - - -;
#X obj 95 184 unpack f f f;
#X obj -24 272 line;
#X msg -24 247 \$1 50;
#X obj 474 179 t b b b;
#X obj 540 214 s \$0-go3;
#X obj 692 -1 inlet;
#X obj -4 411 loadbang;
#X obj -24 137 moses 10;
#X obj -24 197 expr 1.0-($f1/10);
#X msg 21 161 10;
#X obj -168 338 f;
#X obj -133 307 f \$1;
#X obj -133 284 loadbang;
#X obj -167 266 r \$0-go3;
#X obj -87 368 bng 15 250 50 0 empty empty empty 17 7 0 10 -262144
-1 -1;
#X floatatom -134 371 5 0 0 0 - - -;
#X obj -133 328 expr 1-((1-($f1/4))*0.9)+0.2;
#X msg -4 436 2;
#X obj 733 -1 inlet;
#X connect 1 0 30 0;
#X connect 2 0 62 0;
#X connect 2 1 5 0;
#X connect 2 2 4 0;
#X connect 4 0 26 0;
#X connect 5 0 25 0;
#X connect 6 0 14 0;
#X connect 7 0 14 1;
#X connect 8 0 14 2;
#X connect 9 0 15 0;
#X connect 10 0 16 0;
#X connect 11 0 17 0;
#X connect 12 0 74 0;
#X connect 13 0 40 0;
#X connect 13 0 82 0;
#X connect 14 0 0 2;
#X connect 15 0 6 1;
#X connect 16 0 7 1;
#X connect 17 0 8 1;
#X connect 19 0 23 0;
#X connect 20 0 33 0;
#X connect 21 0 77 0;
#X connect 22 0 83 0;
#X connect 23 0 2 0;
#X connect 23 1 20 0;
#X connect 24 0 37 0;
#X connect 27 0 96 0;
#X connect 28 0 94 0;
#X connect 29 0 19 0;
#X connect 30 0 18 0;
#X connect 31 0 73 0;
#X connect 32 0 31 0;
#X connect 33 1 1 0;
#X connect 33 2 52 0;
#X connect 33 3 34 0;
#X connect 34 0 41 0;
#X connect 35 0 13 0;
#X connect 36 0 13 0;
#X connect 36 0 22 0;
#X connect 37 0 39 0;
#X connect 37 0 85 0;
#X connect 38 0 37 0;
#X connect 39 0 61 0;
#X connect 40 0 61 0;
#X connect 41 0 32 1;
#X connect 42 0 35 0;
#X connect 42 1 38 0;
#X connect 43 0 0 1;
#X connect 44 0 76 0;
#X connect 44 1 46 0;
#X connect 45 0 44 0;
#X connect 46 0 22 0;
#X connect 47 0 37 0;
#X connect 48 0 49 0;
#X connect 49 0 88 0;
#X connect 50 0 0 0;
#X connect 51 0 101 0;
#X connect 52 0 3 0;
#X connect 53 0 59 0;
#X connect 55 0 76 1;
#X connect 56 0 75 1;
#X connect 57 0 74 1;
#X connect 58 0 73 1;
#X connect 60 0 12 0;
#X connect 60 1 36 0;
#X connect 62 0 69 0;
#X connect 63 0 64 0;
#X connect 64 0 114 0;
#X connect 65 0 63 0;
#X connect 65 1 113 0;
#X connect 66 0 108 0;
#X connect 67 0 100 0;
#X connect 67 1 99 0;
#X connect 67 2 98 0;
#X connect 68 0 9 1;
#X connect 68 1 10 1;
#X connect 68 2 11 1;
#X connect 69 0 81 0;
#X connect 70 0 69 1;
#X connect 71 0 70 0;
#X connect 72 0 22 0;
#X connect 73 0 47 0;
#X connect 74 0 42 0;
#X connect 75 0 72 0;
#X connect 76 0 48 0;
#X connect 77 0 109 0;
#X connect 78 0 79 0;
#X connect 79 0 13 0;
#X connect 80 0 43 0;
#X connect 81 0 0 0;
#X connect 81 1 86 0;
#X connect 84 0 71 0;
#X connect 86 0 80 0;
#X connect 87 0 86 1;
#X connect 89 0 53 1;
#X connect 90 0 43 1;
#X connect 91 0 53 0;
#X connect 92 0 43 2;
#X connect 93 0 16 1;
#X connect 93 0 15 1;
#X connect 93 0 17 1;
#X connect 94 0 68 0;
#X connect 94 1 95 0;
#X connect 96 0 67 0;
#X connect 96 1 97 0;
#X connect 98 0 8 0;
#X connect 98 1 11 0;
#X connect 99 0 7 0;
#X connect 99 1 10 0;
#X connect 100 0 6 0;
#X connect 100 1 9 0;
#X connect 102 0 60 0;
#X connect 103 0 32 0;
#X connect 104 0 105 0;
#X connect 105 0 65 0;
#X connect 106 0 62 1;
#X connect 106 1 62 2;
#X connect 106 2 62 3;
#X connect 107 0 62 4;
#X connect 108 0 107 0;
#X connect 109 0 75 0;
#X connect 109 1 24 0;
#X connect 109 2 110 0;
#X connect 111 0 106 0;
#X connect 112 0 123 0;
#X connect 113 0 64 0;
#X connect 113 1 115 0;
#X connect 114 0 66 0;
#X connect 115 0 64 0;
#X connect 116 0 108 0;
#X connect 117 0 122 0;
#X connect 118 0 117 0;
#X connect 119 0 116 0;
#X connect 120 0 117 0;
#X connect 122 0 116 1;
#X connect 122 0 121 0;
#X connect 123 0 50 0;
#X connect 124 0 54 0;
