#N canvas 679 102 915 745 10;
#X obj 66 262 separator;
#X obj 66 329 color 1 1 1;
#X obj 279 19 inlet;
#X obj 142 57 inlet;
#X obj 466 527 text2d;
#X obj 528 520 loadbang;
#X msg 528 543 13;
#X obj 466 436 separator;
#X obj 466 462 color 0.5 0.5 0.5;
#X obj 142 94 t a a a a a a;
#X obj 466 488 translateXYZ 0 -1.2 0;
#X obj 66 421 square 1;
#X obj 66 354 pix_image ../imgs/clickbtn_1.png;
#X obj 66 376 pix_texture;
#X obj 66 398 alpha;
#X obj 224 398 separator;
#X obj 224 423 color 1 1 1;
#X obj 224 515 square 1;
#X obj 224 470 pix_texture;
#X obj 224 492 alpha;
#X obj 224 448 pix_image ../imgs/clickbtn.png;
#X obj 279 50 route color pos tag state;
#X obj 66 284 scale 0;
#X obj 148 239 line;
#X obj 148 261 outback;
#X msg 148 217 \$1 200;
#X connect 0 0 22 0;
#X connect 1 0 12 0;
#X connect 2 0 21 0;
#X connect 3 0 9 0;
#X connect 5 0 6 0;
#X connect 6 0 4 1;
#X connect 7 0 8 0;
#X connect 8 0 10 0;
#X connect 9 0 7 0;
#X connect 9 2 0 0;
#X connect 9 3 15 0;
#X connect 10 0 4 0;
#X connect 12 0 13 0;
#X connect 13 0 14 0;
#X connect 14 0 11 0;
#X connect 15 0 16 0;
#X connect 16 0 20 0;
#X connect 18 0 19 0;
#X connect 19 0 17 0;
#X connect 20 0 18 0;
#X connect 21 0 8 1;
#X connect 21 0 1 1;
#X connect 21 0 16 1;
#X connect 21 2 4 0;
#X connect 21 3 25 0;
#X connect 22 0 1 0;
#X connect 23 0 24 0;
#X connect 24 0 22 1;
#X connect 25 0 23 0;
