#N canvas 0 23 730 604 10;
#X obj 111 202 translateXYZ;
#X obj 183 78 r mouse_pos;
#X obj 183 101 unpack f f;
#X obj 109 233 t a a a a a;
#X obj 434 402 separator;
#X obj 434 460 translateXYZ 0.25 0 0;
#X obj 68 347 separator;
#X obj 267 429 separator;
#X obj 267 487 translateXYZ -0.25 0 0;
#X obj 265 216 separator;
#X obj 167 313 separator;
#X obj 265 274 translateXYZ 0 0.25 0;
#X obj 167 371 translateXYZ 0 -0.25 0;
#X obj 111 157 t a b;
#X obj 358 166 f;
#X obj 68 447 pix_texture;
#X obj 68 472 circle 0.1;
#X obj 267 337 expr (-$f1)-0.15;
#X obj 379 213 expr ($f1)+0.15;
#X obj 167 396 rectangle 0.015 0.03;
#X obj 265 299 rectangle 0.015 0.03;
#X obj 267 512 rectangle 0.03 0.015;
#X obj 434 485 rectangle 0.03 0.015;
#X obj 440 166 fmod 0.05;
#X obj 388 166 + 0.01;
#X obj 68 401 alpha 1;
#X obj 68 374 color 1 1 1;
#X obj 167 343 color 1 1 1;
#X obj 265 246 color 1 1 1;
#X obj 267 459 color 1 1 1;
#X obj 434 432 color 1 1 1;
#X obj 68 422 pix_image ../img/paint.png;
#X obj 111 131 gemhead -1;
#X connect 0 0 3 0;
#X connect 1 0 2 0;
#X connect 2 0 0 1;
#X connect 2 1 0 2;
#X connect 3 0 6 0;
#X connect 3 1 10 0;
#X connect 3 2 9 0;
#X connect 3 3 7 0;
#X connect 3 4 4 0;
#X connect 4 0 30 0;
#X connect 5 0 22 0;
#X connect 6 0 26 0;
#X connect 7 0 29 0;
#X connect 8 0 21 0;
#X connect 9 0 28 0;
#X connect 10 0 27 0;
#X connect 11 0 20 0;
#X connect 12 0 19 0;
#X connect 13 0 0 0;
#X connect 13 1 14 0;
#X connect 14 0 17 0;
#X connect 14 0 18 0;
#X connect 14 0 24 0;
#X connect 15 0 16 0;
#X connect 17 0 8 1;
#X connect 17 0 12 2;
#X connect 18 0 5 1;
#X connect 18 0 11 2;
#X connect 23 0 14 1;
#X connect 24 0 23 0;
#X connect 25 0 31 0;
#X connect 26 0 25 0;
#X connect 27 0 12 0;
#X connect 28 0 11 0;
#X connect 29 0 8 0;
#X connect 30 0 5 0;
#X connect 31 0 15 0;
#X connect 32 0 13 0;
