#N canvas 643 331 752 659 10;
#X obj 83 221 color 0.7 0.7 0.7;
#X obj 476 463 separator;
#X obj 83 197 separator;
#X obj 82 322 separator;
#X obj 82 347 color 1 1 1;
#X obj 82 372 translateXYZ 0 0 0;
#X obj 279 19 inlet;
#X obj 142 57 inlet;
#X obj 271 237 k_range 0 1 -1 1;
#X obj 46 576 text2d;
#X obj 166 581 loadbang;
#X msg 164 601 13;
#X obj 46 485 separator;
#X obj 46 511 color 0.5 0.5 0.5;
#X obj 329 459 separator;
#X obj 329 484 color 0.5 0.5 0.5;
#X obj 329 506 translateXYZ;
#X obj 476 488 color 0.5 0.5 0.5;
#X obj 476 510 translateXYZ;
#X obj 279 50 route color vol tag height;
#X obj 455 266 * -1;
#X obj 453 231 t f f;
#X obj 142 94 t a a a a a a;
#X obj 46 537 translateXYZ 0 -1.1 0;
#X msg 4 194 draw line;
#X obj 4 171 loadbang;
#X obj 329 533 circle 0.04;
#X obj 476 534 circle 0.04;
#X obj 83 248 rectangle 0.01 1;
#X obj 271 317 *;
#X floatatom 271 339 5 0 0 0 - - -, f 5;
#X obj 82 397 circle 0.06;
#X connect 0 0 28 0;
#X connect 1 0 17 0;
#X connect 2 0 0 0;
#X connect 3 0 4 0;
#X connect 4 0 5 0;
#X connect 5 0 31 0;
#X connect 6 0 19 0;
#X connect 7 0 22 0;
#X connect 8 0 29 0;
#X connect 10 0 11 0;
#X connect 11 0 9 1;
#X connect 12 0 13 0;
#X connect 13 0 23 0;
#X connect 14 0 15 0;
#X connect 15 0 16 0;
#X connect 16 0 26 0;
#X connect 17 0 18 0;
#X connect 18 0 27 0;
#X connect 19 0 13 1;
#X connect 19 0 15 1;
#X connect 19 0 17 1;
#X connect 19 0 0 1;
#X connect 19 1 8 0;
#X connect 19 2 9 0;
#X connect 19 3 21 0;
#X connect 19 3 28 2;
#X connect 20 0 16 2;
#X connect 21 0 20 0;
#X connect 21 1 18 2;
#X connect 21 1 29 1;
#X connect 22 0 12 0;
#X connect 22 2 3 0;
#X connect 22 3 14 0;
#X connect 22 4 1 0;
#X connect 22 5 2 0;
#X connect 23 0 9 0;
#X connect 24 0 28 0;
#X connect 25 0 24 0;
#X connect 29 0 30 0;
#X connect 30 0 5 2;
