#N canvas 342 23 689 611 10;
#X obj 230 121 separator;
#X obj 122 382 separator;
#X obj 122 407 color 1 1 1;
#X obj 122 432 translateXYZ 0 0 0;
#X obj 279 19 inlet;
#X obj 142 57 inlet;
#X obj 209 304 k_range 0 1 -1 1;
#X obj 435 297 text2d;
#X obj 555 302 loadbang;
#X msg 553 322 13;
#X obj 435 206 separator;
#X obj 435 232 color 0.5 0.5 0.5;
#X obj 142 94 t a a a a a a;
#X obj 122 457 circle 0.06;
#X obj 230 167 pix_texture;
#X obj 230 189 alpha;
#X obj 230 248 rectangle 1 1;
#X obj 435 258 translateXYZ 0 -1.2 0;
#X obj 230 211 color 0.5 0.5 0.5;
#X obj 209 278 unpack f f;
#X obj 276 328 k_range 0 1 -1 1;
#X msg 209 326 \$1 100;
#X obj 209 348 line;
#X msg 276 350 \$1 100;
#X obj 276 372 line;
#X obj 279 50 route color pos tag;
#X msg 33 514 draw line;
#X obj 122 572 circle 0.1;
#X obj 33 487 loadbang;
#X obj 122 479 t a b;
#X obj 154 505 k_count 2 30;
#X obj 154 549 + 0.05;
#X obj 154 527 / 300;
#X obj 435 424 text2d;
#X obj 591 212 loadbang;
#X obj 435 352 color 1 1 1;
#X obj 435 378 translateXYZ 0 0.4 0;
#X obj 270 493 k_float 10;
#X obj 353 493 k_float 10;
#X obj 270 515 pack f f;
#X msg 591 232 12;
#X msg 451 403 text (\$1 _ \$2);
#X obj 230 145 pix_image ../img/grid.png;
#X connect 0 0 42 0;
#X connect 1 0 2 0;
#X connect 2 0 3 0;
#X connect 3 0 13 0;
#X connect 4 0 25 0;
#X connect 5 0 12 0;
#X connect 6 0 21 0;
#X connect 7 0 35 0;
#X connect 8 0 9 0;
#X connect 9 0 7 1;
#X connect 10 0 11 0;
#X connect 11 0 17 0;
#X connect 12 0 10 0;
#X connect 12 2 1 0;
#X connect 12 5 0 0;
#X connect 13 0 29 0;
#X connect 14 0 15 0;
#X connect 15 0 18 0;
#X connect 17 0 7 0;
#X connect 18 0 16 0;
#X connect 19 0 6 0;
#X connect 19 1 20 0;
#X connect 20 0 23 0;
#X connect 21 0 22 0;
#X connect 22 0 3 1;
#X connect 22 0 37 0;
#X connect 23 0 24 0;
#X connect 24 0 3 2;
#X connect 24 0 38 0;
#X connect 25 0 11 1;
#X connect 25 0 18 1;
#X connect 25 1 19 0;
#X connect 25 2 7 0;
#X connect 26 0 27 0;
#X connect 28 0 26 0;
#X connect 29 0 27 0;
#X connect 29 1 30 0;
#X connect 30 0 32 0;
#X connect 31 0 27 1;
#X connect 32 0 31 0;
#X connect 34 0 40 0;
#X connect 35 0 36 0;
#X connect 36 0 33 0;
#X connect 37 0 39 0;
#X connect 38 0 39 1;
#X connect 39 0 41 0;
#X connect 40 0 33 1;
#X connect 41 0 33 0;
#X connect 42 0 14 0;
