#N canvas 711 86 752 659 10;
#X obj 83 197 separator;
#X obj 196 457 separator;
#X obj 196 482 color 1 1 1;
#X obj 196 507 translateXYZ 0 0 0;
#X obj 279 19 inlet;
#X obj 142 57 inlet;
#X obj 264 345 k_range 0 1 -1 1;
#X obj 466 527 text2d;
#X obj 586 532 loadbang;
#X msg 584 552 13;
#X obj 466 436 separator;
#X obj 466 462 color 0.5 0.5 0.5;
#X obj 142 94 t a a a a a a;
#X obj 196 532 circle 0.06;
#X obj 83 243 pix_texture;
#X obj 83 265 alpha;
#X obj 83 324 rectangle 1 1;
#X obj 83 221 pix_image ../imgs/grid.png;
#X obj 466 488 translateXYZ 0 -1.2 0;
#X obj 83 287 color 0.5 0.5 0.5;
#X obj 264 319 unpack f f;
#X obj 331 369 k_range 0 1 -1 1;
#X msg 264 367 \$1 100;
#X obj 264 389 line;
#X msg 331 391 \$1 100;
#X obj 331 413 line;
#X obj 279 50 route color pos tag;
#X connect 0 0 17 0;
#X connect 1 0 2 0;
#X connect 2 0 3 0;
#X connect 3 0 13 0;
#X connect 4 0 26 0;
#X connect 5 0 12 0;
#X connect 6 0 22 0;
#X connect 8 0 9 0;
#X connect 9 0 7 1;
#X connect 10 0 11 0;
#X connect 11 0 18 0;
#X connect 12 0 10 0;
#X connect 12 2 1 0;
#X connect 12 5 0 0;
#X connect 14 0 15 0;
#X connect 15 0 19 0;
#X connect 17 0 14 0;
#X connect 18 0 7 0;
#X connect 19 0 16 0;
#X connect 20 0 6 0;
#X connect 20 1 21 0;
#X connect 21 0 24 0;
#X connect 22 0 23 0;
#X connect 23 0 3 1;
#X connect 24 0 25 0;
#X connect 25 0 3 2;
#X connect 26 0 11 1;
#X connect 26 0 19 1;
#X connect 26 1 20 0;
#X connect 26 2 7 0;
