#N canvas 0 22 450 300 12;
#X obj 148 54 loadbang;
#X obj 174 106 v globetime;
#X obj 148 292 s ran-go;
#X obj 148 134 tgl 15 0 empty empty empty 17 7 0 10 -262144 -1 -1 1
1;
#X obj 29 210 table x 120;
#X obj 29 234 table y 120;
#X obj 29 260 table z 120;
#X obj 148 265 pack f 0 1;
#X floatatom 148 227 5 0 0 0 - - -, f 5;
#X obj 181 243 tgl 15 0 empty empty empty 17 7 0 10 -262144 -1 -1 0
1;
#X obj 215 242 tgl 15 0 empty empty empty 17 7 0 10 -262144 -1 -1 0
1;
#X obj 30 283 table color 120;
#X obj 148 154 metro 500;
#N canvas 719 135 821 557 red_cross 0;
#X obj 173 327 translateXYZ;
#X obj 173 184 t a b;
#X obj 173 208 separator;
#X obj 200 270 tabread x;
#X obj 213 291 tabread y;
#X obj 254 307 tabread z;
#X obj 200 230 k_count 1 100;
#X obj 173 158 repeat 100;
#X obj 468 392 tabwrite x;
#X obj 467 487 tabwrite y;
#X obj 605 495 tabwrite z;
#X obj 555 356 t f f f;
#X obj 464 185 t f f;
#X obj 464 84 loadbang;
#X obj 173 378 square 0.08;
#X obj 464 130 repeat 100;
#X obj 464 156 k_count 1 100;
#X obj 422 250 % 10;
#X obj 464 217 t f f b;
#X msg 605 474 0;
#X obj 466 300 expr int($f1/10);
#X obj 200 250 t f f f f;
#X obj 173 353 colorRGB 1 1 1 0.4;
#X obj 315 330 tabread color;
#X obj 359 353 > 0;
#X obj 359 386 sel 0 1;
#X obj 464 107 bng 15 250 50 0 empty empty empty 17 7 0 10 -262144
-1 -1;
#X obj 173 24 gemhead 10;
#X obj 173 100 pix_texture;
#X obj 173 51 alpha;
#X obj 173 75 pix_image imgs/cross.png;
#X floatatom 592 163 5 0 0 0 - - -, f 5;
#X obj 517 235 * -1;
#X obj 595 207 t b f;
#X floatatom 616 250 5 0 0 0 - - -, f 5;
#X obj 619 294 t b f;
#X obj 652 323 * -1;
#X floatatom 653 172 5 0 0 0 - - -, f 5;
#X obj 647 194 t b f;
#X floatatom 674 255 5 0 0 0 - - -, f 5;
#X obj 668 277 t b f;
#X obj 436 361 + 0.18;
#X obj 421 277 k_range 0 9 -3.24 3.24;
#X msg 382 437 0.08;
#X obj 473 432 + 0.14;
#X obj 461 333 k_range 0 9 2.49 -2.49;
#X msg 359 412 0.02;
#X obj 315 370 + 0.5;
#X connect 0 0 22 0;
#X connect 1 0 2 0;
#X connect 1 1 6 0;
#X connect 2 0 0 0;
#X connect 3 0 0 1;
#X connect 4 0 0 2;
#X connect 5 0 0 3;
#X connect 6 0 21 0;
#X connect 7 0 1 0;
#X connect 11 0 8 1;
#X connect 11 1 9 1;
#X connect 11 2 10 1;
#X connect 12 0 18 0;
#X connect 12 1 11 0;
#X connect 13 0 26 0;
#X connect 15 0 16 0;
#X connect 16 0 12 0;
#X connect 17 0 42 0;
#X connect 18 0 17 0;
#X connect 18 1 20 0;
#X connect 18 2 19 0;
#X connect 19 0 10 0;
#X connect 20 0 45 0;
#X connect 21 0 3 0;
#X connect 21 1 4 0;
#X connect 21 2 5 0;
#X connect 21 3 23 0;
#X connect 22 0 14 0;
#X connect 23 0 24 0;
#X connect 23 0 47 0;
#X connect 24 0 25 0;
#X connect 25 0 46 0;
#X connect 25 1 43 0;
#X connect 26 0 15 0;
#X connect 27 0 29 0;
#X connect 28 0 7 0;
#X connect 29 0 30 0;
#X connect 30 0 28 0;
#X connect 31 0 33 0;
#X connect 32 0 42 3;
#X connect 33 0 26 0;
#X connect 33 1 32 0;
#X connect 33 1 42 4;
#X connect 34 0 35 0;
#X connect 35 0 26 0;
#X connect 35 1 36 0;
#X connect 35 1 45 3;
#X connect 36 0 45 4;
#X connect 37 0 38 0;
#X connect 38 0 26 0;
#X connect 38 1 41 1;
#X connect 39 0 40 0;
#X connect 40 0 26 0;
#X connect 40 1 44 1;
#X connect 41 0 8 0;
#X connect 42 0 41 0;
#X connect 43 0 14 1;
#X connect 44 0 9 0;
#X connect 45 0 44 0;
#X connect 46 0 14 1;
#X connect 47 0 22 4;
#X restore 28 164 pd red_cross;
#N canvas 912 23 230 611 object 0;
#X obj 23 28 gemhead;
#X obj 92 29 r ran-go;
#X obj 22 81 gemhead;
#X obj 91 82 r ran-go;
#X obj 20 128 gemhead;
#X obj 89 129 r ran-go;
#X obj 19 181 gemhead;
#X obj 88 182 r ran-go;
#X obj 19 230 gemhead;
#X obj 88 231 r ran-go;
#X obj 18 283 gemhead;
#X obj 87 284 r ran-go;
#X obj 16 330 gemhead;
#X obj 85 331 r ran-go;
#X obj 15 383 gemhead;
#X obj 84 384 r ran-go;
#X obj 16 434 gemhead;
#X obj 85 435 r ran-go;
#X obj 15 487 gemhead;
#X obj 84 488 r ran-go;
#X obj 14 539 gemhead;
#X obj 83 540 r ran-go;
#X obj 23 52 g_linkline 0;
#X obj 18 306 g_linkline 5;
#X obj 19 254 g_linkline 4;
#X obj 22 105 g_linkline 1;
#X obj 20 152 g_linkline 2;
#X obj 19 206 g_linkline 3;
#X obj 16 354 g_linkline 6;
#X obj 15 407 g_linkline 7;
#X obj 15 458 g_linkline 8;
#X obj 15 511 g_linkline 9;
#X obj 14 562 g_linkline 10;
#X connect 0 0 22 0;
#X connect 1 0 22 1;
#X connect 2 0 25 0;
#X connect 3 0 25 1;
#X connect 4 0 26 0;
#X connect 5 0 26 1;
#X connect 6 0 27 0;
#X connect 7 0 27 1;
#X connect 8 0 24 0;
#X connect 9 0 24 1;
#X connect 10 0 23 0;
#X connect 11 0 23 1;
#X connect 12 0 28 0;
#X connect 13 0 28 1;
#X connect 14 0 29 0;
#X connect 15 0 29 1;
#X connect 16 0 30 0;
#X connect 17 0 30 1;
#X connect 18 0 31 0;
#X connect 19 0 31 1;
#X connect 20 0 32 0;
#X connect 21 0 32 1;
#X restore 29 186 pd object;
#X obj 148 175 random 10;
#X msg 174 80 100;
#X connect 0 0 16 0;
#X connect 0 0 3 0;
#X connect 3 0 12 0;
#X connect 7 0 2 0;
#X connect 8 0 7 0;
#X connect 9 0 7 1;
#X connect 10 0 7 2;
#X connect 12 0 15 0;
#X connect 15 0 8 0;
#X connect 16 0 1 0;
