#N canvas 711 86 752 659 10;
#X obj 230 121 separator;
#X obj 41 280 separator;
#X obj 41 305 color 1 1 1;
#X obj 279 19 inlet;
#X obj 142 57 inlet;
#X obj 209 304 k_range 0 1 -1 1;
#X obj 466 527 text2d;
#X obj 586 532 loadbang;
#X msg 584 552 13;
#X obj 466 436 separator;
#X obj 466 462 color 0.5 0.5 0.5;
#X obj 142 94 t a a a a a a;
#X obj 230 167 pix_texture;
#X obj 230 189 alpha;
#X obj 466 488 translateXYZ 0 -1.2 0;
#X obj 230 211 color 0.5 0.5 0.5;
#X obj 209 278 unpack f f;
#X obj 276 328 k_range 0 1 -1 1;
#X msg 209 326 \$1 100;
#X obj 209 348 line;
#X msg 276 350 \$1 100;
#X obj 276 372 line;
#X obj 279 50 route color pos tag;
#X msg 33 514 draw line;
#X obj 122 572 circle 0.1;
#X obj 33 487 loadbang;
#X obj 122 479 t a b;
#X obj 154 505 k_count 2 30;
#X obj 154 527 / 300;
#X obj 230 145 pix_image ../imgs/pan.png;
#X obj 230 248 rectangle 1.435 0.35;
#X obj 209 370 * 1.435;
#X floatatom 156 281 5 0 0 0 - - -, f 5;
#X obj 41 330 translateXYZ 0 -0.05 0;
#X obj 154 549 + 0.15;
#X obj 41 352 pix_image ../imgs/btn.png;
#X obj 41 374 pix_texture;
#X obj 122 438 circle 0.25;
#X connect 0 0 29 0;
#X connect 1 0 2 0;
#X connect 2 0 33 0;
#X connect 3 0 22 0;
#X connect 4 0 11 0;
#X connect 5 0 18 0;
#X connect 7 0 8 0;
#X connect 8 0 6 1;
#X connect 9 0 10 0;
#X connect 10 0 14 0;
#X connect 11 0 9 0;
#X connect 11 2 1 0;
#X connect 11 5 0 0;
#X connect 12 0 13 0;
#X connect 13 0 15 0;
#X connect 14 0 6 0;
#X connect 15 0 30 0;
#X connect 16 0 5 0;
#X connect 16 1 17 0;
#X connect 17 0 20 0;
#X connect 18 0 19 0;
#X connect 19 0 31 0;
#X connect 20 0 21 0;
#X connect 22 0 10 1;
#X connect 22 0 15 1;
#X connect 22 1 16 0;
#X connect 22 2 6 0;
#X connect 23 0 24 0;
#X connect 25 0 23 0;
#X connect 26 0 24 0;
#X connect 26 1 27 0;
#X connect 27 0 28 0;
#X connect 28 0 34 0;
#X connect 29 0 12 0;
#X connect 31 0 33 1;
#X connect 32 0 33 2;
#X connect 33 0 35 0;
#X connect 34 0 24 1;
#X connect 35 0 36 0;
#X connect 36 0 37 0;
