#N canvas 836 121 857 804 10;
#X obj 230 121 separator;
#X obj 41 280 separator;
#X obj 41 305 color 1 1 1;
#X obj 279 19 inlet;
#X obj 142 57 inlet;
#X obj 247 304 k_range 0 1 -1 1;
#X obj 466 527 text2d;
#X obj 586 532 loadbang;
#X msg 584 552 13;
#X obj 466 436 separator;
#X obj 466 462 color 0.5 0.5 0.5;
#X obj 142 94 t a a a a a a;
#X obj 230 167 pix_texture;
#X obj 230 189 alpha;
#X obj 230 211 color 0.5 0.5 0.5;
#X obj 247 278 unpack f f;
#X msg 247 326 \$1 100;
#X obj 247 348 line;
#X obj 279 50 route color pos tag;
#X msg 33 514 draw line;
#X obj 122 572 circle 0.1;
#X obj 33 487 loadbang;
#X obj 122 479 t a b;
#X obj 154 505 k_count 2 30;
#X obj 154 527 / 300;
#X obj 230 145 pix_image ../imgs/pan.png;
#X obj 230 248 rectangle 1.435 0.35;
#X obj 247 370 * 1.435;
#X floatatom 156 281 5 0 0 0 - - -, f 5;
#X obj 41 330 translateXYZ 0 -0.05 0;
#X obj 154 549 + 0.15;
#X obj 41 352 pix_image ../imgs/btn.png;
#X obj 41 374 pix_texture;
#X obj 423 690 text2d;
#X obj 542 688 loadbang;
#X obj 415 618 color 1 1 1;
#X msg 607 632 text \$1;
#X obj 607 604 k_float 100;
#X floatatom 272 421 5 0 0 0 - - -, f 5;
#X msg 638 699 justify left base;
#X obj 639 673 loadbang;
#X msg 540 708 12;
#X floatatom 512 618 5 0 0 0 - - -, f 5;
#X floatatom 659 509 5 0 0 0 - - -, f 5;
#X obj 466 488 translateXYZ -1.15 -0.5 0;
#X obj 422 644 translateXYZ 0.4 0 0;
#X obj 41 399 circle 0.3;
#X connect 0 0 25 0;
#X connect 1 0 2 0;
#X connect 2 0 29 0;
#X connect 3 0 18 0;
#X connect 4 0 11 0;
#X connect 5 0 16 0;
#X connect 6 0 35 0;
#X connect 7 0 8 0;
#X connect 8 0 6 1;
#X connect 9 0 10 0;
#X connect 10 0 44 0;
#X connect 11 0 9 0;
#X connect 11 2 1 0;
#X connect 11 5 0 0;
#X connect 12 0 13 0;
#X connect 13 0 14 0;
#X connect 14 0 26 0;
#X connect 15 0 5 0;
#X connect 16 0 17 0;
#X connect 17 0 27 0;
#X connect 17 0 38 0;
#X connect 18 0 10 1;
#X connect 18 0 14 1;
#X connect 18 1 15 0;
#X connect 18 2 6 0;
#X connect 19 0 20 0;
#X connect 21 0 19 0;
#X connect 22 0 20 0;
#X connect 22 1 23 0;
#X connect 23 0 24 0;
#X connect 24 0 30 0;
#X connect 25 0 12 0;
#X connect 27 0 29 1;
#X connect 28 0 29 2;
#X connect 29 0 31 0;
#X connect 30 0 20 1;
#X connect 31 0 32 0;
#X connect 32 0 46 0;
#X connect 34 0 41 0;
#X connect 35 0 45 0;
#X connect 36 0 33 0;
#X connect 37 0 36 0;
#X connect 38 0 37 0;
#X connect 39 0 33 0;
#X connect 39 0 6 0;
#X connect 40 0 39 0;
#X connect 41 0 33 1;
#X connect 42 0 45 1;
#X connect 43 0 44 1;
#X connect 44 0 6 0;
#X connect 45 0 33 0;
