#N canvas 639 35 759 764 10;
#X msg 63 205 draw line;
#X obj 63 182 loadbang;
#X obj 142 232 color 0.7 0.7 0.7;
#X obj 435 145 separator;
#X obj 142 208 separator;
#X obj 142 94 t a a a a a;
#X obj 82 322 separator;
#X obj 82 347 color 1 1 1;
#X obj 175 432 separator;
#X floatatom 271 298 5 0 0 0 - - -, f 5;
#X obj 82 372 translateXYZ 0 0 0;
#X obj 175 481 translateXYZ 0 0 0;
#X floatatom 317 399 5 0 0 0 - - -, f 5;
#X obj 271 317 t f f f;
#X obj 279 19 inlet;
#X obj 142 57 inlet;
#X obj 175 457 color 0.5 0.5 0.5;
#X obj 175 507 rectangle 1 1;
#X obj 142 259 rectangle 1 1;
#X obj 435 215 rectangle 1 1;
#X obj 330 75 k_range 0 1 -1 1;
#X obj 317 374 k_range -1 1 -1 0;
#X obj 311 346 k_range -1 1 0 1;
#X obj 271 265 k_slider -1 1;
#X obj 45 594 text2d;
#X obj 44 548 translateXYZ 0 -1.2 0;
#X obj 164 592 loadbang;
#X msg 162 612 13;
#X obj 46 485 separator;
#X obj 37 522 color 0.5 0.5 0.5;
#X obj 279 50 route color vol tag;
#X obj 82 397 rectangle 1 0.01;
#X obj 435 192 alpha;
#X obj 435 170 colorRGB 0.15 0.16 0.15 0.5;
#X obj 49 717 text2d;
#X obj 168 715 loadbang;
#X obj 41 645 color 1 1 1;
#X obj 48 671 translateXYZ 0 0.4 0;
#X msg 228 664 text \$1;
#X msg 166 735 10;
#X obj 233 631 k_float 100;
#X connect 0 0 18 0;
#X connect 1 0 0 0;
#X connect 2 0 18 0;
#X connect 3 0 33 0;
#X connect 4 0 2 0;
#X connect 5 0 28 0;
#X connect 5 1 4 0;
#X connect 5 2 6 0;
#X connect 5 3 8 0;
#X connect 5 4 3 0;
#X connect 6 0 7 0;
#X connect 7 0 10 0;
#X connect 8 0 16 0;
#X connect 9 0 13 0;
#X connect 10 0 31 0;
#X connect 11 0 17 0;
#X connect 12 0 11 2;
#X connect 13 0 10 2;
#X connect 13 1 22 0;
#X connect 13 2 21 0;
#X connect 14 0 30 0;
#X connect 15 0 5 0;
#X connect 16 0 11 0;
#X connect 20 0 23 0;
#X connect 21 0 12 0;
#X connect 22 0 17 2;
#X connect 23 0 9 0;
#X connect 24 0 36 0;
#X connect 25 0 24 0;
#X connect 26 0 27 0;
#X connect 27 0 24 1;
#X connect 28 0 29 0;
#X connect 29 0 25 0;
#X connect 30 0 16 1;
#X connect 30 0 29 1;
#X connect 30 0 2 1;
#X connect 30 1 20 0;
#X connect 30 1 40 0;
#X connect 30 2 24 0;
#X connect 32 0 19 0;
#X connect 33 0 32 0;
#X connect 35 0 39 0;
#X connect 36 0 37 0;
#X connect 37 0 34 0;
#X connect 38 0 34 0;
#X connect 39 0 34 1;
#X connect 40 0 38 0;
