#N canvas 514 79 630 682 10;
#X obj 32 345 gemhead 200;
#X obj 52 293 r mouse;
#X obj 170 392 tgl 15 0 empty empty empty 17 7 0 10 -262144 -1 -1 1
1;
#X obj 131 425 spigot;
#X obj 191 385 r mouseLeft;
#X obj 131 456 spigot;
#X obj 191 408 tgl 15 0 empty empty empty 17 7 0 10 -262144 -1 -1 0
1;
#X floatatom 131 478 5 0 0 0 - - -, f 5;
#X obj 131 509 expr ($f1-$f2)*(1/$f3);
#X obj 223 479 unpack f f;
#X obj 131 531 expr ($f1+1)/2;
#X text 223 429 posY \, height;
#X obj 131 556 split 0.001 1.001;
#X msg 223 457 \$2 \$4;
#X obj 113 280 unpack f f f f;
#X obj 113 305 pack f f;
#X obj 180 305 pack f f;
#X obj 101 139 inlet;
#X obj 287 209 loadbang;
#X obj 287 231 t b b b;
#X obj 287 253 f \$1;
#X obj 324 253 f \$2;
#X obj 360 253 f \$3;
#X obj 287 278 pack f f f;
#X msg 287 302 color \$1 \$2 \$3;
#X obj 425 201 init \$4;
#X obj 425 223 symbol;
#X obj 425 256 makefilename %s;
#X obj 425 309 route list;
#X obj 425 287 list prepend tag text;
#X obj 101 214 list;
#X obj 101 161 t b a;
#X obj 101 191 bng 15 250 50 0 empty empty empty 17 7 0 10 -262144
-1 -1;
#X obj 393 178 bng 15 250 50 0 empty empty empty 17 7 0 10 -262144
-1 -1;
#X obj 113 258 t a a b;
#X obj 356 422 spigot;
#X obj 356 453 spigot;
#X floatatom 356 475 5 0 0 0 - - -, f 5;
#X obj 356 506 expr ($f1-$f2)*(1/$f3);
#X obj 448 476 unpack f f;
#X obj 356 528 expr ($f1+1)/2;
#X obj 356 553 split 0.001 1.001;
#X obj 356 367 unpack f f;
#X msg 448 454 \$1 \$3;
#X obj 356 583 pack f f;
#X msg 356 608 pos \$1 \$2;
#X obj 32 367 k_btn 0 0 1 1;
#X obj 484 574 loadbang;
#X msg 486 599 0.5 0.5;
#X obj 32 408 vj_grid;
#X connect 0 0 46 0;
#X connect 1 0 42 0;
#X connect 1 0 46 1;
#X connect 2 0 3 1;
#X connect 2 0 35 1;
#X connect 3 0 5 0;
#X connect 4 0 6 0;
#X connect 5 0 7 0;
#X connect 6 0 5 1;
#X connect 6 0 36 1;
#X connect 7 0 8 0;
#X connect 8 0 10 0;
#X connect 9 0 8 1;
#X connect 9 1 8 2;
#X connect 10 0 12 0;
#X connect 12 0 44 1;
#X connect 13 0 9 0;
#X connect 14 0 15 0;
#X connect 14 1 15 1;
#X connect 14 2 16 0;
#X connect 14 3 16 1;
#X connect 15 0 46 2;
#X connect 16 0 46 3;
#X connect 17 0 31 0;
#X connect 18 0 19 0;
#X connect 19 0 20 0;
#X connect 19 1 21 0;
#X connect 19 2 22 0;
#X connect 20 0 23 0;
#X connect 21 0 23 1;
#X connect 22 0 23 2;
#X connect 23 0 24 0;
#X connect 24 0 49 1;
#X connect 25 0 26 0;
#X connect 26 0 27 0;
#X connect 27 0 29 0;
#X connect 28 0 49 1;
#X connect 29 0 28 0;
#X connect 30 0 34 0;
#X connect 31 0 32 0;
#X connect 31 1 30 1;
#X connect 32 0 30 0;
#X connect 33 0 25 0;
#X connect 34 0 14 0;
#X connect 34 1 13 0;
#X connect 34 1 43 0;
#X connect 35 0 36 0;
#X connect 36 0 37 0;
#X connect 37 0 38 0;
#X connect 38 0 40 0;
#X connect 39 0 38 1;
#X connect 39 1 38 2;
#X connect 40 0 41 0;
#X connect 41 0 44 0;
#X connect 42 0 35 0;
#X connect 42 1 3 0;
#X connect 43 0 39 0;
#X connect 44 0 45 0;
#X connect 45 0 49 1;
#X connect 46 0 49 0;
#X connect 46 1 2 0;
#X connect 47 0 48 0;
#X connect 48 0 45 0;
