#N canvas 617 58 630 682 10;
#X obj 32 345 gemhead 200;
#X obj 52 293 r mouse;
#X obj 130 402 tgl 15 0 empty empty empty 17 7 0 10 -262144 -1 -1 0
1;
#X obj 191 385 r mouseLeft;
#X obj 131 456 spigot;
#X obj 191 408 tgl 15 0 empty empty empty 17 7 0 10 -262144 -1 -1 0
1;
#X floatatom 131 478 5 0 0 0 - - -, f 5;
#X obj 113 280 unpack f f f f;
#X obj 113 305 pack f f;
#X obj 180 305 pack f f;
#X obj 101 139 inlet;
#X obj 287 209 loadbang;
#X obj 287 231 t b b b;
#X obj 287 253 f \$1;
#X obj 324 253 f \$2;
#X obj 360 253 f \$3;
#X obj 287 278 pack f f f;
#X msg 287 302 color \$1 \$2 \$3;
#X obj 425 201 init \$4;
#X obj 425 223 symbol;
#X obj 425 256 makefilename %s;
#X obj 425 309 route list;
#X obj 425 287 list prepend tag text;
#X obj 101 214 list;
#X obj 101 161 t b a;
#X obj 101 191 bng 15 250 50 0 empty empty empty 17 7 0 10 -262144
-1 -1;
#X obj 393 178 bng 15 250 50 0 empty empty empty 17 7 0 10 -262144
-1 -1;
#X obj 113 258 t a a b;
#X obj 32 367 k_btn 0 0 1 1;
#X obj 32 408 vj_btn;
#X obj 240 188 bng 15 250 50 0 empty empty empty 17 7 0 10 -262144
-1 -1;
#X obj 131 500 sel 1;
#X obj 131 522 tgl 15 0 empty empty empty 17 7 0 10 -262144 -1 -1 0
1;
#X msg 131 555 state \$1;
#X connect 0 0 28 0;
#X connect 1 0 28 1;
#X connect 2 0 4 1;
#X connect 3 0 5 0;
#X connect 4 0 6 0;
#X connect 5 0 4 0;
#X connect 6 0 31 0;
#X connect 7 0 8 0;
#X connect 7 1 8 1;
#X connect 7 2 9 0;
#X connect 7 3 9 1;
#X connect 8 0 28 2;
#X connect 9 0 28 3;
#X connect 10 0 24 0;
#X connect 11 0 12 0;
#X connect 12 0 13 0;
#X connect 12 1 14 0;
#X connect 12 2 15 0;
#X connect 13 0 16 0;
#X connect 14 0 16 1;
#X connect 15 0 16 2;
#X connect 16 0 17 0;
#X connect 17 0 29 1;
#X connect 18 0 19 0;
#X connect 19 0 20 0;
#X connect 20 0 22 0;
#X connect 21 0 29 1;
#X connect 22 0 21 0;
#X connect 23 0 27 0;
#X connect 24 0 25 0;
#X connect 24 1 23 1;
#X connect 25 0 23 0;
#X connect 26 0 18 0;
#X connect 27 0 7 0;
#X connect 28 0 29 0;
#X connect 28 1 2 0;
#X connect 30 0 12 0;
#X connect 31 0 32 0;
#X connect 32 0 33 0;
#X connect 33 0 29 1;
