#N canvas 620 98 630 682 10;
#X obj 32 408 vj_slider;
#X msg 132 619 vol \$1;
#X obj 32 345 gemhead 200;
#X obj 52 293 r mouse;
#X obj 170 392 tgl 15 0 empty empty empty 17 7 0 10 -262144 -1 -1 0
1;
#X msg 131 400 \$2;
#X obj 131 425 spigot;
#X obj 191 385 r mouseLeft;
#X obj 131 456 spigot;
#X obj 191 408 tgl 15 0 empty empty empty 17 7 0 10 -262144 -1 -1 0
1;
#X floatatom 131 478 5 0 0 0 - - -, f 5;
#X obj 131 509 expr ($f1-$f2)*(1/$f3);
#X obj 223 479 unpack f f;
#X obj 131 531 expr ($f1+1)/2;
#X text 223 429 posY \, height;
#X obj 132 553 split 0.001 1.001;
#X msg 223 457 \$2 \$4;
#X obj 113 258 t a a;
#X obj 32 367 k_btn 0 0;
#X obj 113 280 unpack f f f f;
#X obj 113 305 pack f f;
#X obj 180 305 pack f f;
#X msg 132 575 \$1 100;
#X obj 132 597 line;
#X obj 113 228 inlet;
#X msg 51 529 0.5;
#X obj 51 506 loadbang;
#X obj 287 209 loadbang;
#X obj 287 231 t b b b;
#X obj 287 253 f \$1;
#X obj 324 253 f \$2;
#X obj 360 253 f \$3;
#X obj 287 278 pack f f f;
#X msg 287 302 color \$1 \$2 \$3;
#X obj 425 201 init \$4;
#X obj 425 223 symbol;
#X obj 425 256 makefilename %s;
#X obj 425 309 route list;
#X obj 425 287 list prepend tag text;
#X connect 1 0 0 1;
#X connect 2 0 18 0;
#X connect 3 0 5 0;
#X connect 3 0 18 1;
#X connect 4 0 6 1;
#X connect 5 0 6 0;
#X connect 6 0 8 0;
#X connect 7 0 9 0;
#X connect 8 0 10 0;
#X connect 9 0 8 1;
#X connect 10 0 11 0;
#X connect 11 0 13 0;
#X connect 12 0 11 1;
#X connect 12 1 11 2;
#X connect 13 0 15 0;
#X connect 15 0 22 0;
#X connect 16 0 12 0;
#X connect 17 0 19 0;
#X connect 17 1 16 0;
#X connect 18 0 0 0;
#X connect 18 1 4 0;
#X connect 19 0 20 0;
#X connect 19 1 20 1;
#X connect 19 2 21 0;
#X connect 19 3 21 1;
#X connect 20 0 18 2;
#X connect 21 0 18 3;
#X connect 22 0 23 0;
#X connect 23 0 1 0;
#X connect 24 0 17 0;
#X connect 25 0 22 0;
#X connect 26 0 25 0;
#X connect 27 0 28 0;
#X connect 28 0 29 0;
#X connect 28 1 30 0;
#X connect 28 2 31 0;
#X connect 29 0 32 0;
#X connect 30 0 32 1;
#X connect 31 0 32 2;
#X connect 32 0 33 0;
#X connect 33 0 0 1;
#X connect 34 0 35 0;
#X connect 35 0 36 0;
#X connect 36 0 38 0;
#X connect 37 0 0 1;
#X connect 38 0 37 0;
