#N canvas 544 93 1004 664 10;
#N canvas 535 249 597 526 motion 0;
#X obj 182 121 + 1;
#X obj 155 92 repeat 96;
#X obj 172 181 t f f f;
#X obj 317 125 t f f f;
#X obj 155 42 inlet;
#X obj 126 456 s \$0-in;
#X obj 125 344 pack f f;
#X obj 27 345 pack f f;
#X msg 26 369 posX obj_\$1 \$2;
#X msg 125 369 posY obj_\$1 \$2;
#X obj 155 66 metro 10;
#X obj 172 244 tabread pos_x-1;
#X obj 171 293 tabwrite pos_x-1;
#X obj 317 236 tabwrite pos_y-1;
#X obj 317 187 tabread pos_y-1;
#X obj 172 268 expr (($f2-$f1)*0.08)+$f1;
#X obj 317 211 expr (($f2-$f1)*0.08)+$f1;
#X obj 336 152 tabread pos_y;
#X obj 191 208 tabread pos_x;
#X obj 11 118 outlet;
#X obj 155 146 t f f f f;
#X obj 155 120 f 0;
#X obj 211 121 % 96;
#X obj 11 53 sel 1;
#X obj 28 259 t f f;
#X obj 11 79 delay 500;
#X connect 0 0 22 0;
#X connect 1 0 21 0;
#X connect 2 0 11 0;
#X connect 2 1 18 0;
#X connect 2 2 12 1;
#X connect 3 0 14 0;
#X connect 3 1 17 0;
#X connect 3 2 13 1;
#X connect 4 0 10 0;
#X connect 4 0 23 0;
#X connect 6 0 9 0;
#X connect 7 0 8 0;
#X connect 8 0 5 0;
#X connect 9 0 5 0;
#X connect 10 0 1 0;
#X connect 11 0 15 0;
#X connect 14 0 16 0;
#X connect 15 0 7 1;
#X connect 15 0 12 0;
#X connect 16 0 6 1;
#X connect 16 0 13 0;
#X connect 17 0 16 1;
#X connect 18 0 15 1;
#X connect 20 0 24 0;
#X connect 20 1 2 0;
#X connect 20 2 3 0;
#X connect 21 0 0 0;
#X connect 21 0 20 0;
#X connect 22 0 21 1;
#X connect 23 0 25 0;
#X connect 24 0 7 0;
#X connect 24 1 6 0;
#X connect 25 0 19 0;
#X restore 607 -21 pd motion;
#X obj 606 -64 tgl 30 0 empty empty empty 17 7 0 10 -99865 -1 -1 0
1;
#X obj 227 513 r \$0-out;
#N canvas 626 82 635 628 move-zero 0;
#X obj -92 -140 inlet;
#X floatatom -92 -90 5 0 0 0 - - -, f 5;
#X msg 121 344 posY obj_0 \$1;
#X msg 58 374 posX obj_0 \$1;
#X obj -92 -111 f 0;
#X obj -66 -111 + 1;
#X obj 58 328 line;
#X obj 57 200 t f b;
#X msg 85 296 55;
#X obj 121 321 line;
#X obj 120 193 t f b;
#X msg 148 290 55;
#X obj 226 183 inlet;
#X msg 226 288 set \$1;
#X floatatom -92 -46 5 0 0 0 - - -, f 5;
#X obj 271 146 loadbang;
#X text 129 91 1 45;
#X obj 231 47 inlet;
#X obj -15 226 tabread pos_y-1;
#X obj -45 165 tabread pos_x-1;
#X obj 231 71 sel 1;
#X msg -50 -139 0;
#X obj 192 109 onebang;
#X msg 192 131 0;
#X floatatom 226 239 5 0 0 0 - - -, f 5;
#X obj 26 60 t b f f b;
#X msg 271 169 200;
#X obj -61 561 packOSC;
#X obj -61 583 s net;
#X obj 11 501 pack f f f;
#X msg 11 561 send /go-pos \$1 \$2 \$3;
#X obj -39 -112 % 88;
#X obj 57 456 s \$0-in;
#X obj 226 209 - 5;
#X obj -92 -67 expr (abs($f1-44));
#X obj -136 198 tabread pos_y-1;
#X obj -170 226 tabread pos_x-1;
#X obj -170 174 t f f;
#X obj -188 255 translateXYZ;
#X obj -188 119 gemhead;
#X obj -153 8 pipe;
#X msg -136 57 1;
#X msg -213 48 0;
#X obj -188 327 alpha;
#X obj -138 307 loadbang;
#X msg -138 327 1;
#X obj -66 7 % 3;
#X obj -66 28 sel 0;
#X msg -66 49 1;
#X msg -40 75 0;
#X obj -95 74 spigot;
#X obj -93 -14 t f f f;
#X obj -102 119 loadbang;
#X msg -102 144 0;
#X obj -188 281 colorRGB 1 1 1 1;
#X obj -188 353 square 0.12;
#X obj 57 429 spigot;
#X obj 310 343 inlet;
#X obj -153 31 t b b f f;
#X obj -119 419 pack f f f;
#X msg -138 501 send /click \$1 \$2 \$3;
#X obj 208 432 loadbang;
#X obj 208 459 tgl 15 0 empty empty empty 17 7 0 10 -262144 -1 -1 1
1;
#X obj -213 26 del 30;
#X obj -138 470 list;
#X obj -188 89 tgl 15 0 empty empty empty 17 7 0 10 -262144 -1 -1 0
1;
#X obj -231 105 t f f;
#X obj -214 419 metro 200;
#X obj -43 415 print;
#X obj -56 284 expr int($f1*100)/100;
#X obj -15 258 expr int($f1*100)/100;
#X obj 27 527 nchange l;
#X connect 0 0 4 0;
#X connect 1 0 34 0;
#X connect 2 0 56 0;
#X connect 3 0 56 0;
#X connect 4 0 1 0;
#X connect 4 0 5 0;
#X connect 5 0 31 0;
#X connect 6 0 3 0;
#X connect 7 0 6 0;
#X connect 7 1 8 0;
#X connect 8 0 6 1;
#X connect 9 0 2 0;
#X connect 10 0 9 0;
#X connect 10 1 11 0;
#X connect 11 0 9 1;
#X connect 12 0 33 0;
#X connect 13 0 8 0;
#X connect 13 0 11 0;
#X connect 14 0 51 0;
#X connect 15 0 26 0;
#X connect 17 0 20 0;
#X connect 18 0 10 0;
#X connect 18 0 70 0;
#X connect 19 0 7 0;
#X connect 19 0 69 0;
#X connect 20 0 21 0;
#X connect 20 0 22 1;
#X connect 21 0 4 1;
#X connect 22 0 23 0;
#X connect 23 0 13 0;
#X connect 24 0 13 0;
#X connect 24 0 29 2;
#X connect 24 0 40 1;
#X connect 25 0 24 0;
#X connect 25 1 19 0;
#X connect 25 2 18 0;
#X connect 25 3 22 0;
#X connect 26 0 33 0;
#X connect 27 0 28 0;
#X connect 29 0 71 0;
#X connect 30 0 27 0;
#X connect 31 0 4 1;
#X connect 33 0 24 0;
#X connect 34 0 14 0;
#X connect 35 0 38 2;
#X connect 35 0 59 2;
#X connect 36 0 38 1;
#X connect 36 0 59 1;
#X connect 37 0 36 0;
#X connect 37 1 35 0;
#X connect 38 0 54 0;
#X connect 39 0 38 0;
#X connect 40 0 58 0;
#X connect 41 0 65 0;
#X connect 42 0 65 0;
#X connect 43 0 55 0;
#X connect 44 0 45 0;
#X connect 45 0 43 1;
#X connect 46 0 47 0;
#X connect 47 0 48 0;
#X connect 47 1 49 0;
#X connect 48 0 50 1;
#X connect 49 0 50 1;
#X connect 50 0 40 0;
#X connect 51 0 50 0;
#X connect 51 1 46 0;
#X connect 51 2 25 0;
#X connect 52 0 53 0;
#X connect 53 0 39 0;
#X connect 54 0 43 0;
#X connect 56 0 32 0;
#X connect 57 0 56 1;
#X connect 58 0 63 0;
#X connect 58 1 41 0;
#X connect 58 2 59 0;
#X connect 58 3 37 0;
#X connect 59 0 64 1;
#X connect 60 0 27 0;
#X connect 61 0 62 0;
#X connect 62 0 56 1;
#X connect 63 0 42 0;
#X connect 64 0 60 0;
#X connect 65 0 66 0;
#X connect 66 0 67 0;
#X connect 66 1 39 0;
#X connect 67 0 64 0;
#X connect 69 0 29 0;
#X connect 70 0 29 1;
#X connect 71 0 30 0;
#X restore 202 432 pd move-zero;
#X obj 263 260 tgl 30 0 empty empty empty 17 7 0 10 -99865 -1 -1 1
1;
#X obj 606 -109 r to-move;
#X obj 155 172 hsl 40 15 0.001 3 0 0 empty empty length 3 9 0 8 -228856
-1 -1 0 1;
#X floatatom 152 205 5 0 0 0 - - -, f 5;
#X msg 152 225 setL LINE \$1;
#X obj 430 102 + 1;
#X obj 405 58 bng 15 250 50 0 empty empty empty 17 7 0 10 -262144 -1
-1;
#X obj 106 172 hsl 40 15 -50 50 0 0 empty empty damping 0 9 0 8 -228856
-1 -1 0 1;
#X obj 491 100 t b f;
#X obj 405 149 pack f f;
#X floatatom 450 127 5 0 0 0 - - -, f 5;
#X text 440 25 1-46 fixed;
#X text 439 42 47 95 mobile;
#X obj 405 102 f 0;
#X msg 405 175 setDEnv obj_\$1 \$2;
#X obj 54 329 + 1;
#X obj 27 329 f 0;
#X obj 82 329 % 47;
#X obj 27 303 repeat 47;
#X obj 137 136 hradio 30 1 0 2 empty empty empty 0 -8 0 10 -262144
-1 -1 1;
#X obj -45 326 + 1;
#X obj -45 348 gate 2 1;
#X msg -45 396 setFixed obj_\$1;
#X msg 7 375 setMobile obj_\$1;
#X obj 152 252 s \$0-in;
#X obj -45 424 s \$0-in;
#X obj 405 198 s \$0-in;
#X msg 606 62 1;
#X obj 405 79 repeat 96;
#X obj 457 101 % 96;
#X msg 606 -87 1;
#X obj 263 217 r to-move;
#X msg 263 238 0;
#X floatatom 166 103 5 30 2000 0 - - -, f 5;
#X obj 202 399 metro 200;
#X obj 166 57 loadbang;
#X obj 27 283 bng 15 250 50 0 empty empty empty 17 7 0 10 -262144 -1
-1;
#X obj 27 258 t b f;
#X text 138 121 fix;
#X text 166 121 free;
#X obj 103 136 tgl 30 0 empty empty empty 17 7 0 10 -258699 -1 -262144
1 1;
#X obj 103 46 loadbang;
#X msg 103 70 0;
#X obj -29 254 packOSC;
#X obj -29 276 s net;
#X msg -29 228 send /go-vol \$1;
#X obj 5 -39 r hid;
#X obj 5 9 sel 1;
#N canvas 618 137 716 618 defult-set 1;
#X obj 83 50 repeat 96;
#X obj -12 205 bng 15 250 50 0 empty empty empty 17 7 0 10 -262144
-1 -1;
#X obj 138 74 % 96;
#X obj 253 447 s \$0-in;
#X msg 186 351 reset;
#X obj 153 244 tabread pos_y-1;
#X obj 134 263 tabread pos_x-1;
#X obj 83 96 t f f;
#X obj 110 74 + 1;
#X obj 5 310 t f f f;
#X obj 5 376 pack f f f;
#X obj 58 327 + 1;
#X obj -12 233 t b b b b;
#X obj 58 349 % 96;
#X obj 25 355 % 96;
#X obj 32 282 + 1;
#X obj 5 282 f 0;
#X obj 83 74 f 0;
#X obj 5 258 repeat 96;
#X obj 60 282 % 96;
#X obj 110 168 expr $f1+$f2+$f3;
#X obj 304 340 tabread pos_y-1;
#X obj 265 311 t f f f;
#X obj 265 387 pack f f f;
#X obj 293 364 tabread pos_x-1;
#X obj 110 289 pack f f f;
#X obj 110 216 t f f f;
#X msg 5 397 link LINE obj_\$2 obj_\$3 20 20;
#X msg 109 309 mass obj_\$1 0 200 \$2 \$3;
#X msg 266 410 mass obj_\$1 1 200 \$2 \$3;
#X obj 110 118 expr if($f1>=0 && $f1<47 \, 1 \, 0) \; if($f1>=47 &&
$f1<96 \, 2 \, 0) \;;
#X obj 110 193 gate 2 1;
#X obj 350 276 s \$0-out;
#X obj 350 232 r \$0-in;
#X obj 350 254 pmpd2d;
#X obj 352 201 s \$0-in;
#X msg 352 170 bang \, get massesPos \, get linksPos;
#X obj 352 140 gemhead;
#X obj -124 289 r W_H;
#X obj -124 313 expr ($f1/$f2)*4;
#X floatatom -124 338 5 0 0 0 - - -, f 5;
#X msg -12 430 Ymax 4 \, Ymin -4;
#X msg -129 477 Xmax \$1 \, Xmin \$2 \,;
#X obj -124 371 v xxx;
#X obj -59 350 t b b;
#X obj -124 394 t f f;
#X obj -100 421 * -1;
#X obj -129 454 pack f f;
#X obj -12 138 inlet;
#X obj -12 172 sel 1;
#X connect 0 0 17 0;
#X connect 1 0 12 0;
#X connect 2 0 17 1;
#X connect 4 0 3 0;
#X connect 5 0 25 2;
#X connect 6 0 25 1;
#X connect 7 0 31 1;
#X connect 7 1 30 0;
#X connect 8 0 2 0;
#X connect 9 0 10 0;
#X connect 9 1 14 0;
#X connect 9 2 11 0;
#X connect 10 0 27 0;
#X connect 11 0 13 0;
#X connect 12 0 44 0;
#X connect 12 1 18 0;
#X connect 12 2 0 0;
#X connect 12 3 4 0;
#X connect 13 0 10 2;
#X connect 14 0 10 1;
#X connect 15 0 19 0;
#X connect 16 0 15 0;
#X connect 16 0 9 0;
#X connect 17 0 8 0;
#X connect 17 0 7 0;
#X connect 18 0 16 0;
#X connect 19 0 16 1;
#X connect 20 0 31 0;
#X connect 21 0 23 2;
#X connect 22 0 23 0;
#X connect 22 1 24 0;
#X connect 22 2 21 0;
#X connect 23 0 29 0;
#X connect 24 0 23 1;
#X connect 25 0 28 0;
#X connect 26 0 25 0;
#X connect 26 1 6 0;
#X connect 26 2 5 0;
#X connect 27 0 3 0;
#X connect 28 0 3 0;
#X connect 29 0 3 0;
#X connect 30 0 20 0;
#X connect 30 1 20 1;
#X connect 31 0 26 0;
#X connect 31 1 22 0;
#X connect 33 0 34 0;
#X connect 34 0 32 0;
#X connect 36 0 35 0;
#X connect 37 0 36 0;
#X connect 38 0 39 0;
#X connect 39 0 40 0;
#X connect 40 0 43 0;
#X connect 41 0 3 0;
#X connect 42 0 3 0;
#X connect 43 0 45 0;
#X connect 44 0 43 0;
#X connect 44 1 41 0;
#X connect 45 0 47 0;
#X connect 45 1 46 0;
#X connect 46 0 47 1;
#X connect 47 0 42 0;
#X connect 48 0 49 0;
#X connect 49 0 1 0;
#X restore 202 455 pd defult-set;
#N canvas 564 280 187 266 array-save 0;
#X obj 18 131 table pos_x-1 100;
#X obj 18 158 table pos_y-1 100;
#X obj 22 55 table pos_y-2 100;
#X obj 22 28 table pos_x-2 100;
#X obj 19 214 table y 100;
#X obj 18 190 table x 100;
#X obj 18 80 table pos_x 100;
#X obj 18 105 table pos_y 100;
#X restore 202 478 pd array-save;
#N canvas 403 202 893 538 gem-render============== 0;
#X obj 127 -16 inlet;
#X obj 127 62 unpack f f f;
#X obj 183 90 gemhead;
#N canvas 467 95 501 497 color 0;
#X obj 205 75 inlet;
#X obj 203 246 unpack f f f;
#X obj 205 156 expr $f1+$f2+$f3;
#X obj 138 261 inlet;
#X obj 138 327 alpha;
#X msg 82 359 auto 1;
#X obj 82 332 loadbang;
#X obj 138 414 outlet;
#X obj 205 180 sel 1 2 3;
#X msg 212 223 0 0 1;
#X obj 205 99 expr if($f1==95 \, 1 \, 0) \; if($f1>=0 && $f1< 46 \,
2 \, 0) \; if($f1>=46 && $f1< 95 \, 3 \, 0) \;;
#X msg 254 202 0.5 0.5 0.5;
#X obj 182 327 tgl 15 0 empty empty empty 17 7 0 10 -262144 -1 -1 1
1;
#X obj 272 298 loadbang;
#X msg 203 202 1 1 0;
#X msg 274 326 draw line \, width 2;
#X obj 138 297 colorRGB 1 1 1 1;
#X obj 139 388 pix_texture;
#X obj 140 363 pix_image ../img/paint.png;
#X connect 0 0 10 0;
#X connect 2 0 8 0;
#X connect 3 0 16 0;
#X connect 4 0 18 0;
#X connect 5 0 4 0;
#X connect 6 0 5 0;
#X connect 6 0 12 0;
#X connect 8 0 14 0;
#X connect 8 1 9 0;
#X connect 8 2 11 0;
#X connect 9 0 1 0;
#X connect 10 0 2 0;
#X connect 10 1 2 1;
#X connect 10 2 2 2;
#X connect 11 0 1 0;
#X connect 12 0 4 1;
#X connect 13 0 15 0;
#X connect 14 0 1 0;
#X connect 16 0 4 0;
#X connect 17 0 7 0;
#X connect 18 0 17 0;
#X restore 183 334 pd color;
#X obj -50 408 packOSC;
#X msg -50 382 send /go \$1 \$2 \$3;
#X obj 183 150 t a b;
#X obj 183 203 separator;
#X obj 210 226 t f f f f;
#X obj 183 308 translateXYZ;
#X msg 210 180 95;
#X obj 127 93 t f f;
#X obj 171 -19 inlet;
#X obj 127 22 spigot;
#X obj 210 251 tabread pos_x-1;
#X obj 229 275 tabread pos_y-1;
#X obj 61 123 tabwrite pos_x-1;
#X obj 34 150 tabwrite pos_y-1;
#X obj -50 430 s net;
#X obj 183 118 spigot;
#X obj 281 -3 inlet;
#X obj 343 39 gemhead;
#X obj 343 224 GEMglEnd;
#X obj 363 469 GEMglVertex3f 0 0 0;
#X obj 419 285 f;
#X obj 450 285 + 1;
#X obj 480 285 % 96;
#X obj 418 335 tabread pos_x-1;
#X obj 445 358 tabread pos_y-1;
#X obj 419 306 t f f f;
#X obj 618 431 k_event 48 94;
#X obj 564 332 k_event 1 46;
#X obj 551 284 k_event 0 1;
#X obj 343 63 spigot;
#X obj 398 203 GEMglBegin;
#X obj 363 260 repeat 96;
#X obj 343 195 t a a a;
#X obj 468 155 loadbang;
#X obj 363 286 t a b;
#X obj 343 120 alpha;
#X msg 381 120 1;
#X obj 578 378 k_event 46 47;
#X obj 594 404 k_event 47 48;
#X msg 468 175 2;
#X obj 271 335 pack f f;
#X obj 270 367 s redball;
#X msg 594 481 1 0 0 0.5;
#X msg 553 429 1 0 0 0.5;
#X msg 564 353 0 0 1 0.5;
#X msg 551 307 0 0 0 0.5;
#X obj 363 438 GEMglColor4f 0 0 0 0.5;
#X obj 461 392 unpack f f f f;
#X msg 618 451 1 1 1 0.5;
#X obj 343 90 GEMglLineWidth 3;
#X obj 183 361 circle 0.1;
#X obj -101 138 spigot;
#X obj 54 17 tgl 15 0 empty empty empty 17 7 0 10 -262144 -1 -1 1 1
;
#X obj 0 -64 gemhead;
#X obj -1 -37 t b;
#X obj 57 -55 f;
#X obj 84 -54 + 1;
#X floatatom 55 -30 5 0 0 0 - - -, f 5;
#X obj 54 -5 == 0;
#X obj -101 189 route 4 12 20 28 36 44 52 60 68 76 84 94;
#X msg 114 215 94 \$1 \$2;
#X msg -106 241 4 \$1 \$2;
#X msg -90 217 12 \$1 \$2;
#X msg -66 287 20 \$1 \$2;
#X msg -50 263 28 \$1 \$2;
#X msg -26 238 36 \$1 \$2;
#X msg -10 214 44 \$1 \$2;
#X msg 7 302 52 \$1 \$2;
#X msg 23 278 60 \$1 \$2;
#X msg 50 346 68 \$1 \$2;
#X msg 81 261 76 \$1 \$2;
#X msg 98 239 84 \$1 \$2;
#X obj 113 -55 % 2;
#X connect 0 0 13 0;
#X connect 1 0 11 0;
#X connect 1 1 16 0;
#X connect 1 2 17 0;
#X connect 2 0 19 0;
#X connect 3 0 54 0;
#X connect 4 0 18 0;
#X connect 5 0 4 0;
#X connect 6 0 7 0;
#X connect 6 1 10 0;
#X connect 7 0 9 0;
#X connect 8 0 14 0;
#X connect 8 1 15 0;
#X connect 8 2 3 1;
#X connect 9 0 3 0;
#X connect 10 0 8 0;
#X connect 11 0 17 1;
#X connect 11 1 16 1;
#X connect 12 0 13 1;
#X connect 13 0 1 0;
#X connect 13 0 55 0;
#X connect 14 0 9 1;
#X connect 14 0 44 0;
#X connect 15 0 9 2;
#X connect 15 0 44 1;
#X connect 19 0 6 0;
#X connect 20 0 19 1;
#X connect 20 0 33 1;
#X connect 21 0 33 0;
#X connect 24 0 25 0;
#X connect 24 0 29 0;
#X connect 25 0 26 0;
#X connect 26 0 24 1;
#X connect 27 0 23 1;
#X connect 28 0 23 2;
#X connect 29 0 27 0;
#X connect 29 1 28 0;
#X connect 29 2 32 0;
#X connect 30 0 52 0;
#X connect 30 1 46 0;
#X connect 31 0 48 0;
#X connect 31 1 41 0;
#X connect 32 0 49 0;
#X connect 32 1 31 0;
#X connect 33 0 53 0;
#X connect 35 0 38 0;
#X connect 36 0 22 0;
#X connect 36 1 35 0;
#X connect 36 2 34 0;
#X connect 37 0 43 0;
#X connect 37 0 40 0;
#X connect 38 0 50 0;
#X connect 38 1 24 0;
#X connect 39 0 36 0;
#X connect 40 0 39 1;
#X connect 41 0 47 0;
#X connect 41 1 42 0;
#X connect 42 0 46 0;
#X connect 42 1 30 0;
#X connect 43 0 34 1;
#X connect 44 0 45 0;
#X connect 46 0 51 0;
#X connect 47 0 51 0;
#X connect 48 0 51 0;
#X connect 49 0 51 0;
#X connect 50 0 23 0;
#X connect 51 0 50 1;
#X connect 51 1 50 2;
#X connect 51 2 50 3;
#X connect 51 3 50 4;
#X connect 52 0 51 0;
#X connect 53 0 39 0;
#X connect 55 0 63 0;
#X connect 56 0 55 1;
#X connect 57 0 58 0;
#X connect 58 0 59 0;
#X connect 59 0 60 0;
#X connect 59 0 61 0;
#X connect 60 0 76 0;
#X connect 61 0 62 0;
#X connect 62 0 56 0;
#X connect 63 0 65 0;
#X connect 63 1 66 0;
#X connect 63 2 67 0;
#X connect 63 3 68 0;
#X connect 63 4 69 0;
#X connect 63 5 70 0;
#X connect 63 6 71 0;
#X connect 63 7 72 0;
#X connect 63 8 73 0;
#X connect 63 9 74 0;
#X connect 63 10 75 0;
#X connect 63 11 64 0;
#X connect 64 0 5 0;
#X connect 65 0 5 0;
#X connect 66 0 5 0;
#X connect 67 0 5 0;
#X connect 68 0 5 0;
#X connect 69 0 5 0;
#X connect 70 0 5 0;
#X connect 71 0 5 0;
#X connect 72 0 5 0;
#X connect 73 0 5 0;
#X connect 74 0 5 0;
#X connect 75 0 5 0;
#X connect 76 0 59 1;
#X restore 227 562 pd gem-render==============;
#X obj 5 29 tgl 15 0 empty empty empty 17 7 0 10 -262144 -1 -1 1 1
;
#X obj -46 144 pipe 1000;
#N canvas 163 267 744 523 random 0;
#X obj 148 28 sel 0 1;
#X obj 148 3 inlet;
#X obj 147 128 metro 10;
#X msg 148 84 1;
#X obj 148 109 tgl 15 0 empty empty empty 17 7 0 10 -262144 -1 -1 0
1;
#X obj 173 163 + 1;
#X obj 208 163 % 96;
#X obj 147 214 t b b f f f;
#X obj 263 217 sel 95;
#X msg 262 238 0;
#X msg 177 248 0;
#X msg 146 245 0;
#X floatatom 147 192 5 0 0 0 - - -, f 5;
#X obj 147 164 f 0;
#X obj 162 292 tabwrite pos_x-1;
#X obj 134 319 tabwrite pos_y-1;
#X obj 148 55 t b b;
#X obj 174 86 s to-move;
#X obj 165 371 tabwrite pos_y;
#X obj 193 344 tabwrite pos_x;
#X connect 0 0 16 0;
#X connect 1 0 0 0;
#X connect 2 0 13 0;
#X connect 3 0 4 0;
#X connect 4 0 2 0;
#X connect 5 0 6 0;
#X connect 6 0 13 1;
#X connect 7 0 11 0;
#X connect 7 1 10 0;
#X connect 7 2 15 1;
#X connect 7 2 18 1;
#X connect 7 3 14 1;
#X connect 7 3 19 1;
#X connect 7 4 8 0;
#X connect 8 0 9 0;
#X connect 9 0 4 0;
#X connect 10 0 14 0;
#X connect 10 0 19 0;
#X connect 11 0 15 0;
#X connect 11 0 18 0;
#X connect 12 0 7 0;
#X connect 13 0 5 0;
#X connect 13 0 12 0;
#X connect 16 0 3 0;
#X connect 16 1 17 0;
#X restore 32 94 pd random;
#X obj 227 539 route massesPos;
#N canvas 422 23 872 749 gem-shape========== 0;
#X obj 216 95 spigot;
#X obj 199 52 spigot;
#X obj 270 148 + 1;
#X msg 258 120 0;
#X obj 243 148 f 0;
#X obj 216 121 t f b;
#X obj 199 203 tabwrite x;
#X obj 235 228 tabwrite y;
#X obj 243 170 t f f f;
#X obj 297 81 sel 1 0;
#X obj 343 180 v \$0-array-size;
#X obj 316 152 t b b;
#X msg 343 203 \; x resize \$1 \; y resize \$1;
#X obj 297 106 t b b b;
#X obj -48 297 t a b;
#X obj -21 321 f;
#X obj 6 321 + 1;
#X obj -21 367 t f f;
#X obj -48 434 separator;
#X obj -48 458 translateXYZ 0 0 0;
#X obj 250 3 t f f f;
#X obj -286 290 f;
#X obj -259 290 + 1;
#X obj -286 388 t f f;
#X obj -286 412 tabread x;
#X obj -259 435 tabread y;
#X obj -259 479 expr $f1*-8+4;
#X obj -157 335 arraysize x;
#X obj -313 213 sel 0;
#X obj -313 560 s to-move;
#X obj -313 240 t b b;
#X obj -48 513 alpha;
#X obj -8 513 tgl 15 0 empty empty empty 17 7 0 10 -262144 -1 -1 1
1;
#X obj 12 514 loadbang;
#X obj -48 270 repeat 16;
#X obj 34 321 % 16;
#X obj -231 290 % 48;
#X obj -286 267 repeat 48;
#X obj -286 362 expr int($f1*($f2/48));
#X obj -21 344 * 3;
#X obj 279 -104 r hid;
#X obj 233 -53 spigot;
#X obj -48 220 tgl 15 0 empty empty empty 17 7 0 10 -262144 -1 -1 1
1;
#X obj 233 -29 t f f f f;
#X obj -55 80 inlet;
#X obj 83 197 gemhead;
#X obj 83 354 GEMglEnd;
#X obj 134 323 GEMglBegin;
#X obj 83 323 t a a a;
#X obj 102 575 GEMglVertex3f 0 0 0;
#X obj 102 411 t a b;
#X obj 129 434 f;
#X obj 160 434 + 1;
#X obj 231 268 loadbang;
#X msg 231 291 3;
#X obj 83 291 t a b;
#X obj 129 455 t f f;
#X obj 129 479 tabread x;
#X obj 156 502 tabread y;
#X obj 156 546 expr $f1*-8+4;
#X obj 83 270 colorRGB 1 1 0 0.7;
#X msg 360 66 \; x const 0.5 \; y const 0.5;
#X floatatom 147 352 5 0 0 0 - - -, f 5;
#X obj 102 378 repeat 0;
#X obj 190 434 % 0;
#X obj 83 231 GEMglLineWidth 2;
#X msg 363 123 \; x resize 1000 \; y resize 1000;
#X obj -286 317 t f b f f;
#X obj -169 389 r W_H;
#X obj -169 413 expr ($f1/$f2)*4;
#X floatatom -169 434 5 0 0 0 - - -, f 5;
#X obj -286 457 expr $f1*($f2*2)-$f2;
#X obj 245 446 r W_H;
#X obj 245 470 expr ($f1/$f2)*4;
#X floatatom 245 491 5 0 0 0 - - -, f 5;
#X obj 129 524 expr $f1*($f2*2)-$f2;
#X obj 216 73 r MouseY;
#X obj 199 26 r MouseX;
#X obj 233 -130 r mouse_left;
#X obj -48 243 gemhead 300;
#X obj -167 489 loadbang;
#X obj -286 511 tabwrite pos_x;
#X obj -259 538 tabwrite pos_y;
#X obj -21 391 tabread pos_x-1;
#X obj 6 414 tabread pos_y-1;
#X obj -48 554 square 0.12;
#X obj -55 107 t f f f;
#X obj -5 168 line;
#X obj -67 139 sel 0 1;
#X msg -68 184 0;
#X msg -38 186 1;
#X msg -167 512 draw line \, width 2;
#X obj -48 486 colorRGB 0 0 1 0.8;
#X obj 71 458 * 0.8;
#X obj 279 -80 route key_27;
#X obj 66 107 loadbang;
#X msg 65 132 0;
#X obj 7 8 packOSC;
#X obj 7 30 s net;
#X floatatom 35 197 5 0 0 0 - - -, f 5;
#X obj -67 162 del 400;
#X msg -8 145 \$1 400;
#X msg 7 -20 send /seq \$1;
#X connect 0 0 5 0;
#X connect 1 0 6 0;
#X connect 2 0 4 1;
#X connect 3 0 4 1;
#X connect 4 0 2 0;
#X connect 4 0 8 0;
#X connect 4 0 62 0;
#X connect 5 0 7 0;
#X connect 5 1 4 0;
#X connect 8 0 6 1;
#X connect 8 1 7 1;
#X connect 8 2 10 0;
#X connect 9 0 13 0;
#X connect 9 1 11 0;
#X connect 10 0 12 0;
#X connect 11 1 10 0;
#X connect 13 0 3 0;
#X connect 13 1 61 0;
#X connect 13 2 66 0;
#X connect 14 0 18 0;
#X connect 14 1 15 0;
#X connect 15 0 16 0;
#X connect 15 0 39 0;
#X connect 16 0 35 0;
#X connect 17 0 83 0;
#X connect 17 1 84 0;
#X connect 18 0 19 0;
#X connect 19 0 92 0;
#X connect 20 0 1 1;
#X connect 20 1 0 1;
#X connect 20 2 9 0;
#X connect 21 0 22 0;
#X connect 21 0 67 0;
#X connect 22 0 36 0;
#X connect 23 0 24 0;
#X connect 23 1 25 0;
#X connect 24 0 71 0;
#X connect 25 0 26 0;
#X connect 26 0 82 0;
#X connect 27 0 38 1;
#X connect 28 0 30 0;
#X connect 30 0 29 0;
#X connect 30 1 37 0;
#X connect 31 0 85 0;
#X connect 32 0 31 1;
#X connect 33 0 32 0;
#X connect 34 0 14 0;
#X connect 35 0 15 1;
#X connect 36 0 21 1;
#X connect 37 0 21 0;
#X connect 38 0 23 0;
#X connect 39 0 17 0;
#X connect 40 0 94 0;
#X connect 41 0 43 0;
#X connect 42 0 79 0;
#X connect 43 0 28 0;
#X connect 43 1 20 0;
#X connect 43 2 45 0;
#X connect 44 0 86 0;
#X connect 45 0 65 0;
#X connect 48 0 46 0;
#X connect 48 1 63 0;
#X connect 48 2 47 0;
#X connect 50 0 49 0;
#X connect 50 1 51 0;
#X connect 51 0 52 0;
#X connect 51 0 56 0;
#X connect 52 0 64 0;
#X connect 53 0 54 0;
#X connect 54 0 47 1;
#X connect 55 0 48 0;
#X connect 56 0 57 0;
#X connect 56 1 58 0;
#X connect 57 0 75 0;
#X connect 58 0 59 0;
#X connect 59 0 49 2;
#X connect 60 0 55 0;
#X connect 62 0 63 1;
#X connect 62 0 64 1;
#X connect 63 0 50 0;
#X connect 64 0 51 1;
#X connect 65 0 60 0;
#X connect 67 0 38 0;
#X connect 67 1 27 0;
#X connect 67 2 81 1;
#X connect 67 3 82 1;
#X connect 68 0 69 0;
#X connect 69 0 70 0;
#X connect 70 0 71 1;
#X connect 71 0 81 0;
#X connect 72 0 73 0;
#X connect 73 0 74 0;
#X connect 74 0 75 1;
#X connect 75 0 49 1;
#X connect 76 0 0 0;
#X connect 77 0 1 0;
#X connect 78 0 41 0;
#X connect 79 0 34 0;
#X connect 80 0 91 0;
#X connect 83 0 19 1;
#X connect 84 0 19 2;
#X connect 86 1 88 0;
#X connect 86 2 101 0;
#X connect 87 0 93 0;
#X connect 87 0 99 0;
#X connect 88 0 100 0;
#X connect 88 1 90 0;
#X connect 89 0 42 0;
#X connect 90 0 42 0;
#X connect 91 0 85 0;
#X connect 92 0 31 0;
#X connect 93 0 92 4;
#X connect 94 0 41 1;
#X connect 95 0 96 0;
#X connect 96 0 42 0;
#X connect 97 0 98 0;
#X connect 99 0 102 0;
#X connect 100 0 89 0;
#X connect 101 0 87 0;
#X connect 102 0 97 0;
#X restore 314 366 pd gem-shape==========;
#X msg 633 42 0;
#X obj 606 16 t b b;
#X obj 263 343 t f f f f;
#X obj 263 313 * 0;
#X obj 5 48 t f f f;
#X msg 177 15 color \$1;
#X obj 179 -38 sel 0 1;
#X msg 209 -11 13;
#X msg 179 -11 10;
#X msg -26 94 1;
#X msg -46 112 0;
#X floatatom -46 171 5 0 0 0 - - -, f 5;
#X obj -46 70 sel 0 1;
#X obj 50 205 v show-deformed;
#X floatatom 104 256 5 0 0 0 - - -, f 5;
#X obj 104 285 s damping;
#X obj 564 354 r hid;
#X obj 467 269 k_spring 1;
#X obj 536 269 k_spring 1;
#X floatatom 468 292 5 0 0 0 - - -, f 5;
#X floatatom 536 292 5 0 0 0 - - -, f 5;
#X obj 575 173 random 5;
#X obj 575 143 loadbang;
#X obj 575 197 + 5;
#X obj 555 151 bng 15 250 50 0 empty empty empty 17 7 0 10 -262144
-1 -1;
#N canvas 627 277 468 521 damping 0;
#X obj 105 105 -;
#X obj 106 183 t b f;
#X floatatom 105 302 5 0 0 0 - - -, f 5;
#X obj 158 32 -;
#X obj 184 99 t b f;
#X obj 140 213 + 0;
#X obj 105 327 expr int($f1*100)/100;
#X obj 105 28 inlet x;
#X obj 151 -40 inlet y;
#X obj 203 261 moses 1;
#X msg 242 286 1;
#X obj 104 150 sel 0;
#X obj 158 75 sel 0;
#X obj 140 239 moses 0;
#X msg 140 259 0;
#X obj 30 137 loadbang;
#X obj 105 356 * 50;
#X obj 105 422 outlet;
#X obj 156 -17 t f f;
#X obj 105 77 t f f;
#X obj 105 213 f 0;
#X floatatom 168 180 5 0 0 0 - - -, f 5;
#X obj 104 127 expr if(abs($f1)>0.1 \, 0.01 \, 0);
#X obj 157 54 expr if(abs($f1)>0.05 \, -0.01 \, 0);
#X obj 105 385 - 25;
#X msg 30 159 0.49;
#X connect 0 0 22 0;
#X connect 1 0 20 0;
#X connect 1 1 21 0;
#X connect 2 0 6 0;
#X connect 3 0 23 0;
#X connect 4 0 20 0;
#X connect 4 1 21 0;
#X connect 5 0 13 0;
#X connect 6 0 16 0;
#X connect 7 0 19 0;
#X connect 8 0 18 0;
#X connect 9 0 20 1;
#X connect 9 1 10 0;
#X connect 10 0 2 0;
#X connect 11 1 1 0;
#X connect 12 1 4 0;
#X connect 13 0 14 0;
#X connect 13 1 9 0;
#X connect 14 0 2 0;
#X connect 15 0 25 0;
#X connect 16 0 24 0;
#X connect 18 0 3 1;
#X connect 18 1 3 0;
#X connect 19 0 0 1;
#X connect 19 1 0 0;
#X connect 20 0 2 0;
#X connect 20 0 5 0;
#X connect 21 0 5 1;
#X connect 22 0 11 0;
#X connect 23 0 12 0;
#X connect 24 0 17 0;
#X connect 25 0 20 0;
#X restore 647 307 pd damping;
#N canvas 789 212 468 521 vel 0;
#X obj 105 77 t f f;
#X obj 105 105 -;
#X obj 106 183 t b f;
#X floatatom 105 302 5 0 0 0 - - -, f 5;
#X obj 157 -17 t f f;
#X obj 158 32 -;
#X obj 184 99 t b f;
#X obj 140 213 + 0;
#X obj 105 327 expr int($f1*100)/100;
#X obj 105 28 inlet x;
#X obj 151 -40 inlet y;
#X obj 203 261 moses 1;
#X msg 242 286 1;
#X obj 104 150 sel 0;
#X obj 158 75 sel 0;
#X obj 140 239 moses 0;
#X msg 140 259 0;
#X obj 105 213 f 0;
#X obj 30 137 loadbang;
#X msg 30 159 0;
#X obj 105 351 * 3;
#X obj 105 422 outlet;
#X obj 104 127 expr if(abs($f1)>0.1 \, 0.01 \, 0);
#X obj 158 56 expr if(abs($f1)>0.05 \, -0.01 \, 0);
#X connect 0 0 1 1;
#X connect 0 1 1 0;
#X connect 1 0 22 0;
#X connect 2 0 17 0;
#X connect 2 1 7 1;
#X connect 3 0 8 0;
#X connect 4 0 5 1;
#X connect 4 1 5 0;
#X connect 5 0 23 0;
#X connect 6 0 17 0;
#X connect 6 1 7 1;
#X connect 7 0 15 0;
#X connect 8 0 20 0;
#X connect 9 0 0 0;
#X connect 10 0 4 0;
#X connect 11 0 17 1;
#X connect 11 1 12 0;
#X connect 12 0 3 0;
#X connect 13 1 2 0;
#X connect 14 1 6 0;
#X connect 15 0 16 0;
#X connect 15 1 11 0;
#X connect 16 0 3 0;
#X connect 17 0 3 0;
#X connect 17 0 7 0;
#X connect 18 0 19 0;
#X connect 19 0 17 0;
#X connect 20 0 21 0;
#X connect 22 0 13 0;
#X connect 23 0 14 0;
#X restore 738 307 pd vel;
#X floatatom 738 333 5 0 0 0 - - -, f 5;
#X floatatom 647 331 5 0 0 0 - - -, f 5;
#X msg 536 314 posY obj_0 \$1;
#X msg 469 341 posX obj_0 \$1;
#X obj 469 398 s \$0-in;
#X obj 486 204 r mouse_pos;
#X obj 486 228 unpack f f;
#X floatatom 564 420 5 0 0 0 - - -, f 5;
#X obj 469 370 spigot;
#X obj 766 261 * 0;
#X obj 687 261 * 0;
#X obj 739 261 * 0;
#X obj 642 262 * 0;
#X obj 619 404 t b f f;
#X obj 203 202 s length;
#X obj 564 446 expr if($f1+$f2>=1 \, 0 \, 1);
#X obj 564 378 route key_9 key_10 key_33;
#X obj 640 481 invert;
#X obj 55 8 sel 1;
#X obj 55 28 tgl 15 0 empty empty empty 17 7 0 10 -262144 -1 -1 1 1
;
#X obj 226 112 sel 0 1;
#X msg 225 134 200;
#X msg 254 157 \$1 1000;
#X obj 257 176 line;
#X obj 124 416 / 3;
#X msg 85 523 send /go-len \$1;
#X msg 130 75 0;
#X obj 22 175 s bg;
#X msg 166 80 250;
#X msg 260 130 60;
#X obj 5 -15 route key_21 key_16;
#X obj 85 449 metro 100;
#X obj 84 474 f;
#X obj 85 425 r bg;
#X obj 85 502 change;
#X obj 306 -96 ctlin;
#X floatatom 317 -69 5 0 0 0 - - -, f 5;
#X floatatom 354 -69 5 0 0 0 - - -, f 5;
#X floatatom 280 -65 5 0 0 0 - - -, f 5;
#X obj 297 -38 pack f f;
#X msg 297 -13 \$2 \$1;
#X floatatom 291 38 5 0 0 0 - - -, f 5;
#X obj 288 66 / 127;
#X obj 297 10 route 39 55;
#X floatatom 339 39 5 0 0 0 - - -, f 5;
#X obj 336 67 / 127;
#X connect 0 0 61 0;
#X connect 1 0 0 0;
#X connect 2 0 58 0;
#X connect 4 0 63 0;
#X connect 5 0 34 0;
#X connect 6 0 7 0;
#X connect 6 0 101 0;
#X connect 6 0 111 0;
#X connect 7 0 8 0;
#X connect 8 0 28 0;
#X connect 9 0 33 0;
#X connect 10 0 32 0;
#X connect 11 0 12 0;
#X connect 11 0 74 0;
#X connect 12 0 10 0;
#X connect 12 1 14 0;
#X connect 13 0 18 0;
#X connect 14 0 13 1;
#X connect 17 0 9 0;
#X connect 17 0 13 0;
#X connect 18 0 30 0;
#X connect 19 0 21 0;
#X connect 20 0 19 0;
#X connect 20 0 25 1;
#X connect 21 0 20 1;
#X connect 22 0 20 0;
#X connect 23 0 41 0;
#X connect 23 0 107 0;
#X connect 24 0 25 0;
#X connect 25 0 26 0;
#X connect 25 1 27 0;
#X connect 26 0 29 0;
#X connect 27 0 29 0;
#X connect 31 0 4 0;
#X connect 32 0 17 0;
#X connect 33 0 17 1;
#X connect 34 0 1 0;
#X connect 35 0 36 0;
#X connect 36 0 4 0;
#X connect 37 0 3 1;
#X connect 37 0 38 1;
#X connect 38 0 3 0;
#X connect 39 0 115 0;
#X connect 40 0 22 0;
#X connect 41 0 40 0;
#X connect 41 1 24 0;
#X connect 44 0 54 2;
#X connect 44 0 49 0;
#X connect 44 0 52 0;
#X connect 44 0 73 0;
#X connect 44 0 114 0;
#X connect 45 0 46 0;
#X connect 45 0 113 0;
#X connect 46 0 44 0;
#X connect 46 0 66 0;
#X connect 47 0 48 0;
#X connect 49 0 47 0;
#X connect 50 0 117 0;
#X connect 51 0 55 0;
#X connect 55 0 64 0;
#X connect 56 0 71 0;
#X connect 58 0 54 0;
#X connect 60 0 1 0;
#X connect 61 0 31 0;
#X connect 61 1 60 0;
#X connect 62 0 38 0;
#X connect 62 1 3 2;
#X connect 62 2 54 1;
#X connect 62 3 59 0;
#X connect 63 0 62 0;
#X connect 64 0 72 0;
#X connect 64 1 57 0;
#X connect 64 2 63 1;
#X connect 65 0 44 0;
#X connect 66 0 68 0;
#X connect 66 1 67 0;
#X connect 67 0 65 0;
#X connect 68 0 65 0;
#X connect 69 0 71 0;
#X connect 70 0 56 0;
#X connect 71 0 66 0;
#X connect 71 0 44 0;
#X connect 72 0 70 0;
#X connect 72 1 69 0;
#X connect 74 0 75 0;
#X connect 76 0 103 0;
#X connect 77 0 79 0;
#X connect 78 0 80 0;
#X connect 79 0 90 0;
#X connect 79 0 99 0;
#X connect 79 0 98 0;
#X connect 80 0 89 0;
#X connect 80 0 97 0;
#X connect 80 0 96 0;
#X connect 81 0 83 0;
#X connect 82 0 81 0;
#X connect 83 0 77 1;
#X connect 83 0 78 1;
#X connect 84 0 81 0;
#X connect 85 0 88 0;
#X connect 86 0 87 0;
#X connect 87 0 6 0;
#X connect 88 0 11 0;
#X connect 89 0 95 0;
#X connect 90 0 95 0;
#X connect 92 0 93 0;
#X connect 93 0 77 0;
#X connect 93 1 78 0;
#X connect 94 0 102 0;
#X connect 95 0 91 0;
#X connect 96 0 86 1;
#X connect 97 0 85 1;
#X connect 98 0 86 0;
#X connect 99 0 85 0;
#X connect 100 0 94 0;
#X connect 100 1 102 1;
#X connect 100 2 98 1;
#X connect 100 2 96 1;
#X connect 102 0 3 3;
#X connect 103 0 94 0;
#X connect 103 0 99 1;
#X connect 103 0 97 1;
#X connect 103 1 100 0;
#X connect 103 2 95 1;
#X connect 103 2 104 0;
#X connect 104 0 3 3;
#X connect 105 0 106 0;
#X connect 106 0 23 0;
#X connect 107 0 108 0;
#X connect 107 1 116 0;
#X connect 108 0 109 0;
#X connect 109 0 110 0;
#X connect 110 0 37 0;
#X connect 111 0 119 1;
#X connect 112 0 47 0;
#X connect 113 0 23 0;
#X connect 113 0 106 0;
#X connect 115 0 37 0;
#X connect 116 0 109 0;
#X connect 117 0 51 0;
#X connect 117 1 105 0;
#X connect 118 0 119 0;
#X connect 119 0 121 0;
#X connect 120 0 118 0;
#X connect 121 0 112 0;
#X connect 122 0 125 0;
#X connect 122 1 123 0;
#X connect 122 2 124 0;
#X connect 123 0 126 1;
#X connect 125 0 126 0;
#X connect 126 0 127 0;
#X connect 127 0 130 0;
#X connect 128 0 129 0;
#X connect 129 0 44 0;
#X connect 130 0 128 0;
#X connect 130 1 131 0;
#X connect 131 0 132 0;
#X connect 132 0 23 0;
#X coords 0 -1 1 1 100 90 1 100 100;
