#N canvas 802 107 638 613 10;
#X obj 195 -65 r W_H;
#X floatatom 42 32 5 0 0 0 - - -;
#X obj 42 7 expr ($f1 /16)*($f2*2)-$f2;
#X obj 42 55 +;
#X obj 222 13 / 16;
#X obj 42 -88 tgl 15 0 empty empty empty 17 7 0 10 -262144 -1 -1 1
1;
#X obj 42 -60 metro 500;
#X obj 42 -27 f;
#X obj 69 -27 + 1;
#X obj 98 -28 % 16;
#X obj -144 46 gemhead;
#X obj 1 233 alpha;
#X obj 42 -115 loadbang;
#X obj 42 105 line;
#X obj -69 38 s timeTarget;
#X obj 1 181 translateXYZ 0 -3.8 0;
#X obj 195 -43 expr ($f1/$f2)*2;
#X obj 1 419 square 0.2;
#X msg 42 80 \$1 100;
#X obj 195 -17 t f f;
#X obj 90 54 r blend;
#X obj 180 88 t f f;
#X obj 180 61 expr ($f1/16)*2*3.14159;
#X floatatom 90 102 5 0 0 0 - - -;
#X obj 42 129 spigot;
#X obj 90 76 expr 1-$f1;
#X obj -144 71 t a b b b b;
#X obj -44 73 f -3.8;
#X floatatom -44 95 5 0 0 0 - - -;
#X obj -44 120 spigot;
#X obj 275 184 r blend;
#X obj 180 213 line;
#X obj 229 212 line;
#X obj 180 240 spigot;
#X obj 229 240 spigot;
#X obj 118 283 r blend;
#X obj 88 231 / 16;
#X obj 88 258 * -360;
#X obj 1 359 rotateXYZ 0 0 0;
#X obj 88 285 * 1;
#X obj 88 331 line;
#X obj 275 209 > 0.1;
#X obj 90 128 > 0.1;
#X obj -196 -59 r blend;
#X obj -196 -30 sel 0 1;
#X msg -195 -6 1;
#X msg -162 -8 0;
#X obj -112 -40 r drawrect;
#X obj -144 20 *;
#X obj 1 206 colorRGB 1 1 0 1;
#X obj 1 391 scaleXYZ 1 0.1 1;
#X obj 207 133 expr cos($f1)*2.7;
#X obj 180 110 expr sin($f1)*2.7;
#X msg 180 188 \$1 200;
#X msg 229 187 \$1 200;
#X obj -113 -18 t b f;
#X msg 88 305 \$1 50;
#X obj -69 12 pipe 100;
#X connect 0 0 16 0;
#X connect 1 0 3 0;
#X connect 2 0 1 0;
#X connect 3 0 18 0;
#X connect 4 0 3 1;
#X connect 5 0 6 0;
#X connect 6 0 7 0;
#X connect 7 0 8 0;
#X connect 7 0 2 0;
#X connect 7 0 22 0;
#X connect 7 0 36 0;
#X connect 7 0 57 0;
#X connect 8 0 9 0;
#X connect 9 0 7 1;
#X connect 10 0 26 0;
#X connect 11 0 38 0;
#X connect 12 0 5 0;
#X connect 13 0 24 0;
#X connect 15 0 49 0;
#X connect 16 0 19 0;
#X connect 18 0 13 0;
#X connect 19 0 2 1;
#X connect 19 1 4 0;
#X connect 20 0 25 0;
#X connect 21 0 52 0;
#X connect 21 1 51 0;
#X connect 22 0 21 0;
#X connect 23 0 42 0;
#X connect 24 0 15 1;
#X connect 25 0 23 0;
#X connect 26 0 15 0;
#X connect 26 4 27 0;
#X connect 27 0 28 0;
#X connect 28 0 29 0;
#X connect 29 0 15 2;
#X connect 30 0 41 0;
#X connect 31 0 33 0;
#X connect 32 0 34 0;
#X connect 33 0 15 1;
#X connect 34 0 15 2;
#X connect 35 0 39 1;
#X connect 36 0 37 0;
#X connect 37 0 39 0;
#X connect 38 0 50 0;
#X connect 39 0 56 0;
#X connect 40 0 38 3;
#X connect 41 0 33 1;
#X connect 41 0 34 1;
#X connect 42 0 24 1;
#X connect 42 0 29 1;
#X connect 43 0 44 0;
#X connect 44 0 45 0;
#X connect 44 1 45 0;
#X connect 44 2 46 0;
#X connect 45 0 48 0;
#X connect 46 0 48 0;
#X connect 47 0 55 0;
#X connect 48 0 10 0;
#X connect 49 0 11 0;
#X connect 50 0 17 0;
#X connect 51 0 54 0;
#X connect 52 0 53 0;
#X connect 53 0 31 0;
#X connect 54 0 32 0;
#X connect 55 0 48 0;
#X connect 55 1 48 1;
#X connect 56 0 40 0;
#X connect 57 0 14 0;
