#N canvas 659 265 468 412 10;
#X obj 113 17 gemhead;
#X obj 274 36 gemhead;
#X obj 113 -13 r drawrect;
#X obj 274 138 translateXYZ 0 -3.5 0;
#X obj 113 106 translateXYZ 0 -3.5 0;
#X obj 114 233 rotateXYZ 0 0 0;
#X obj 201 207 * 0;
#X obj 216 153 r blend;
#X obj 169 184 / 16;
#N canvas 180 136 450 300 draw 0;
#X obj 152 175 scaleXYZ 1 1 1;
#X obj 152 134 alpha;
#X obj 203 123 loadbang;
#X obj 202 146 tgl 15 0 empty empty empty 17 7 0 10 -262144 -1 -1 0
1;
#X obj 152 95 colorRGB 1 1 1 0.3;
#X obj 152 203 square 0.2;
#X obj 152 56 inlet;
#X connect 0 0 5 0;
#X connect 1 0 0 0;
#X connect 2 0 3 0;
#X connect 3 0 1 1;
#X connect 4 0 1 0;
#X connect 6 0 4 0;
#X restore 114 255 pd draw;
#N canvas 0 22 450 300 draw 1;
#X obj 148 130 alpha;
#X obj 148 91 colorRGB 1 1 1 1;
#X obj 148 205 square 0.2;
#X obj 148 61 inlet;
#X obj 148 177 scaleXYZ 1 0.1 1;
#X connect 0 0 4 0;
#X connect 1 0 0 0;
#X connect 3 0 1 0;
#X connect 4 0 2 0;
#X restore 274 265 pd draw;
#X obj 274 240 rotateXYZ 0 0 0;
#X obj 324 218 * 0;
#X obj 324 175 / 16;
#X obj 137 184 f \$1;
#X obj 324 198 * -360;
#X obj 201 184 * -360;
#N canvas 224 120 442 457 pos== 0;
#X obj 257 77 r W_H;
#X floatatom 104 173 5 0 0 0 - - -;
#X obj 104 123 f \$1;
#X obj 104 149 expr ($f1 /16)*($f2*2)-$f2;
#X obj 104 197 +;
#X obj 284 149 / 16;
#X obj 257 99 expr ($f1/$f2)*2;
#X obj 257 122 t f f;
#X obj 104 221 *;
#X obj 137 222 expr 1-$f1;
#X obj 137 197 r blend;
#X obj 209 243 t f f;
#X obj 209 307 * 0;
#X obj 236 316 * 0;
#X obj 209 216 expr ($f1/16)*2*3.14159;
#X obj 209 191 f \$1;
#X obj 263 316 r blend;
#X obj 104 363 +;
#X obj 153 291 f -3.5;
#X obj 153 316 *;
#X obj 153 362 +;
#X obj 209 265 expr sin($f1)*3;
#X obj 236 288 expr cos($f1)*3;
#X obj 104 39 t b b b;
#X obj 104 12 inlet;
#X obj 104 392 outlet;
#X obj 153 393 outlet;
#X connect 0 0 6 0;
#X connect 1 0 4 0;
#X connect 2 0 3 0;
#X connect 3 0 1 0;
#X connect 4 0 8 0;
#X connect 5 0 4 1;
#X connect 6 0 7 0;
#X connect 7 0 3 1;
#X connect 7 1 5 0;
#X connect 8 0 17 0;
#X connect 9 0 8 1;
#X connect 9 0 19 1;
#X connect 10 0 9 0;
#X connect 11 0 21 0;
#X connect 11 1 22 0;
#X connect 12 0 17 1;
#X connect 13 0 20 1;
#X connect 14 0 11 0;
#X connect 15 0 14 0;
#X connect 16 0 12 1;
#X connect 16 0 13 1;
#X connect 17 0 25 0;
#X connect 18 0 19 0;
#X connect 19 0 20 0;
#X connect 20 0 26 0;
#X connect 21 0 12 0;
#X connect 22 0 13 0;
#X connect 23 0 2 0;
#X connect 23 1 18 0;
#X connect 23 2 15 0;
#X connect 24 0 23 0;
#X restore 154 74 pd pos==;
#X obj 113 46 t a b b;
#X obj 274 59 t a b b;
#N canvas 589 153 808 604 pos== 0;
#X obj 257 77 r W_H;
#X floatatom 104 173 5 0 0 0 - - -;
#X obj 104 123 f \$1;
#X obj 104 149 expr ($f1 /16)*($f2*2)-$f2;
#X obj 104 197 +;
#X obj 284 149 / 16;
#X obj 257 99 expr ($f1/$f2)*2;
#X obj 257 122 t f f;
#X obj 104 221 *;
#X obj 137 222 expr 1-$f1;
#X obj 137 197 r blend;
#X obj 209 243 t f f;
#X obj 209 307 * 0;
#X obj 236 316 * 0;
#X obj 209 216 expr ($f1/16)*2*3.14159;
#X obj 209 191 f \$1;
#X obj 263 316 r blend;
#X obj 104 363 +;
#X obj 153 291 f -3.5;
#X obj 153 316 *;
#X obj 153 362 +;
#X obj 104 39 t b b b;
#X obj 104 12 inlet;
#X obj 104 434 outlet;
#X obj 153 435 outlet;
#X obj 209 265 expr sin($f1)*$f2;
#X obj 236 288 expr cos($f1)*$f2;
#X obj 525 -26 r timeTarget;
#X floatatom 525 237 5 0 0 0 - - -;
#X obj 525 158 pack f f;
#X msg 525 185 \$1 \, \$2 400;
#X obj 525 211 line;
#X obj 525 0 route \$1;
#X obj 525 52 t f f;
#X obj 525 23 f 1;
#X obj 630 227 r blend;
#X obj 525 83 expr -3.5-(0.2*$f1);
#X obj 570 123 expr -3.5+(0.2*$f1);
#X obj 630 250 expr 1-$f1;
#X obj 525 280 spigot;
#X obj 558 260 tgl 15 0 empty empty empty 17 7 0 10 -262144 -1 -1 1
1;
#X obj 367 177 pack f f;
#X msg 367 204 \$1 \, \$2 400;
#X obj 367 230 line;
#X obj 367 82 t f f;
#X obj 367 102 expr 3-(0.2*$f1);
#X obj 412 142 expr 3+(0.2*$f1);
#X obj 153 385 spigot;
#X obj 186 361 invert;
#X obj 630 327 sel 1;
#X msg 630 351 -3.3;
#X obj 630 300 t f f;
#X msg 630 375 \$1 400;
#X obj 630 274 > 0.9;
#X connect 0 0 6 0;
#X connect 1 0 4 0;
#X connect 2 0 3 0;
#X connect 3 0 1 0;
#X connect 4 0 8 0;
#X connect 5 0 4 1;
#X connect 6 0 7 0;
#X connect 7 0 3 1;
#X connect 7 1 5 0;
#X connect 8 0 17 0;
#X connect 9 0 8 1;
#X connect 9 0 19 1;
#X connect 10 0 9 0;
#X connect 11 0 25 0;
#X connect 11 1 26 0;
#X connect 12 0 17 1;
#X connect 13 0 20 1;
#X connect 14 0 11 0;
#X connect 15 0 14 0;
#X connect 16 0 12 1;
#X connect 16 0 13 1;
#X connect 17 0 23 0;
#X connect 18 0 19 0;
#X connect 19 0 20 0;
#X connect 20 0 47 0;
#X connect 21 0 2 0;
#X connect 21 1 18 0;
#X connect 21 2 15 0;
#X connect 22 0 21 0;
#X connect 25 0 12 0;
#X connect 26 0 13 0;
#X connect 27 0 32 0;
#X connect 28 0 39 0;
#X connect 29 0 30 0;
#X connect 30 0 31 0;
#X connect 31 0 28 0;
#X connect 32 0 34 0;
#X connect 33 0 36 0;
#X connect 33 1 37 0;
#X connect 34 0 33 0;
#X connect 34 0 44 0;
#X connect 35 0 38 0;
#X connect 36 0 29 0;
#X connect 37 0 29 1;
#X connect 38 0 53 0;
#X connect 39 0 24 0;
#X connect 40 0 39 1;
#X connect 40 0 48 0;
#X connect 41 0 42 0;
#X connect 42 0 43 0;
#X connect 43 0 25 1;
#X connect 43 0 26 1;
#X connect 44 0 45 0;
#X connect 44 1 46 0;
#X connect 45 0 41 0;
#X connect 46 0 41 1;
#X connect 47 0 24 0;
#X connect 48 0 47 1;
#X connect 49 0 50 0;
#X connect 50 0 52 0;
#X connect 51 0 49 0;
#X connect 51 1 40 0;
#X connect 52 0 31 0;
#X connect 53 0 51 0;
#X restore 293 92 pd pos==;
#X obj 293 174 f \$1;
#X floatatom 365 104 5 0 0 0 - - -;
#X connect 0 0 18 0;
#X connect 1 0 19 0;
#X connect 2 0 0 0;
#X connect 2 0 1 0;
#X connect 3 0 11 0;
#X connect 4 0 5 0;
#X connect 5 0 9 0;
#X connect 6 0 5 3;
#X connect 7 0 6 1;
#X connect 7 0 12 1;
#X connect 8 0 16 0;
#X connect 11 0 10 0;
#X connect 12 0 11 3;
#X connect 13 0 15 0;
#X connect 14 0 8 0;
#X connect 15 0 12 0;
#X connect 16 0 6 0;
#X connect 17 0 4 1;
#X connect 17 1 4 2;
#X connect 18 0 4 0;
#X connect 18 1 17 0;
#X connect 18 2 14 0;
#X connect 19 0 3 0;
#X connect 19 1 20 0;
#X connect 19 2 21 0;
#X connect 20 0 3 1;
#X connect 20 1 22 0;
#X connect 21 0 13 0;
#X connect 22 0 3 2;
