#N canvas 0 22 821 597 10;
#X obj 175 426 pack f f 0;
#X obj 245 426 pack f f 0;
#X obj 199 25 s line\$1;
#X obj 182 -21 route \$1;
#X obj 182 -51 r addline;
#X obj 182 47 unpack f f f f;
#X obj -47 176 gemhead;
#X obj -47 206 translateXYZ;
#X obj 387 -3 tgl 15 0 empty empty empty 17 7 0 10 -262144 -1 -1 0
1;
#X obj 387 -50 r allclose;
#X msg 267 -41 1;
#X obj 417 110 tgl 15 0 empty empty empty 17 7 0 10 -262144 -1 -1 0
1;
#X obj 417 154 del \$1;
#X obj 417 131 metro 30;
#X obj 417 176 t b b b;
#N canvas 621 177 805 524 target1 0;
#X obj 434 333 translateXYZ 0 0 0;
#X floatatom 591 210 5 0 0 0 - - -;
#X obj 591 232 == 2;
#X obj 540 183 intersect;
#X obj 540 274 pack f f;
#X msg 540 297 \$2 \$1;
#X obj 436 275 *;
#X obj 424 465 circle 0.07;
#X obj 540 147 spigot;
#X obj 540 111 r mainline1;
#X obj 194 83 expr sqrt(pow(($f1-$f3) \, 2)+pow(($f2-$f4) \, 2));
#X floatatom 194 106 5 0 0 0 - - -;
#X obj 268 219 distance2d;
#X msg 325 196 \$1 \$2;
#X obj 268 266 /;
#X floatatom 268 242 5 0 0 0 - - -;
#X obj 325 172 r line\$1;
#X obj 194 55 r line\$1;
#X obj 194 184 mtof;
#X obj 194 155 int;
#X obj 268 322 *;
#X obj 92 337 pack f f;
#X obj 47 386 list 0 0;
#X msg 47 423 send /red0 \$1 \$2;
#X msg 92 360 \$2 \$1;
#X floatatom 194 215 5 0 0 0 - - -;
#X obj 158 368 init \$1;
#X msg 158 389 set send /red\$1 \, adddollar 1 \, adddollar 2 \,;
#X obj 47 453 outlet;
#X obj 480 46 inlet;
#X obj 47 323 inlet;
#X floatatom 436 245 5 0 0 0 - - -;
#X obj 436 212 t b f;
#X obj 356 350 line;
#X obj 308 294 t b f;
#X floatatom 268 296 5 0 0 0 - - -;
#X obj 480 78 t f f;
#X obj 436 307 gemhead 2000;
#X obj 547 477 circle 0.07;
#X obj 433 360 t a a;
#X msg 567 443 draw line;
#X obj 570 414 loadbang;
#X obj 424 441 color 1 0 0 0.7;
#X obj 538 391 color 1 1 1;
#X obj 538 364 separator;
#X obj 424 417 separator;
#X obj 371 260 loadbang;
#X msg 371 284 0;
#X msg 356 326 \$1 60;
#X obj 194 128 expr 80-(($f1/16)*30);
#X connect 0 0 39 0;
#X connect 1 0 2 0;
#X connect 2 0 32 0;
#X connect 3 0 4 0;
#X connect 3 0 0 2;
#X connect 3 1 4 1;
#X connect 3 1 0 1;
#X connect 3 2 1 0;
#X connect 4 0 5 0;
#X connect 5 0 12 0;
#X connect 6 0 48 0;
#X connect 6 0 37 0;
#X connect 8 0 3 0;
#X connect 9 0 8 0;
#X connect 10 0 11 0;
#X connect 11 0 14 1;
#X connect 11 0 49 0;
#X connect 12 0 15 0;
#X connect 13 0 12 1;
#X connect 14 0 35 0;
#X connect 15 0 14 0;
#X connect 16 0 13 0;
#X connect 17 0 10 0;
#X connect 17 0 3 1;
#X connect 18 0 25 0;
#X connect 19 0 18 0;
#X connect 20 0 21 0;
#X connect 21 0 24 0;
#X connect 22 0 23 0;
#X connect 23 0 28 0;
#X connect 24 0 22 1;
#X connect 25 0 21 1;
#X connect 26 0 27 0;
#X connect 27 0 23 0;
#X connect 29 0 36 0;
#X connect 30 0 22 0;
#X connect 31 0 6 0;
#X connect 32 0 31 0;
#X connect 32 1 6 1;
#X connect 33 0 34 0;
#X connect 34 0 35 0;
#X connect 34 1 20 1;
#X connect 35 0 20 0;
#X connect 36 0 31 0;
#X connect 36 1 8 1;
#X connect 37 0 0 0;
#X connect 39 0 44 0;
#X connect 39 1 45 0;
#X connect 40 0 38 0;
#X connect 41 0 40 0;
#X connect 42 0 7 0;
#X connect 43 0 38 0;
#X connect 44 0 43 0;
#X connect 45 0 42 0;
#X connect 46 0 47 0;
#X connect 47 0 37 0;
#X connect 48 0 33 0;
#X connect 49 0 19 0;
#X restore 417 248 pd target1;
#N canvas 438 190 805 524 target1 0;
#X obj 437 334 translateXYZ 0 0 0;
#X floatatom 591 210 5 0 0 0 - - -;
#X obj 591 232 == 2;
#X obj 540 183 intersect;
#X obj 540 274 pack f f;
#X msg 540 297 \$2 \$1;
#X obj 436 275 *;
#X obj 540 147 spigot;
#X obj 194 83 expr sqrt(pow(($f1-$f3) \, 2)+pow(($f2-$f4) \, 2));
#X floatatom 194 106 5 0 0 0 - - -;
#X obj 268 219 distance2d;
#X msg 325 196 \$1 \$2;
#X obj 268 266 /;
#X floatatom 268 242 5 0 0 0 - - -;
#X obj 325 172 r line\$1;
#X obj 194 55 r line\$1;
#X obj 194 184 mtof;
#X obj 194 155 int;
#X obj 268 322 *;
#X obj 81 348 pack f f;
#X obj 36 397 list 0 0;
#X msg 36 434 send /green0 \$1 \$2;
#X msg 81 371 \$2 \$1;
#X floatatom 194 215 5 0 0 0 - - -;
#X obj 147 379 init \$1;
#X obj 36 464 outlet;
#X obj 480 46 inlet;
#X obj 36 334 inlet;
#X floatatom 436 245 5 0 0 0 - - -;
#X obj 436 212 t b f;
#X obj 356 350 line;
#X obj 308 294 t b f;
#X floatatom 268 296 5 0 0 0 - - -;
#X obj 480 78 t f f;
#X msg 147 400 set send /green\$1 \, adddollar 1 \, adddollar 2 \,
;
#X obj 540 111 r mainline2;
#X obj 436 307 gemhead 2000;
#X obj 440 480 circle 0.07;
#X obj 528 484 circle 0.07;
#X obj 443 370 t a a;
#X msg 548 450 draw line;
#X obj 551 421 loadbang;
#X obj 519 398 color 1 1 1;
#X obj 519 378 separator;
#X obj 418 420 separator;
#X obj 416 440 color 0 1 0 0.7;
#X obj 381 270 loadbang;
#X msg 381 294 0;
#X msg 356 326 \$1 60;
#X obj 194 129 expr ($f1/16)*42+48;
#X connect 0 0 39 0;
#X connect 1 0 2 0;
#X connect 2 0 29 0;
#X connect 3 0 4 0;
#X connect 3 0 0 2;
#X connect 3 1 4 1;
#X connect 3 1 0 1;
#X connect 3 2 1 0;
#X connect 4 0 5 0;
#X connect 5 0 10 0;
#X connect 6 0 48 0;
#X connect 6 0 36 0;
#X connect 7 0 3 0;
#X connect 8 0 9 0;
#X connect 9 0 12 1;
#X connect 9 0 49 0;
#X connect 10 0 13 0;
#X connect 11 0 10 1;
#X connect 12 0 32 0;
#X connect 13 0 12 0;
#X connect 14 0 11 0;
#X connect 15 0 8 0;
#X connect 15 0 3 1;
#X connect 16 0 23 0;
#X connect 17 0 16 0;
#X connect 18 0 19 0;
#X connect 19 0 22 0;
#X connect 20 0 21 0;
#X connect 21 0 25 0;
#X connect 22 0 20 1;
#X connect 23 0 19 1;
#X connect 24 0 34 0;
#X connect 26 0 33 0;
#X connect 27 0 20 0;
#X connect 28 0 6 0;
#X connect 29 0 28 0;
#X connect 29 1 6 1;
#X connect 30 0 31 0;
#X connect 31 0 32 0;
#X connect 31 1 18 1;
#X connect 32 0 18 0;
#X connect 33 0 28 0;
#X connect 33 1 7 1;
#X connect 34 0 21 0;
#X connect 35 0 7 0;
#X connect 36 0 0 0;
#X connect 39 0 43 0;
#X connect 39 1 44 0;
#X connect 40 0 38 0;
#X connect 41 0 40 0;
#X connect 42 0 38 0;
#X connect 43 0 42 0;
#X connect 44 0 45 0;
#X connect 45 0 37 0;
#X connect 46 0 47 0;
#X connect 47 0 36 0;
#X connect 48 0 30 0;
#X connect 49 0 17 0;
#X restore 437 273 pd target1;
#N canvas 399 167 805 524 target1 0;
#X obj 437 345 translateXYZ 0 0 0;
#X floatatom 591 210 5 0 0 0 - - -;
#X obj 591 232 == 2;
#X obj 540 183 intersect;
#X obj 540 274 pack f f;
#X msg 540 297 \$2 \$1;
#X obj 436 275 *;
#X obj 540 147 spigot;
#X obj 194 83 expr sqrt(pow(($f1-$f3) \, 2)+pow(($f2-$f4) \, 2));
#X floatatom 194 106 5 0 0 0 - - -;
#X obj 268 219 distance2d;
#X msg 325 196 \$1 \$2;
#X obj 268 266 /;
#X floatatom 268 242 5 0 0 0 - - -;
#X obj 325 172 r line\$1;
#X obj 194 55 r line\$1;
#X obj 194 184 mtof;
#X obj 194 155 int;
#X obj 268 322 *;
#X obj 94 336 pack f f;
#X obj 49 385 list 0 0;
#X msg 49 422 send /blue0 \$1 \$2;
#X msg 94 359 \$2 \$1;
#X floatatom 194 215 5 0 0 0 - - -;
#X obj 160 367 init \$1;
#X obj 49 452 outlet;
#X obj 480 46 inlet;
#X obj 49 322 inlet;
#X floatatom 436 245 5 0 0 0 - - -;
#X obj 436 212 t b f;
#X obj 356 350 line;
#X obj 308 294 t b f;
#X floatatom 268 296 5 0 0 0 - - -;
#X obj 480 78 t f f;
#X msg 160 388 set send /blue\$1 \, adddollar 1 \, adddollar 2 \,;
#X obj 540 111 r mainline3;
#X obj 436 307 gemhead 2000;
#X obj 429 481 circle 0.07;
#X obj 538 494 circle 0.07;
#X obj 436 368 t a a;
#X msg 558 460 draw line;
#X obj 561 431 loadbang;
#X obj 529 408 color 1 1 1;
#X obj 529 388 separator;
#X obj 428 430 separator;
#X obj 428 457 color 0 0 1;
#X obj 377 270 loadbang;
#X msg 377 294 0;
#X obj 193 126 expr 120-(($f1/16)*60);
#X msg 356 326 \$1 60;
#X connect 0 0 39 0;
#X connect 1 0 2 0;
#X connect 2 0 29 0;
#X connect 3 0 4 0;
#X connect 3 0 0 2;
#X connect 3 1 4 1;
#X connect 3 1 0 1;
#X connect 3 2 1 0;
#X connect 4 0 5 0;
#X connect 5 0 10 0;
#X connect 6 0 49 0;
#X connect 6 0 36 0;
#X connect 7 0 3 0;
#X connect 8 0 9 0;
#X connect 9 0 12 1;
#X connect 9 0 48 0;
#X connect 10 0 13 0;
#X connect 11 0 10 1;
#X connect 12 0 32 0;
#X connect 13 0 12 0;
#X connect 14 0 11 0;
#X connect 15 0 8 0;
#X connect 15 0 3 1;
#X connect 16 0 23 0;
#X connect 17 0 16 0;
#X connect 18 0 19 0;
#X connect 19 0 22 0;
#X connect 20 0 21 0;
#X connect 21 0 25 0;
#X connect 22 0 20 1;
#X connect 23 0 19 1;
#X connect 24 0 34 0;
#X connect 26 0 33 0;
#X connect 27 0 20 0;
#X connect 28 0 6 0;
#X connect 29 0 28 0;
#X connect 29 1 6 1;
#X connect 30 0 31 0;
#X connect 31 0 32 0;
#X connect 31 1 18 1;
#X connect 32 0 18 0;
#X connect 33 0 28 0;
#X connect 33 1 7 1;
#X connect 34 0 21 0;
#X connect 35 0 7 0;
#X connect 36 0 0 0;
#X connect 39 0 43 0;
#X connect 39 1 44 0;
#X connect 40 0 38 0;
#X connect 41 0 40 0;
#X connect 42 0 38 0;
#X connect 43 0 42 0;
#X connect 44 0 45 0;
#X connect 45 0 37 0;
#X connect 46 0 47 0;
#X connect 47 0 36 0;
#X connect 48 0 17 0;
#X connect 49 0 30 0;
#X restore 459 300 pd target1;
#X obj 417 355 s net;
#X obj 417 326 packOSC;
#X obj 416 56 sel 0;
#X obj 416 80 del 45;
#X obj -43 381 circle 0.1;
#X obj 387 24 t f f f f f f b b b;
#X obj 536 178 t b b b;
#X obj 476 211 expr $f1*display1;
#X obj 503 245 expr $f1*display2;
#X obj 525 275 expr $f1*display3;
#X obj -47 291 colorRGB 1 1 1 0.5;
#X obj -47 263 separator;
#X obj 536 150 gemhead;
#X obj 175 456 distance_n;
#X floatatom 175 481 5 0 0 0 - - -;
#X obj -47 229 t a a a;
#X obj 50 364 GEMglPointSize 1;
#X obj 50 336 separator;
#X obj 50 558 curve 2;
#X obj -13 496 loadbang;
#X msg -13 528 draw point;
#X obj 50 494 t a b;
#X msg 69 528 0 0 0;
#N canvas 886 432 432 293 angle 0;
#X floatatom 45 127 5 0 0 0 - - -;
#X obj 45 75 expr $f1-$f2;
#X obj 264 75 expr $f1-$f2;
#X obj 45 153 outlet;
#X obj 45 -3 inlet;
#X obj 45 43 unpack f f f f;
#X obj 45 102 expr atan2($f1 \, $f2)*-1*180/3.1415926;
#X msg 45 19 \$3 \$4 \$1 \$2;
#X connect 0 0 3 0;
#X connect 1 0 6 0;
#X connect 2 0 6 1;
#X connect 4 0 7 0;
#X connect 5 0 1 0;
#X connect 5 1 2 0;
#X connect 5 2 1 1;
#X connect 5 3 2 1;
#X connect 6 0 0 0;
#X connect 7 0 5 0;
#X restore 212 251 pd angle;
#X obj 50 392 rotateXYZ 0 0 0;
#X obj 182 1 t a a b a;
#X floatatom 212 349 5 0 0 0 - - -;
#X obj 255 277 r \$0-r;
#X obj 275 169 r \$0-x;
#X obj 351 174 r \$0-y;
#X obj 318 524 expr $f1-$f2;
#X obj 537 522 expr $f1-$f2;
#X floatatom 318 503 5 0 0 0 - - -;
#X floatatom 537 499 5 0 0 0 - - -;
#X obj 318 480 v mouseX;
#X obj 537 476 v mouseY;
#X obj 318 431 unpack f f;
#X obj 318 382 r boid_pos;
#X obj 318 405 route \$1;
#X obj 408 510 s \$0-x;
#X obj 318 456 t b f f;
#X obj 537 451 t b f f;
#X obj 619 521 s \$0-y;
#X obj 318 577 s \$0-r;
#X floatatom 408 482 5 0 0 0 - - -;
#X floatatom 618 496 5 0 0 0 - - -;
#X obj 318 551 expr atan2($f1 \, $f2)*-1*180/3.1415926;
#X obj 175 504 pack 0 0 0;
#X msg 175 524 \$2 \$1 \$3;
#X obj 212 275 + 180;
#X obj 302 248 line;
#X msg 302 220 \$1 0;
#X obj 337 249 line;
#X msg 337 223 \$1 0;
#X msg 275 192 \$1 500;
#X msg 351 200 \$1 500;
#X obj 212 326 line;
#X msg 212 300 \$1 0;
#X msg 255 299 \$1 500;
#N canvas 822 290 410 413 translat_new 0;
#X obj 245 -10 inlet;
#X obj 298 -11 inlet;
#X obj 168 244 pack f f f f;
#X obj 245 20 t f f;
#X obj 298 21 t f f;
#X obj 72 135 +;
#X obj 140 142 +;
#X obj 56 -38 inlet r;
#X obj 173 -13 inlet dis;
#X obj 141 92 cos;
#X obj 72 86 sin;
#X obj 72 111 *;
#X obj 140 114 *;
#X floatatom 72 161 5 0 0 0 - - -;
#X floatatom 140 168 5 0 0 0 - - -;
#X obj 56 40 expr ($f1/360)*2*3.1415926;
#X obj 56 -5 expr 360-$f1;
#X floatatom 56 18 5 0 0 0 - - -;
#X floatatom 173 15 5 0 0 0 - - -;
#X obj 168 268 s line\$1;
#X connect 0 0 3 0;
#X connect 1 0 4 0;
#X connect 2 0 19 0;
#X connect 3 0 5 1;
#X connect 3 1 2 2;
#X connect 4 0 6 1;
#X connect 4 1 2 3;
#X connect 5 0 13 0;
#X connect 6 0 14 0;
#X connect 7 0 16 0;
#X connect 8 0 18 0;
#X connect 9 0 12 0;
#X connect 10 0 11 0;
#X connect 11 0 5 0;
#X connect 12 0 6 0;
#X connect 13 0 2 0;
#X connect 14 0 2 1;
#X connect 15 0 10 0;
#X connect 15 0 9 0;
#X connect 16 0 17 0;
#X connect 17 0 15 0;
#X connect 18 0 11 1;
#X connect 18 0 12 1;
#X restore 279 349 pd translat_new;
#X floatatom 463 395 5 0 0 0 - - -;
#X floatatom 415 397 5 0 0 0 - - -;
#X msg 530 416 send /pos0 \$1 \$2;
#X msg 530 390 set send /pos\$1 \, adddollar 1 \, adddollar 2 \,;
#X obj 415 422 pack f f;
#X obj 530 363 init \$1;
#X obj 36 143 tgl 30 0 empty empty empty 17 7 0 10 -262144 -1 -1 0
1;
#X obj 36 121 r mouse_right;
#X obj 35 179 sel 0 1;
#X msg 35 202 1 1 1;
#X msg 50 224 1 1 0;
#X obj 42 251 unpack f f f;
#X obj 50 422 GEMglPointSize 1;
#X msg 209 380 1;
#X obj 50 464 colorRGB 1 1 1 0.5;
#X msg 244 382 2;
#X obj -40 356 alpha;
#X obj -103 304 loadbang;
#X msg -104 332 auto 1;
#X obj -13 336 tgl 15 0 empty empty empty 17 7 0 10 -262144 -1 -1 0
1;
#X connect 0 0 31 0;
#X connect 1 0 31 1;
#X connect 3 0 43 0;
#X connect 4 0 3 0;
#X connect 5 0 0 0;
#X connect 5 1 0 1;
#X connect 5 2 1 0;
#X connect 5 2 69 0;
#X connect 5 3 1 1;
#X connect 5 3 71 0;
#X connect 6 0 7 0;
#X connect 7 0 33 0;
#X connect 8 0 23 0;
#X connect 9 0 8 0;
#X connect 10 0 8 0;
#X connect 10 0 11 0;
#X connect 11 0 13 0;
#X connect 12 0 14 0;
#X connect 13 0 12 0;
#X connect 14 0 15 0;
#X connect 14 1 16 0;
#X connect 14 2 17 0;
#X connect 15 0 19 0;
#X connect 16 0 19 0;
#X connect 17 0 19 0;
#X connect 19 0 18 0;
#X connect 20 0 21 0;
#X connect 21 0 11 0;
#X connect 23 1 6 0;
#X connect 23 2 20 0;
#X connect 23 3 25 0;
#X connect 23 4 26 0;
#X connect 23 5 27 0;
#X connect 24 0 25 0;
#X connect 24 1 26 0;
#X connect 24 2 27 0;
#X connect 25 0 15 1;
#X connect 26 0 16 1;
#X connect 27 0 17 1;
#X connect 28 0 94 0;
#X connect 29 0 28 0;
#X connect 30 0 24 0;
#X connect 31 0 32 0;
#X connect 32 0 65 0;
#X connect 32 0 77 1;
#X connect 33 0 29 0;
#X connect 33 2 35 0;
#X connect 34 0 42 0;
#X connect 35 0 34 0;
#X connect 37 0 38 0;
#X connect 38 0 36 0;
#X connect 39 0 36 0;
#X connect 39 1 40 0;
#X connect 40 0 36 1;
#X connect 41 0 67 0;
#X connect 42 0 90 0;
#X connect 43 0 5 0;
#X connect 43 1 2 0;
#X connect 43 2 10 0;
#X connect 43 3 41 0;
#X connect 44 0 42 3;
#X connect 44 0 77 0;
#X connect 45 0 76 0;
#X connect 46 0 72 0;
#X connect 47 0 73 0;
#X connect 48 0 64 0;
#X connect 49 0 64 1;
#X connect 50 0 48 0;
#X connect 51 0 49 0;
#X connect 52 0 50 0;
#X connect 53 0 51 0;
#X connect 54 0 58 0;
#X connect 54 1 59 0;
#X connect 55 0 56 0;
#X connect 56 0 54 0;
#X connect 58 0 52 0;
#X connect 58 1 48 1;
#X connect 58 2 62 0;
#X connect 59 0 53 0;
#X connect 59 1 49 1;
#X connect 59 2 63 0;
#X connect 62 0 57 0;
#X connect 63 0 60 0;
#X connect 64 0 61 0;
#X connect 65 0 66 0;
#X connect 66 0 36 2;
#X connect 67 0 75 0;
#X connect 68 0 7 1;
#X connect 68 0 77 2;
#X connect 68 0 79 0;
#X connect 69 0 68 0;
#X connect 70 0 7 2;
#X connect 70 0 77 3;
#X connect 70 0 78 0;
#X connect 71 0 70 0;
#X connect 72 0 68 0;
#X connect 73 0 70 0;
#X connect 74 0 44 0;
#X connect 75 0 74 0;
#X connect 76 0 74 0;
#X connect 78 0 82 1;
#X connect 79 0 82 0;
#X connect 80 0 19 0;
#X connect 81 0 80 0;
#X connect 82 0 80 0;
#X connect 83 0 81 0;
#X connect 84 0 86 0;
#X connect 85 0 84 0;
#X connect 86 0 87 0;
#X connect 86 0 91 0;
#X connect 86 1 88 0;
#X connect 86 1 93 0;
#X connect 87 0 89 0;
#X connect 88 0 89 0;
#X connect 89 0 28 1;
#X connect 89 0 92 1;
#X connect 89 1 28 2;
#X connect 89 1 92 2;
#X connect 89 2 28 3;
#X connect 89 2 92 3;
#X connect 90 0 92 0;
#X connect 91 0 90 1;
#X connect 92 0 39 0;
#X connect 93 0 90 1;
#X connect 94 0 22 0;
#X connect 95 0 96 0;
#X connect 95 0 97 0;
#X connect 96 0 94 0;
#X connect 97 0 94 1;
