#N canvas 532 317 576 375 10;
#X obj -59 178 until;
#N canvas 146 447 450 300 count 0;
#X obj 144 132 f;
#X obj 173 132 + 1;
#X msg 180 109 0;
#X obj 180 88 loadbang;
#X obj 144 28 inlet;
#X obj 144 254 outlet;
#X obj 230 27 inlet;
#X obj 230 53 t b;
#X connect 0 0 1 0;
#X connect 0 0 5 0;
#X connect 1 0 0 1;
#X connect 2 0 0 1;
#X connect 3 0 2 0;
#X connect 4 0 0 0;
#X connect 6 0 7 0;
#X connect 7 0 2 0;
#X restore -59 200 pd count;
#N canvas 0 22 507 414 euclicore--i--k--n--p 0;
#X obj 59 58 inlet;
#X obj 188 113 inlet;
#X obj 116 92 inlet;
#X obj 59 345 select 1;
#X obj 59 377 outlet;
#X obj 302 170 inlet;
#X text 155 90 specify desired number of hits per bar;
#X text 230 113 specify length of bar;
#X text 340 169 rhythm offset/rotation;
#X text 109 56 <-- send an integer to find out if there should be a
hit on that beat;
#X obj 59 280 % \$3;
#X text 121 344 <-- bang out on each hit. (Silent on rest.);
#X obj 59 247 * \$1;
#X obj 59 313 < \$1;
#X obj 59 121 i;
#X obj 119 377 outlet;
#X obj 59 185 + 0;
#X obj 188 141 t f f;
#X obj 59 215 - \$2;
#X obj 188 168 i;
#X obj 215 263 i;
#X connect 0 0 14 0;
#X connect 1 0 17 0;
#X connect 2 0 12 1;
#X connect 2 0 13 1;
#X connect 3 0 4 0;
#X connect 5 0 18 1;
#X connect 10 0 13 0;
#X connect 12 0 10 0;
#X connect 13 0 3 0;
#X connect 13 0 15 0;
#X connect 14 0 16 0;
#X connect 16 0 18 0;
#X connect 17 0 19 0;
#X connect 17 1 20 0;
#X connect 18 0 12 0;
#X connect 19 0 16 1;
#X connect 20 0 10 1;
#X restore -59 255 pd euclicore--i--k--n--p;
#X obj -59 224 t f f;
#N canvas 0 22 450 278 (subpatch) 0;
#X array \$0-seq 24 float 3;
#A 0 1 1 0 1 0 0 0 0 0 1 1 1 1 0 0 0 0 0 0 0 0 0 0 0;
#X coords 0 1 23 -1 100 30 1 0 0;
#X restore 104 137 graph;
#X obj 82 275 tabwrite \$0-seq;
#X obj 21 0 speedlim 125;
#X floatatom 21 -34 5 0 0 0 - - -, f 5;
#X obj -101 -1 speedlim 125;
#X floatatom -101 -35 5 0 0 0 - - -, f 5;
#X msg 129 203 \; \$1-seq const 0;
#X obj 129 178 init \$0;
#X floatatom -74 44 5 0 0 0 - - -, f 5;
#X obj -74 68 v \$0-n;
#X obj 35 211 v \$0-n;
#X obj -12 172 v \$0-k;
#X obj -59 146 v \$0-n;
#X obj -101 22 t b f;
#X obj -129 65 s \$0-go;
#X obj -59 93 r \$0-go;
#X floatatom 48 46 5 0 0 0 - - -, f 5;
#X obj 21 24 t b f;
#X obj -7 67 s \$0-go;
#X obj 48 70 v \$0-k;
#X obj -59 115 t b b b b;
#X obj -2 95 bng 15 250 50 0 empty empty empty 17 7 0 10 -262144 -1
-1;
#X obj -169 184 tabread \$0-seq;
#X obj -169 156 inlet;
#X obj -170 211 outlet;
#X obj -102 -61 inlet;
#X obj 22 -61 inlet;
#X obj -287 184 tabread \$0-seq;
#X obj -287 156 inlet;
#X obj -288 211 outlet;
#X connect 0 0 1 0;
#X connect 1 0 3 0;
#X connect 2 1 5 0;
#X connect 3 0 2 0;
#X connect 3 1 5 1;
#X connect 6 0 21 0;
#X connect 7 0 6 0;
#X connect 8 0 17 0;
#X connect 9 0 8 0;
#X connect 11 0 10 0;
#X connect 12 0 13 0;
#X connect 14 0 2 2;
#X connect 15 0 2 1;
#X connect 16 0 0 0;
#X connect 17 0 18 0;
#X connect 17 1 12 0;
#X connect 19 0 24 0;
#X connect 20 0 23 0;
#X connect 21 0 22 0;
#X connect 21 1 20 0;
#X connect 24 0 16 0;
#X connect 24 1 1 1;
#X connect 24 2 15 0;
#X connect 24 3 14 0;
#X connect 25 0 24 0;
#X connect 26 0 28 0;
#X connect 27 0 26 0;
#X connect 29 0 9 0;
#X connect 30 0 7 0;
#X connect 31 0 33 0;
#X connect 32 0 31 0;
#X coords 0 -1 1 1 110 70 1 100 100;
