#N canvas 526 86 754 703 10;
#X msg -58 171 create \, 1;
#X obj -58 204 gemwin;
#X obj -115 525 s dy;
#X obj 79 304 r dx;
#X obj 296 316 r dy;
#X floatatom 79 368 5 0 0 0 - - -;
#X obj -84 270 +;
#X obj -69 241 r vx;
#X obj 5 268 +;
#X obj 20 239 r vy;
#X obj 129 209 s angle;
#X obj 129 144 r dx;
#X obj 258 141 r dy;
#X floatatom 129 188 5 0 0 0 - - -;
#X obj 127 243 r angle;
#X obj 254 244 r angle;
#X floatatom 127 291 5 0 0 0 - - -;
#X floatatom 254 291 5 0 0 0 - - -;
#X floatatom -116 293 5 0 0 0 - - -;
#X obj -220 456 expr $f1-$f2;
#X obj -115 471 expr $f1-$f2;
#X floatatom -27 292 5 0 0 0 - - -;
#X floatatom -220 481 5 0 0 0 - - -;
#X floatatom -115 503 5 0 0 0 - - -;
#X obj -220 507 s dx;
#X obj -116 269 f 0;
#X obj -27 267 f 0;
#X obj -116 316 t f f;
#X obj -27 316 t f f;
#X obj 79 342 expr atan2($f1 \, $f2)*-1*180/3.1415926;
#X floatatom -220 435 5 0 0 0 - - -;
#X floatatom -115 448 5 0 0 0 - - -;
#X obj -151 431 v ax;
#X obj -46 448 v ay;
#X obj -220 389 t b b;
#X obj -115 400 t b b;
#X obj -220 351 t b b;
#X obj -116 341 v ax;
#X obj -27 344 v ay;
#X obj -116 240 v ax;
#X obj -27 240 v ay;
#X obj -116 208 t b b;
#X obj 127 269 expr cos($f1)*0.1;
#X obj 254 268 expr sin($f1)*0.1;
#X obj 127 315 s vy;
#X obj 254 316 s vx;
#X obj 129 166 expr atan2($f1 \, $f2)*1;
#X text 20 28 var dx=mouseX-arrow.x;
#X text 21 47 var dy=mouseY-arrow.Y;
#X text 21 63 var angle=atan2(dy \, dx);
#X text 20 82 arrow.rotation=angle*180/PI;
#X text 21 100 vx=cos(angle)*speed;
#X text 21 116 vy=sin(angle)*speed;
#X text 21 135 arrow.x +=vx \;;
#X text 21 149 arrow.y +=vy \;;
#X obj -58 132 bng 30 250 50 0 empty empty empty 17 7 0 10 -258113
-1 -1;
#X msg -111 172 destroy;
#X obj -223 317 t b b;
#X obj -252 360 inlet;
#X obj -128 364 inlet;
#X msg 65 488 \$1 500;
#X obj 65 512 line;
#X obj 65 536 outlet;
#X obj -220 412 v xxx;
#X obj -115 425 v yyy;
#X obj -353 221 inlet;
#X connect 0 0 1 0;
#X connect 3 0 29 0;
#X connect 4 0 29 1;
#X connect 5 0 60 0;
#X connect 6 0 18 0;
#X connect 7 0 6 1;
#X connect 8 0 21 0;
#X connect 9 0 8 1;
#X connect 11 0 46 0;
#X connect 12 0 46 1;
#X connect 13 0 10 0;
#X connect 14 0 42 0;
#X connect 15 0 43 0;
#X connect 16 0 44 0;
#X connect 17 0 45 0;
#X connect 18 0 27 0;
#X connect 19 0 22 0;
#X connect 20 0 23 0;
#X connect 21 0 28 0;
#X connect 22 0 24 0;
#X connect 23 0 2 0;
#X connect 25 0 6 0;
#X connect 26 0 8 0;
#X connect 27 0 37 0;
#X connect 28 0 38 0;
#X connect 29 0 5 0;
#X connect 30 0 19 0;
#X connect 31 0 20 0;
#X connect 32 0 19 1;
#X connect 33 0 20 1;
#X connect 34 0 63 0;
#X connect 34 1 32 0;
#X connect 35 0 64 0;
#X connect 35 1 33 0;
#X connect 36 0 34 0;
#X connect 36 1 35 0;
#X connect 39 0 25 0;
#X connect 40 0 26 0;
#X connect 41 0 39 0;
#X connect 41 1 40 0;
#X connect 42 0 16 0;
#X connect 43 0 17 0;
#X connect 46 0 13 0;
#X connect 55 0 0 0;
#X connect 56 0 1 0;
#X connect 57 0 36 0;
#X connect 57 1 41 0;
#X connect 58 0 63 0;
#X connect 59 0 64 0;
#X connect 60 0 61 0;
#X connect 61 0 62 0;
#X connect 63 0 30 0;
#X connect 64 0 31 0;
#X connect 65 0 57 0;
