#N canvas 498 258 590 519 10;
#X obj 88 32 unpack f f;
#X obj 88 1 inlet;
#X floatatom 88 80 5 0 0 0 - - -;
#X floatatom 327 29 5 0 0 0 - - -;
#X obj 88 109 abs;
#X obj 328 102 autoscale 0 1;
#X floatatom 327 129 5 0 0 0 - - -;
#X floatatom 87 183 5 0 0 0 - - -;
#X obj 148 261 line~;
#X obj 86 281 *~;
#X obj 160 392 throw~ rr;
#X obj 327 50 t f f;
#X obj 328 78 -;
#X floatatom 152 54 5 0 0 0 - - -;
#X obj 153 127 autoscale 0 1;
#X floatatom 153 151 5 0 0 0 - - -;
#X obj 152 75 t f f;
#X obj 153 103 -;
#X obj 312 157 +;
#X obj 86 358 *~ 0;
#X obj 160 363 *~ 0;
#X obj 207 246 t f f;
#X obj 229 288 k_range -7 7 0 1;
#X obj 142 317 k_range -7 7 1 0;
#X obj 313 179 t b f;
#X obj 306 234 f;
#X obj 360 186 change;
#X floatatom 362 206 5 0 0 0 - - -;
#X obj 336 258 moses 0;
#X floatatom 375 283 5 0 0 0 - - -;
#X floatatom 148 211 5 0 0 0 - - -;
#X obj 361 164 expr int($f1*100)/100;
#X obj 86 388 throw~ ll;
#X msg 148 237 \$1 50;
#X obj 88 139 * 300;
#X obj 88 162 + 60;
#X obj 87 217 osc~;
#X obj 85 311 *~ 0.5;
#X obj 336 234 - 0.1;
#X obj 214 189 change;
#X connect 0 0 2 0;
#X connect 0 0 13 0;
#X connect 0 1 3 0;
#X connect 1 0 0 0;
#X connect 2 0 4 0;
#X connect 2 0 21 0;
#X connect 3 0 11 0;
#X connect 4 0 34 0;
#X connect 5 0 6 0;
#X connect 6 0 18 1;
#X connect 7 0 36 0;
#X connect 8 0 9 1;
#X connect 9 0 37 0;
#X connect 11 0 12 1;
#X connect 11 1 12 0;
#X connect 12 0 5 0;
#X connect 13 0 16 0;
#X connect 14 0 15 0;
#X connect 15 0 18 0;
#X connect 16 0 17 1;
#X connect 16 1 17 0;
#X connect 17 0 14 0;
#X connect 18 0 24 0;
#X connect 19 0 32 0;
#X connect 20 0 10 0;
#X connect 21 0 23 0;
#X connect 21 1 22 0;
#X connect 22 0 20 1;
#X connect 23 0 19 1;
#X connect 24 0 25 0;
#X connect 24 1 31 0;
#X connect 25 0 38 0;
#X connect 25 0 39 0;
#X connect 26 0 27 0;
#X connect 27 0 25 1;
#X connect 28 1 29 0;
#X connect 29 0 25 1;
#X connect 30 0 33 0;
#X connect 31 0 26 0;
#X connect 33 0 8 0;
#X connect 34 0 35 0;
#X connect 35 0 7 0;
#X connect 36 0 9 0;
#X connect 37 0 19 0;
#X connect 37 0 20 0;
#X connect 38 0 28 0;
#X connect 39 0 30 0;
