#N canvas 756 573 478 424 10;
#X declare -path abs;
#X declare -path abs_other;
#N canvas 434 144 1276 737 gemwin-main 0;
#X obj 225 451 gemwin;
#X msg 171 407 destroy;
#X obj 72 301 sel 0 1;
#X obj 101 593 udpsend;
#X obj 101 616 tgl 15 0 empty empty empty 17 7 0 10 -262144 -1 -1 0
1;
#X obj 581 462 r net;
#X obj 118 451 spigot;
#X msg 57 509 disconnect;
#X obj 356 359 s W_H;
#X obj 57 484 sel 0 1;
#N canvas 342 415 565 458 color 0;
#X msg 70 336 color \$1 \$2 \$3;
#X obj 70 313 tripleLine;
#X obj 70 268 list-add;
#X obj 123 223 loadbang;
#X msg 200 158 0 0 0;
#X obj 35 84 sel 0;
#X obj 76 20 inlet;
#X obj 70 362 outlet;
#X obj 186 337 s tobgcolor;
#X obj 99 135 > 0;
#X floatatom 119 161 5 0 0 0 - - -, f 5;
#X obj 91 174 bng 15 250 50 0 empty empty empty 17 7 0 10 -262144 -1
-1;
#X obj 77 77 k_speed 500;
#X obj 54 45 t f f;
#X obj 32 123 del 500;
#X msg 123 245 0.1 0.1 0.1;
#X obj 70 202 tripleRand 0.4 0.4 0.4;
#X obj 208 48 r tochbgblack;
#X obj 205 133 del 500;
#X obj 208 79 t b b b;
#X msg 276 199 \$1 \$1 \$1;
#X obj 70 291 list append 500;
#X floatatom 281 164 5 0 0 0 - - -, f 5;
#X obj 277 103 k_timespigot 500;
#X obj 281 142 randomF 0.8;
#X connect 0 0 7 0;
#X connect 1 0 0 0;
#X connect 1 0 8 0;
#X connect 2 0 21 0;
#X connect 3 0 15 0;
#X connect 4 0 21 0;
#X connect 5 0 14 0;
#X connect 6 0 13 0;
#X connect 9 0 11 0;
#X connect 11 0 16 0;
#X connect 12 0 9 0;
#X connect 13 0 5 0;
#X connect 13 1 12 0;
#X connect 15 0 2 1;
#X connect 16 0 2 0;
#X connect 17 0 19 0;
#X connect 18 0 4 0;
#X connect 19 0 18 0;
#X connect 19 2 23 0;
#X connect 20 0 21 0;
#X connect 21 0 1 0;
#X connect 22 0 20 0;
#X connect 23 0 24 0;
#X connect 24 0 22 0;
#X restore 419 369 pd color;
#X obj 109 151 hsl 70 15 0 1 0 0 empty empty empty -2 -8 0 10 -228856
-1 -1 0 1;
#X obj -78 316 line;
#X obj 104 119 tgl 30 0 empty empty empty 17 7 0 10 -228856 -1 -1 0
1;
#X obj 72 247 float;
#X obj 224 382 t a a a;
#X obj 488 -1 declare -path abs;
#X obj 488 20 declare -path abs_other;
#N canvas 557 120 469 688 add-circle 0;
#X obj 33 83 tgl 15 0 empty empty empty 17 7 0 10 -262144 -1 -1 0 1
;
#X obj 33 106 sel 1 0;
#X obj 212 413 f;
#X obj 244 414 + 1;
#X floatatom 212 443 5 0 0 0 - - -, f 5;
#X obj 212 595 s addCircle;
#X obj 213 292 distance2d;
#X floatatom 213 328 5 0 0 0 - - -, f 5;
#X obj 33 141 t b b;
#X obj 212 139 t b b;
#X obj 213 365 t b f;
#X obj 212 564 pack f f f f;
#X text 275 325 radius;
#X text 309 242 end(x \, y);
#X obj 33 274 s stratPos;
#X obj 250 495 r stratPos;
#X obj 250 526 unpack f f;
#X obj 328 288 r stratPos;
#X obj 31 53 inlet;
#X obj 256 364 r tgl-circle;
#X obj 33 171 v mouseX;
#X obj 212 176 v mouseX;
#X obj 81 203 v mouseY;
#X obj 260 208 v mouseY;
#X obj 52 455 s net;
#X obj 52 426 packOSC;
#X msg 52 401 send /add-circle \$1;
#X obj 33 242 pack f f 0;
#X obj 213 247 pack f f 0;
#X obj 280 413 % 40;
#X connect 0 0 1 0;
#X connect 1 0 8 0;
#X connect 1 1 9 0;
#X connect 2 0 3 0;
#X connect 2 0 4 0;
#X connect 3 0 29 0;
#X connect 4 0 11 0;
#X connect 6 0 7 0;
#X connect 7 0 10 0;
#X connect 7 0 26 0;
#X connect 8 0 20 0;
#X connect 8 1 22 0;
#X connect 9 0 21 0;
#X connect 9 1 23 0;
#X connect 10 0 2 0;
#X connect 10 1 11 3;
#X connect 11 0 5 0;
#X connect 15 0 16 0;
#X connect 16 0 11 1;
#X connect 16 1 11 2;
#X connect 17 0 6 1;
#X connect 18 0 0 0;
#X connect 19 0 2 1;
#X connect 20 0 27 0;
#X connect 21 0 28 0;
#X connect 22 0 27 1;
#X connect 23 0 28 1;
#X connect 25 0 24 0;
#X connect 26 0 25 0;
#X connect 27 0 14 0;
#X connect 28 0 6 0;
#X connect 29 0 2 1;
#X restore 288 192 pd add-circle;
#X obj 288 146 t f f;
#X obj 469 201 s tgl-circle;
#X msg 469 171 0;
#N canvas 579 98 507 675 point-circle 0;
#X obj 128 245 gemhead;
#X obj 128 387 translateXYZ;
#X obj 128 425 circle 0.1;
#X obj 37 427 loadbang;
#X obj 304 431 distance2d;
#X obj 304 397 pack f f;
#X floatatom 304 465 5 0 0 0 - - -, f 5;
#X obj 128 278 t a b;
#X obj 304 325 t b b;
#X obj 304 277 spigot;
#X obj 401 399 r stratPos;
#X obj 218 199 r stratPos;
#X obj 217 230 unpack f f;
#X obj 370 251 tgl 15 0 empty empty empty 17 7 0 10 -262144 -1 -1 0
1;
#X obj 370 214 inlet;
#X obj 128 317 colorRGB 1 1 1 1;
#X obj 304 365 v mouseX;
#X obj 381 363 v mouseY;
#X obj 128 181 loadbang;
#X msg 128 207 0;
#X obj 129 349 GEMglPointSize 4;
#X msg 36 457 draw point;
#X obj 373 281 s showcircle;
#X connect 0 0 7 0;
#X connect 1 0 2 0;
#X connect 3 0 21 0;
#X connect 4 0 6 0;
#X connect 5 0 4 0;
#X connect 6 0 2 1;
#X connect 7 0 15 0;
#X connect 7 1 9 0;
#X connect 8 0 16 0;
#X connect 8 1 17 0;
#X connect 9 0 8 0;
#X connect 10 0 4 1;
#X connect 11 0 12 0;
#X connect 12 0 1 1;
#X connect 12 1 1 2;
#X connect 13 0 9 1;
#X connect 13 0 0 0;
#X connect 13 0 22 0;
#X connect 14 0 13 0;
#X connect 15 0 20 0;
#X connect 16 0 5 0;
#X connect 17 0 5 1;
#X connect 18 0 19 0;
#X connect 19 0 0 0;
#X connect 20 0 1 0;
#X connect 21 0 2 0;
#X restore 315 169 pd point-circle;
#X obj 334 112 r hid;
#X obj 334 144 route key_25;
#X obj 288 124 spigot;
#X obj 469 62 r hid;
#X obj 469 147 sel 1;
#X obj 512 175 s net;
#X obj 512 152 packOSC;
#X msg 512 127 send /circle-all \$1;
#X obj 469 103 expr if($f1+$f2==2 \, 1 \, 0);
#X obj 469 126 tgl 15 0 empty empty empty 17 7 0 10 -262144 -1 -1 0
1;
#X obj 469 83 route key_44 key_25;
#X obj 288 77 r mouse_left;
#X obj 3 84 outlet;
#X obj 67 -5 r hid;
#X obj 67 16 route key_41;
#X obj 67 38 sel 1;
#X msg 67 61 0;
#X obj 101 660 s netbang;
#X obj 101 637 sel 1;
#X obj 131 60 r show-num;
#X floatatom 131 82 5 0 0 0 - - -, f 5;
#X msg -78 291 \$1 3000;
#X obj 467 250 t b b;
#X msg 467 300 0;
#X msg 497 305 1;
#X msg 497 329 \$1 1000;
#X obj 498 352 line;
#X obj 467 275 del 500;
#X obj 466 231 r tochbg;
#X floatatom 502 375 5 0 0 0 - - -, f 5;
#X obj 695 454 table vol_1 200;
#X obj 696 479 table vol_2 200;
#X obj 696 503 table vol_3 200;
#X msg 224 360 960 600 0 0;
#X msg 592 279 stereo \$1;
#X obj 977 191 vradio 15 1 0 4 empty empty empty 0 -8 0 10 -262144
-1 -1 2;
#X text 615 198 2 screen mode;
#X text 614 212 Red / Green mode;
#X text 615 182 off;
#X msg 764 164 stereoSep \$1;
#X floatatom 764 142 5 0 0 0 - - -, f 5;
#X msg 665 163 stereoFoc \$1;
#X floatatom 665 139 5 0 0 0 - - -, f 5;
#X text 614 227 Crystal Glasses mode (needs hardware support!);
#X obj 593 301 s \$0-gemwin;
#X floatatom 866 315 5 0 0 0 - - -, f 5;
#X floatatom 903 315 5 0 0 0 - - -, f 5;
#X floatatom 829 319 5 0 0 0 - - -, f 5;
#X obj 846 346 pack f f;
#X msg 846 371 \$2 \$1;
#X obj 283 451 r \$0-gemwin;
#X obj 859 41 r hid;
#X obj 858 63 route key_225 key_30 key_31 key_32;
#X obj 893 111 spigot;
#X obj 949 111 spigot;
#X obj 1003 111 spigot;
#X obj 893 133 sel 1;
#X obj 949 134 sel 1;
#X obj 1002 135 sel 1;
#X msg 893 155 0;
#X msg 951 159 1;
#X msg 1003 161 2;
#X floatatom 845 472 5 0 0 0 - - -, f 5;
#X obj 847 425 bng 15 250 50 0 empty empty empty 17 7 0 10 -262144
-1 -1;
#X obj 844 450 randomF 3;
#X floatatom 917 470 5 0 0 0 - - -, f 5;
#X obj 919 423 bng 15 250 50 0 empty empty empty 17 7 0 10 -262144
-1 -1;
#X obj 916 448 randomF 20;
#X obj 845 394 route 16 17 18 19;
#X obj 296 -2 inlet;
#X msg 151 205 1;
#X obj -20 -4 gemkeyboard;
#X floatatom -20 18 5 0 0 0 - - -, f 5;
#X obj -20 37 sel 53;
#X obj 296 20 t b b a;
#X msg 185 205 0;
#X msg 355 339 \$1 \$2;
#X msg 224 318 set \$1 \$2 \$3 \$4;
#X obj 280 46 del 100;
#X obj 697 358 loadbang;
#X obj 697 380 del 3000;
#X msg 697 405 gem_main;
#X obj 697 427 print;
#X obj 340 629 udpsend;
#X obj 337 622 tgl 15 0 empty empty empty 17 7 0 10 -262144 -1 -1 0
1;
#X msg 299 552 disconnect;
#X obj 299 524 sel 0 1;
#X obj 360 523 spigot;
#X obj 558 599 udpsend;
#X obj 184 151 tgl 15 0 empty empty empty 17 7 0 10 -262144 -1 -1 0
1;
#X msg 520 552 disconnect;
#X obj 520 524 sel 0 1;
#X obj 581 523 spigot;
#X msg 558 572 connect localhost 9999;
#X msg 337 572 connect 192.168.0.100 10000;
#X msg 95 532 connect 192.168.0.125 10010;
#X obj 244 589 r net;
#X obj 234 719 udpsend;
#X obj 221 727 tgl 15 0 empty empty empty 17 7 0 10 -262144 -1 -1 0
1;
#X msg 183 657 disconnect;
#X obj 183 629 sel 0 1;
#X obj 244 628 spigot;
#X text 408 598 frank circle;
#X text 632 597 aluan sound;
#X text 168 559 vibert circle;
#X obj 144 118 tgl 30 0 empty empty empty 17 7 0 10 -258113 -1 -1 0
1;
#X text 174 117 0 net;
#X text 174 135 1 local;
#X obj 582 637 sel 0 1;
#X obj 221 16 loadbang;
#X msg 221 38 0;
#X obj -134 643 sel 0 1;
#X obj -139 527 sel 0 1;
#X msg -112 696 set connect localhost 10002;
#X floatatom -127 229 5 0 0 0 - - -, f 5;
#X obj -127 412 s net;
#X obj -127 390 packOSC;
#X msg -127 365 send /mask \$1, f 18;
#X msg 604 690 set connect localhost 10000;
#X obj -127 319 int;
#X obj -127 298 * 255;
#X floatatom -127 342 5 0 0 0 - - -, f 5;
#X obj -81 134 loadbang;
#X msg -81 156 1;
#X msg -127 250 \$1 1000;
#X obj -127 272 line;
#X msg 221 676 connect 192.168.0.100 10002;
#X msg 582 664 set connect 192.168.0.100 10000;
#X msg -134 671 set connect 192.168.0.100 10002;
#X obj -120 15 gemkeyboard;
#X floatatom -120 37 5 0 0 0 - - -, f 5;
#X obj -120 56 sel 51;
#X floatatom 54 221 5 0 0 0 - - -, f 5;
#X obj -120 100 line;
#X msg -120 78 1 \, 0 30000;
#N canvas 937 163 800 483 mask& 0;
#X obj 196 -76 inlet;
#X obj 207 87 r W_H;
#X obj 83 121 rectangle 4 4;
#X obj 226 107 expr ($f1/$f2)*4;
#X obj 83 74 colorRGB 0 0 0 0;
#X obj 196 -28 line;
#X msg 196 -50 \$1 1000;
#X obj 83 97 alpha;
#X obj 269 72 s net;
#X obj 269 50 packOSC;
#X msg 269 25 send /bg \$1;
#X obj 196 -4 expr 1- $f1;
#X obj 83 50 gemhead 9999;
#X obj 458 120 r hid;
#X obj 458 152 route key_25;
#X obj 281 348 r W_H;
#X obj 153 401 rectangle 4 4;
#X obj 281 373 expr ($f1/$f2)*4;
#X obj 156 317 colorRGB 1 1 1 0;
#X obj 155 234 gemhead 1000;
#X obj 155 256 t a b;
#X obj 267 260 line;
#X obj 156 339 spigot;
#X obj 388 186 r hid;
#X obj 388 240 tgl 15 0 empty empty empty 17 7 0 10 -262144 -1 -1 0
1;
#X obj 388 218 route key_225 key_33;
#X obj 456 243 sel 1;
#X obj 543 203 r mouse_pos;
#X obj 543 261 moses 0;
#X obj 266 148 f;
#X obj 298 147 + 1;
#X obj 329 148 % 30;
#X obj 585 312 int;
#X floatatom 584 386 5 0 0 0 - - -, f 5;
#X obj 157 285 alpha 1;
#X msg 543 232 \$2;
#X obj 268 217 sel 0;
#X msg 267 238 1 \, 0 100;
#X obj 585 334 moses 4;
#X msg 584 357 4;
#X obj 437 414 s net;
#X obj 437 392 packOSC;
#X msg 437 367 send /bomb 1;
#X obj 268 175 spigot;
#X obj 656 354 > 0;
#X obj 659 377 tgl 15 0 empty empty empty 17 7 0 10 -262144 -1 -1 0
1;
#X obj 269 196 spigot;
#X obj 585 290 k_range 0 3 60 4;
#X obj 292 -32 tgl 15 0 empty empty empty 17 7 0 10 -262144 -1 -1 0
1;
#X connect 0 0 6 0;
#X connect 1 0 3 0;
#X connect 3 0 2 1;
#X connect 4 0 7 0;
#X connect 5 0 10 0;
#X connect 5 0 11 0;
#X connect 6 0 5 0;
#X connect 7 0 2 0;
#X connect 9 0 8 0;
#X connect 10 0 9 0;
#X connect 11 0 4 4;
#X connect 12 0 4 0;
#X connect 13 0 14 0;
#X connect 15 0 17 0;
#X connect 17 0 16 1;
#X connect 18 0 22 0;
#X connect 19 0 20 0;
#X connect 20 0 34 0;
#X connect 20 1 29 0;
#X connect 21 0 18 4;
#X connect 22 0 16 0;
#X connect 23 0 25 0;
#X connect 24 0 46 1;
#X connect 24 0 22 1;
#X connect 25 0 24 0;
#X connect 25 1 26 0;
#X connect 27 0 35 0;
#X connect 28 1 47 0;
#X connect 29 0 30 0;
#X connect 29 0 43 0;
#X connect 30 0 31 0;
#X connect 31 0 29 1;
#X connect 32 0 38 0;
#X connect 33 0 31 1;
#X connect 34 0 18 0;
#X connect 35 0 28 0;
#X connect 35 0 44 0;
#X connect 36 0 37 0;
#X connect 36 0 42 0;
#X connect 37 0 21 0;
#X connect 38 0 39 0;
#X connect 38 1 33 0;
#X connect 39 0 33 0;
#X connect 41 0 40 0;
#X connect 42 0 41 0;
#X connect 43 0 46 0;
#X connect 44 0 43 1;
#X connect 44 0 45 0;
#X connect 46 0 36 0;
#X connect 47 0 32 0;
#X connect 48 0 6 0;
#X restore -69 214 pd mask& flash;
#X msg -138 555 set connect 192.168.0.125 10010;
#X msg -117 580 set connect localhost 10010;
#X msg 224 416 reset \, dimen \$1 \$2 \, FSAA 8 \, offset \$3 \$4 \,
color 0.13 0.13 0.13 \, cursor 1 \, frame 40 \, border 0 \, menubar
1 \, create \, 1;
#X obj 14 124 r bg-alpha;
#X obj 823 262 r ctlin;
#X obj 823 284 unpack f f f;
#X text 464 678 frank note;
#X connect 1 0 0 0;
#X connect 2 0 1 0;
#X connect 2 1 56 0;
#X connect 3 0 4 0;
#X connect 4 0 6 1;
#X connect 4 0 41 0;
#X connect 5 0 6 0;
#X connect 5 0 110 0;
#X connect 5 0 115 0;
#X connect 6 0 3 0;
#X connect 7 0 3 0;
#X connect 9 0 7 0;
#X connect 10 0 0 0;
#X connect 11 0 158 0;
#X connect 11 0 137 0;
#X connect 12 0 11 0;
#X connect 13 0 14 0;
#X connect 13 0 35 0;
#X connect 13 0 9 0;
#X connect 13 0 109 0;
#X connect 13 0 114 0;
#X connect 13 0 123 0;
#X connect 14 0 2 0;
#X connect 14 0 44 0;
#X connect 15 0 161 0;
#X connect 15 1 99 0;
#X connect 15 2 99 0;
#X connect 19 0 18 0;
#X connect 19 1 22 0;
#X connect 21 0 20 0;
#X connect 21 0 30 0;
#X connect 23 0 24 0;
#X connect 24 0 25 1;
#X connect 25 0 19 0;
#X connect 26 0 33 0;
#X connect 27 0 21 0;
#X connect 29 0 28 0;
#X connect 30 0 29 0;
#X connect 31 0 32 0;
#X connect 32 0 27 0;
#X connect 33 0 31 0;
#X connect 33 1 31 1;
#X connect 34 0 25 0;
#X connect 36 0 37 0;
#X connect 37 0 38 0;
#X connect 38 0 39 0;
#X connect 39 0 13 0;
#X connect 41 0 40 0;
#X connect 42 0 43 0;
#X connect 44 0 12 0;
#X connect 45 0 50 0;
#X connect 45 1 47 0;
#X connect 46 0 48 0;
#X connect 47 0 48 0;
#X connect 48 0 49 0;
#X connect 49 0 52 0;
#X connect 50 0 46 0;
#X connect 51 0 45 0;
#X connect 56 0 15 0;
#X connect 57 0 67 0;
#X connect 58 0 57 0;
#X connect 62 0 67 0;
#X connect 63 0 62 0;
#X connect 64 0 67 0;
#X connect 65 0 64 0;
#X connect 68 0 71 1;
#X connect 70 0 71 0;
#X connect 71 0 72 0;
#X connect 72 0 91 0;
#X connect 73 0 0 0;
#X connect 74 0 75 0;
#X connect 75 0 76 1;
#X connect 75 0 77 1;
#X connect 75 0 78 1;
#X connect 75 1 76 0;
#X connect 75 2 77 0;
#X connect 75 3 78 0;
#X connect 76 0 79 0;
#X connect 77 0 80 0;
#X connect 78 0 81 0;
#X connect 79 0 82 0;
#X connect 80 0 83 0;
#X connect 81 0 84 0;
#X connect 82 0 58 0;
#X connect 83 0 58 0;
#X connect 84 0 58 0;
#X connect 86 0 87 0;
#X connect 87 0 65 0;
#X connect 87 0 85 0;
#X connect 88 0 63 0;
#X connect 89 0 90 0;
#X connect 90 0 88 0;
#X connect 91 0 86 0;
#X connect 91 1 89 0;
#X connect 91 2 89 0;
#X connect 91 3 86 0;
#X connect 92 0 97 0;
#X connect 93 0 13 0;
#X connect 94 0 95 0;
#X connect 95 0 96 0;
#X connect 96 0 39 0;
#X connect 97 0 101 0;
#X connect 97 1 98 0;
#X connect 97 2 100 0;
#X connect 98 0 13 0;
#X connect 99 0 8 0;
#X connect 100 0 56 0;
#X connect 101 0 93 0;
#X connect 102 0 103 0;
#X connect 103 0 104 0;
#X connect 104 0 105 0;
#X connect 106 0 107 0;
#X connect 107 0 110 1;
#X connect 108 0 106 0;
#X connect 109 0 108 0;
#X connect 110 0 106 0;
#X connect 111 0 112 0;
#X connect 112 0 115 1;
#X connect 113 0 111 0;
#X connect 114 0 113 0;
#X connect 114 1 116 0;
#X connect 115 0 111 0;
#X connect 116 0 111 0;
#X connect 119 0 124 0;
#X connect 120 0 121 0;
#X connect 121 0 124 1;
#X connect 122 0 120 0;
#X connect 123 0 122 0;
#X connect 124 0 120 0;
#X connect 128 0 131 0;
#X connect 128 0 135 0;
#X connect 128 0 134 0;
#X connect 131 0 150 0;
#X connect 132 0 133 0;
#X connect 133 0 128 0;
#X connect 134 0 151 0;
#X connect 134 1 136 0;
#X connect 135 0 159 0;
#X connect 135 1 160 0;
#X connect 136 0 149 0;
#X connect 137 0 147 0;
#X connect 139 0 138 0;
#X connect 140 0 139 0;
#X connect 141 0 117 0;
#X connect 142 0 144 0;
#X connect 143 0 142 0;
#X connect 144 0 140 0;
#X connect 145 0 146 0;
#X connect 146 0 11 0;
#X connect 147 0 148 0;
#X connect 148 0 143 0;
#X connect 150 0 117 0;
#X connect 151 0 149 0;
#X connect 152 0 153 0;
#X connect 153 0 154 0;
#X connect 154 0 157 0;
#X connect 156 0 11 0;
#X connect 157 0 156 0;
#X connect 159 0 118 0;
#X connect 160 0 118 0;
#X connect 161 0 0 0;
#X connect 162 0 11 0;
#X connect 163 0 164 0;
#X connect 164 0 70 0;
#X connect 164 1 68 0;
#X coords 0 -1 1 1 130 70 1 100 100;
#X restore 37 234 pd gemwin-main;
#X obj 37 308 k_time;
#N canvas 750 470 793 716 boids 0;
#X obj -33 146 tgl 30 0 empty empty empty 17 7 0 10 -233017 -1 -262144
1 1;
#X obj 54 108 sel 1;
#X obj 54 63 r hid;
#X obj 55 674 s boid_pos;
#X obj 55 500 gemhead;
#X obj 68 580 loadbang;
#X obj 194 262 gemhead;
#X obj 62 420 loadbang;
#X msg 62 448 auto 1;
#X obj 342 377 f;
#X obj 403 376 % 100;
#X obj 342 401 / 100;
#X obj -106 286 s auto-boids;
#X obj 197 571 circle 0.2;
#X floatatom 254 543 5 0 0 0 - - -, f 5;
#X floatatom 337 429 5 0 0 0 - - -, f 5;
#X obj 55 548 t b;
#X obj 255 10 sel 1;
#X obj 329 6 r hid;
#X obj 255 77 spigot;
#X msg 255 99 0;
#X obj 329 30 route key_29 key_44;
#X obj -33 91 loadbang;
#X obj 369 376 + 10;
#X obj 170 189 loadbang;
#X msg 170 213 0;
#X msg -73 602 attractpt \$1 \$2;
#X obj -73 572 pack f f;
#X obj 196 494 pix_texture;
#X obj 336 459 expr 0.25*abs($f1-0.5);
#X obj 194 383 colorRGB 1 1 0 0.8;
#X floatatom 479 137 5 0 0 0 - - -, f 5;
#X floatatom 523 137 5 0 0 0 - - -, f 5;
#X obj 481 158 pack f f;
#X obj 483 281 / 127;
#X msg 485 186 \$2 \$1;
#X obj 26 211 tgl 30 0 empty empty empty 17 7 0 10 -262144 -1 -1 0
1;
#X obj 104 108 sel 1;
#X obj 481 211 route 41 42;
#X obj 528 281 / 127;
#X msg 54 132 1;
#X msg 105 130 0;
#X obj 54 85 route key_54 key_55 key_56;
#X obj 260 282 v tagX;
#X obj 378 290 v tagY;
#X obj 2 310 line;
#X obj 66 364 > 0;
#X obj 66 386 change;
#X obj 194 415 pix_image img/tga.png;
#X obj 195 450 rotateXYZ;
#X obj 336 483 + 0.1;
#X obj 194 353 translateXYZ 0 0 0;
#X obj 307 325 k_move_1;
#X obj 277 231 line;
#X obj 364 259 line;
#X obj 194 286 t a b b;
#X obj 196 539 alpha 1;
#X obj 66 337 * 0.8;
#X obj 56 653 boids2d 40;
#X msg 68 601 number 40 \, neighbors 3 \, maxspeed 6 \, minspeed 2
\, center 5 \, attract 3 \, match 0.2 \, avoid 7 \, repel 3 \, edgedist
10 \, speed 5 \, inertia 4.5 \, accel 10 \, prefdist 0.2;
#X obj 384 67 r mouse_pos;
#X obj 281 145 unpack f f;
#X msg 361 203 \$1 10;
#X msg 277 209 \$1 10;
#X obj 279 172 k_smooth 1;
#X obj 369 169 k_smooth 1;
#X obj 500 -19 r hid;
#X obj 511 54 r mouse_right;
#X obj 383 97 spigot;
#X obj 381 121 spigot;
#X msg -33 113 1;
#X obj 479 84 r ctlin;
#X obj 479 106 unpack f f f;
#X obj 500 3 route key_6;
#X obj 485 29 tgl 15 0 empty empty empty 17 7 0 10 -262144 -1 -1 0
1;
#X msg 2 287 \$1 500;
#X obj -115 349 r save;
#X obj -115 373 bng 15 250 50 0 empty empty empty 17 7 0 10 -262144
-1 -1;
#X obj -115 393 t b b;
#X obj -55 419 r index_multi;
#X obj -115 500 tabwrite drag_state;
#X obj -237 98 bng 15 250 50 0 empty empty empty 17 7 0 10 -262144
-1 -1;
#X obj -213 98 r index_multi;
#X obj -237 74 r load;
#X obj -238 159 tabread drag_state;
#X obj -238 133 f 0;
#X obj -73 443 f 0;
#X obj -115 477 f 0;
#X connect 0 0 12 0;
#X connect 0 0 4 0;
#X connect 1 0 40 0;
#X connect 2 0 42 0;
#X connect 4 0 16 0;
#X connect 5 0 59 0;
#X connect 6 0 55 0;
#X connect 7 0 8 0;
#X connect 8 0 56 0;
#X connect 9 0 11 0;
#X connect 9 0 23 0;
#X connect 10 0 9 1;
#X connect 11 0 15 0;
#X connect 14 0 13 1;
#X connect 15 0 29 0;
#X connect 16 0 58 0;
#X connect 17 0 19 0;
#X connect 18 0 21 0;
#X connect 19 0 20 0;
#X connect 21 0 19 1;
#X connect 21 1 17 0;
#X connect 22 0 70 0;
#X connect 23 0 10 0;
#X connect 24 0 25 0;
#X connect 25 0 6 0;
#X connect 26 0 58 0;
#X connect 27 0 26 0;
#X connect 28 0 56 0;
#X connect 29 0 50 0;
#X connect 30 0 48 0;
#X connect 31 0 33 0;
#X connect 32 0 33 1;
#X connect 33 0 35 0;
#X connect 34 0 36 0;
#X connect 35 0 38 0;
#X connect 36 0 75 0;
#X connect 36 0 12 0;
#X connect 36 0 87 1;
#X connect 37 0 41 0;
#X connect 38 0 34 0;
#X connect 38 1 39 0;
#X connect 40 0 36 0;
#X connect 41 0 36 0;
#X connect 42 0 1 0;
#X connect 42 1 37 0;
#X connect 45 0 57 0;
#X connect 46 0 47 0;
#X connect 47 0 6 0;
#X connect 48 0 49 0;
#X connect 49 0 28 0;
#X connect 50 0 14 0;
#X connect 51 0 30 0;
#X connect 52 0 49 3;
#X connect 53 0 27 0;
#X connect 53 0 43 0;
#X connect 53 0 52 1;
#X connect 53 0 51 1;
#X connect 54 0 44 0;
#X connect 54 0 52 2;
#X connect 54 0 51 2;
#X connect 54 0 27 1;
#X connect 55 0 51 0;
#X connect 55 1 9 0;
#X connect 55 2 52 0;
#X connect 56 0 13 0;
#X connect 57 0 30 4;
#X connect 57 0 46 0;
#X connect 58 0 3 0;
#X connect 59 0 58 0;
#X connect 60 0 68 0;
#X connect 61 0 64 0;
#X connect 61 1 65 0;
#X connect 62 0 54 0;
#X connect 63 0 53 0;
#X connect 64 0 63 0;
#X connect 65 0 62 0;
#X connect 66 0 73 0;
#X connect 67 0 69 1;
#X connect 68 0 69 0;
#X connect 69 0 61 0;
#X connect 70 0 0 0;
#X connect 71 0 72 0;
#X connect 72 0 31 0;
#X connect 72 1 32 0;
#X connect 73 0 74 0;
#X connect 74 0 68 1;
#X connect 74 0 75 0;
#X connect 75 0 45 0;
#X connect 76 0 77 0;
#X connect 77 0 78 0;
#X connect 78 0 87 0;
#X connect 78 1 86 0;
#X connect 79 0 86 1;
#X connect 81 0 85 0;
#X connect 82 0 85 1;
#X connect 83 0 81 0;
#X connect 84 0 36 0;
#X connect 85 0 84 0;
#X connect 86 0 80 1;
#X connect 87 0 80 0;
#X coords 0 716 1 715 80 50 0;
#X restore 179 250 pd boids;
#X obj 349 163 k_cpu;
#N canvas 116 23 1265 724 GLSL 0;
#X obj 256 194 glsl_fragment;
#X obj 256 246 glsl_program;
#X msg 331 218 link \$1;
#X obj 256 381 pix_texture;
#X msg 176 323 rectangle 0;
#X obj 176 300 loadbang;
#X obj 346 166 f;
#X obj 256 349 spigot;
#X obj 304 351 tgl 15 0 empty empty empty 17 7 0 10 -262144 -1 -1 0
1;
#X obj -200 261 t b a;
#X obj -200 348 t a b;
#X obj -200 390 pix_buffer_write \$0-temp;
#X msg -200 292 snap;
#X msg -173 369 0;
#X obj 257 73 pix_buffer \$0-temp 1;
#X obj 103 118 hradio 15 1 0 5 empty empty empty 0 -8 0 10 -262144
-1 -1 0;
#X obj 304 323 > 0;
#X obj 462 306 sel 1 2 3 4;
#X obj 256 437 scale 0.265;
#X obj -200 320 pix_snap 0 0 800 500;
#X obj 256 461 rectangle 6.4 4;
#X obj -200 231 gemhead 30000;
#X obj -123 -189 r hid;
#X obj -129 -117 spigot;
#X msg -130 -66 0;
#X msg -82 -68 1;
#X msg -35 -65 2;
#X msg 13 -63 3;
#X msg 60 -63 4;
#X floatatom -93 -24 5 0 0 0 - - -, f 5;
#X obj -96 -142 route key_226;
#X obj -129 -92 route key_30 key_31 key_32 key_33 key_34;
#X obj -123 -167 t a a;
#X obj 373 166 + 0.01;
#X obj 535 87 r W_H;
#X obj 535 112 unpack f f;
#X obj 535 145 /;
#X obj 535 174 * 4;
#X obj -83 292 r W_H;
#X floatatom 535 202 5 0 0 0 - - -, f 5;
#X obj 392 218 r W_H;
#X obj -20 226 gemhead 40000;
#X obj -20 295 gemframebuffer;
#X obj 25 248 loadbang;
#X obj -20 318 translateXYZ 0 0 -4;
#X obj -20 389 pix_buffer_read \$0-temp;
#X msg 7 364 0;
#X obj -20 342 t a b;
#X obj -20 462 pix_texture;
#X msg 325 270 dimen 960 600;
#X obj 117 472 loadbang;
#X msg 117 496 rectangle 0 \, texunit 0;
#X obj 420 167 fmod 1;
#X obj 256 126 t a b;
#X obj 106 139 hsl 70 15 0 1 0 0 empty empty empty -2 -8 0 10 -262144
-1 -1 6900 1;
#X obj 18 141 del 100;
#X obj 18 192 line;
#X msg 102 177 alpha \$1;
#X obj 256 324 alpha;
#X obj -94 64 t b f;
#X obj 277 299 t f f f;
#X obj -132 117 == 4;
#X obj -167 158 spigot;
#X obj -496 -160 r click_1;
#X obj -496 -134 bng 15 250 50 0 empty empty empty 17 7 0 10 -262144
-1 -1;
#X obj -498 -25 line;
#X floatatom -498 55 5 0 0 0 - - -, f 5;
#X obj -496 -113 t b b b;
#X obj -498 105 *;
#X obj -498 75 t f f;
#X obj -471 104 *;
#X obj -498 32 expr abs(2.0*abs($f1-0.5)-1.0);
#X msg -499 154 red \$1 \$2;
#X obj -498 129 pack f f;
#X msg -498 -47 1 \, 0 500;
#X obj -168 183 s toglsl;
#X obj 186 229 r toglsl;
#X obj -562 179 bng 15 250 50 0 empty empty empty 17 7 0 10 -262144
-1 -1;
#X obj -564 288 line;
#X floatatom -536 365 5 0 0 0 - - -, f 5;
#X obj -562 200 t b b b;
#X obj -536 415 *;
#X obj -536 385 t f f;
#X obj -509 414 *;
#X obj -536 339 expr abs(2.0*abs($f1-0.5)-1.0);
#X obj -536 439 pack f f;
#X msg -564 266 1 \, 0 500;
#X obj -385 187 bng 15 250 50 0 empty empty empty 17 7 0 10 -262144
-1 -1;
#X obj -387 296 line;
#X floatatom -387 374 5 0 0 0 - - -, f 5;
#X obj -385 208 t b b b;
#X obj -387 427 *;
#X obj -387 397 t f f;
#X obj -360 426 *;
#X obj -387 351 expr abs(2.0*abs($f1-0.5)-1.0);
#X obj -387 451 pack f f;
#X msg -387 274 1 \, 0 500;
#X obj -385 161 r click_3;
#X obj -562 153 r click_2;
#X msg -537 464 green \$1 \$2;
#X msg -388 476 blue \$1 \$2;
#X obj -497 1 *;
#X obj -387 318 *;
#X obj -564 313 *;
#X obj -544 223 randomF 0.2;
#X obj -497 250 randomF 0.2;
#X obj -367 231 randomF 0.2;
#X obj -320 258 randomF 0.2;
#X obj -431 -63 randomF 0.2;
#X obj -478 -90 randomF 0.2;
#X obj -478 -67 - 0.1;
#X obj -431 -40 - 0.1;
#X obj -544 246 - 0.1;
#X obj -497 273 - 0.1;
#X obj -367 254 - 0.1;
#X obj -320 281 - 0.1;
#X obj 256 411 translateXYZ 0 0 2.949;
#X obj 256 99 gemhead -1;
#X obj 31 28 s hideffect;
#X floatatom 175 169 5 0 0 0 - - -, f 5;
#X obj 59 211 expr pow($f1 \, 2);
#X obj 130 -53 gemhead 1;
#X obj 130 -31 pix_image img/paper-1.jpg;
#X obj 130 28 pix_resize 800 400;
#X obj 247 30 r W_H;
#X msg 247 52 dimen \$1 \$2;
#X obj 18 423 pix_diff;
#X obj -94 5 t f b f f f;
#X msg 130 -85 0;
#X msg 166 -84 1;
#X obj -20 488 rectangle 4 4;
#X obj 130 -3 translateXYZ;
#X obj -241 41 s net;
#X obj -241 14 packOSC;
#X msg -242 -13 send /effect \$1;
#X obj 129 -117 sel 1 2;
#X obj -198 -96 loadbang;
#X obj -94 30 pipe 2000;
#X obj -36 29 pipe 2000;
#X msg -59 166 1 \, 0 2000;
#X msg 18 166 0 \, 1 2000;
#X msg 392 244 set dimen \$1 \$2;
#X msg 346 195 time \$1;
#X obj 461 403 print;
#X obj 407 -38 r voll;
#X msg 25 271 dimen 1200 1200;
#X msg 462 336 open _glsl/glitch_2.frag;
#X msg 407 125 vol \$1;
#X floatatom 407 104 5 0 0 0 - - -, f 5;
#X msg 496 385 open _glsl/Noisy_Mirror.frag;
#X obj 407 0 k_maxmin 100;
#X obj -68 -113 tgl 15 0 empty empty empty 17 7 0 10 -262144 -1 -1
0 1;
#X msg 514 410 open _glsl/postprocessing.frag;
#X msg 480 361 open _glsl/video_filters.frag;
#X connect 0 0 1 0;
#X connect 0 1 2 0;
#X connect 1 0 58 0;
#X connect 1 1 49 0;
#X connect 2 0 1 0;
#X connect 3 0 116 0;
#X connect 4 0 3 0;
#X connect 5 0 4 0;
#X connect 6 0 142 0;
#X connect 6 0 33 0;
#X connect 7 0 3 0;
#X connect 8 0 7 1;
#X connect 9 0 12 0;
#X connect 9 1 19 0;
#X connect 10 0 11 0;
#X connect 10 1 13 0;
#X connect 12 0 19 0;
#X connect 13 0 11 1;
#X connect 15 0 60 0;
#X connect 16 0 8 0;
#X connect 17 0 146 0;
#X connect 17 1 153 0;
#X connect 17 2 149 0;
#X connect 17 3 152 0;
#X connect 18 0 20 0;
#X connect 19 0 10 0;
#X connect 21 0 9 0;
#X connect 22 0 32 0;
#X connect 23 0 31 0;
#X connect 24 0 29 0;
#X connect 25 0 29 0;
#X connect 26 0 29 0;
#X connect 27 0 29 0;
#X connect 28 0 29 0;
#X connect 29 0 127 0;
#X connect 29 0 134 0;
#X connect 30 0 23 1;
#X connect 30 0 151 0;
#X connect 31 0 24 0;
#X connect 31 1 25 0;
#X connect 31 2 26 0;
#X connect 31 3 27 0;
#X connect 31 4 28 0;
#X connect 32 0 23 0;
#X connect 32 1 30 0;
#X connect 33 0 52 0;
#X connect 34 0 35 0;
#X connect 35 0 36 0;
#X connect 35 1 36 1;
#X connect 36 0 37 0;
#X connect 37 0 39 0;
#X connect 38 0 19 2;
#X connect 39 0 20 1;
#X connect 40 0 141 0;
#X connect 41 0 42 0;
#X connect 42 0 44 0;
#X connect 43 0 145 0;
#X connect 44 0 47 0;
#X connect 45 0 48 0;
#X connect 46 0 45 1;
#X connect 47 0 45 0;
#X connect 47 1 46 0;
#X connect 48 0 130 0;
#X connect 49 0 1 0;
#X connect 50 0 51 0;
#X connect 51 0 48 0;
#X connect 52 0 6 1;
#X connect 53 0 0 0;
#X connect 53 1 6 0;
#X connect 54 0 57 0;
#X connect 54 0 119 0;
#X connect 55 0 140 0;
#X connect 56 0 120 0;
#X connect 57 0 1 0;
#X connect 58 0 7 0;
#X connect 59 0 55 0;
#X connect 59 1 15 0;
#X connect 60 0 17 0;
#X connect 60 1 16 0;
#X connect 61 0 62 1;
#X connect 62 0 75 0;
#X connect 63 0 64 0;
#X connect 64 0 67 0;
#X connect 65 0 101 1;
#X connect 65 0 101 0;
#X connect 66 0 69 0;
#X connect 67 0 74 0;
#X connect 67 1 109 0;
#X connect 67 2 108 0;
#X connect 68 0 73 0;
#X connect 69 0 68 0;
#X connect 69 1 70 0;
#X connect 70 0 73 1;
#X connect 71 0 66 0;
#X connect 72 0 62 0;
#X connect 73 0 72 0;
#X connect 74 0 65 0;
#X connect 76 0 1 0;
#X connect 77 0 80 0;
#X connect 78 0 103 0;
#X connect 78 0 103 1;
#X connect 79 0 82 0;
#X connect 80 0 86 0;
#X connect 80 1 104 0;
#X connect 80 2 105 0;
#X connect 81 0 85 0;
#X connect 82 0 81 0;
#X connect 82 1 83 0;
#X connect 83 0 85 1;
#X connect 84 0 79 0;
#X connect 85 0 99 0;
#X connect 86 0 78 0;
#X connect 87 0 90 0;
#X connect 88 0 102 0;
#X connect 88 0 102 1;
#X connect 89 0 92 0;
#X connect 90 0 96 0;
#X connect 90 1 106 0;
#X connect 90 2 107 0;
#X connect 91 0 95 0;
#X connect 92 0 91 0;
#X connect 92 1 93 0;
#X connect 93 0 95 1;
#X connect 94 0 89 0;
#X connect 95 0 100 0;
#X connect 96 0 88 0;
#X connect 97 0 87 0;
#X connect 98 0 77 0;
#X connect 99 0 62 0;
#X connect 100 0 62 0;
#X connect 101 0 71 0;
#X connect 102 0 94 0;
#X connect 103 0 84 0;
#X connect 104 0 112 0;
#X connect 105 0 113 0;
#X connect 106 0 114 0;
#X connect 107 0 115 0;
#X connect 108 0 111 0;
#X connect 109 0 110 0;
#X connect 110 0 68 1;
#X connect 111 0 70 1;
#X connect 112 0 81 1;
#X connect 113 0 83 1;
#X connect 114 0 91 1;
#X connect 115 0 93 1;
#X connect 116 0 18 0;
#X connect 117 0 53 0;
#X connect 120 0 54 0;
#X connect 121 0 122 0;
#X connect 123 0 126 1;
#X connect 124 0 125 0;
#X connect 125 0 123 0;
#X connect 127 0 137 0;
#X connect 127 1 139 0;
#X connect 127 2 138 0;
#X connect 127 3 118 0;
#X connect 127 4 135 0;
#X connect 128 0 121 0;
#X connect 129 0 121 0;
#X connect 131 0 123 0;
#X connect 133 0 132 0;
#X connect 134 0 133 0;
#X connect 135 0 129 0;
#X connect 135 1 129 0;
#X connect 135 2 128 0;
#X connect 136 0 24 0;
#X connect 137 0 59 0;
#X connect 138 0 61 0;
#X connect 139 0 56 0;
#X connect 140 0 56 0;
#X connect 141 0 49 0;
#X connect 142 0 1 0;
#X connect 144 0 150 0;
#X connect 145 0 42 0;
#X connect 146 0 0 0;
#X connect 146 0 143 0;
#X connect 147 0 1 0;
#X connect 148 0 147 0;
#X connect 149 0 0 0;
#X connect 149 0 143 0;
#X connect 150 0 148 0;
#X connect 152 0 0 0;
#X connect 152 0 143 0;
#X connect 153 0 0 0;
#X connect 153 0 143 0;
#X coords 0 -1 1 1 80 60 1 100 100;
#X restore 262 162 pd GLSL;
#N canvas 534 41 1280 747 mouseIn 0;
#X obj 504 -29 gemmouse 1 1;
#X obj 499 208 pack f f;
#X obj 544 141 expr ($f1*-8)+4;
#X obj 293 436 list;
#X msg 331 453 1;
#X msg 374 451 2;
#X obj 293 372 t b b;
#X obj 331 490 gate 2;
#X obj 331 517 list;
#X obj 331 538 list prepend;
#X obj 438 426 + 1;
#X floatatom 408 452 5 0 0 0 - - -, f 5;
#X obj 331 560 s addline;
#X obj 462 405 s allclose;
#X obj 462 368 tgl 30 0 empty empty empty 17 7 0 10 -262144 -1 -1 0
1;
#X obj 462 323 loadbang;
#X msg 462 344 0;
#X obj 408 427 f 0;
#X msg 423 390 0;
#X obj 629 40 r W_H;
#X obj 629 64 expr ($f1/$f2)*4;
#X floatatom 630 87 5 0 0 0 - - -, f 5;
#X obj 504 117 expr ($f1*$f2*2)-$f2;
#X obj 504 75 moses 1.001;
#X obj 521 94 moses 1.001;
#X obj 508 653 curve 2;
#X obj 138 562 gemhead;
#X obj 138 592 translateXYZ;
#X obj 508 489 gemhead 1000;
#X obj 429 595 loadbang;
#X obj 138 661 alpha;
#X obj 75 609 loadbang;
#X msg 75 637 auto 1;
#X obj 165 641 tgl 15 0 empty empty empty 17 7 0 10 -262144 -1 -1 1
1;
#X obj 670 446 list;
#X obj 670 474 list append 0;
#X obj 543 435 list;
#X obj 543 456 list append 0;
#X obj 508 465 tgl 15 0 empty empty empty 17 7 0 10 -262144 -1 -1 0
1;
#X obj 543 409 metro 30;
#X obj 543 385 tgl 15 0 empty empty empty 17 7 0 10 -262144 -1 -1 0
1;
#X msg 429 627 draw point;
#X obj 138 500 tgl 15 0 empty empty empty 17 7 0 10 -262144 -1 -1 0
1;
#X obj 571 209 v mouseY;
#X obj 531 186 v mouseX;
#X obj 498 296 s boidParam;
#X msg 498 273 attractpt \$1 \$2;
#X obj 508 594 alpha;
#X obj 445 542 loadbang;
#X msg 445 570 auto 1;
#X obj 535 574 tgl 15 0 empty empty empty 17 7 0 10 -262144 -1 -1 1
1;
#X msg 624 607 res \$1;
#X obj 18 48 hid;
#X obj 18 122 route key;
#X obj -89 413 list;
#X msg 46 273 1;
#X obj 46 250 sel 1;
#X obj -90 511 s mouseMove;
#X obj 100 269 sel 1;
#X obj 213 260 sel 1;
#X msg 99 291 2;
#X msg 213 282 3;
#X obj 276 214 tgl 15 0 empty empty empty 17 7 0 10 -262144 -1 -1 0
1;
#X obj 538 41 s mouse_left;
#X obj 351 313 r mouse_left;
#X obj 543 322 r mouse_left;
#X obj 544 165 t f f;
#X obj 504 141 t f f;
#X obj 525 253 s mouse_pos;
#X obj 691 425 r mouse_pos;
#X obj 314 413 r mouse_pos;
#X obj 577 434 r mouse_pos;
#X obj 573 -6 s mouse_right;
#X obj 293 342 sel 1;
#X obj 498 230 t a a;
#X obj 351 334 spigot;
#X obj 351 378 t b b b;
#X obj 423 342 sel 1;
#X obj 351 357 sel 0;
#X obj 543 360 spigot;
#X obj 266 287 r mouse_left;
#X obj 266 313 spigot;
#X obj 280 628 sel 1;
#X obj 280 672 line;
#X obj 138 685 circle 0.2;
#X obj 138 520 t f f;
#X obj 201 632 sel 0;
#X msg 201 652 0 0;
#X obj 207 567 v mouseY;
#X obj 191 547 v mouseX;
#X obj 191 521 t b b;
#X obj -4 380 expr if($f1+$f2+$f3>=1 \, 1 \, 0);
#X obj -71 284 v mouseY;
#X obj -116 260 v mouseX;
#X obj -116 190 tgl 15 0 empty empty empty 17 7 0 10 -262144 -1 -1
0 1;
#X obj -116 211 metro 30;
#X obj -116 304 pack f f;
#X obj -116 235 t b b;
#X floatatom 86 318 5 0 0 0 - - -, f 5;
#X obj 422 487 s show-num;
#X obj -203 505 s mouseSize;
#X obj -204 381 distance2d;
#X obj -203 357 gate 2;
#X obj -189 260 loadbang;
#X obj -203 330 + 1;
#X msg -189 281 0;
#X obj 224 147 loadbang;
#X msg 224 169 0;
#X obj 134 -20 route key_20 key_26 key_8;
#X obj 134 54 tgl 15 0 empty empty empty 17 7 0 10 -262144 -1 -1 1
1;
#X obj 132 83 list;
#X obj 132 109 s mouseOpen;
#X msg 160 54 1;
#X obj 210 54 tgl 15 0 empty empty empty 17 7 0 10 -262144 -1 -1 1
1;
#X obj 247 95 list;
#X obj 247 121 s mouseOpen;
#X obj 328 78 tgl 15 0 empty empty empty 17 7 0 10 -262144 -1 -1 1
1;
#X obj 326 99 list;
#X obj 326 120 s mouseOpen;
#X msg 275 66 2;
#X msg 354 78 3;
#X obj 134 27 sel 1;
#X obj 249 38 sel 1;
#X obj 328 52 sel 1;
#X obj 134 1 t f b;
#X obj 249 13 t f b;
#X obj 328 29 t f b;
#X obj -203 304 r mouse_right;
#X obj -89 453 spigot;
#X obj -47 427 r mouse_left;
#X text 563 650 draw little target;
#X obj 86 342 s gui-id;
#X obj -63 389 r gui-id;
#X obj -116 329 t a a;
#X obj 162 345 t b f;
#X obj 162 259 t f f f;
#X obj 81 243 s gui-2;
#X obj 62 219 t f f f;
#X obj -3 250 s gui-1;
#X obj 181 310 s gui-3;
#X obj -15 218 t f f f;
#X obj 34 344 t b f;
#X obj 276 186 route key_29 key_44;
#X text 326 165 board z &space;
#X obj 61 -28 inlet;
#X obj 18 77 spigot;
#X obj 19 146 t a a a a;
#X obj 49 171 s hid;
#X obj 433 22 s MouseX;
#X obj 433 46 s MouseY;
#X msg 280 649 0 \, 0.2 200;
#N canvas 229 294 450 300 center 0;
#X obj 115 57 inlet;
#X obj 265 57 inlet;
#X obj 109 146 expr ($f1+$f2)/2;
#X obj 140 173 expr ($f1+$f2)/2;
#X obj 91 237 outlet;
#X obj 135 236 outlet;
#X obj 113 96 unpack f f;
#X obj 270 91 unpack f f;
#X connect 0 0 6 0;
#X connect 1 0 7 0;
#X connect 2 0 4 0;
#X connect 3 0 5 0;
#X connect 6 0 2 0;
#X connect 6 1 3 0;
#X connect 7 0 2 1;
#X connect 7 1 3 1;
#X restore 741 522 pd center;
#X obj 718 494 gemhead;
#X obj 776 668 loadbang;
#X floatatom 803 606 5 0 0 0 - - -, f 5;
#X obj 716 628 rotateXYZ 0 0 0;
#X obj 716 653 text3d;
#X obj 997 419 unpack f f;
#X obj 1119 436 unpack f f;
#X obj 997 462 expr ($f1-$f2);
#X obj 1095 465 expr ($f1-$f2);
#X obj 996 490 expr atan2($f1 \, $f2)*180/3.1415926;
#X floatatom 996 513 5 0 0 0 - - -, f 5;
#X obj 895 320 k_aPos =====;
#X obj 895 261 gemhead;
#X obj 1029 260 loadbang;
#X obj 979 321 k_aPos =====;
#X obj 895 283 t a a;
#X obj 907 434 distance_n;
#X obj 996 544 - 90;
#X msg 776 691 3;
#X msg 1028 284 0.18;
#X obj 716 606 alpha;
#X obj 673 674 loadbang;
#X msg 673 702 auto 1;
#X obj 743 586 tgl 15 0 empty empty empty 17 7 0 10 -262144 -1 -1 1
1;
#X obj 318 216 expr if($f1+$f2==2 \, 1 \, 0);
#X obj 318 239 tgl 15 0 empty empty empty 17 7 0 10 -262144 -1 -1 0
1;
#X obj 724 258 s mouse_center;
#X obj -173 331 tgl 15 0 empty empty empty 17 7 0 10 -262144 -1 -1
0 1;
#X obj 44 492 list;
#X obj 65 461 r gui-id;
#X floatatom 44 517 5 0 0 0 - - -, f 5;
#X obj 49 425 sel 1;
#X obj 43 542 s tomove;
#X obj 508 514 GEMglPointSize 4;
#X floatatom 504 -6 5 0 0 0 - - -, f 5;
#X floatatom 521 16 5 0 0 0 - - -, f 5;
#X msg 760 710 font abs/ACaslonPro-BoldItalic.otf;
#X obj 718 546 translateXYZ;
#X obj 19 190 route key_30 key_31 key_32 key_43;
#X obj 162 225 tgl 15 0 empty empty empty 17 7 0 10 -262144 -1 -1 0
1;
#X obj 624 583 + 50;
#X obj 624 560 random 20;
#X obj 624 538 metro 50;
#X obj 850 562 int;
#X obj 850 466 moses 8;
#X msg 889 488 8;
#X floatatom 850 508 5 0 0 0 - - -, f 5;
#X obj 717 571 color 1 1 1;
#X obj 716 228 tgl 15 0 empty empty empty 17 7 0 10 -262144 -1 -1 0
1;
#X obj 138 612 colorRGB 0.13 0.98 0.6 0.7;
#X obj 418 695 colorRGB 0.13 0.98 0.6 0.7;
#X obj -21 -24 sel 1;
#X obj 61 -6 t f f;
#X msg -21 20 open keyboard \$1 \, 1;
#X obj -21 -2 tgl 15 0 empty empty empty 17 7 0 10 -262144 -1 -1 0
1;
#X obj 468 426 % 30;
#X obj 850 533 expr (($f1/8)*24);
#X msg 850 590 text --scale [\$1]--;
#X msg -181 89 open keyboard 0 \, 1;
#X obj 97 168 print;
#X obj 158 140 tgl 15 0 empty empty empty 17 7 0 10 -262144 -1 -1 0
1;
#X obj 166 166 inlet;
#X obj 97 141 spigot 0;
#X obj -197 443 list;
#X obj -176 416 r gui-id;
#X connect 0 0 186 0;
#X connect 0 1 187 0;
#X connect 0 2 63 0;
#X connect 0 3 200 0;
#X connect 0 4 72 0;
#X connect 1 0 74 0;
#X connect 2 0 66 0;
#X connect 3 0 7 1;
#X connect 4 0 7 0;
#X connect 5 0 7 0;
#X connect 6 0 3 0;
#X connect 6 1 4 0;
#X connect 7 0 8 1;
#X connect 7 1 8 0;
#X connect 8 0 9 0;
#X connect 9 0 12 0;
#X connect 10 0 207 0;
#X connect 11 0 9 1;
#X connect 11 0 99 0;
#X connect 14 0 13 0;
#X connect 15 0 16 0;
#X connect 16 0 14 0;
#X connect 17 0 10 0;
#X connect 17 0 11 0;
#X connect 18 0 17 1;
#X connect 19 0 20 0;
#X connect 20 0 21 0;
#X connect 21 0 22 1;
#X connect 22 0 67 0;
#X connect 23 0 22 0;
#X connect 24 0 2 0;
#X connect 26 0 27 0;
#X connect 27 0 201 0;
#X connect 28 0 185 0;
#X connect 29 0 41 0;
#X connect 30 0 84 0;
#X connect 31 0 32 0;
#X connect 31 0 33 0;
#X connect 32 0 30 0;
#X connect 33 0 30 1;
#X connect 34 0 35 0;
#X connect 35 0 25 1;
#X connect 35 0 25 2;
#X connect 35 0 166 1;
#X connect 36 0 37 0;
#X connect 37 0 25 1;
#X connect 37 0 163 1;
#X connect 38 0 28 0;
#X connect 38 0 152 0;
#X connect 38 0 164 0;
#X connect 38 0 194 0;
#X connect 39 0 36 0;
#X connect 40 0 39 0;
#X connect 41 0 25 0;
#X connect 42 0 85 0;
#X connect 46 0 45 0;
#X connect 47 0 25 0;
#X connect 48 0 49 0;
#X connect 48 0 50 0;
#X connect 49 0 47 0;
#X connect 50 0 47 1;
#X connect 51 0 25 0;
#X connect 52 0 145 0;
#X connect 53 0 146 0;
#X connect 55 0 98 0;
#X connect 56 0 55 0;
#X connect 58 0 60 0;
#X connect 59 0 61 0;
#X connect 60 0 98 0;
#X connect 61 0 98 0;
#X connect 62 0 75 1;
#X connect 62 0 79 1;
#X connect 62 0 81 1;
#X connect 62 0 42 0;
#X connect 64 0 75 0;
#X connect 65 0 79 0;
#X connect 66 0 1 1;
#X connect 66 1 43 0;
#X connect 67 0 1 0;
#X connect 67 1 44 0;
#X connect 69 0 34 1;
#X connect 70 0 3 1;
#X connect 71 0 36 1;
#X connect 73 0 6 0;
#X connect 73 0 34 0;
#X connect 73 0 90 0;
#X connect 74 0 46 0;
#X connect 74 1 68 0;
#X connect 75 0 78 0;
#X connect 76 0 3 0;
#X connect 76 1 5 0;
#X connect 76 2 17 0;
#X connect 77 0 16 0;
#X connect 77 0 18 0;
#X connect 78 0 76 0;
#X connect 79 0 40 0;
#X connect 79 0 38 0;
#X connect 80 0 81 0;
#X connect 81 0 73 0;
#X connect 81 0 82 0;
#X connect 82 0 150 0;
#X connect 83 0 84 1;
#X connect 85 0 26 0;
#X connect 85 1 86 0;
#X connect 86 0 87 0;
#X connect 87 0 83 0;
#X connect 88 0 27 2;
#X connect 89 0 27 1;
#X connect 90 0 89 0;
#X connect 90 1 88 0;
#X connect 91 0 94 0;
#X connect 92 0 96 1;
#X connect 93 0 96 0;
#X connect 94 0 95 0;
#X connect 95 0 97 0;
#X connect 96 0 133 0;
#X connect 97 0 93 0;
#X connect 97 1 92 0;
#X connect 98 0 131 0;
#X connect 101 0 100 0;
#X connect 102 0 101 1;
#X connect 102 1 101 0;
#X connect 103 0 105 0;
#X connect 104 0 102 0;
#X connect 105 0 104 0;
#X connect 106 0 107 0;
#X connect 107 0 62 0;
#X connect 107 0 38 0;
#X connect 108 0 124 0;
#X connect 108 1 125 0;
#X connect 108 2 126 0;
#X connect 108 3 142 0;
#X connect 109 0 110 0;
#X connect 110 0 111 0;
#X connect 112 0 110 1;
#X connect 113 0 114 0;
#X connect 114 0 115 0;
#X connect 116 0 117 0;
#X connect 117 0 118 0;
#X connect 119 0 114 1;
#X connect 120 0 117 1;
#X connect 121 0 109 0;
#X connect 122 0 113 0;
#X connect 123 0 116 0;
#X connect 124 0 121 0;
#X connect 124 1 112 0;
#X connect 125 0 122 0;
#X connect 125 1 119 0;
#X connect 126 0 123 0;
#X connect 126 1 120 0;
#X connect 127 0 104 0;
#X connect 127 0 179 0;
#X connect 128 0 57 0;
#X connect 129 0 128 1;
#X connect 132 0 54 1;
#X connect 133 0 102 1;
#X connect 133 1 128 0;
#X connect 134 0 91 0;
#X connect 134 1 91 2;
#X connect 135 0 134 0;
#X connect 135 1 139 0;
#X connect 135 2 59 0;
#X connect 137 0 141 0;
#X connect 137 1 136 0;
#X connect 137 2 58 0;
#X connect 140 0 91 0;
#X connect 140 1 138 0;
#X connect 140 2 56 0;
#X connect 141 0 91 0;
#X connect 141 1 91 1;
#X connect 142 0 62 0;
#X connect 142 0 176 1;
#X connect 142 1 176 0;
#X connect 144 0 204 0;
#X connect 145 0 53 0;
#X connect 146 0 190 0;
#X connect 146 1 108 0;
#X connect 146 2 147 0;
#X connect 146 3 214 0;
#X connect 150 0 83 0;
#X connect 151 0 189 1;
#X connect 151 1 189 2;
#X connect 152 0 189 0;
#X connect 153 0 170 0;
#X connect 153 0 188 0;
#X connect 154 0 155 3;
#X connect 155 0 156 0;
#X connect 157 0 159 0;
#X connect 157 1 160 0;
#X connect 158 0 159 1;
#X connect 158 1 160 1;
#X connect 159 0 161 1;
#X connect 160 0 161 0;
#X connect 161 0 162 0;
#X connect 162 0 154 0;
#X connect 162 0 169 0;
#X connect 163 0 151 0;
#X connect 163 0 168 0;
#X connect 163 0 157 0;
#X connect 164 0 167 0;
#X connect 165 0 171 0;
#X connect 166 0 151 1;
#X connect 166 0 168 1;
#X connect 166 0 158 0;
#X connect 167 0 163 0;
#X connect 167 1 166 0;
#X connect 168 0 196 0;
#X connect 169 0 163 3;
#X connect 169 0 166 3;
#X connect 170 0 156 1;
#X connect 171 0 163 2;
#X connect 171 0 166 2;
#X connect 172 0 155 0;
#X connect 173 0 174 0;
#X connect 173 0 175 0;
#X connect 174 0 172 0;
#X connect 175 0 172 1;
#X connect 176 0 177 0;
#X connect 177 0 77 0;
#X connect 180 0 182 0;
#X connect 181 0 180 1;
#X connect 182 0 184 0;
#X connect 183 0 180 0;
#X connect 185 0 202 0;
#X connect 186 0 148 0;
#X connect 186 0 23 0;
#X connect 187 0 149 0;
#X connect 187 0 24 0;
#X connect 188 0 156 0;
#X connect 189 0 199 0;
#X connect 190 0 140 0;
#X connect 190 1 137 0;
#X connect 190 2 135 0;
#X connect 190 3 191 0;
#X connect 191 0 183 0;
#X connect 192 0 51 0;
#X connect 193 0 192 0;
#X connect 194 0 193 0;
#X connect 195 0 209 0;
#X connect 196 0 198 0;
#X connect 196 1 197 0;
#X connect 197 0 198 0;
#X connect 198 0 208 0;
#X connect 199 0 172 0;
#X connect 200 0 178 0;
#X connect 201 0 30 0;
#X connect 202 0 47 0;
#X connect 203 0 206 0;
#X connect 204 0 203 0;
#X connect 204 1 145 1;
#X connect 205 0 52 0;
#X connect 206 0 205 0;
#X connect 207 0 17 1;
#X connect 208 0 195 0;
#X connect 209 0 156 0;
#X connect 210 0 52 0;
#X connect 212 0 214 1;
#X connect 213 0 212 0;
#X connect 214 0 211 0;
#X connect 216 0 215 1;
#X restore 267 302 pd mouseIn && guiIn;
#X obj 266 266 tgl 30 0 empty empty HID 35 7 0 10 -262144 -1 -1 1 1
;
#X obj 267 241 loadbang;
#X obj 179 274 etude_meta;
#X obj 179 316 vj_cursor;
#X obj 179 295 vj_griddot;
#X obj 180 342 clone 40 c-circle;
#N canvas 1186 405 836 660 savedata 0;
#X obj 321 491 s load;
#X obj 95 34 table ball_ss 30;
#X obj 97 61 table ball_x 30;
#X obj 96 89 table ball_y 30;
#X obj 67 180 table line_x 300;
#X obj 68 207 table line_y 300;
#X obj 259 492 s save;
#X msg 326 92 0;
#X floatatom 326 120 5 0 0 0 - - -, f 5;
#X msg 372 86 1;
#X msg 420 89 2;
#X msg 467 88 3;
#X msg 521 87 4;
#X obj 262 381 bng 15 250 50 0 empty empty empty 17 7 0 10 -262144
-1 -1;
#X obj 324 386 bng 15 250 50 0 empty empty empty 17 7 0 10 -262144
-1 -1;
#X obj 91 117 table ball_show 30;
#X obj 70 260 table line_show 300;
#X obj 70 234 table line_l 300;
#X obj 72 288 table line_r 300;
#X obj 74 315 table line_ro 300;
#X obj 248 158 r hid;
#X obj 262 291 spigot;
#X obj 324 292 spigot;
#X obj 326 31 route key_30 key_31 key_32 key_33 key_34;
#X obj 326 60 sel 1;
#X obj 372 58 sel 1;
#X obj 422 59 sel 1;
#X obj 468 57 sel 1;
#X obj 521 60 sel 1;
#X obj 396 394 s index_multi;
#X obj 640 386 text2d;
#X obj 643 281 gemhead 400;
#X msg 508 359 text [S-\$1];
#X msg 710 390 30;
#X obj 643 303 translateXYZ -5 3.5 0;
#X obj 728 85 r W_H;
#X obj 728 107 /;
#X obj 728 129 * 4;
#X obj 728 151 * -0.9;
#X floatatom 728 173 5 0 0 0 - - -, f 5;
#X obj 297 252 route key_22 key_15;
#X obj 248 180 t a a a;
#X msg 391 194 0;
#X floatatom 391 222 5 0 0 0 - - -, f 5;
#X msg 437 188 1;
#X msg 485 191 2;
#X msg 532 190 3;
#X msg 586 189 4;
#X obj 391 133 route key_30 key_31 key_32 key_33 key_34;
#X obj 391 162 sel 1;
#X obj 437 160 sel 1;
#X obj 487 161 sel 1;
#X obj 533 159 sel 1;
#X obj 586 162 sel 1;
#X msg 539 318 text [L-\$1];
#X obj 609 74 loadbang;
#X msg 609 96 0;
#X obj 263 332 t b f;
#X obj 331 334 t b f;
#X obj 75 360 table drag_state 5;
#X obj 73 338 table line_state 300;
#X obj 77 398 table ball_num 30;
#X obj 74 420 table ball_beat 30;
#X obj 323 412 t b b b;
#X obj 344 440 del 50;
#X obj 316 464 del 100;
#X obj 74 444 table ball_speed 30;
#X obj 542 264 + 1;
#X obj 454 300 + 1;
#X connect 7 0 8 0;
#X connect 8 0 57 0;
#X connect 8 0 68 0;
#X connect 9 0 8 0;
#X connect 10 0 8 0;
#X connect 11 0 8 0;
#X connect 12 0 8 0;
#X connect 13 0 6 0;
#X connect 14 0 63 0;
#X connect 20 0 41 0;
#X connect 21 0 23 0;
#X connect 22 0 48 0;
#X connect 23 0 24 0;
#X connect 23 1 25 0;
#X connect 23 2 26 0;
#X connect 23 3 27 0;
#X connect 23 4 28 0;
#X connect 24 0 7 0;
#X connect 25 0 9 0;
#X connect 26 0 10 0;
#X connect 27 0 11 0;
#X connect 28 0 12 0;
#X connect 31 0 34 0;
#X connect 32 0 30 0;
#X connect 33 0 30 1;
#X connect 34 0 30 0;
#X connect 35 0 36 0;
#X connect 36 0 37 0;
#X connect 37 0 38 0;
#X connect 38 0 39 0;
#X connect 39 0 34 1;
#X connect 40 0 21 1;
#X connect 40 1 22 1;
#X connect 41 0 21 0;
#X connect 41 1 22 0;
#X connect 41 2 40 0;
#X connect 42 0 43 0;
#X connect 43 0 58 0;
#X connect 43 0 67 0;
#X connect 44 0 43 0;
#X connect 45 0 43 0;
#X connect 46 0 43 0;
#X connect 47 0 43 0;
#X connect 48 0 49 0;
#X connect 48 1 50 0;
#X connect 48 2 51 0;
#X connect 48 3 52 0;
#X connect 48 4 53 0;
#X connect 49 0 42 0;
#X connect 50 0 44 0;
#X connect 51 0 45 0;
#X connect 52 0 46 0;
#X connect 53 0 47 0;
#X connect 54 0 30 0;
#X connect 55 0 56 0;
#X connect 56 0 32 0;
#X connect 57 0 13 0;
#X connect 57 1 29 0;
#X connect 58 0 14 0;
#X connect 58 1 29 0;
#X connect 63 0 65 0;
#X connect 63 1 64 0;
#X connect 63 2 0 0;
#X connect 64 0 0 0;
#X connect 65 0 0 0;
#X connect 67 0 54 0;
#X connect 68 0 32 0;
#X restore 177 225 pd savedata;
#N canvas 0 22 355 274 send 0;
#X obj 148 193 s net;
#X obj 148 155 packOSC;
#X msg 148 116 send /beat \$1, f 18;
#X obj 148 80 inlet;
#X connect 1 0 0 0;
#X connect 2 0 1 0;
#X connect 3 0 2 0;
#X restore 150 160 pd send beat;
#N canvas 820 221 560 549 receive 0;
#X obj 131 85 netreceive~ 7000 3;
#X obj 347 54 loadbang;
#X msg 347 76 \; pd dsp 1;
#X obj 187 125 *~ 8;
#X obj 123 205 outlet~;
#X obj 191 204 outlet~;
#X obj 260 206 outlet~, f 10;
#X obj 31 385 pix_texture;
#X obj 28 360 pix_image img/bk.png;
#X obj 29 314 gemhead 1;
#X obj 31 407 alpha;
#X obj 225 272 env~;
#X floatatom 225 294 5 0 0 0 - - -, f 5;
#X floatatom 280 427 5 0 0 0 - - -, f 5;
#X msg 277 372 50;
#X obj 279 404 k_range 50 100 4 11;
#X obj 31 429 colorRGB 1 1 1 0.3;
#X obj 277 349 moses 50;
#X msg 219 363 0.0001;
#X obj 31 459 square 0.0001;
#X obj 223 324 moses 1;
#X obj 258 172 *~ 8;
#X connect 0 0 4 0;
#X connect 0 0 11 0;
#X connect 0 1 3 0;
#X connect 0 2 11 0;
#X connect 0 2 21 0;
#X connect 1 0 2 0;
#X connect 3 0 5 0;
#X connect 3 0 11 0;
#X connect 7 0 10 0;
#X connect 8 0 7 0;
#X connect 10 0 16 0;
#X connect 11 0 12 0;
#X connect 12 0 20 0;
#X connect 13 0 19 1;
#X connect 14 0 15 0;
#X connect 15 0 13 0;
#X connect 16 0 19 0;
#X connect 17 0 14 0;
#X connect 17 1 15 0;
#X connect 18 0 19 1;
#X connect 20 0 18 0;
#X connect 20 1 17 0;
#X connect 21 0 6 0;
#X restore 24 2 pd receive sound;
#X obj 396 265 tgl 30 0 empty empty print 35 7 0 10 -262144 -1 -1 0
1;
#X obj 180 367 clone 30 drawline;
#X obj 296 370 syphonserver a;
#X obj 296 345 gemhead 9999;
#X msg 36 211 1660 1000 0 -1000;
#X msg 20 188 1024 800 0 0;
#X obj 24 26 scan 1;
#X obj 150 27 scan 2;
#X obj 276 28 scan 3;
#X msg 113 185 960 600 0 0;
#X connect 0 0 1 0;
#X connect 6 0 5 0;
#X connect 7 0 6 0;
#X connect 14 0 21 0;
#X connect 14 1 22 0;
#X connect 14 2 23 0;
#X connect 15 0 5 1;
#X connect 18 0 17 0;
#X connect 19 0 0 0;
#X connect 20 0 0 0;
#X connect 22 0 13 0;
#X connect 24 0 0 0;
