#N canvas 0 22 450 300 10;
#X obj 109 31 gemmouse 1 1;
#X obj 149 201 expr ($f1*-8)+4;
#X obj 234 100 r W_H;
#X obj 234 124 expr ($f1/$f2)*4;
#X floatatom 235 147 5 0 0 0 - - -, f 5;
#X obj 109 177 expr ($f1*$f2*2)-$f2;
#X obj 109 135 moses 1.001;
#X obj 126 154 moses 1.001;
#X obj 176 269 v mouseY;
#X obj 136 246 v mouseX;
#X obj 143 101 s mouse_left;
#X obj 149 225 t f f;
#X obj 109 201 t f f;
#X obj 178 54 s mouse_right;
#X obj 38 82 s MouseX;
#X obj 38 106 s MouseY;
#X obj 329 318 s mouse_center;
#X floatatom 109 54 5 0 0 0 - - -, f 5;
#X floatatom 126 76 5 0 0 0 - - -, f 5;
#X obj 321 288 tgl 15 0 empty empty empty 17 7 0 10 -262144 -1 -1 0
1;
#X connect 0 0 17 0;
#X connect 0 1 18 0;
#X connect 0 2 10 0;
#X connect 0 3 19 0;
#X connect 0 4 13 0;
#X connect 1 0 11 0;
#X connect 2 0 3 0;
#X connect 3 0 4 0;
#X connect 4 0 5 1;
#X connect 5 0 12 0;
#X connect 6 0 5 0;
#X connect 7 0 1 0;
#X connect 11 1 8 0;
#X connect 12 1 9 0;
#X connect 17 0 14 0;
#X connect 17 0 6 0;
#X connect 18 0 15 0;
#X connect 18 0 7 0;
#X connect 19 0 16 0;
