#N canvas 0 23 450 300 10;
#X obj 74 103 r hid;
#X obj 76 165 tgl 15 0 empty empty empty 17 7 0 10 -262144 -1 -1 0
1;
#X obj 76 294 translateXYZ;
#X obj 2 139 loadbang;
#X msg 2 159 0;
#X obj 100 53 r mouse_pos;
#X obj 100 76 unpack f f;
#X obj 74 325 t a a a a a;
#X obj 400 110 separator;
#X obj 400 168 translateXYZ 0.25 0 0;
#X obj 33 439 separator;
#X obj 333 192 separator;
#X obj 333 250 translateXYZ -0.25 0 0;
#X obj 230 308 separator;
#X obj 163 390 separator;
#X obj 230 366 translateXYZ 0 0.25 0;
#X obj 163 448 translateXYZ 0 -0.25 0;
#X obj 56 233 t a b;
#X obj 110 233 f;
#X obj 74 549 pix_texture;
#X obj 74 574 circle 0.1;
#X obj 394 452 expr (-$f1)-0.15;
#X obj 407 378 expr ($f1)+0.15;
#X obj 250 96 v show-deformed;
#X obj 219 69 t f b;
#X obj 219 130 *;
#X obj 74 137 route key_29 key_25;
#X obj 163 473 rectangle 0.015 0.03;
#X obj 229 391 rectangle 0.015 0.03;
#X obj 333 275 rectangle 0.03 0.015;
#X obj 400 193 rectangle 0.03 0.015;
#X obj 187 235 fmod 0.05;
#X obj 139 235 + 0.01;
#X obj 76 200 gemhead;
#X obj 74 503 alpha 1;
#X obj 33 466 color 1 1 1;
#X obj 160 420 color 1 1 1;
#X obj 227 338 color 1 1 1;
#X obj 330 222 color 1 1 1;
#X obj 397 140 color 1 1 1;
#X obj 74 524 pix_image ../img/paint.png;
#X connect 0 0 26 0;
#X connect 2 0 7 0;
#X connect 3 0 4 0;
#X connect 4 0 1 0;
#X connect 5 0 6 0;
#X connect 6 0 2 1;
#X connect 6 1 2 2;
#X connect 7 0 10 0;
#X connect 7 1 14 0;
#X connect 7 2 13 0;
#X connect 7 3 11 0;
#X connect 7 4 8 0;
#X connect 8 0 39 0;
#X connect 9 0 30 0;
#X connect 10 0 35 0;
#X connect 11 0 38 0;
#X connect 12 0 29 0;
#X connect 13 0 37 0;
#X connect 14 0 36 0;
#X connect 15 0 28 0;
#X connect 16 0 27 0;
#X connect 17 0 2 0;
#X connect 17 1 18 0;
#X connect 18 0 21 0;
#X connect 18 0 22 0;
#X connect 18 0 32 0;
#X connect 19 0 20 0;
#X connect 21 0 12 1;
#X connect 21 0 16 2;
#X connect 22 0 9 1;
#X connect 22 0 15 2;
#X connect 23 0 25 1;
#X connect 24 0 25 0;
#X connect 24 1 23 0;
#X connect 26 0 1 0;
#X connect 26 1 1 0;
#X connect 31 0 18 1;
#X connect 32 0 31 0;
#X connect 33 0 17 0;
#X connect 34 0 40 0;
#X connect 35 0 34 0;
#X connect 36 0 16 0;
#X connect 37 0 15 0;
#X connect 38 0 12 0;
#X connect 39 0 9 0;
#X connect 40 0 19 0;
