#N canvas 588 629 286 301 10;
#X declare -path abs;
#N canvas 743 109 947 859 s-main 1;
#X obj 219 511 dac~;
#X obj 109 -187 r all;
#X obj 488 -196 udpreceive 9999;
#X obj 488 -173 unpackOSC;
#X obj 488 -150 s all;
#X obj 617 -223 loadbang;
#X msg 617 -201 \; pd dsp 1;
#X obj 20 -153 catch~ s4;
#X obj 309 -219 808_global /key;
#N canvas 0 22 503 551 savedata 0;
#X obj 10 10 inlet;
#X msg 10 40 \; SSSAD /key/controls 0 0.1 1 0.49 2 0.3 3 0.49 4 0.6
5 0.49 6 0.49 \; SSSAD /main-re/controls 0 0.694915 1 0.6 2 0.813559
3 0.837288 \; SSSAD /main-comp/controls 0 0.491525 1 0.473051 2 0.488136
3 0.288136 4 0.49 \; SSSAD /key/controls 0 0.1 1 0.49 2 0.3 3 0.49
4 0.6 5 0.49 6 0.49 \; SSSAD /eft3/controls 0 0.8985 1 0.794667 2 0.49
\; SSSAD /eft2/controls 0 0.332 1 0.305333 2 0.150667 3 0.498983 \;
SSSAD /eft5/controls 0 0.332 1 0.305333 2 0.150667 3 1 4 0.49 \; SSSAD
/eft4/controls 0 0.49 1 0.49 2 0.2 3 0.115254 4 0.49 \; SSSAD /eft1/controls
0 0.332 1 0.305333 2 0.150667 3 0.388305 \; SSSAD /eee1/controls 0
0.496063 1 0.519685 2 0.141732 3 0.488189 \; SSSAD /m20/controls 0
0.49 1 0.269661 \; SSSAD /m16/controls 0 1 1 0.694915 2 0.8 3 0.542373
\; SSSAD /m10/controls 0 0.536102 1 0.627119 \; SSSAD /m2/controls
0 0.309661 1 0.564237 2 0.61339 3 0.380339 \; SSSAD /b3/controls 0
1 1 1 2 0.433333 \; SSSAD /c1/controls 0 0.49 1 0.223729 2 0.3595 3
0.650847 4 0.52975 5 0.572542 6 0.34661 7 0.413559 8 0.180508 9 0.334893
\; SSSAD /b2/controls 0 1 1 1 2 0.433333 \; SSSAD /b1/controls 0 0.801003
1 1 2 0.426667 0.344025 0.43275 0.4885 0.4885 0.369649 0.4885 0.4885
0.373742 0.4885 0.0338983 0.405679 0.14425 0.364074 0 0.392069 0.404976
0.391396 0.411099 \; SSSAD /a1/controls 0 0.551427 1 0.169492 2 0.610169
3 0.44025 4 0.237288 5 0.20339 6 0.49 7 0.308774 \; SSSAD /b1/controls
0 0.801003 1 1 2 0.426667 \; SSSAD_ADMIN set \;;
#X connect 0 0 1 0;
#X restore 309 -154 pd savedata;
#X obj 309 -242 loadbang;
#N canvas 952 189 917 646 sound 0;
#X obj 17 -10 catch~ s1;
#X obj 16 32 *~ 0;
#X obj 91 -121 inlet;
#X obj 91 52 line~;
#X obj 124 83 line~;
#N canvas 325 420 450 300 pan 0;
#X obj 115 -26 moses 0.5;
#X obj 115 1 expr $f1* 2;
#X floatatom 115 26 5 0 0 0 - - -, f 5;
#X obj 115 49 t f f;
#X obj 163 74 expr 1-$f1;
#X obj 195 -36 expr 2*($f1-0.5);
#X floatatom 195 -14 5 0 0 0 - - -, f 5;
#X obj 195 6 t f f;
#X obj 195 31 expr 1-$f1;
#X floatatom 196 52 5 0 0 0 - - -, f 5;
#X msg 106 96 \$1 20;
#X msg 163 129 \$1 20;
#X obj 163 98 + 0.1;
#X obj 106 70 + 0.1;
#X obj 115 -52 inlet;
#X obj 107 159 outlet;
#X obj 164 162 outlet;
#X connect 0 0 1 0;
#X connect 0 1 5 0;
#X connect 1 0 2 0;
#X connect 2 0 3 0;
#X connect 3 0 13 0;
#X connect 3 1 4 0;
#X connect 4 0 12 0;
#X connect 5 0 6 0;
#X connect 6 0 7 0;
#X connect 7 0 8 0;
#X connect 7 1 12 0;
#X connect 8 0 9 0;
#X connect 9 0 13 0;
#X connect 10 0 15 0;
#X connect 11 0 16 0;
#X connect 12 0 11 0;
#X connect 13 0 10 0;
#X connect 14 0 0 0;
#X restore 91 27 pd pan;
#X obj -4 117 *~;
#X obj 71 151 *~;
#X msg 89 204 0 \$1;
#X obj 91 -80 unpack f f f f f;
#X obj 181 205 *~ 0.5;
#X obj 239 205 *~ 0.5;
#X obj 272 181 k_range -7 7 0.8 0.4;
#X obj 214 158 k_range -7 7 0.4 0.8;
#X obj 350 -83 r all;
#X obj 350 -56 route /click1;
#X obj 1 436 outlet~;
#X obj 174 440 outlet~;
#X obj -119 -84 *;
#X obj -118 -40 sqrt;
#X obj -89 -85 *;
#X obj -118 -62 +;
#X obj -158 163 hip~ 2;
#X obj -118 8 / 3;
#X obj -118 66 line~;
#X obj -118 38 pack f 65;
#X obj -222 42 *~ 0.4;
#X obj -158 207 moog~;
#X floatatom -118 -15 5 0 0 0 - - -, f 5;
#X obj -73 -125 * 1000;
#X obj -120 -124 * 1000;
#X obj -222 -5 *~ 0.5;
#X obj -56 -102 t f f;
#X obj -57 -78 -;
#X obj -16 -76 -;
#X obj -16 -100 t f f;
#X obj -57 -48 +;
#X obj -57 -25 abs;
#X floatatom -57 -1 5 0 0 0 - - -, f 5;
#X obj -57 46 line~;
#X obj -57 23 pack f 65;
#X obj -131 184 sig~ 1;
#X obj -120 -151 t f f;
#X obj -73 -152 t f f;
#X obj -158 317 *~;
#X obj -57 71 clip~ -1 1;
#X floatatom 188 -52 5 0 0 0 - - -, f 5;
#X obj 296 246 moses 4;
#X msg 332 268 4;
#X obj 2 342 st-bitcrusher /b1;
#X obj -222 -31 _noise~ 2001;
#X obj -222 18 _noise~ 501;
#X obj -279 82 _noise~ 251;
#X obj -324 134 _noise~ 81;
#X obj -257 194 _noise~ 126;
#X obj -250 107 *~ 0.2;
#X obj -324 159 *~ 0.5;
#X obj -257 220 *~ 0.3;
#X floatatom 29 152 5 0 0 0 - - -, f 5;
#X msg 29 195 2 \$1;
#X obj 32 125 expr ($f1/0.6)/5+0.1;
#X obj 29 173 change;
#X obj 89 178 change;
#X floatatom 136 152 5 0 0 0 - - -, f 5;
#X obj -4 244 spigot~;
#X obj 55 243 spigot~;
#X obj 138 205 tgl 15 0 empty empty empty 17 7 0 10 -262144 -1 -1 1
1;
#X obj 139 180 == 1;
#X obj 205 -25 s a1-size;
#X obj 296 299 f;
#X obj 395 355 k_range 0 4 0.3 0.7;
#X obj 250 18 perk-bassdrum /a1;
#X obj 381 386 +;
#X obj 374 -3 randomF 0.1;
#X floatatom 381 408 5 0 0 0 - - -, f 5;
#X msg 381 429 0 \$1;
#X obj 351 -31 t b b b;
#X msg 457 60 7 \$1;
#X floatatom 457 39 5 0 0 0 - - -, f 5;
#X obj 457 -6 randomF 0.1;
#X obj 457 17 + 0.4;
#X msg 236 372 3 \$1;
#X floatatom 158 320 5 0 0 0 - - -, f 5;
#X obj 236 350 k_range 0 4 0.3 0.6;
#X obj -158 232 *~ 1;
#X obj 157 297 k_range 0 4 2 5;
#X obj 465 204 incirc;
#X floatatom 464 275 5 0 0 0 - - -, f 5;
#X msg 465 248 0.7;
#X obj 465 226 moses 0.7;
#X obj 195 -131 r rr_sound;
#X obj 253 -74 moses 1;
#X msg 301 -49 1;
#X floatatom 253 -49 5 0 0 0 - - -, f 5;
#X obj 282 -120 k_range 0 4 0.5 1;
#X obj 382 308 k_range 0 4 0.2 0.35;
#X obj -157 264 *~ 0.3;
#X connect 0 0 1 0;
#X connect 1 0 6 0;
#X connect 1 0 7 0;
#X connect 2 0 9 0;
#X connect 3 0 6 1;
#X connect 4 0 7 1;
#X connect 5 0 3 0;
#X connect 5 1 4 0;
#X connect 6 0 64 0;
#X connect 7 0 65 0;
#X connect 8 0 49 2;
#X connect 9 0 5 0;
#X connect 9 1 13 0;
#X connect 9 1 12 0;
#X connect 9 1 42 0;
#X connect 9 2 43 0;
#X connect 9 3 60 0;
#X connect 9 3 86 0;
#X connect 9 4 46 0;
#X connect 9 4 94 0;
#X connect 10 0 64 0;
#X connect 11 0 65 0;
#X connect 12 0 11 1;
#X connect 13 0 10 1;
#X connect 14 0 15 0;
#X connect 15 0 76 0;
#X connect 18 0 21 0;
#X connect 19 0 28 0;
#X connect 20 0 21 1;
#X connect 21 0 19 0;
#X connect 22 0 27 0;
#X connect 23 0 25 0;
#X connect 24 0 27 1;
#X connect 25 0 24 0;
#X connect 26 0 22 0;
#X connect 27 0 84 0;
#X connect 28 0 23 0;
#X connect 29 0 20 0;
#X connect 29 0 20 1;
#X connect 30 0 18 0;
#X connect 30 0 18 1;
#X connect 31 0 22 0;
#X connect 32 0 33 1;
#X connect 32 1 33 0;
#X connect 33 0 36 0;
#X connect 34 0 36 1;
#X connect 35 0 34 1;
#X connect 35 1 34 0;
#X connect 36 0 37 0;
#X connect 37 0 38 0;
#X connect 38 0 40 0;
#X connect 39 0 45 0;
#X connect 40 0 39 0;
#X connect 41 0 27 2;
#X connect 42 0 30 0;
#X connect 42 1 32 0;
#X connect 43 0 29 0;
#X connect 43 1 35 0;
#X connect 44 0 7 0;
#X connect 44 0 6 0;
#X connect 45 0 44 1;
#X connect 46 0 47 0;
#X connect 46 0 68 0;
#X connect 47 0 69 0;
#X connect 47 1 48 0;
#X connect 48 0 69 0;
#X connect 49 0 16 0;
#X connect 49 1 17 0;
#X connect 50 0 31 0;
#X connect 51 0 26 0;
#X connect 52 0 55 0;
#X connect 53 0 56 0;
#X connect 54 0 57 0;
#X connect 55 0 22 0;
#X connect 56 0 22 0;
#X connect 57 0 22 0;
#X connect 58 0 61 0;
#X connect 59 0 49 2;
#X connect 60 0 58 0;
#X connect 61 0 59 0;
#X connect 62 0 8 0;
#X connect 63 0 62 0;
#X connect 63 0 67 0;
#X connect 64 0 49 0;
#X connect 64 1 16 0;
#X connect 65 0 49 1;
#X connect 65 1 17 0;
#X connect 66 0 65 1;
#X connect 66 0 64 1;
#X connect 67 0 66 0;
#X connect 69 0 70 0;
#X connect 69 0 83 0;
#X connect 69 0 85 0;
#X connect 69 0 95 0;
#X connect 70 0 72 1;
#X connect 71 0 10 0;
#X connect 71 0 11 0;
#X connect 72 0 74 0;
#X connect 73 0 72 0;
#X connect 74 0 75 0;
#X connect 75 0 71 1;
#X connect 76 0 71 0;
#X connect 76 1 73 0;
#X connect 76 2 79 0;
#X connect 77 0 71 1;
#X connect 78 0 77 0;
#X connect 79 0 80 0;
#X connect 80 0 78 0;
#X connect 81 0 71 1;
#X connect 82 0 84 1;
#X connect 83 0 81 0;
#X connect 84 0 96 0;
#X connect 85 0 82 0;
#X connect 86 0 89 0;
#X connect 87 0 63 0;
#X connect 88 0 87 0;
#X connect 89 0 88 0;
#X connect 89 1 87 0;
#X connect 91 0 93 0;
#X connect 91 1 92 0;
#X connect 92 0 93 0;
#X connect 93 0 1 1;
#X connect 94 0 91 0;
#X connect 95 0 80 1;
#X connect 96 0 44 0;
#X restore 109 -126 pd sound 1;
#N canvas 437 195 941 735 sound 0;
#X obj 263 101 *~ 0;
#X obj 338 -52 inlet;
#X obj 338 121 line~;
#X obj 371 152 line~;
#N canvas 325 420 450 300 pan 0;
#X obj 115 -26 moses 0.5;
#X obj 115 1 expr $f1* 2;
#X floatatom 115 26 5 0 0 0 - - -, f 5;
#X obj 115 49 t f f;
#X obj 163 74 expr 1-$f1;
#X obj 195 -36 expr 2*($f1-0.5);
#X floatatom 195 -14 5 0 0 0 - - -, f 5;
#X obj 195 6 t f f;
#X obj 195 31 expr 1-$f1;
#X floatatom 196 52 5 0 0 0 - - -, f 5;
#X msg 106 96 \$1 20;
#X msg 163 129 \$1 20;
#X obj 163 98 + 0.1;
#X obj 106 70 + 0.1;
#X obj 115 -52 inlet;
#X obj 107 159 outlet;
#X obj 164 162 outlet;
#X connect 0 0 1 0;
#X connect 0 1 5 0;
#X connect 1 0 2 0;
#X connect 2 0 3 0;
#X connect 3 0 13 0;
#X connect 3 1 4 0;
#X connect 4 0 12 0;
#X connect 5 0 6 0;
#X connect 6 0 7 0;
#X connect 7 0 8 0;
#X connect 7 1 12 0;
#X connect 8 0 9 0;
#X connect 9 0 13 0;
#X connect 10 0 15 0;
#X connect 11 0 16 0;
#X connect 12 0 11 0;
#X connect 13 0 10 0;
#X connect 14 0 0 0;
#X restore 338 96 pd pan;
#X obj 243 186 *~;
#X obj 322 191 *~;
#X msg 720 338 0 \$1;
#X obj 338 -11 unpack f f f f f;
#X obj 428 274 *~ 0.5;
#X obj 486 274 *~ 0.5;
#X obj 519 250 k_range -7 7 0.8 0.4;
#X obj 461 227 k_range -7 7 0.4 0.8;
#X obj 495 -156 r all;
#X obj 138 -70 t f f;
#X obj 185 -71 t f f;
#X obj 263 61 catch~ s2;
#X obj 495 -125 route /click2;
#X obj 99 59 sqrt;
#X obj 99 138 line~;
#X obj -33 268 hip~ 2;
#X obj 99 111 pack f 50;
#X obj 85 231 moog~;
#X obj 98 14 *;
#X obj 128 13 *;
#X obj 99 36 +;
#X obj 144 -27 * 1000;
#X obj 166 102 t f f;
#X obj 165 126 -;
#X obj 206 128 -;
#X obj 206 104 t f f;
#X obj 162 158 +;
#X obj 162 181 abs;
#X floatatom 162 205 5 0 0 0 - - -, f 5;
#X obj 137 382 line~;
#X obj 85 368 *~;
#X obj 137 359 pack f 50;
#X obj 99 84 / 2;
#X obj 137 406 clip~ -1 1;
#X obj 112 203 sig~ 1;
#X obj 97 -26 * 1000;
#X obj 553 325 moses 4;
#X msg 589 347 4;
#X obj 256 620 outlet~;
#X obj 429 614 outlet~;
#X obj -82 24 _osc~ 607;
#X obj -36 68 _osc~ 297;
#X obj -3 90 _osc~ 125;
#X obj 7 125 _osc~ 95;
#X obj 13 160 _osc~ 63;
#X obj 10 203 _osc~ 30;
#X obj -51 120 *~ 0.1;
#X obj -82 49 *~ 0.15;
#X obj -40 150 *~ 0.2;
#X obj -31 185 *~ 0.1;
#X obj 5 235 *~ 0.2;
#X floatatom 290 257 5 0 0 0 - - -, f 5;
#X msg 290 278 2 \$1;
#X obj 290 232 expr ($f1/0.6)/5+0.1;
#X obj 253 323 spigot~;
#X obj 322 350 spigot~;
#X obj 377 295 tgl 15 0 empty empty empty 17 7 0 10 -262144 -1 -1 1
1;
#X obj 378 270 == 1;
#X obj 425 72 s a2-size;
#X obj 553 376 f;
#X msg 678 405 3 \$1;
#X obj 678 378 k_range 0 4 0.3 0.6;
#X obj 85 309 *~ 5;
#X obj 494 10 perk-hihat /b1;
#X obj 497 -104 t b b b;
#X floatatom 594 -49 5 0 0 0 - - -, f 5;
#X obj 594 -94 randomF 0.1;
#X obj 594 -71 + 0.4;
#X msg 594 -28 11 \$1;
#X msg 590 461 8 \$1;
#X obj 106 253 k_range 0 4 0.5 4;
#X obj 737 154 k_range 0 4 0.2 0.5;
#X obj 256 465 st-bitcrusher /b2;
#X obj 711 240 incirc;
#X floatatom 720 315 5 0 0 0 - - -, f 5;
#X obj 711 262 moses 0.7;
#X msg 711 284 0.7;
#X obj 442 -62 r rr_sound;
#X obj 816 37 moses 1;
#X msg 864 62 1;
#X floatatom 816 62 5 0 0 0 - - -, f 5;
#X obj 845 -9 k_range 0 4 0.5 1;
#X obj 590 439 k_range 0 4 0.1 0.2;
#X obj 85 333 *~ 0.3;
#X connect 0 0 5 0;
#X connect 0 0 6 0;
#X connect 1 0 8 0;
#X connect 2 0 5 1;
#X connect 3 0 6 1;
#X connect 4 0 2 0;
#X connect 4 1 3 0;
#X connect 5 0 59 0;
#X connect 6 0 60 0;
#X connect 7 0 77 2;
#X connect 8 0 4 0;
#X connect 8 1 12 0;
#X connect 8 1 11 0;
#X connect 8 1 14 0;
#X connect 8 2 15 0;
#X connect 8 3 58 0;
#X connect 8 3 62 0;
#X connect 8 3 78 0;
#X connect 8 4 41 0;
#X connect 8 4 63 0;
#X connect 8 4 86 0;
#X connect 9 0 59 0;
#X connect 10 0 60 0;
#X connect 11 0 10 1;
#X connect 12 0 9 1;
#X connect 13 0 17 0;
#X connect 14 0 40 0;
#X connect 14 1 27 0;
#X connect 15 0 26 0;
#X connect 15 1 30 0;
#X connect 16 0 0 0;
#X connect 17 0 69 0;
#X connect 18 0 37 0;
#X connect 19 0 22 1;
#X connect 20 0 22 0;
#X connect 21 0 19 0;
#X connect 22 0 67 0;
#X connect 23 0 25 0;
#X connect 24 0 25 1;
#X connect 25 0 18 0;
#X connect 26 0 24 0;
#X connect 26 0 24 1;
#X connect 27 0 28 1;
#X connect 27 1 28 0;
#X connect 28 0 31 0;
#X connect 29 0 31 1;
#X connect 30 0 29 1;
#X connect 30 1 29 0;
#X connect 31 0 32 0;
#X connect 32 0 33 0;
#X connect 33 0 36 0;
#X connect 34 0 38 0;
#X connect 35 0 5 0;
#X connect 35 0 6 0;
#X connect 36 0 34 0;
#X connect 37 0 21 0;
#X connect 38 0 35 1;
#X connect 39 0 22 2;
#X connect 40 0 23 0;
#X connect 40 0 23 1;
#X connect 41 0 64 0;
#X connect 41 1 42 0;
#X connect 42 0 64 0;
#X connect 45 0 52 0;
#X connect 46 0 51 0;
#X connect 47 0 51 0;
#X connect 48 0 53 0;
#X connect 49 0 54 0;
#X connect 50 0 55 0;
#X connect 51 0 20 0;
#X connect 52 0 20 0;
#X connect 53 0 20 0;
#X connect 54 0 20 0;
#X connect 55 0 20 0;
#X connect 56 0 57 0;
#X connect 57 0 77 2;
#X connect 58 0 56 0;
#X connect 59 0 77 0;
#X connect 59 1 43 0;
#X connect 60 0 77 1;
#X connect 60 1 44 0;
#X connect 61 0 60 1;
#X connect 61 0 59 1;
#X connect 62 0 61 0;
#X connect 64 0 66 0;
#X connect 64 0 75 0;
#X connect 64 0 76 0;
#X connect 64 0 87 0;
#X connect 65 0 68 1;
#X connect 66 0 65 0;
#X connect 67 0 88 0;
#X connect 68 0 9 0;
#X connect 68 0 10 0;
#X connect 69 0 68 0;
#X connect 69 2 71 0;
#X connect 70 0 73 0;
#X connect 71 0 72 0;
#X connect 72 0 70 0;
#X connect 73 0 68 1;
#X connect 74 0 68 1;
#X connect 75 0 67 1;
#X connect 76 0 72 1;
#X connect 77 0 43 0;
#X connect 77 1 44 0;
#X connect 78 0 80 0;
#X connect 79 0 7 0;
#X connect 80 0 81 0;
#X connect 80 1 79 0;
#X connect 81 0 79 0;
#X connect 83 0 85 0;
#X connect 83 1 84 0;
#X connect 84 0 85 0;
#X connect 85 0 0 1;
#X connect 86 0 83 0;
#X connect 87 0 74 0;
#X connect 88 0 35 0;
#X restore 154 -95 pd sound 2;
#N canvas 379 96 992 709 sound 0;
#X obj 16 68 *~ 0;
#X obj 91 -121 inlet;
#X obj 91 52 line~;
#X obj 124 83 line~;
#N canvas 325 420 450 300 pan 0;
#X obj 115 -26 moses 0.5;
#X obj 115 1 expr $f1* 2;
#X floatatom 115 26 5 0 0 0 - - -, f 5;
#X obj 115 49 t f f;
#X obj 163 74 expr 1-$f1;
#X obj 195 -36 expr 2*($f1-0.5);
#X floatatom 195 -14 5 0 0 0 - - -, f 5;
#X obj 195 6 t f f;
#X obj 195 31 expr 1-$f1;
#X floatatom 196 52 5 0 0 0 - - -, f 5;
#X msg 106 96 \$1 20;
#X msg 163 129 \$1 20;
#X obj 163 98 + 0.1;
#X obj 106 70 + 0.1;
#X obj 115 -52 inlet;
#X obj 107 159 outlet;
#X obj 164 162 outlet;
#X connect 0 0 1 0;
#X connect 0 1 5 0;
#X connect 1 0 2 0;
#X connect 2 0 3 0;
#X connect 3 0 13 0;
#X connect 3 1 4 0;
#X connect 4 0 12 0;
#X connect 5 0 6 0;
#X connect 6 0 7 0;
#X connect 7 0 8 0;
#X connect 7 1 12 0;
#X connect 8 0 9 0;
#X connect 9 0 13 0;
#X connect 10 0 15 0;
#X connect 11 0 16 0;
#X connect 12 0 11 0;
#X connect 13 0 10 0;
#X connect 14 0 0 0;
#X restore 91 27 pd pan;
#X obj -4 117 *~;
#X obj 66 117 *~;
#X msg 431 243 0 \$1;
#X obj 91 -80 unpack f f f f f;
#X obj 181 205 *~ 0.5;
#X obj 239 205 *~ 0.5;
#X obj 272 181 k_range -7 7 0.8 0.4;
#X obj 214 158 k_range -7 7 0.4 0.8;
#X obj 245 -164 r all;
#X obj 17 391 outlet~;
#X obj 190 389 outlet~;
#X obj 245 -137 route /click3;
#X obj 16 -18 catch~ s3;
#X obj -154 90 line~;
#X obj -274 34 *~ 0.4;
#X obj -383 39 *~ 0.3;
#X obj -154 70 pack f 60;
#X obj -229 248 moog~;
#X obj -155 -28 *;
#X obj -125 -29 *;
#X obj -154 -6 +;
#X obj -109 -69 * 1000;
#X obj -156 -68 * 1000;
#X obj -69 -41 t f f;
#X obj -70 -17 -;
#X obj -29 -15 -;
#X obj -29 -39 t f f;
#X obj -70 11 +;
#X obj -70 34 abs;
#X floatatom -70 58 5 0 0 0 - - -, f 5;
#X obj -154 21 sqrt;
#X obj -228 355 *~;
#X obj -153 186 line~;
#X obj -153 163 pack f 50;
#X obj -153 210 clip~ -1 1;
#X obj -201 212 sig~ 1;
#X obj -154 47 / 1.5;
#X obj -155 -106 t f f;
#X obj -110 -109 t f f;
#X obj -243 90 *~ 0.1;
#X obj -230 145 *~ 0.5;
#X obj -336 95 *~ 0.2;
#X floatatom 28 195 5 0 0 0 - - -, f 5;
#X msg 28 216 2 \$1;
#X obj 28 170 expr ($f1/0.6)/5+0.1;
#X obj 16 264 spigot~;
#X obj 75 263 spigot~;
#X obj 133 226 tgl 15 0 empty empty empty 17 7 0 10 -262144 -1 -1 1
1;
#X obj 134 201 == 1;
#X obj 181 1 s a3-size;
#X obj 316 266 moses 4;
#X msg 352 288 4;
#X obj 316 317 f;
#X obj -228 329 *~ 2;
#X obj 247 -59 perk-snare /c1;
#X obj -258 200 hip~ 10;
#X obj -383 14 _phasor~ 2001;
#X obj -336 72 _phasor~ 2205;
#X obj -243 69 _phasor~ 600;
#X obj -274 10 _phasor~ 520;
#X obj -230 122 _phasor~ 150;
#X obj 246 -109 t b b b;
#X floatatom 477 59 5 0 0 0 - - -, f 5;
#X obj 477 14 randomF 0.1;
#X obj 477 37 + 0.2;
#X msg 477 80 9 \$1;
#X obj 316 340 t f f f f;
#X obj 430 411 k_range 0 4 0.2 0.4;
#X msg 333 391 2 \$1;
#X obj 333 369 k_range 0 4 0.3 0.5;
#X obj 382 390 k_range 0 4 0.5 0.6;
#X msg 382 417 4 \$1;
#X obj -207 301 k_range 0 4 0.5 2;
#X obj 17 312 st-bitcrusher /b3;
#X obj 422 148 incirc;
#X floatatom 431 223 5 0 0 0 - - -, f 5;
#X obj 422 170 moses 0.7;
#X msg 422 192 0.7;
#X obj 470 -74 moses 1;
#X msg 518 -49 1;
#X floatatom 470 -49 5 0 0 0 - - -, f 5;
#X obj 499 -120 k_range 0 4 0.5 1;
#X obj -228 273 *~ 0.3;
#X connect 0 0 5 0;
#X connect 0 0 6 0;
#X connect 1 0 8 0;
#X connect 2 0 5 1;
#X connect 3 0 6 1;
#X connect 4 0 2 0;
#X connect 4 1 3 0;
#X connect 5 0 50 0;
#X connect 6 0 51 0;
#X connect 7 0 78 2;
#X connect 8 0 4 0;
#X connect 8 1 12 0;
#X connect 8 1 11 0;
#X connect 8 1 42 0;
#X connect 8 2 43 0;
#X connect 8 3 49 0;
#X connect 8 3 53 0;
#X connect 8 3 79 0;
#X connect 8 4 54 0;
#X connect 8 4 55 0;
#X connect 8 4 86 0;
#X connect 9 0 50 0;
#X connect 10 0 51 0;
#X connect 11 0 10 1;
#X connect 12 0 9 1;
#X connect 13 0 16 0;
#X connect 16 0 66 0;
#X connect 17 0 0 0;
#X connect 18 0 22 1;
#X connect 19 0 60 0;
#X connect 20 0 60 0;
#X connect 21 0 18 0;
#X connect 22 0 87 0;
#X connect 23 0 25 0;
#X connect 24 0 25 1;
#X connect 25 0 35 0;
#X connect 26 0 24 0;
#X connect 26 0 24 1;
#X connect 27 0 23 0;
#X connect 27 0 23 1;
#X connect 28 0 29 1;
#X connect 28 1 29 0;
#X connect 29 0 32 0;
#X connect 30 0 32 1;
#X connect 31 0 30 1;
#X connect 31 1 30 0;
#X connect 32 0 33 0;
#X connect 33 0 34 0;
#X connect 34 0 38 0;
#X connect 35 0 41 0;
#X connect 36 0 5 0;
#X connect 36 0 6 0;
#X connect 37 0 39 0;
#X connect 38 0 37 0;
#X connect 39 0 36 1;
#X connect 40 0 22 2;
#X connect 41 0 21 0;
#X connect 42 0 27 0;
#X connect 42 1 28 0;
#X connect 43 0 26 0;
#X connect 43 1 31 0;
#X connect 44 0 60 0;
#X connect 45 0 60 0;
#X connect 46 0 60 0;
#X connect 47 0 48 0;
#X connect 48 0 78 2;
#X connect 49 0 47 0;
#X connect 50 0 78 0;
#X connect 50 1 14 0;
#X connect 51 0 78 1;
#X connect 51 1 15 0;
#X connect 52 0 51 1;
#X connect 52 0 50 1;
#X connect 53 0 52 0;
#X connect 55 0 57 0;
#X connect 55 1 56 0;
#X connect 56 0 57 0;
#X connect 57 0 71 0;
#X connect 58 0 36 0;
#X connect 59 0 9 0;
#X connect 59 0 10 0;
#X connect 60 0 22 0;
#X connect 61 0 20 0;
#X connect 62 0 46 0;
#X connect 63 0 44 0;
#X connect 64 0 19 0;
#X connect 65 0 45 0;
#X connect 66 0 59 0;
#X connect 66 1 68 0;
#X connect 67 0 70 0;
#X connect 68 0 69 0;
#X connect 69 0 67 0;
#X connect 70 0 59 1;
#X connect 71 0 77 0;
#X connect 71 1 74 0;
#X connect 71 2 75 0;
#X connect 71 3 72 0;
#X connect 72 0 69 1;
#X connect 73 0 59 1;
#X connect 74 0 73 0;
#X connect 75 0 76 0;
#X connect 76 0 59 1;
#X connect 77 0 58 1;
#X connect 78 0 14 0;
#X connect 78 1 15 0;
#X connect 79 0 81 0;
#X connect 80 0 7 0;
#X connect 81 0 82 0;
#X connect 81 1 80 0;
#X connect 82 0 80 0;
#X connect 83 0 85 0;
#X connect 83 1 84 0;
#X connect 84 0 85 0;
#X connect 85 0 0 1;
#X connect 86 0 83 0;
#X connect 87 0 58 0;
#X restore 199 -125 pd sound 3;
#N canvas 345 26 1202 724 deformed 0;
#X obj 94 76 r all;
#X obj 94 99 route /go /go-pos;
#X floatatom -150 229 5 0 0 0 - - -, f 5;
#X floatatom -93 280 5 0 0 0 - - -, f 5;
#X floatatom -150 356 5 0 0 0 - - -, f 5;
#X obj -150 210 unpack f f f;
#X obj -93 303 abs;
#X obj -93 327 k_range 0 4 1 0;
#X obj -150 327 mtof;
#X msg -93 349 0 \$1;
#X obj 94 128 route 4 12 20 28 36 44;
#X obj 229 152 route 52 60 68 76 84 94;
#X obj 74 297 r all;
#X obj 74 335 route /click;
#X obj 74 361 unpack f f f;
#X floatatom 73 382 5 0 0 0 - - -, f 5;
#X floatatom 108 395 5 0 0 0 - - -, f 5;
#X msg 73 511 1;
#X msg 103 510 0;
#X obj 102 489 delay 200;
#X obj 73 545 s \$0-note-on-off;
#X obj -150 381 syn-bellsynth /m2;
#X obj 326 586 *~ 0;
#X obj 376 587 *~ 0;
#X obj 372 480 t f f;
#X obj 141 513 loadbang;
#X obj -150 256 k_range -10 10 0 36;
#X obj -84 545 throw~ ll;
#X obj -150 544 throw~ rr;
#X obj 229 177 rr;
#X obj -150 299 + 50;
#X obj 74 462 t b b b;
#X msg 239 357 0 \$1;
#X obj 194 391 perk-lowtom /m10;
#X obj 403 512 k_range -7 7 0 1;
#X obj 372 544 k_range -7 7 1 0;
#X obj 683 18 r all;
#X obj 683 118 line~;
#X obj 604 708 outlet~;
#X obj 542 708 outlet~;
#X obj 542 678 *~;
#X obj 604 684 *~;
#X obj 463 227 catch~ ll;
#X obj 639 217 catch~ rr;
#X obj 463 269 *~ 0.3;
#X obj 640 274 *~ 0.3;
#X msg 683 66 \$1 2000;
#X obj 683 41 route /go-vol /add-circle;
#X obj 532 118 r all;
#X obj 532 141 route /go-len;
#X msg 533 164 \$1 1000;
#X obj 533 187 line;
#X obj 395 393 st-pureverb4 /m16;
#X obj 533 233 + 0.2;
#X obj 533 210 * 0.1;
#X floatatom 737 121 5 0 0 0 - - -, f 5;
#X obj 737 143 t b;
#X obj 195 358 bng 15 250 50 0 empty empty empty 17 7 0 10 -262144
-1 -1;
#X obj 763 160 bng 15 250 50 0 empty empty empty 17 7 0 10 -262144
-1 -1;
#X obj 737 192 perk-lowtom /m20;
#X obj 336 630 *~ 0.2;
#X obj 510 620 *~ 0.2;
#X obj 239 267 change;
#X obj 239 333 + 0.4;
#X obj 239 289 t b;
#X obj 239 312 randomF 0.15;
#X obj -150 492 *~ 1;
#X obj 139 155 ll;
#X obj 251 209 rr;
#X obj 319 206 rr;
#X obj 281 216 rr;
#X obj 296 178 rr;
#X obj 347 216 rr;
#X obj 161 202 ll;
#X obj 94 156 ll;
#X obj 184 181 ll;
#X obj 116 181 ll;
#X obj 206 205 ll;
#X connect 0 0 1 0;
#X connect 1 0 10 0;
#X connect 2 0 26 0;
#X connect 3 0 6 0;
#X connect 4 0 21 0;
#X connect 5 0 2 0;
#X connect 5 1 3 0;
#X connect 6 0 7 0;
#X connect 7 0 9 0;
#X connect 8 0 4 0;
#X connect 9 0 66 1;
#X connect 10 0 74 0;
#X connect 10 1 76 0;
#X connect 10 2 67 0;
#X connect 10 3 73 0;
#X connect 10 4 75 0;
#X connect 10 5 77 0;
#X connect 10 6 11 0;
#X connect 11 0 29 0;
#X connect 11 1 68 0;
#X connect 11 2 70 0;
#X connect 11 3 71 0;
#X connect 11 4 69 0;
#X connect 11 5 72 0;
#X connect 12 0 13 0;
#X connect 13 0 14 0;
#X connect 14 0 15 0;
#X connect 14 1 16 0;
#X connect 15 0 31 0;
#X connect 15 0 62 0;
#X connect 16 0 24 0;
#X connect 17 0 20 0;
#X connect 18 0 20 0;
#X connect 19 0 18 0;
#X connect 24 0 35 0;
#X connect 24 1 34 0;
#X connect 25 0 18 0;
#X connect 26 0 30 0;
#X connect 30 0 8 0;
#X connect 31 0 17 0;
#X connect 31 1 19 0;
#X connect 31 2 33 0;
#X connect 32 0 33 1;
#X connect 33 0 52 0;
#X connect 34 0 23 1;
#X connect 35 0 22 1;
#X connect 36 0 47 0;
#X connect 37 0 40 1;
#X connect 37 0 41 1;
#X connect 40 0 39 0;
#X connect 41 0 38 0;
#X connect 42 0 44 0;
#X connect 43 0 45 0;
#X connect 44 0 60 0;
#X connect 45 0 61 0;
#X connect 46 0 37 0;
#X connect 47 0 46 0;
#X connect 47 1 55 0;
#X connect 48 0 49 0;
#X connect 49 0 50 0;
#X connect 50 0 51 0;
#X connect 51 0 54 0;
#X connect 52 0 22 0;
#X connect 52 1 23 0;
#X connect 53 0 44 1;
#X connect 53 0 45 1;
#X connect 54 0 53 0;
#X connect 55 0 56 0;
#X connect 56 0 59 0;
#X connect 57 0 33 0;
#X connect 58 0 59 0;
#X connect 59 0 39 0;
#X connect 59 0 38 0;
#X connect 60 0 40 0;
#X connect 61 0 41 0;
#X connect 62 0 64 0;
#X connect 63 0 32 0;
#X connect 64 0 65 0;
#X connect 65 0 63 0;
#X connect 66 0 27 0;
#X connect 66 0 28 0;
#X restore 51 -86 pd deformed;
#X obj 162 186 hsl 170 15 0 1 0 0 empty empty vol=1 5 8 0 10 -228856
-1 -1 16900 1;
#X obj 7 383 t f f;
#X obj 7 409 expr int($f1*100)/100;
#X obj 438 162 sig~ 1;
#X msg 7 335 \$1 200;
#X obj 7 360 line;
#X msg 7 435 label vol=\$1;
#X obj -31 -47 catch~ circleL;
#X obj 215 -49 catch~ circleR;
#X obj 109 -159 route /env1 /env2 /env3 /bg;
#X obj 487 -218 declare -path abs;
#X obj 155 114 st-EQ3 /eee1;
#X obj 420 226 *~;
#X obj 362 221 *~;
#N canvas 344 196 1053 525 effect 0;
#X obj 113 46 inlet~;
#X obj 178 45 inlet~;
#X obj 109 134 *~;
#X obj 164 136 *~;
#X obj 137 431 outlet~;
#X obj 219 437 outlet~;
#X obj 207 224 *~;
#X obj 262 226 *~;
#X obj 780 -51 r all;
#X floatatom 780 0 5 0 0 0 - - -, f 5;
#X obj 780 -26 route /effect;
#X obj 297 41 line~;
#X obj 812 218 line~;
#X obj 780 22 sel 0 1 2 3 4;
#X msg 781 50 1 0 0 0 0;
#X msg 797 72 0 1 0 0 0;
#X msg 815 96 0 0 1 0 0;
#X msg 831 118 0 0 0 1 0;
#X msg 862 139 0 0 0 0 1;
#X obj 766 166 unpack f f f f f;
#X obj 355 -56 r a1-size;
#X obj 355 -27 k_event 1 4;
#X floatatom 355 -4 5 0 0 0 - - -, f 5;
#X msg 355 41 0 \$1;
#X obj 202 144 st-vibrato /eft1;
#X obj 465 -30 k_event 1 4;
#X floatatom 465 -7 5 0 0 0 - - -, f 5;
#X obj 573 -28 k_event 1 4;
#X floatatom 573 -5 5 0 0 0 - - -, f 5;
#X msg 464 37 1 \$1;
#X msg 573 40 2 \$1;
#X obj 465 -59 r a2-size;
#X obj 573 -57 r a3-size;
#X obj 775 278 line~;
#X obj 931 247 line~;
#X obj 386 220 *~;
#X obj 441 222 *~;
#X obj 405 379 *~;
#X obj 460 381 *~;
#X obj 196 300 st-compressor /eft4;
#X msg 479 259 0 \$1;
#X msg 524 256 1 \$1;
#X obj 608 410 *~;
#X obj 663 412 *~;
#X obj 606 309 st-flanger /eft5;
#X obj 863 268 line~;
#X obj 573 19 k_range 1 4 0.1 0.9;
#X obj 464 17 k_range 1 4 0.1 0.9;
#X obj 355 20 k_range 1 4 0.1 0.9;
#X obj 888 -49 loadbang;
#X msg 887 -25 0;
#X obj 544 204 k_range 1 4 1 0.65;
#X obj 663 201 k_range 1 4 1 0.2;
#X msg 296 17 \$1 8000;
#X msg 775 251 \$1 8000;
#X msg 812 191 \$1 8000;
#X msg 863 241 \$1 8000;
#X msg 931 220 \$1 8000;
#X obj 400 122 st-EQ3 /eft2;
#X obj 397 284 st-bitcrusher /eft3;
#X connect 0 0 2 0;
#X connect 0 0 24 0;
#X connect 0 0 44 0;
#X connect 0 0 58 0;
#X connect 0 0 59 0;
#X connect 1 0 3 0;
#X connect 1 0 24 1;
#X connect 1 0 44 1;
#X connect 1 0 58 1;
#X connect 1 0 59 1;
#X connect 2 0 4 0;
#X connect 3 0 5 0;
#X connect 6 0 39 0;
#X connect 7 0 39 1;
#X connect 8 0 10 0;
#X connect 9 0 13 0;
#X connect 10 0 9 0;
#X connect 11 0 2 1;
#X connect 11 0 3 1;
#X connect 12 0 6 1;
#X connect 12 0 7 1;
#X connect 13 0 14 0;
#X connect 13 1 15 0;
#X connect 13 2 16 0;
#X connect 13 3 17 0;
#X connect 13 4 18 0;
#X connect 14 0 19 0;
#X connect 15 0 19 0;
#X connect 16 0 19 0;
#X connect 17 0 19 0;
#X connect 18 0 19 0;
#X connect 19 0 53 0;
#X connect 19 1 54 0;
#X connect 19 2 55 0;
#X connect 19 3 56 0;
#X connect 19 4 57 0;
#X connect 20 0 21 0;
#X connect 21 0 22 0;
#X connect 22 0 48 0;
#X connect 22 0 51 0;
#X connect 23 0 24 2;
#X connect 23 0 44 2;
#X connect 23 0 58 2;
#X connect 24 0 6 0;
#X connect 24 1 7 0;
#X connect 25 0 26 0;
#X connect 26 0 47 0;
#X connect 26 0 52 0;
#X connect 27 0 28 0;
#X connect 28 0 46 0;
#X connect 29 0 24 2;
#X connect 29 0 44 2;
#X connect 29 0 58 2;
#X connect 30 0 24 2;
#X connect 30 0 44 2;
#X connect 30 0 58 2;
#X connect 31 0 25 0;
#X connect 32 0 27 0;
#X connect 33 0 35 1;
#X connect 33 0 36 1;
#X connect 34 0 38 1;
#X connect 34 0 37 1;
#X connect 35 0 39 0;
#X connect 36 0 39 1;
#X connect 37 0 39 0;
#X connect 38 0 39 1;
#X connect 39 0 4 0;
#X connect 39 1 5 0;
#X connect 40 0 59 2;
#X connect 41 0 59 2;
#X connect 42 0 4 0;
#X connect 43 0 5 0;
#X connect 44 0 42 0;
#X connect 44 1 43 0;
#X connect 45 0 42 1;
#X connect 45 0 43 1;
#X connect 46 0 30 0;
#X connect 47 0 29 0;
#X connect 48 0 23 0;
#X connect 49 0 50 0;
#X connect 50 0 9 0;
#X connect 51 0 40 0;
#X connect 52 0 41 0;
#X connect 53 0 11 0;
#X connect 54 0 33 0;
#X connect 55 0 12 0;
#X connect 56 0 45 0;
#X connect 57 0 34 0;
#X connect 58 0 35 0;
#X connect 58 1 36 0;
#X connect 59 0 37 0;
#X connect 59 1 38 0;
#X restore 110 89 pd effect 4;
#X obj -31 -24 *~ 0.5;
#X obj 215 -27 *~ 0.5;
#X text 16 -173 boids;
#N canvas 1244 203 531 576 mouse-radius 0;
#X obj 108 -40 route /release /radius;
#X floatatom 108 7 5 0 0 0 - - -, f 5;
#X floatatom 150 -11 5 0 0 0 - - -, f 5;
#X obj 110 -69 r all;
#X obj 106 43 spigot;
#X obj 108 110 mtof;
#X obj 108 161 line;
#X obj 111 395 outlet~;
#X obj 111 349 *~ 0;
#X obj 317 56 sel 1 0;
#X floatatom 132 326 5 0 0 0 - - -, f 5;
#X obj 309 32 tgl 15 0 empty empty empty 17 7 0 10 -262144 -1 -1 0
1;
#X obj 317 118 line;
#X obj 385 108 line;
#X obj 317 141 incirc;
#X obj 88 187 syn-stringsynth /key;
#X obj 310 4 change;
#X obj 385 132 inoutbounce;
#X msg 385 71 1 \, 0 1500;
#X msg 317 91 0 \, 1 600;
#X floatatom 154 98 5 0 0 0 - - -, f 5;
#X msg 108 138 \$1 500;
#X obj 111 370 *~ 0.05;
#X obj 178 110 moses 36;
#X obj 231 133 moses 96;
#X msg 177 155 36;
#X msg 228 159 96;
#X obj 111 66 expr int(($f1)*12)+36;
#X connect 0 0 1 0;
#X connect 0 1 2 0;
#X connect 1 0 4 1;
#X connect 1 0 16 0;
#X connect 2 0 4 0;
#X connect 3 0 0 0;
#X connect 4 0 27 0;
#X connect 5 0 21 0;
#X connect 6 0 15 0;
#X connect 8 0 22 0;
#X connect 9 0 19 0;
#X connect 9 1 18 0;
#X connect 10 0 8 1;
#X connect 11 0 9 0;
#X connect 12 0 14 0;
#X connect 13 0 17 0;
#X connect 14 0 10 0;
#X connect 15 0 8 0;
#X connect 16 0 11 0;
#X connect 17 0 10 0;
#X connect 18 0 13 0;
#X connect 19 0 12 0;
#X connect 20 0 23 0;
#X connect 21 0 6 0;
#X connect 22 0 7 0;
#X connect 23 0 25 0;
#X connect 23 1 24 0;
#X connect 24 0 5 0;
#X connect 24 1 26 0;
#X connect 25 0 5 0;
#X connect 26 0 5 0;
#X connect 27 0 20 0;
#X restore 39 -232 pd mouse-radius;
#X floatatom 374 -39 5 0 0 0 - - -, f 5;
#X floatatom 429 -45 5 0 0 0 - - -, f 5;
#X floatatom 484 -44 5 0 0 0 - - -, f 5;
#X floatatom 624 89 5 0 0 0 - - -, f 5;
#X obj 373 -17 / 127;
#X obj 429 -23 / 127;
#X msg 429 49 1 \$1;
#X obj 484 -25 / 127;
#X obj 624 114 / 127;
#X msg 484 43 2 \$1;
#X msg 371 62 0 \$1;
#X obj 372 34 line;
#X msg 373 10 \$1 200;
#X obj 429 26 line;
#X msg 429 2 \$1 200;
#X obj 483 21 line;
#X msg 484 -3 \$1 200;
#X obj 624 162 line;
#X msg 624 138 \$1 200;
#X msg 21 119 \$1 500;
#X obj 21 143 line;
#X floatatom 21 94 5 0 0 0 - - -, f 5;
#X obj 111 149 tgl 30 0 empty empty empty 17 7 0 10 -262144 -1 -1 1
1;
#X obj 549 433 sel 0 1;
#X msg 549 456 disconnect;
#X msg 572 480 connect localhost 9998;
#X obj 549 506 udpsend;
#X obj 461 388 spigot;
#X obj 549 529 tgl 15 0 empty empty empty 17 7 0 10 -262144 -1 -1 1
1;
#X obj 461 241 env~;
#X obj 549 241 env~;
#X obj 461 316 pack f f;
#X msg 461 341 send /vol \$1 \$2;
#X obj 461 364 packOSC;
#X floatatom 461 291 5 0 0 0 - - -, f 5;
#X floatatom 549 289 5 0 0 0 - - -, f 5;
#X obj 219 386 st-compressor /main-comp;
#X obj 109 9 st-pureverb /main-re;
#X obj 461 265 k_speed 100;
#X obj 549 265 k_speed 100;
#N canvas 307 123 620 599 (subpatch) 0;
#X obj -49 229 inlet~;
#X obj 33 223 inlet~;
#X obj -64 303 +~;
#X obj 33 297 -~;
#X obj -64 395 -~;
#X obj 18 401 +~;
#X obj 33 346 *~;
#X obj 105 118 hsl 100 15 0.02 0.98 0 0 empty empty WIDTH 0 8 0 10
-262144 -1 -1 4991 1;
#X obj 196 254 expr 1-$f1;
#X floatatom 238 295 5 0 0 0 - - -, f 5;
#X floatatom 196 279 5 0 0 0 - - -, f 5;
#X obj -64 352 *~;
#X floatatom 118 218 5 0 0 0 - - -, f 5;
#X obj 118 266 line;
#X obj 102 39 inlet;
#X floatatom 102 62 5 0 0 0 - - -, f 5;
#X obj 300 316 line~;
#X obj 242 176 moses 0.49;
#X msg 300 265 \$1 100;
#X obj 239 319 sig~;
#X obj 196 304 sig~;
#X obj 196 228 t f f;
#X floatatom 300 291 5 0 0 0 - - -, f 5;
#X obj 241 202 k_range 0.1 0.5 1 0.9;
#X obj 300 228 k_range 0.5 1 0.9 0.85;
#X obj -64 420 *~ 1;
#X obj 18 425 *~ 1;
#X obj -60 452 outlet~;
#X obj 17 456 outlet~;
#X msg 137 308 \$1 50;
#X obj 137 337 line~;
#X msg 197 332 \$1 50;
#X obj 197 361 line~;
#X msg 118 243 \$1 1000;
#X connect 0 0 2 1;
#X connect 0 0 3 1;
#X connect 1 0 2 0;
#X connect 1 0 3 0;
#X connect 2 0 11 0;
#X connect 3 0 6 0;
#X connect 4 0 25 0;
#X connect 5 0 26 0;
#X connect 6 0 4 1;
#X connect 6 0 5 1;
#X connect 7 0 12 0;
#X connect 8 0 10 0;
#X connect 9 0 19 0;
#X connect 9 0 31 0;
#X connect 10 0 20 0;
#X connect 10 0 29 0;
#X connect 11 0 4 0;
#X connect 11 0 5 0;
#X connect 12 0 33 0;
#X connect 13 0 17 0;
#X connect 13 0 21 0;
#X connect 14 0 15 0;
#X connect 15 0 7 0;
#X connect 17 0 23 0;
#X connect 17 1 24 0;
#X connect 18 0 22 0;
#X connect 21 0 8 0;
#X connect 21 1 9 0;
#X connect 22 0 16 0;
#X connect 23 0 18 0;
#X connect 24 0 18 0;
#X connect 25 0 27 0;
#X connect 26 0 28 0;
#X connect 29 0 30 0;
#X connect 30 0 11 1;
#X connect 31 0 32 0;
#X connect 32 0 6 1;
#X connect 33 0 13 0;
#X coords 0 -1 1 1 110 35 1 100 100;
#X restore 158 209 pd;
#X floatatom 545 -39 5 0 0 0 - - -, f 5;
#X obj 545 -15 / 127;
#X obj 542 58 line;
#X msg 543 34 \$1 200;
#X msg 542 81 3 \$1;
#X obj 112 256 k_vol~;
#X obj 236 256 k_vol~;
#X obj 371 84 s toeqeq;
#X obj 241 89 r toeqeq;
#X obj 362 194 hip~ 10;
#X obj 420 194 hip~ 10;
#X text 109 131 first;
#X msg -118 191 connect localhost 7000;
#X obj -118 219 netsend~ 3;
#X msg -94 155 disconnect;
#X obj -118 125 sel 1 0;
#X obj -117 243 tgl 15 0 empty empty empty 17 7 0 10 -262144 -1 -1
0 1;
#X obj 20 -127 *~ 1;
#X obj 691 41 loadbang;
#X msg 691 63 64;
#X obj 617 -164 clone 40 ss_circle;
#X obj -110 41 catch~ ss1;
#X obj -93 70 catch~ ss2;
#X obj -76 89 catch~ ss3;
#X obj 17 20 loadbang;
#X msg 17 42 1;
#N canvas 0 22 450 300 bomb 0;
#N canvas 329 191 208 358 fireball 0;
#X obj -36 130 noise~;
#X obj -36 256 *~;
#X obj 39 -52 inlet trigger;
#X obj -36 276 outlet~;
#X obj -36 172 lop~ 70;
#X obj -36 193 lop~ 70;
#X obj -36 151 bp~ 70 1;
#X obj 71 102 *~;
#X obj -36 235 hip~ 5;
#X obj 71 58 line;
#X obj 71 79 sig~;
#X obj 71 144 lop~ 5;
#X obj 39 -31 trigger b b;
#X obj 31 123 + 40;
#X msg 111 28 1 100;
#X obj 39 -8 del 100;
#X obj 31 102 * 100;
#X obj 71 124 *~;
#X obj -36 214 *~ 10;
#X msg 40 29 0 3000;
#X connect 0 0 6 0;
#X connect 1 0 3 0;
#X connect 2 0 12 0;
#X connect 4 0 5 0;
#X connect 5 0 18 0;
#X connect 6 0 4 0;
#X connect 7 0 17 0;
#X connect 7 0 17 1;
#X connect 8 0 1 0;
#X connect 9 0 10 0;
#X connect 9 0 16 0;
#X connect 10 0 7 0;
#X connect 10 0 7 1;
#X connect 11 0 1 1;
#X connect 12 0 15 0;
#X connect 12 1 14 0;
#X connect 13 0 5 1;
#X connect 13 0 4 1;
#X connect 13 0 6 1;
#X connect 14 0 9 0;
#X connect 15 0 19 0;
#X connect 16 0 13 0;
#X connect 17 0 11 0;
#X connect 18 0 8 0;
#X connect 19 0 9 0;
#X restore 104 0 pd fireball;
#N canvas 585 385 245 430 blast 0;
#X obj 16 111 / 200;
#X obj 44 -71 del 80;
#X obj 120 11 random 5;
#X obj 120 33 + 25;
#X obj 120 -15 del 80;
#X obj 16 -131 random 8;
#X obj 16 -109 + 8;
#X obj 44 -48 random 10;
#X obj 44 -26 + 15;
#X obj 157 -132 random 100;
#X obj 81 -131 random 50;
#X obj 75 -173 t b b b b b;
#X obj 16 135 outlet noiseval;
#X obj 75 -214 inlet trigger;
#X connect 0 0 12 0;
#X connect 1 0 4 0;
#X connect 1 0 7 0;
#X connect 2 0 3 0;
#X connect 3 0 0 0;
#X connect 4 0 2 0;
#X connect 5 0 6 0;
#X connect 6 0 0 0;
#X connect 7 0 8 0;
#X connect 8 0 0 0;
#X connect 9 0 4 1;
#X connect 10 0 1 1;
#X connect 11 0 1 0;
#X connect 11 1 5 0;
#X connect 11 2 10 0;
#X connect 11 3 9 0;
#X connect 13 0 11 0;
#X restore 35 -27 pd blast control;
#N canvas 143 170 222 478 blast 0;
#X obj 3 -21 noise~;
#X obj 4 211 *~;
#X obj 4 90 clip~ -1 1;
#X obj 4 46 hip~ 20;
#X obj 4 191 bp~ 6000 1;
#X obj 105 97 *~;
#X obj 4 171 cos~;
#X obj 76 -67 -;
#X obj 28 -62 * 7000;
#X obj 76 -94 swap 1;
#X obj 4 271 hip~ 20;
#X obj 4 251 hip~ 20;
#X obj 4 231 hip~ 20;
#X obj 4 151 *~;
#X obj 20 131 +~ 0.5;
#X obj 4 24 vcf~ 7000 2;
#X obj 40 0 line~;
#X obj 6 -145 inlet;
#X obj 6 -124 t b f f;
#X msg 28 -41 \$1 30;
#X obj 4 68 *~ 50;
#X obj 76 -22 + 1.5;
#X obj 76 -43 * 3.5;
#X obj 4 311 outlet~;
#X obj 4 291 *~ 0.3;
#X obj 105 71 vline~;
#X msg 105 48 1 \, 0 \$1;
#X obj 105 24 f;
#X obj 28 -92 pow 2;
#X obj 121 2 * 5000;
#X connect 0 0 15 0;
#X connect 1 0 12 0;
#X connect 2 0 13 0;
#X connect 3 0 20 0;
#X connect 4 0 1 0;
#X connect 5 0 1 1;
#X connect 5 0 14 0;
#X connect 6 0 4 0;
#X connect 7 0 22 0;
#X connect 7 0 29 0;
#X connect 8 0 19 0;
#X connect 9 0 7 0;
#X connect 9 1 7 1;
#X connect 10 0 24 0;
#X connect 11 0 10 0;
#X connect 12 0 11 0;
#X connect 13 0 6 0;
#X connect 14 0 13 1;
#X connect 15 0 3 0;
#X connect 16 0 15 1;
#X connect 17 0 18 0;
#X connect 18 0 27 0;
#X connect 18 1 28 0;
#X connect 18 2 9 0;
#X connect 19 0 16 0;
#X connect 20 0 2 0;
#X connect 21 0 15 2;
#X connect 22 0 21 0;
#X connect 24 0 23 0;
#X connect 25 0 5 0;
#X connect 25 0 5 1;
#X connect 26 0 25 0;
#X connect 27 0 26 0;
#X connect 28 0 8 0;
#X connect 29 0 27 1;
#X restore 35 -3 pd blast;
#X obj 35 82 st-delayfb /key;
#X obj 35 -51 t b b b b;
#X obj 36 -74 bng 15 250 50 0 empty empty empty 17 7 0 10 -262144 -1
-1;
#X obj 35 22 *~ 0.05;
#X obj 102 24 *~ 0.05;
#X obj 37 -120 r all;
#X obj 37 -98 route /bomb;
#X obj 36 165 outlet~;
#X obj 205 158 outlet~;
#X connect 0 0 7 0;
#X connect 1 0 2 0;
#X connect 2 0 6 0;
#X connect 3 0 10 0;
#X connect 3 1 11 0;
#X connect 4 1 1 0;
#X connect 4 2 0 0;
#X connect 5 0 4 0;
#X connect 6 0 3 0;
#X connect 6 0 3 1;
#X connect 7 0 3 1;
#X connect 7 0 3 0;
#X connect 8 0 9 0;
#X connect 9 0 5 0;
#X restore 370 121 pd bomb;
#X obj 616 -141 clone 40 ss;
#X obj 381 513 ctlin;
#X obj 381 543 pack f f;
#X obj 381 590 packOSC;
#X msg 381 567 send /midi \$1 \$2;
#X obj 277 566 s ctlin;
#X obj 370 -129 r ctlin;
#X msg 370 -107 \$2 \$1;
#X obj 374 -74 route 16 17 18 19 23;
#X obj 545 12 k_range 0 1 0.3 0.7;
#X connect 1 0 24 0;
#X connect 2 0 3 0;
#X connect 3 0 4 0;
#X connect 5 0 6 0;
#X connect 7 0 92 0;
#X connect 8 0 9 0;
#X connect 10 0 8 0;
#X connect 11 0 71 0;
#X connect 11 1 71 1;
#X connect 12 0 71 0;
#X connect 12 1 71 1;
#X connect 13 0 71 0;
#X connect 13 1 71 1;
#X connect 14 0 71 0;
#X connect 14 1 71 1;
#X connect 15 0 19 0;
#X connect 16 0 17 0;
#X connect 16 1 18 0;
#X connect 17 0 21 0;
#X connect 18 0 28 1;
#X connect 18 0 27 1;
#X connect 19 0 20 0;
#X connect 20 0 16 0;
#X connect 21 0 15 0;
#X connect 22 0 30 0;
#X connect 23 0 31 0;
#X connect 24 0 11 0;
#X connect 24 1 12 0;
#X connect 24 2 13 0;
#X connect 24 3 55 0;
#X connect 26 0 84 0;
#X connect 26 1 85 0;
#X connect 27 0 74 1;
#X connect 28 0 74 0;
#X connect 29 0 26 0;
#X connect 29 1 26 1;
#X connect 30 0 71 0;
#X connect 31 0 71 1;
#X connect 33 0 71 0;
#X connect 33 0 71 1;
#X connect 34 0 38 0;
#X connect 35 0 39 0;
#X connect 36 0 41 0;
#X connect 37 0 42 0;
#X connect 38 0 46 0;
#X connect 39 0 48 0;
#X connect 40 0 82 0;
#X connect 41 0 50 0;
#X connect 42 0 52 0;
#X connect 43 0 82 0;
#X connect 44 0 82 0;
#X connect 45 0 44 0;
#X connect 46 0 45 0;
#X connect 47 0 40 0;
#X connect 48 0 47 0;
#X connect 49 0 43 0;
#X connect 50 0 49 0;
#X connect 51 0 74 2;
#X connect 52 0 51 0;
#X connect 53 0 54 0;
#X connect 54 0 15 0;
#X connect 55 0 53 0;
#X connect 56 0 57 0;
#X connect 56 0 90 0;
#X connect 57 0 58 0;
#X connect 57 1 59 0;
#X connect 58 0 60 0;
#X connect 59 0 60 0;
#X connect 60 0 62 0;
#X connect 61 0 60 0;
#X connect 62 0 61 1;
#X connect 63 0 72 0;
#X connect 64 0 73 0;
#X connect 65 0 66 0;
#X connect 66 0 67 0;
#X connect 67 0 61 0;
#X connect 68 0 65 0;
#X connect 69 0 65 1;
#X connect 70 0 0 0;
#X connect 70 0 63 0;
#X connect 70 0 80 0;
#X connect 70 1 0 1;
#X connect 70 1 64 0;
#X connect 70 1 81 0;
#X connect 71 0 29 0;
#X connect 71 1 29 1;
#X connect 72 0 68 0;
#X connect 73 0 69 0;
#X connect 74 0 70 0;
#X connect 74 1 70 1;
#X connect 75 0 76 0;
#X connect 76 0 111 0;
#X connect 77 0 79 0;
#X connect 78 0 77 0;
#X connect 79 0 82 0;
#X connect 83 0 26 2;
#X connect 84 0 28 0;
#X connect 85 0 27 0;
#X connect 87 0 88 0;
#X connect 88 0 91 0;
#X connect 89 0 88 0;
#X connect 90 0 87 0;
#X connect 90 1 89 0;
#X connect 92 0 71 0;
#X connect 92 0 71 1;
#X connect 93 0 94 0;
#X connect 94 0 37 0;
#X connect 96 0 88 0;
#X connect 97 0 88 1;
#X connect 98 0 88 2;
#X connect 99 0 100 0;
#X connect 100 0 56 0;
#X connect 101 0 26 0;
#X connect 101 1 26 1;
#X connect 103 0 104 0;
#X connect 103 1 104 1;
#X connect 104 0 106 0;
#X connect 104 0 107 0;
#X connect 105 0 61 0;
#X connect 106 0 105 0;
#X connect 108 0 109 0;
#X connect 109 0 110 0;
#X connect 110 0 34 0;
#X connect 110 1 35 0;
#X connect 110 2 36 0;
#X connect 110 3 37 0;
#X connect 110 4 75 0;
#X connect 111 0 78 0;
#X coords 0 -1 1 1 250 270 1 100 100;
#X restore 25 19 pd s-main;
