#N canvas 103 583 177 181 10;
#N canvas 313 587 846 511 sound 0;
#X obj 17 61 table kick;
#X obj 17 85 table snare_1;
#X obj 17 107 table snare_2;
#X obj 16 129 table clap;
#X obj 16 152 table hihat;
#X obj 11 468 soundfiler;
#X obj 14 187 loadbang;
#X obj 525 37 catch~ all;
#X obj 540 397 dac~;
#X obj 537 284 st-pureverb /mixer;
#X obj 540 372 *~;
#X obj 713 373 *~;
#X obj 716 206 tgl 15 0 empty empty empty 17 7 0 10 -262144 -1 -1 1
1;
#X msg 716 226 \$1 2000;
#X obj 716 248 line~;
#X obj 716 176 loadbang;
#X obj 549 172 k_vol~;
#X obj 525 65 st-compressor /ccc;
#X obj 128 61 loadbang;
#X msg 128 86 \; pd dsp 1;
#X obj 17 38 table frame;
#X obj 17 16 table edge;
#X msg 150 349 read -resize sound/clap.wav clap \, read -resize sound/hihat.wav
hihat \, read -resize sound/kick.wav kick \, read -resize sound/snare_1.wav
snare_1 \, read -resize sound/snare_2.wav snare_2 \, read -resize sound/frame.wav
frame \, read -resize sound/edge.wav edge \,;
#X obj 13 205 t b b;
#X msg 11 229 \; frame normalize \; edge normalize \; kick normalize
\; snare_1 normalize \; snare_2 normalize \; clap normalize \; hihat
normalize;
#X connect 6 0 23 0;
#X connect 7 0 17 0;
#X connect 7 0 17 1;
#X connect 9 0 10 0;
#X connect 9 1 11 0;
#X connect 10 0 8 0;
#X connect 11 0 8 1;
#X connect 12 0 13 0;
#X connect 13 0 14 0;
#X connect 14 0 11 1;
#X connect 14 0 10 1;
#X connect 15 0 12 0;
#X connect 17 0 16 0;
#X connect 17 0 9 0;
#X connect 17 1 9 1;
#X connect 18 0 19 0;
#X connect 22 0 5 0;
#X connect 23 0 24 0;
#X connect 23 1 22 0;
#X restore 18 19 pd sound array;
#N canvas 434 244 500 585 beat 1;
#X obj 66 360 packOSC;
#X msg 66 335 send /beat \$1, f 18;
#X obj 93 219 + 1;
#X obj 62 219 f 0;
#X obj 110 104 hsl 100 15 0 0.3 0 0 empty empty Speed 10 7 0 10 -262144
-1 -1 2600 1;
#X floatatom 180 125 5 0 0 0 - - -, f 5;
#X floatatom 66 248 5 0 0 0 - - -, f 5;
#X obj 66 269 int;
#X obj 66 291 change;
#X floatatom 66 313 5 0 0 0 - - -, f 5;
#X obj 123 219 fmod 32;
#X obj 185 212 sel 0 1;
#X obj 107 124 tgl 30 0 empty empty empty 17 7 0 10 -228856 -1 -1 1
1;
#X obj 145 124 tgl 30 0 empty empty empty 17 7 0 10 -258113 -1 -1 1
1;
#X msg 185 278 disconnect;
#X obj 204 321 udpsend;
#X obj 204 344 tgl 15 0 empty empty empty 17 7 0 10 -262144 -1 -1 1
1;
#X obj 204 365 sel 1;
#X msg 204 241 connect localhost 10001;
#X obj 62 193 metro 4;
#X connect 0 0 15 0;
#X connect 1 0 0 0;
#X connect 2 0 10 0;
#X connect 3 0 2 0;
#X connect 3 0 6 0;
#X connect 4 0 5 0;
#X connect 5 0 2 1;
#X connect 6 0 7 0;
#X connect 7 0 8 0;
#X connect 8 0 9 0;
#X connect 9 0 1 0;
#X connect 10 0 3 1;
#X connect 11 0 14 0;
#X connect 11 1 18 0;
#X connect 12 0 19 0;
#X connect 13 0 11 0;
#X connect 14 0 15 0;
#X connect 15 0 16 0;
#X connect 16 0 17 0;
#X connect 18 0 15 0;
#X connect 19 0 3 0;
#X coords 0 -1 1 1 120 60 2 100 100;
#X restore 17 68 pd beat;
#N canvas 0 22 886 631 soundServer 0;
#X obj 18 43 udpreceive 9020;
#X obj 18 68 unpackOSC;
#N canvas 306 200 450 300 testsound 0;
#X obj 226 58 inlet;
#X obj 118 109 osc~ 440;
#X obj 118 134 *~;
#X obj 118 159 dac~;
#X msg 226 83 1 \, 0 300;
#X obj 226 108 line~;
#X connect 0 0 4 0;
#X connect 1 0 2 0;
#X connect 2 0 3 0;
#X connect 2 0 3 1;
#X connect 4 0 5 0;
#X connect 5 0 2 1;
#X restore 18 125 pd testsound;
#X obj 60 151 synth 0;
#X obj 119 151 synth 1;
#X obj 180 151 synth 2;
#X obj 240 151 synth 3;
#X obj 300 151 synth 4;
#X obj 359 151 synth 5;
#X obj 420 151 synth 6;
#X obj 480 151 synth 7;
#X obj 539 151 synth 8;
#X obj 599 151 synth 9;
#X obj 58 299 synth 10;
#X obj 120 298 synth 11;
#X obj 179 31 print;
#X obj 183 300 synth 12;
#X obj 245 300 synth 13;
#X obj 303 301 synth 14;
#X obj 363 302 synth 15;
#X obj 425 301 synth 16;
#X obj 482 302 synth 17;
#X obj 547 301 synth 18;
#X obj 62 447 synth 20;
#X obj 124 452 synth 21;
#X obj 190 452 synth 22;
#X obj 253 454 synth 23;
#X obj 314 454 synth 24;
#X obj 17 94 OSCroute /test /p0 /p1 /p2 /p3 /p4 /p5 /p6 /p7 /p8 /p9
/p10 /p11 /p12 /p13 /p14 /p15 /p16 /p17 /p18 /p19 /p20 /p21 /p22 /p23
/p24, f 133;
#X obj 608 301 synth 19;
#X connect 0 0 1 0;
#X connect 1 0 15 0;
#X connect 1 0 28 0;
#X connect 28 0 2 0;
#X connect 28 1 3 0;
#X connect 28 2 4 0;
#X connect 28 3 5 0;
#X connect 28 4 6 0;
#X connect 28 5 7 0;
#X connect 28 6 8 0;
#X connect 28 7 9 0;
#X connect 28 8 10 0;
#X connect 28 9 11 0;
#X connect 28 10 12 0;
#X connect 28 11 13 0;
#X connect 28 12 14 0;
#X connect 28 13 16 0;
#X connect 28 14 17 0;
#X connect 28 15 18 0;
#X connect 28 16 19 0;
#X connect 28 17 20 0;
#X connect 28 18 21 0;
#X connect 28 19 22 0;
#X connect 28 20 29 0;
#X connect 28 21 23 0;
#X connect 28 22 24 0;
#X connect 28 23 25 0;
#X connect 28 24 26 0;
#X connect 28 25 27 0;
#X restore 18 43 pd soundServer;
