#N canvas 15 341 802 318 10;
#X obj 18 43 udpreceive 9020;
#X obj 18 68 unpackOSC;
#N canvas 306 200 450 300 testsound 0;
#X obj 226 58 inlet;
#X obj 118 109 osc~ 440;
#X obj 118 134 *~;
#X obj 118 159 dac~;
#X msg 226 83 1 \, 0 300;
#X obj 226 108 line~;
#X connect 0 0 4 0;
#X connect 1 0 2 0;
#X connect 2 0 3 0;
#X connect 2 0 3 1;
#X connect 4 0 5 0;
#X connect 5 0 2 1;
#X restore 18 125 pd testsound;
#N canvas 216 369 723 420 sound 1;
#X obj 17 61 table kick;
#X obj 17 85 table snare_1;
#X obj 17 107 table snare_2;
#X obj 16 129 table clap;
#X obj 16 152 table hihat;
#X obj 14 297 soundfiler;
#X obj 14 187 loadbang;
#X obj 434 15 catch~ all;
#X obj 434 362 dac~;
#X obj 434 263 st-pureverb /mixer;
#X obj 434 337 *~;
#X obj 607 338 *~;
#X obj 625 184 tgl 15 0 empty empty empty 17 7 0 10 -262144 -1 -1 1
1;
#X msg 625 204 \$1 2000;
#X obj 625 226 line~;
#X obj 625 154 loadbang;
#X obj 458 150 k_vol~;
#X obj 434 43 st-compressor /ccc;
#X obj 128 61 loadbang;
#X msg 128 86 \; pd dsp 1;
#X obj 17 38 table frame;
#X obj 17 16 table edge;
#X msg 119 218 read -resize sound/clap.wav clap \, read -resize sound/hihat.wav
hihat \, read -resize sound/kick.wav kick \, read -resize sound/snare_1.wav
snare_1 \, read -resize sound/snare_2.wav snare_2 \, read -resize sound/frame.wav
frame \, read -resize sound/edge.wav edge \,;
#X obj 13 205 t b b;
#X msg 11 229 \; frame normalize \; edge normalize;
#X connect 6 0 23 0;
#X connect 7 0 17 0;
#X connect 7 0 17 1;
#X connect 9 0 10 0;
#X connect 9 1 11 0;
#X connect 10 0 8 0;
#X connect 11 0 8 1;
#X connect 12 0 13 0;
#X connect 13 0 14 0;
#X connect 14 0 11 1;
#X connect 14 0 10 1;
#X connect 15 0 12 0;
#X connect 17 0 16 0;
#X connect 17 0 9 0;
#X connect 17 1 9 1;
#X connect 18 0 19 0;
#X connect 22 0 5 0;
#X connect 23 0 24 0;
#X connect 23 1 22 0;
#X restore 18 19 pd sound array;
#X obj 60 151 synth 0;
#X obj 18 94 OSCroute /test /p0 /p1 /p2 /p3 /p4 /p5 /p6 /p7 /p8 /p9
/p10 /p11, f 79;
#X obj 119 151 synth 1;
#X obj 180 151 synth 2;
#X obj 240 151 synth 3;
#X obj 300 151 synth 4;
#X obj 359 151 synth 5;
#X obj 420 151 synth 6;
#X obj 480 151 synth 7;
#X obj 539 151 synth 8;
#X obj 599 151 synth 9;
#X obj 659 151 synth 10;
#X obj 723 151 synth 11;
#X connect 0 0 1 0;
#X connect 1 0 5 0;
#X connect 5 0 2 0;
#X connect 5 1 4 0;
#X connect 5 2 6 0;
#X connect 5 3 7 0;
#X connect 5 4 8 0;
#X connect 5 5 9 0;
#X connect 5 6 10 0;
#X connect 5 7 11 0;
#X connect 5 8 12 0;
#X connect 5 9 13 0;
#X connect 5 10 14 0;
#X connect 5 11 15 0;
#X connect 5 12 16 0;
