#N canvas 138 499 211 303 10;
#N canvas 490 116 843 566 gemwin-main 0;
#X obj 244 448 gemwin;
#X msg 132 311 destroy;
#X obj 132 279 sel 0 1;
#X obj 265 504 s W_H;
#X obj 106 152 hsl 70 15 0 1 0 0 empty empty empty -2 -8 0 10 -228856
-1 -1 6900 1;
#X obj 174 251 line;
#N canvas 0 22 450 300 mask 0;
#X obj 173 51 inlet;
#X obj 184 146 r W_H;
#X obj 80 193 rectangle 4 4;
#X obj 184 168 expr ($f1/$f2)*4;
#X obj 80 146 colorRGB 0 0 0 0;
#X obj 173 99 line;
#X msg 173 77 \$1 1000;
#X obj 80 169 alpha;
#X obj 247 146 s net;
#X obj 247 124 packOSC;
#X msg 247 99 send /bg \$1;
#X obj 173 123 expr 1- $f1;
#X obj 80 122 gemhead 9999;
#X connect 0 0 6 0;
#X connect 1 0 3 0;
#X connect 3 0 2 1;
#X connect 4 0 7 0;
#X connect 5 0 10 0;
#X connect 5 0 11 0;
#X connect 6 0 5 0;
#X connect 7 0 2 0;
#X connect 9 0 8 0;
#X connect 10 0 9 0;
#X connect 11 0 4 4;
#X connect 12 0 4 0;
#X restore 59 208 pd mask;
#X obj 104 115 tgl 30 0 empty empty empty 17 7 0 10 -228856 -1 -1 1
1;
#X obj 132 251 float;
#X obj 67 -5 r hid;
#X obj 67 16 route key_41;
#X obj 67 38 sel 1;
#X msg 67 61 0;
#X obj 122 68 r bg-alpha;
#X msg 174 229 \$1 3000;
#X msg 224 360 885 500 -585 0;
#X obj 318 382 r \$0-gemwin;
#X obj 224 73 inlet;
#X msg 224 164 1;
#X obj 161 -11 gemkeyboard;
#X floatatom 161 11 5 0 0 0 - - -, f 5;
#X obj 161 30 sel 53;
#X obj 224 95 t b b a;
#X msg 258 164 0;
#X msg 264 484 \$1 \$2;
#X msg 224 318 set \$1 \$2 \$3 \$4;
#X obj 224 125 del 100;
#X text 135 116 win;
#X obj 224 382 t b a a a;
#X msg 244 413 reset \, dimen \$1 \$2 \, FSAA 8 \, offset \$3 \$4 \,
cursor 1 \, border 0 \, menubar 1 \, \, color 0.13 0.13 0.13 \, create
\, 1;
#X connect 1 0 0 0;
#X connect 2 0 1 0;
#X connect 2 1 15 0;
#X connect 4 0 6 0;
#X connect 5 0 4 0;
#X connect 7 0 8 0;
#X connect 8 0 2 0;
#X connect 8 0 14 0;
#X connect 9 0 10 0;
#X connect 10 0 11 0;
#X connect 11 0 12 0;
#X connect 12 0 7 0;
#X connect 13 0 4 0;
#X connect 14 0 5 0;
#X connect 15 0 28 0;
#X connect 16 0 0 0;
#X connect 17 0 22 0;
#X connect 18 0 7 0;
#X connect 19 0 20 0;
#X connect 20 0 21 0;
#X connect 21 0 12 0;
#X connect 22 0 26 0;
#X connect 22 1 23 0;
#X connect 22 2 25 0;
#X connect 23 0 7 0;
#X connect 24 0 3 0;
#X connect 25 0 15 0;
#X connect 26 0 18 0;
#X connect 28 1 29 0;
#X connect 28 2 24 0;
#X connect 28 3 24 0;
#X connect 29 0 0 0;
#X coords 0 -1 1 1 110 70 1 100 100;
#X restore 28 101 pd gemwin-main;
#X obj 31 182 k_cpu;
#N canvas 537 349 257 238 net 0;
#X obj 33 33 gemhead;
#X obj 33 62 s gemhead;
#X obj 32 122 unpackOSC;
#X obj 32 148 s tocircle;
#X obj 32 95 udpreceive 10000;
#X connect 0 0 1 0;
#X connect 2 0 3 0;
#X connect 4 0 2 0;
#X restore 32 233 pd net;
#X obj 33 260 clone 40 c-circle;
#X msg 28 78 885 500 -585 0;
#X connect 4 0 0 0;
