#N canvas 288 177 945 617 10;
#X obj 6 346 throw~ all;
#X obj 105 120 bng 15 250 50 0 empty empty empty 17 7 0 10 -262144
-1 -1;
#X obj 6 298 tabplay~ kick;
#X obj 516 445 throw~ all;
#X obj 124 160 bng 15 250 50 0 empty empty empty 17 7 0 10 -262144
-1 -1;
#X obj 332 273 throw~ all;
#X obj 149 378 throw~ all;
#X obj 105 179 bng 15 250 50 0 empty empty empty 17 7 0 10 -262144
-1 -1;
#X obj 516 399 tabplay~ snare_2;
#X obj 332 216 tabplay~ clap;
#X obj 149 328 tabplay~ hihat;
#X obj 386 440 throw~ all;
#X obj 105 160 bng 15 250 50 0 empty empty empty 17 7 0 10 -262144
-1 -1;
#X obj 386 395 tabplay~ snare_1;
#X obj 83 4 route 1 2;
#X obj 105 139 bng 15 250 50 0 empty empty empty 17 7 0 10 -262144
-1 -1;
#X obj 124 139 bng 15 250 50 0 empty empty empty 17 7 0 10 -262144
-1 -1;
#X obj 188 58 inlet;
#X obj 40 5 sel 1;
#X obj 156 5 sel 1;
#X obj 208 6 sel 1;
#X obj 258 7 sel 1;
#X obj 188 93 route /pose1 /pose2 /pose3_l /pose3_r /pose4 /r /l;
#X floatatom 105 202 5 0 0 0 - - -, f 5;
#X floatatom 105 223 5 0 0 0 - - -, f 5;
#X obj 11 228 t b b;
#X obj 43 249 randomF 0.3;
#X obj 43 271 + 0.7;
#X obj 6 320 *~ 0;
#X obj 149 350 *~ 0;
#X obj 149 258 t b b;
#X obj 181 279 randomF 0.5;
#X obj 181 301 + 1.5;
#X obj 332 151 t b b;
#X obj 332 128 k_timespigot 300;
#X obj 371 196 + 0.5;
#X obj 371 174 randomF 0.2;
#X obj 386 327 t b b;
#X obj 418 371 + 0.5;
#X obj 418 349 randomF 0.2;
#X obj 386 416 *~ 0;
#X obj 332 245 *~ 0;
#X obj 516 423 *~ 0;
#X obj 516 330 t b b;
#X obj 548 374 + 0.5;
#X obj 548 352 randomF 0.2;
#X connect 1 0 25 0;
#X connect 2 0 28 0;
#X connect 4 0 43 0;
#X connect 7 0 30 0;
#X connect 8 0 42 0;
#X connect 9 0 41 0;
#X connect 10 0 29 0;
#X connect 12 0 37 0;
#X connect 13 0 40 0;
#X connect 14 0 15 0;
#X connect 14 1 16 0;
#X connect 15 0 34 0;
#X connect 16 0 34 0;
#X connect 17 0 22 0;
#X connect 18 0 1 0;
#X connect 19 0 12 0;
#X connect 20 0 4 0;
#X connect 21 0 7 0;
#X connect 22 0 18 0;
#X connect 22 1 14 0;
#X connect 22 2 19 0;
#X connect 22 3 20 0;
#X connect 22 4 21 0;
#X connect 22 5 23 0;
#X connect 22 6 24 0;
#X connect 25 0 2 0;
#X connect 25 1 26 0;
#X connect 26 0 27 0;
#X connect 27 0 28 1;
#X connect 28 0 0 0;
#X connect 29 0 6 0;
#X connect 30 0 10 0;
#X connect 30 1 31 0;
#X connect 31 0 32 0;
#X connect 32 0 29 1;
#X connect 33 0 9 0;
#X connect 33 1 36 0;
#X connect 34 0 33 0;
#X connect 35 0 41 1;
#X connect 36 0 35 0;
#X connect 37 0 13 0;
#X connect 37 1 39 0;
#X connect 38 0 40 1;
#X connect 39 0 38 0;
#X connect 40 0 11 0;
#X connect 41 0 5 0;
#X connect 42 0 3 0;
#X connect 43 0 8 0;
#X connect 43 1 45 0;
#X connect 44 0 42 1;
#X connect 45 0 44 0;
#X coords 0 -1 1 1 55 140 1 100 100;
