#N canvas 274 455 945 617 10;
#X obj 6 346 throw~ all;
#X obj 105 120 bng 15 250 50 0 empty empty empty 17 7 0 10 -262144
-1 -1;
#X obj 6 298 tabplay~ kick;
#X obj 516 445 throw~ all;
#X obj 124 160 bng 15 250 50 0 empty empty empty 17 7 0 10 -262144
-1 -1;
#X obj 332 273 throw~ all;
#X obj 149 378 throw~ all;
#X obj 105 179 bng 15 250 50 0 empty empty empty 17 7 0 10 -262144
-1 -1;
#X obj 516 399 tabplay~ snare_2;
#X obj 332 216 tabplay~ clap;
#X obj 149 328 tabplay~ hihat;
#X obj 386 440 throw~ all;
#X obj 105 160 bng 15 250 50 0 empty empty empty 17 7 0 10 -262144
-1 -1;
#X obj 386 395 tabplay~ snare_1;
#X obj 83 4 route 1 2;
#X obj 105 139 bng 15 250 50 0 empty empty empty 17 7 0 10 -262144
-1 -1;
#X obj 124 139 bng 15 250 50 0 empty empty empty 17 7 0 10 -262144
-1 -1;
#X obj 188 58 inlet;
#X obj 40 5 sel 1;
#X obj 156 5 sel 1;
#X obj 208 6 sel 1;
#X obj 258 7 sel 1;
#X floatatom 105 202 5 0 0 0 - - -, f 5;
#X floatatom 105 223 5 0 0 0 - - -, f 5;
#X obj 11 228 t b b;
#X obj 43 249 randomF 0.3;
#X obj 43 271 + 0.7;
#X obj 6 320 *~ 0;
#X obj 149 350 *~ 0;
#X obj 149 258 t b b;
#X obj 181 279 randomF 0.5;
#X obj 332 151 t b b;
#X obj 332 128 k_timespigot 300;
#X obj 371 174 randomF 0.2;
#X obj 386 327 t b b;
#X obj 418 371 + 0.5;
#X obj 418 349 randomF 0.2;
#X obj 386 416 *~ 0;
#X obj 332 245 *~ 0;
#X obj 516 423 *~ 0;
#X obj 516 330 t b b;
#X obj 548 374 + 0.5;
#X obj 548 352 randomF 0.2;
#X obj 188 93 route /pose1 /pose2 /pose3_l /pose3_r /pose4 /r /l /frame
/edge, f 63;
#X obj 644 346 throw~ all;
#X obj 644 324 *~ 0;
#X obj 644 231 t b b;
#X obj 676 275 + 0.5;
#X obj 676 253 randomF 0.2;
#X obj 775 239 throw~ all;
#X obj 775 217 *~ 0;
#X obj 775 124 t b b;
#X obj 807 168 + 0.5;
#X obj 807 146 randomF 0.2;
#X obj 644 300 tabplay~ frame;
#X obj 775 193 tabplay~ edge;
#X obj 757 101 k_timespigot 100;
#X obj 627 195 k_timespigot 100;
#X obj 181 301 + 0.5;
#X obj 628 151 bng 15 250 50 0 empty empty empty 17 7 0 10 -262144
-1 -1;
#X obj 755 64 bng 15 250 50 0 empty empty empty 17 7 0 10 -262144 -1
-1;
#X obj 371 196 + 0.2;
#X connect 1 0 24 0;
#X connect 2 0 27 0;
#X connect 4 0 40 0;
#X connect 7 0 29 0;
#X connect 8 0 39 0;
#X connect 9 0 38 0;
#X connect 10 0 28 0;
#X connect 12 0 34 0;
#X connect 13 0 37 0;
#X connect 14 0 15 0;
#X connect 14 1 16 0;
#X connect 15 0 32 0;
#X connect 16 0 32 0;
#X connect 17 0 43 0;
#X connect 18 0 1 0;
#X connect 19 0 12 0;
#X connect 20 0 4 0;
#X connect 21 0 7 0;
#X connect 24 0 2 0;
#X connect 24 1 25 0;
#X connect 25 0 26 0;
#X connect 26 0 27 1;
#X connect 27 0 0 0;
#X connect 28 0 6 0;
#X connect 29 0 10 0;
#X connect 29 1 30 0;
#X connect 30 0 58 0;
#X connect 31 0 9 0;
#X connect 31 1 33 0;
#X connect 32 0 31 0;
#X connect 33 0 61 0;
#X connect 34 0 13 0;
#X connect 34 1 36 0;
#X connect 35 0 37 1;
#X connect 36 0 35 0;
#X connect 37 0 11 0;
#X connect 38 0 5 0;
#X connect 39 0 3 0;
#X connect 40 0 8 0;
#X connect 40 1 42 0;
#X connect 41 0 39 1;
#X connect 42 0 41 0;
#X connect 43 0 18 0;
#X connect 43 1 14 0;
#X connect 43 2 19 0;
#X connect 43 3 20 0;
#X connect 43 4 21 0;
#X connect 43 5 22 0;
#X connect 43 6 23 0;
#X connect 43 7 57 0;
#X connect 43 8 56 0;
#X connect 45 0 44 0;
#X connect 46 0 54 0;
#X connect 46 1 48 0;
#X connect 47 0 45 1;
#X connect 48 0 47 0;
#X connect 50 0 49 0;
#X connect 51 0 55 0;
#X connect 51 1 53 0;
#X connect 52 0 50 1;
#X connect 53 0 52 0;
#X connect 54 0 45 0;
#X connect 55 0 50 0;
#X connect 56 0 51 0;
#X connect 57 0 46 0;
#X connect 58 0 28 1;
#X connect 59 0 57 0;
#X connect 60 0 56 0;
#X connect 61 0 38 1;
#X coords 0 -1 1 1 55 140 1 100 100;
