#N canvas 386 139 770 624 10;
#X obj 335 5 r addCircle;
#X obj 335 36 route \$1;
#X floatatom 288 178 5 0 0 0 - - -, f 5;
#X obj 37 485 circle 0.1;
#X obj 335 141 unpack f f f;
#X obj 112 71 r tgl-circle;
#X obj 112 114 tgl 15 0 empty empty empty 17 7 0 10 -262144 -1 -1 1
1;
#X msg 358 85 1;
#X obj 408 246 f;
#X obj 408 267 / 100;
#X obj 468 246 fmod 100;
#X obj 438 246 + 1;
#X floatatom 456 224 5 0 0 0 - - -, f 5;
#X obj 142 30 loadbang;
#X msg 142 50 0;
#X obj 335 60 t a b b;
#X obj 381 108 s \$0-reset;
#X obj 37 169 depth;
#X obj 37 320 translateXYZ 0 0 0;
#X obj 273 586 s net;
#X obj 273 564 packOSC;
#X obj 37 222 t a b b b b;
#X obj 37 84 r gemhead;
#X obj 37 115 separator;
#X floatatom 108 357 5 0 0 0 - - -, f 5;
#X obj 37 420 alpha 1;
#X obj 108 384 * 0.5;
#X obj 407 293 t f f;
#X floatatom 293 227 5 0 0 0 - - -, f 5;
#N canvas 1020 340 430 578 x_pos 0;
#X obj 30 140 inlet;
#X obj 30 500 outlet;
#X obj 30 241 f 0;
#X obj 77 138 inlet;
#X obj 72 242 + 0.05;
#X floatatom 167 167 5 0 0 0 - - -, f 5;
#X obj 167 29 inlet;
#X obj 136 515 outlet;
#X obj 136 469 tgl 15 0 empty empty empty 17 7 0 10 -262144 -1 -1 1
1;
#X obj 30 367 t f f;
#X obj 136 489 change;
#X obj 166 208 line;
#X msg 166 186 0 \, \$1 1000;
#X obj 30 296 moses 25;
#X msg 83 321 -25;
#X obj 77 160 + 0;
#X floatatom 30 333 5 0 0 0 - - -, f 5;
#X floatatom 30 263 5 0 0 0 - - -, f 5;
#X msg 226 434 0;
#X msg 88 418 0;
#X obj 88 389 moses -10;
#X obj 158 411 moses 10;
#X msg 158 433 1;
#X floatatom 30 471 5 0 0 0 - - -, f 5;
#X obj 30 449 k_float 100;
#X obj 167 58 t b f;
#X obj 129 88 bng 15 250 50 0 empty empty empty 17 7 0 10 -262144 -1
-1;
#X obj 167 145 + 0.05;
#X obj 167 89 random 10;
#X obj 167 111 * 0.05;
#X connect 0 0 2 0;
#X connect 2 0 4 0;
#X connect 2 0 17 0;
#X connect 3 0 15 0;
#X connect 4 0 2 1;
#X connect 5 0 12 0;
#X connect 6 0 25 0;
#X connect 8 0 10 0;
#X connect 9 0 24 0;
#X connect 9 1 20 0;
#X connect 10 0 7 0;
#X connect 11 0 4 1;
#X connect 12 0 11 0;
#X connect 13 0 16 0;
#X connect 13 1 14 0;
#X connect 14 0 2 1;
#X connect 15 0 2 1;
#X connect 16 0 9 0;
#X connect 17 0 13 0;
#X connect 18 0 8 0;
#X connect 19 0 8 0;
#X connect 20 0 19 0;
#X connect 20 1 21 0;
#X connect 21 0 22 0;
#X connect 21 1 18 0;
#X connect 22 0 8 0;
#X connect 23 0 1 0;
#X connect 24 0 23 0;
#X connect 25 0 28 0;
#X connect 26 0 28 0;
#X connect 27 0 5 0;
#X connect 28 0 29 0;
#X connect 29 0 27 0;
#X restore 55 260 pd x_pos;
#N canvas 782 163 534 506 y_pos 0;
#X obj 53 194 inlet;
#X obj 53 434 outlet;
#X obj 53 227 t b b;
#X obj 53 304 f 0;
#X obj 114 210 inlet;
#X obj 88 304 + 0.01;
#X obj 156 254 f 0;
#X obj 193 253 + 0.01;
#X obj 156 334 * 0.1;
#X obj 251 252 fmod 1;
#X obj 140 49 loadbang;
#X floatatom 223 152 5 0 0 0 - - -, f 5;
#X obj 223 130 + 0.05;
#X obj 223 108 randomF 0.05;
#X obj 122 104 randomF 1;
#X obj 140 71 t b b, f 7;
#X floatatom 122 126 5 0 0 0 - - -, f 5;
#X obj 230 60 bng 15 250 50 0 empty empty empty 17 7 0 10 -262144 -1
-1;
#X obj 156 282 expr 2*abs($f1-0.5);
#X obj 156 304 - 0.5;
#X connect 0 0 2 0;
#X connect 2 0 3 0;
#X connect 2 1 6 0;
#X connect 3 0 5 0;
#X connect 3 0 1 0;
#X connect 4 0 3 1;
#X connect 5 0 3 1;
#X connect 6 0 7 0;
#X connect 6 0 18 0;
#X connect 7 0 9 0;
#X connect 8 0 5 1;
#X connect 9 0 6 1;
#X connect 10 0 15 0;
#X connect 11 0 8 1;
#X connect 12 0 11 0;
#X connect 13 0 12 0;
#X connect 14 0 16 0;
#X connect 15 0 14 0;
#X connect 15 1 13 0;
#X connect 16 0 6 1;
#X connect 17 0 15 0;
#X connect 18 0 19 0;
#X connect 19 0 8 0;
#X restore 126 259 pd y_pos;
#X obj 416 168 t f f f f;
#N canvas 190 213 464 533 color 0;
#X obj 37 388 colorRGB 1 1 1 0.3;
#X obj 68 359 unpack f f f;
#X msg 125 207 0.53 0.53 0.77;
#X msg 139 230 0.13 0.69 0.45;
#X msg 154 249 0.71 0.19 0.28;
#X msg 167 270 0.35 0.47 0.83;
#X obj 36 309 inlet;
#X obj 37 419 outlet;
#X obj 125 88 r \$0-reset;
#X obj 274 65 inlet;
#X floatatom 125 150 5 0 0 0 - - -, f 5;
#X obj 313 395 outlet;
#X obj 125 115 random 5;
#X msg 188 295 0.54 0.32 0.8;
#X obj 125 177 sel 0 1 2 3 4;
#X connect 0 0 7 0;
#X connect 1 0 0 1;
#X connect 1 1 0 2;
#X connect 1 2 0 3;
#X connect 2 0 1 0;
#X connect 3 0 1 0;
#X connect 4 0 1 0;
#X connect 5 0 1 0;
#X connect 6 0 0 0;
#X connect 8 0 12 0;
#X connect 9 0 0 4;
#X connect 10 0 11 0;
#X connect 10 0 14 0;
#X connect 12 0 10 0;
#X connect 13 0 1 0;
#X connect 14 0 2 0;
#X connect 14 1 3 0;
#X connect 14 2 4 0;
#X connect 14 3 5 0;
#X connect 14 4 13 0;
#X restore 37 356 pd color;
#X obj 37 197 t a b b;
#X obj 112 158 t f f f;
#X obj 112 180 sel 0;
#X obj 108 406 + 0.5;
#X text 533 369 x y size alpha colorid tgl;
#X msg 273 540 send /circle \$1 \$2 \$3 \$4 \$5 \$6 \$7;
#X obj 240 447 pack f f f f f f f;
#X msg 273 504 set send /circle \, adddollar 1 \, adddollar 2 \, adddollar
3 \, adddollar 4 \, adddollar 5 \, adddollar 6 \, adddollar 7;
#X obj 195 355 f \$1;
#X obj 273 477 loadbang;
#X floatatom 244 284 5 0 0 0 - - -, f 5;
#X obj 37 452 spigot;
#X obj 37 137 spigot;
#X obj 244 303 t b f b;
#X obj 195 379 int;
#X obj 158 184 int;
#X obj 342 394 int;
#X obj 547 288 k_float 1000;
#X obj 233 363 k_float 1000;
#X obj 336 330 k_float 1000;
#X obj 439 318 k_float 1000;
#X obj 233 385 + 0.001;
#X obj 336 353 + 0.001;
#X obj 547 314 + 0.001;
#X obj 439 340 + 0.001;
#X obj 521 133 moses 4;
#X msg 565 159 4;
#X floatatom 523 159 5 0 0 0 - - -, f 5;
#X obj 456 197 expr abs(5-($f1/4)*5)+0.3;
#X connect 0 0 1 0;
#X connect 1 0 15 0;
#X connect 2 0 29 1;
#X connect 4 0 2 0;
#X connect 4 1 28 0;
#X connect 4 2 31 0;
#X connect 5 0 6 0;
#X connect 6 0 34 0;
#X connect 6 0 45 1;
#X connect 7 0 6 0;
#X connect 8 0 9 0;
#X connect 8 0 11 0;
#X connect 9 0 27 0;
#X connect 10 0 8 1;
#X connect 11 0 10 0;
#X connect 12 0 11 1;
#X connect 13 0 14 0;
#X connect 14 0 6 0;
#X connect 15 0 4 0;
#X connect 15 1 7 0;
#X connect 15 2 16 0;
#X connect 17 0 33 0;
#X connect 18 0 32 0;
#X connect 20 0 19 0;
#X connect 21 0 18 0;
#X connect 21 1 29 0;
#X connect 21 2 30 0;
#X connect 22 0 23 0;
#X connect 23 0 45 0;
#X connect 24 0 26 0;
#X connect 25 0 44 0;
#X connect 26 0 36 0;
#X connect 27 0 24 0;
#X connect 27 1 53 0;
#X connect 28 0 30 1;
#X connect 29 0 18 1;
#X connect 29 0 43 0;
#X connect 29 1 44 1;
#X connect 30 0 18 2;
#X connect 30 0 52 0;
#X connect 31 0 3 1;
#X connect 31 1 50 0;
#X connect 31 2 58 0;
#X connect 31 3 29 2;
#X connect 32 0 25 0;
#X connect 32 1 49 0;
#X connect 33 0 21 0;
#X connect 33 1 8 0;
#X connect 34 0 35 0;
#X connect 34 2 48 0;
#X connect 35 0 43 0;
#X connect 36 0 32 1;
#X connect 38 0 20 0;
#X connect 39 0 38 0;
#X connect 40 0 38 0;
#X connect 41 0 47 0;
#X connect 42 0 40 0;
#X connect 43 0 46 0;
#X connect 44 0 3 0;
#X connect 45 0 17 0;
#X connect 46 0 41 0;
#X connect 46 1 51 0;
#X connect 47 0 39 0;
#X connect 48 0 39 6;
#X connect 49 0 39 5;
#X connect 50 0 56 0;
#X connect 51 0 54 0;
#X connect 52 0 55 0;
#X connect 53 0 57 0;
#X connect 54 0 39 1;
#X connect 55 0 39 2;
#X connect 56 0 39 3;
#X connect 57 0 39 4;
#X connect 58 0 60 0;
#X connect 58 1 59 0;
#X connect 59 0 60 0;
#X connect 60 0 61 0;
#X connect 61 0 12 0;
