#N canvas 647 89 770 640 10;
#X obj 335 5 r addCircle;
#X obj 335 36 route \$1;
#X floatatom 288 178 5 0 0 0 - - -, f 5;
#X obj 37 450 circle 0.1;
#X obj 335 141 unpack f f f;
#X obj 112 71 r tgl-circle;
#X obj 112 114 tgl 15 0 empty empty empty 17 7 0 10 -262144 -1 -1 0
1;
#X msg 358 85 1;
#X obj 408 267 f;
#X obj 408 302 / 100;
#X obj 468 267 fmod 100;
#X obj 438 267 + 1;
#X floatatom 456 245 5 0 0 0 - - -, f 5;
#X obj 456 218 expr abs(10-($f1/4)*10)+1;
#X obj 142 30 loadbang;
#X msg 142 50 0;
#X obj 335 60 t a b b;
#X obj 381 108 s \$0-reset;
#X obj 37 169 depth;
#X obj 37 320 translateXYZ 0 0 0;
#X msg 273 540 send /circle-58 \$1 \$2 \$3 \$4 \$5 \$6;
#X obj 273 477 init \$1;
#X obj 273 586 s net;
#X obj 273 564 packOSC;
#X obj 273 456 bng 15 250 50 0 empty empty empty 17 7 0 10 -262144
-1 -1;
#X obj 37 222 t a b b b b;
#X obj 37 142 spigot;
#X obj 37 84 r gemhead;
#X obj 37 115 separator;
#X floatatom 143 359 5 0 0 0 - - -, f 5;
#X obj 37 420 alpha 1;
#X obj 143 386 * 0.5;
#X obj 407 328 t f f;
#X floatatom 293 227 5 0 0 0 - - -, f 5;
#N canvas 601 125 648 498 x_pos 0;
#X obj 12 107 inlet;
#X obj 12 385 outlet;
#X obj 12 208 f 0;
#X obj 70 315 moses 7.08;
#X obj 59 105 inlet;
#X obj 48 208 + 0.05;
#X floatatom 101 156 5 0 0 0 - - -, f 5;
#X obj 145 61 inlet;
#X obj 222 117 / 10;
#X floatatom 222 145 5 0 0 0 - - -, f 5;
#X obj 145 83 t b f f;
#X floatatom 193 208 5 0 0 0 - - -, f 5;
#X obj 101 134 + 0.05;
#X msg 137 346 0;
#X obj 118 441 outlet;
#X obj 48 235 fmod 42.48;
#X obj 12 271 - 7.08;
#X obj 29 148 + 7.08;
#X obj 12 352 t f b;
#X msg 70 344 1;
#X obj 118 395 tgl 15 0 empty empty empty 17 7 0 10 -262144 -1 -1 0
1;
#X floatatom 52 402 5 0 0 0 - - -, f 5;
#X obj 129 210 * 2;
#X obj 129 235 + 42.48;
#X obj 102 277 + 7.08;
#X obj 193 238 + 7.08;
#X obj 52 423 outlet;
#X obj 12 293 t f f;
#X obj 118 415 change;
#X obj 101 112 randomF 0.2;
#X obj 100 197 line;
#X msg 100 175 0 \, \$1 1000;
#X connect 0 0 2 0;
#X connect 2 0 5 0;
#X connect 2 0 16 0;
#X connect 2 0 21 0;
#X connect 3 0 19 0;
#X connect 3 1 13 0;
#X connect 4 0 17 0;
#X connect 5 0 15 0;
#X connect 6 0 31 0;
#X connect 7 0 10 0;
#X connect 8 0 9 0;
#X connect 10 0 29 0;
#X connect 10 1 8 0;
#X connect 10 2 11 0;
#X connect 11 0 22 0;
#X connect 11 0 24 0;
#X connect 11 0 25 0;
#X connect 12 0 6 0;
#X connect 13 0 20 0;
#X connect 15 0 2 1;
#X connect 16 0 27 0;
#X connect 17 0 2 1;
#X connect 18 0 1 0;
#X connect 19 0 20 0;
#X connect 20 0 28 0;
#X connect 21 0 26 0;
#X connect 22 0 23 0;
#X connect 23 0 15 1;
#X connect 24 0 16 1;
#X connect 24 0 17 1;
#X connect 25 0 3 1;
#X connect 27 0 18 0;
#X connect 27 1 3 0;
#X connect 28 0 14 0;
#X connect 29 0 12 0;
#X connect 30 0 5 1;
#X connect 31 0 30 0;
#X restore 55 260 pd x_pos;
#N canvas 782 163 534 506 y_pos 0;
#X obj 53 194 inlet;
#X obj 53 434 outlet;
#X obj 53 227 t b b;
#X obj 53 304 f 0;
#X obj 114 210 inlet;
#X obj 88 304 + 0.01;
#X obj 156 254 f 0;
#X obj 193 253 + 0.01;
#X obj 156 334 * 0.1;
#X obj 251 252 fmod 1;
#X obj 140 49 loadbang;
#X floatatom 223 152 5 0 0 0 - - -, f 5;
#X obj 223 130 + 0.05;
#X obj 223 108 randomF 0.05;
#X obj 122 104 randomF 1;
#X obj 140 71 t b b, f 7;
#X floatatom 122 126 5 0 0 0 - - -, f 5;
#X obj 230 60 bng 15 250 50 0 empty empty empty 17 7 0 10 -262144 -1
-1;
#X obj 156 282 expr 2*abs($f1-0.5);
#X obj 156 304 - 0.5;
#X connect 0 0 2 0;
#X connect 2 0 3 0;
#X connect 2 1 6 0;
#X connect 3 0 5 0;
#X connect 3 0 1 0;
#X connect 4 0 3 1;
#X connect 5 0 3 1;
#X connect 6 0 7 0;
#X connect 6 0 18 0;
#X connect 7 0 9 0;
#X connect 8 0 5 1;
#X connect 9 0 6 1;
#X connect 10 0 15 0;
#X connect 11 0 8 1;
#X connect 12 0 11 0;
#X connect 13 0 12 0;
#X connect 14 0 16 0;
#X connect 15 0 14 0;
#X connect 15 1 13 0;
#X connect 16 0 6 1;
#X connect 17 0 15 0;
#X connect 18 0 19 0;
#X connect 19 0 8 0;
#X restore 126 259 pd y_pos;
#X obj 416 168 t f f f f;
#N canvas 0 22 464 533 color 0;
#X obj 37 388 colorRGB 1 1 1 0.3;
#X obj 68 359 unpack f f f;
#X msg 125 207 0.53 0.53 0.77;
#X msg 139 230 0.13 0.69 0.45;
#X msg 154 249 0.71 0.19 0.28;
#X msg 167 270 0.35 0.47 0.83;
#X obj 36 309 inlet;
#X obj 37 419 outlet;
#X obj 125 88 r \$0-reset;
#X obj 274 65 inlet;
#X floatatom 125 150 5 0 0 0 - - -, f 5;
#X obj 313 395 outlet;
#X obj 125 115 random 5;
#X msg 188 295 0.54 0.32 0.8;
#X obj 125 177 sel 0 1 2 3 4;
#X connect 0 0 7 0;
#X connect 1 0 0 1;
#X connect 1 1 0 2;
#X connect 1 2 0 3;
#X connect 2 0 1 0;
#X connect 3 0 1 0;
#X connect 4 0 1 0;
#X connect 5 0 1 0;
#X connect 6 0 0 0;
#X connect 8 0 12 0;
#X connect 9 0 0 4;
#X connect 10 0 11 0;
#X connect 10 0 14 0;
#X connect 12 0 10 0;
#X connect 13 0 1 0;
#X connect 14 0 2 0;
#X connect 14 1 3 0;
#X connect 14 2 4 0;
#X connect 14 3 5 0;
#X connect 14 4 13 0;
#X restore 37 356 pd color;
#X obj 37 197 t a b b;
#X obj 308 422 pack f f f f f f;
#X msg 273 504 set send /circle-\$1 \, adddollar 1 \, adddollar 2 \,
adddollar 3 \, adddollar 4 \, adddollar 5 \, adddollar 6;
#X floatatom 81 291 5 0 0 0 - - -, f 5;
#X obj 112 158 t f f f;
#X obj 112 180 sel 0;
#X obj 143 408 + 0.5;
#X connect 0 0 1 0;
#X connect 1 0 16 0;
#X connect 2 0 34 1;
#X connect 4 0 2 0;
#X connect 4 1 33 0;
#X connect 4 2 36 0;
#X connect 5 0 6 0;
#X connect 6 0 42 0;
#X connect 7 0 6 0;
#X connect 8 0 9 0;
#X connect 8 0 11 0;
#X connect 9 0 32 0;
#X connect 10 0 8 1;
#X connect 11 0 10 0;
#X connect 12 0 11 1;
#X connect 13 0 12 0;
#X connect 14 0 15 0;
#X connect 15 0 6 0;
#X connect 16 0 4 0;
#X connect 16 1 7 0;
#X connect 16 2 17 0;
#X connect 18 0 38 0;
#X connect 19 0 37 0;
#X connect 20 0 23 0;
#X connect 21 0 40 0;
#X connect 23 0 22 0;
#X connect 24 0 21 0;
#X connect 25 0 19 0;
#X connect 25 1 34 0;
#X connect 25 2 35 0;
#X connect 26 0 18 0;
#X connect 27 0 28 0;
#X connect 28 0 26 0;
#X connect 29 0 31 0;
#X connect 30 0 3 0;
#X connect 31 0 44 0;
#X connect 32 0 29 0;
#X connect 32 1 39 3;
#X connect 33 0 35 1;
#X connect 34 0 19 1;
#X connect 34 1 41 0;
#X connect 35 0 19 2;
#X connect 35 0 39 1;
#X connect 36 0 3 1;
#X connect 36 1 39 2;
#X connect 36 2 13 0;
#X connect 36 3 34 2;
#X connect 37 0 30 0;
#X connect 37 1 39 4;
#X connect 38 0 25 0;
#X connect 38 1 8 0;
#X connect 39 0 20 0;
#X connect 40 0 20 0;
#X connect 41 0 39 0;
#X connect 42 0 43 0;
#X connect 42 1 26 1;
#X connect 42 2 39 5;
#X connect 43 0 41 0;
#X connect 44 0 37 1;
