#N canvas 512 23 1089 772 10;
#X obj 395 156 s line\$1;
#X obj 378 110 route \$1;
#X obj 378 80 r addline;
#X obj 378 178 unpack f f f f;
#X obj 123 256 gemhead;
#X obj 149 337 translateXYZ;
#X obj 586 82 tgl 15 0 empty empty empty 17 7 0 10 -262144 -1 -1 1
1;
#X obj 586 57 r allclose;
#X msg 499 7 1;
#X obj 615 241 tgl 15 0 empty empty empty 17 7 0 10 -262144 -1 -1 1
1;
#X obj 613 307 t b b b;
#N canvas 684 118 823 635 target1 0;
#X obj 436 333 translateXYZ 0 0 0;
#X obj 591 232 == 2;
#X obj 540 274 pack f f;
#X msg 540 297 \$2 \$1;
#X obj 436 275 *;
#X obj 463 431 circle 0.07;
#X obj 540 147 spigot;
#X obj 540 111 r mainline1;
#X obj 194 83 expr sqrt(pow(($f1-$f3) \, 2)+pow(($f2-$f4) \, 2));
#X obj 277 172 distance2d;
#X msg 334 149 \$1 \$2;
#X obj 277 219 /;
#X obj 334 125 r line\$1;
#X obj 194 55 r line\$1;
#X obj 197 218 mtof;
#X obj 197 158 int;
#X obj 277 275 *;
#X obj 92 337 pack f f;
#X obj 47 386 list 0 0;
#X msg 47 480 send /red0 \$1 \$2;
#X msg 92 360 \$2 \$1;
#X obj 158 368 init \$1;
#X msg 158 389 set send /red\$1 \, adddollar 1 \, adddollar 2 \,;
#X obj 47 510 outlet;
#X obj 480 46 inlet;
#X obj 47 323 inlet;
#X floatatom 436 245 5 0 0 0 - - -, f 5;
#X obj 436 212 t b f;
#X obj 345 292 line;
#X obj 322 214 t b f;
#X floatatom 277 249 5 0 0 0 - - -, f 5;
#X obj 480 78 t f f;
#X obj 436 307 gemhead 2000;
#X obj 436 567 circle 0.07;
#X obj 436 360 t a a;
#X msg 445 533 draw line;
#X obj 445 510 loadbang;
#X obj 436 485 color 1 1 1;
#X obj 436 458 separator;
#X obj 463 383 separator;
#X obj 381 212 loadbang;
#X msg 381 236 0;
#X obj 540 183 intersect;
#X floatatom 345 315 5 0 0 0 - - -, f 5;
#X obj 97 270 inlet;
#X obj 116 126 moses 8;
#X msg 155 148 8;
#X floatatom 116 168 5 0 0 0 - - -, f 5;
#X obj 197 131 expr 84-(($f1/8)*36);
#X floatatom 197 194 5 0 0 0 - - -, f 5;
#X obj 47 419 nchange l;
#X floatatom 187 332 5 0 0 0 - - -, f 5;
#X obj 187 310 expr int($f1*100)/100;
#X msg 345 268 \$1 100;
#X obj 284 475 t f b;
#X obj 270 532 tabwrite rr;
#X obj 311 500 f \$1;
#X msg 575 508 0 1 0.3;
#X msg 609 564 1 0.6 0.2;
#X msg 593 537 0.4 0.1 1;
#X obj 463 407 color 0 1 0.3;
#X obj 186 430 tgl 15 0 empty empty empty 17 7 0 10 -262144 -1 -1 0
1;
#X obj 186 450 metro 100;
#X obj 186 472 s \$0-resres;
#X connect 0 0 34 0;
#X connect 1 0 27 0;
#X connect 2 0 3 0;
#X connect 3 0 9 0;
#X connect 4 0 53 0;
#X connect 4 0 32 0;
#X connect 4 0 54 0;
#X connect 4 0 61 0;
#X connect 6 0 42 0;
#X connect 7 0 6 0;
#X connect 8 0 11 1;
#X connect 8 0 45 0;
#X connect 9 0 11 0;
#X connect 10 0 9 1;
#X connect 11 0 30 0;
#X connect 12 0 10 0;
#X connect 13 0 8 0;
#X connect 13 0 42 1;
#X connect 14 0 17 1;
#X connect 15 0 49 0;
#X connect 16 0 52 0;
#X connect 17 0 20 0;
#X connect 18 0 50 0;
#X connect 19 0 23 0;
#X connect 20 0 18 1;
#X connect 21 0 22 0;
#X connect 22 0 19 0;
#X connect 24 0 31 0;
#X connect 25 0 18 0;
#X connect 26 0 4 0;
#X connect 27 0 26 0;
#X connect 27 1 4 1;
#X connect 28 0 43 0;
#X connect 29 0 30 0;
#X connect 29 1 16 1;
#X connect 30 0 16 0;
#X connect 31 0 26 0;
#X connect 31 1 6 1;
#X connect 32 0 0 0;
#X connect 34 0 38 0;
#X connect 34 1 39 0;
#X connect 35 0 33 0;
#X connect 36 0 35 0;
#X connect 37 0 33 0;
#X connect 38 0 37 0;
#X connect 39 0 60 0;
#X connect 40 0 41 0;
#X connect 41 0 32 0;
#X connect 42 0 2 0;
#X connect 42 0 0 2;
#X connect 42 1 2 1;
#X connect 42 1 0 1;
#X connect 42 2 1 0;
#X connect 43 0 29 0;
#X connect 44 0 19 0;
#X connect 45 0 47 0;
#X connect 45 1 46 0;
#X connect 46 0 47 0;
#X connect 47 0 48 0;
#X connect 48 0 15 0;
#X connect 49 0 14 0;
#X connect 50 0 19 0;
#X connect 51 0 17 0;
#X connect 52 0 51 0;
#X connect 53 0 28 0;
#X connect 54 0 55 0;
#X connect 54 1 56 0;
#X connect 56 0 55 1;
#X connect 60 0 5 0;
#X connect 61 0 62 0;
#X connect 62 0 63 0;
#X restore 613 379 pd target1;
#N canvas 564 42 805 524 target1 0;
#X obj 437 334 translateXYZ 0 0 0;
#X obj 591 232 == 2;
#X obj 540 274 pack f f;
#X msg 540 297 \$2 \$1;
#X obj 436 275 *;
#X obj 540 147 spigot;
#X obj 194 83 expr sqrt(pow(($f1-$f3) \, 2)+pow(($f2-$f4) \, 2));
#X obj 268 219 distance2d;
#X obj 268 248 /;
#X obj 325 172 r line\$1;
#X obj 194 55 r line\$1;
#X obj 194 215 mtof;
#X obj 194 155 int;
#X obj 268 322 *;
#X obj 81 348 pack f f;
#X obj 36 397 list 0 0;
#X msg 38 476 send /green0 \$1 \$2;
#X msg 81 371 \$2 \$1;
#X obj 147 379 init \$1;
#X obj 38 506 outlet;
#X obj 480 46 inlet;
#X obj 36 334 inlet;
#X floatatom 436 245 5 0 0 0 - - -, f 5;
#X obj 436 212 t b f;
#X obj 309 272 line;
#X obj 308 294 t b f;
#X floatatom 268 296 5 0 0 0 - - -, f 5;
#X obj 480 78 t f f;
#X msg 147 400 set send /green\$1 \, adddollar 1 \, adddollar 2 \,
;
#X obj 540 111 r mainline2;
#X obj 436 307 gemhead 2000;
#X obj 552 478 circle 0.07;
#X obj 421 621 circle 0.07;
#X obj 443 370 t a a;
#X msg 441 587 draw line;
#X obj 444 558 loadbang;
#X obj 412 535 color 1 1 1;
#X obj 412 515 separator;
#X obj 530 418 separator;
#X obj 381 270 loadbang;
#X msg 381 294 0;
#X obj 540 183 intersect;
#X obj 99 268 inlet;
#X obj 126 136 moses 8;
#X msg 165 158 8;
#X floatatom 126 178 5 0 0 0 - - -, f 5;
#X msg 325 196 \$1 \$2;
#X floatatom 194 190 5 0 0 0 - - -, f 5;
#X obj 37 426 nchange l;
#X floatatom 201 370 5 0 0 0 - - -, f 5;
#X obj 201 348 expr int($f1*100)/100;
#X msg 309 248 \$1 100;
#X obj 323 144 expr ($f1/8)*24+48;
#X obj 194 129 expr 84-(($f1/8)*36);
#X obj 294 485 t f b;
#X obj 321 510 f \$1;
#X obj 280 542 tabwrite gg;
#X msg 660 376 0 1 0.3;
#X msg 694 432 1 0.6 0.2;
#X msg 678 405 0.4 0.1 1;
#X obj 528 438 color 0.4 0.1 1;
#X obj 186 430 tgl 15 0 empty empty empty 17 7 0 10 -262144 -1 -1 0
1;
#X obj 186 450 metro 100;
#X obj 186 472 s \$0-resres;
#X connect 0 0 33 0;
#X connect 1 0 23 0;
#X connect 2 0 3 0;
#X connect 3 0 7 0;
#X connect 4 0 51 0;
#X connect 4 0 30 0;
#X connect 4 0 54 0;
#X connect 4 0 61 0;
#X connect 5 0 41 0;
#X connect 6 0 8 1;
#X connect 6 0 43 0;
#X connect 7 0 8 0;
#X connect 8 0 26 0;
#X connect 9 0 46 0;
#X connect 10 0 6 0;
#X connect 10 0 41 1;
#X connect 11 0 14 1;
#X connect 12 0 47 0;
#X connect 13 0 50 0;
#X connect 14 0 17 0;
#X connect 15 0 48 0;
#X connect 16 0 19 0;
#X connect 17 0 15 1;
#X connect 18 0 28 0;
#X connect 20 0 27 0;
#X connect 21 0 15 0;
#X connect 22 0 4 0;
#X connect 23 0 22 0;
#X connect 23 1 4 1;
#X connect 24 0 25 0;
#X connect 25 0 26 0;
#X connect 25 1 13 1;
#X connect 26 0 13 0;
#X connect 27 0 22 0;
#X connect 27 1 5 1;
#X connect 28 0 16 0;
#X connect 29 0 5 0;
#X connect 30 0 0 0;
#X connect 33 0 37 0;
#X connect 33 1 38 0;
#X connect 34 0 32 0;
#X connect 35 0 34 0;
#X connect 36 0 32 0;
#X connect 37 0 36 0;
#X connect 38 0 60 0;
#X connect 39 0 40 0;
#X connect 40 0 30 0;
#X connect 41 0 2 0;
#X connect 41 0 0 2;
#X connect 41 1 2 1;
#X connect 41 1 0 1;
#X connect 41 2 1 0;
#X connect 42 0 16 0;
#X connect 43 0 45 0;
#X connect 43 1 44 0;
#X connect 44 0 45 0;
#X connect 45 0 53 0;
#X connect 46 0 7 1;
#X connect 47 0 11 0;
#X connect 48 0 16 0;
#X connect 49 0 14 0;
#X connect 50 0 49 0;
#X connect 51 0 24 0;
#X connect 53 0 12 0;
#X connect 54 0 56 0;
#X connect 54 1 55 0;
#X connect 55 0 56 1;
#X connect 60 0 31 0;
#X connect 61 0 62 0;
#X connect 62 0 63 0;
#X restore 632 404 pd target1;
#N canvas 641 74 805 524 target1 0;
#X obj 437 345 translateXYZ 0 0 0;
#X obj 591 232 == 2;
#X obj 540 274 pack f f;
#X msg 540 297 \$2 \$1;
#X obj 436 275 *;
#X obj 540 147 spigot;
#X obj 194 83 expr sqrt(pow(($f1-$f3) \, 2)+pow(($f2-$f4) \, 2));
#X obj 268 219 distance2d;
#X msg 325 196 \$1 \$2;
#X obj 268 266 /;
#X obj 325 172 r line\$1;
#X obj 194 55 r line\$1;
#X obj 194 184 mtof;
#X obj 194 155 int;
#X obj 268 322 *;
#X obj 94 336 pack f f;
#X obj 49 385 list 0 0;
#X msg 68 470 send /blue0 \$1 \$2;
#X msg 94 359 \$2 \$1;
#X obj 138 409 init \$1;
#X obj 68 500 outlet;
#X obj 480 46 inlet;
#X obj 49 322 inlet;
#X floatatom 436 245 5 0 0 0 - - -, f 5;
#X obj 436 212 t b f;
#X obj 309 269 line;
#X obj 308 294 t b f;
#X floatatom 268 296 5 0 0 0 - - -, f 5;
#X obj 480 78 t f f;
#X msg 138 430 set send /blue\$1 \, adddollar 1 \, adddollar 2 \,;
#X obj 540 111 r mainline3;
#X obj 436 307 gemhead 2000;
#X obj 429 481 circle 0.07;
#X obj 538 494 circle 0.07;
#X obj 436 368 t a a;
#X msg 558 460 draw line;
#X obj 561 431 loadbang;
#X obj 529 408 color 1 1 1;
#X obj 529 388 separator;
#X obj 428 430 separator;
#X obj 377 270 loadbang;
#X msg 377 294 0;
#X obj 540 183 intersect;
#X obj 112 251 inlet;
#X obj 116 107 moses 8;
#X msg 155 129 8;
#X floatatom 116 149 5 0 0 0 - - -, f 5;
#X floatatom 257 158 5 0 0 0 - - -, f 5;
#X obj 67 439 nchange l;
#X obj 325 143 expr 108-(($f1/8)*48);
#X msg 309 245 \$1 100;
#X floatatom 221 376 5 0 0 0 - - -, f 5;
#X obj 221 354 expr int($f1*100)/100;
#X obj 194 126 expr 84-(($f1/8)*36);
#X obj 311 459 t f b;
#X obj 338 484 f \$1;
#X obj 297 516 tabwrite bb;
#X obj 428 457 color 1 0.6 0.2;
#X obj 195 504 tgl 15 0 empty empty empty 17 7 0 10 -262144 -1 -1 0
1;
#X obj 195 524 metro 100;
#X obj 195 546 s \$0-resres;
#X connect 0 0 34 0;
#X connect 1 0 24 0;
#X connect 2 0 3 0;
#X connect 3 0 7 0;
#X connect 4 0 50 0;
#X connect 4 0 31 0;
#X connect 4 0 54 0;
#X connect 4 0 58 0;
#X connect 5 0 42 0;
#X connect 6 0 9 1;
#X connect 6 0 44 0;
#X connect 7 0 9 0;
#X connect 8 0 7 1;
#X connect 9 0 27 0;
#X connect 10 0 8 0;
#X connect 11 0 6 0;
#X connect 11 0 42 1;
#X connect 12 0 15 1;
#X connect 13 0 12 0;
#X connect 14 0 52 0;
#X connect 15 0 18 0;
#X connect 16 0 48 0;
#X connect 17 0 20 0;
#X connect 18 0 16 1;
#X connect 19 0 29 0;
#X connect 21 0 28 0;
#X connect 22 0 16 0;
#X connect 23 0 4 0;
#X connect 24 0 23 0;
#X connect 24 1 4 1;
#X connect 25 0 26 0;
#X connect 26 0 27 0;
#X connect 26 1 14 1;
#X connect 27 0 14 0;
#X connect 28 0 23 0;
#X connect 28 1 5 1;
#X connect 29 0 17 0;
#X connect 30 0 5 0;
#X connect 31 0 0 0;
#X connect 34 0 38 0;
#X connect 34 1 39 0;
#X connect 35 0 33 0;
#X connect 36 0 35 0;
#X connect 37 0 33 0;
#X connect 38 0 37 0;
#X connect 39 0 57 0;
#X connect 40 0 41 0;
#X connect 41 0 31 0;
#X connect 42 0 2 0;
#X connect 42 0 0 2;
#X connect 42 1 2 1;
#X connect 42 1 0 1;
#X connect 42 2 1 0;
#X connect 43 0 17 0;
#X connect 44 0 46 0;
#X connect 44 1 45 0;
#X connect 45 0 46 0;
#X connect 46 0 53 0;
#X connect 48 0 17 0;
#X connect 50 0 25 0;
#X connect 51 0 15 0;
#X connect 52 0 51 0;
#X connect 53 0 13 0;
#X connect 53 0 47 0;
#X connect 54 0 56 0;
#X connect 54 1 55 0;
#X connect 55 0 56 1;
#X connect 57 0 32 0;
#X connect 58 0 59 0;
#X connect 59 0 60 0;
#X restore 653 431 pd target1;
#X obj 613 486 s net;
#X obj 613 457 packOSC;
#X obj 615 167 sel 0;
#X obj 615 190 del 45;
#X obj 732 309 t b b b;
#X obj 672 342 expr $f1*display1;
#X obj 689 375 expr $f1*display2;
#X obj 710 403 expr $f1*display3;
#X obj 149 422 colorRGB 1 1 1 0.5;
#X obj 149 394 separator;
#X obj 732 230 gemhead;
#X obj 149 360 t a a a;
#X obj 246 467 separator;
#X obj 246 689 curve 2;
#X obj 137 626 loadbang;
#X obj 246 625 t a b;
#X msg 265 659 0 0 0;
#N canvas 886 432 432 293 angle 0;
#X obj 45 75 expr $f1-$f2;
#X obj 264 75 expr $f1-$f2;
#X obj 45 153 outlet;
#X obj 45 -3 inlet;
#X obj 45 43 unpack f f f f;
#X obj 45 102 expr atan2($f1 \, $f2)*-1*180/3.1415926;
#X msg 45 19 \$3 \$4 \$1 \$2;
#X obj 45 126 + 180;
#X connect 0 0 5 0;
#X connect 1 0 5 1;
#X connect 3 0 6 0;
#X connect 4 0 0 0;
#X connect 4 1 1 0;
#X connect 4 2 0 1;
#X connect 4 3 1 1;
#X connect 5 0 7 0;
#X connect 6 0 4 0;
#X connect 7 0 2 0;
#X restore 394 244 pd angle;
#X obj 246 491 rotateXYZ 0 0 0;
#X obj 378 132 t a a b a;
#X obj 451 408 r \$0-r;
#X obj 471 300 r \$0-x;
#X obj 547 305 r \$0-y;
#X obj 32 152 expr $f1-$f2;
#X obj 251 150 expr $f1-$f2;
#X obj 251 104 v mouseY;
#X obj 32 59 unpack f f;
#X obj 32 -17 r boid_pos;
#X obj 32 33 route \$1;
#X obj 114 121 s \$0-x;
#X obj 32 84 t b f f;
#X obj 251 79 t b f f;
#X obj 333 149 s \$0-y;
#X obj 32 205 s \$0-r;
#X obj 32 179 expr atan2($f1 \, $f2)*-1*180/3.1415926;
#X obj 389 696 pack 0 0 0;
#X msg 389 716 \$2 \$1 \$3;
#X obj 498 379 line;
#X msg 498 351 \$1 0;
#X obj 533 380 line;
#X msg 533 354 \$1 0;
#X msg 471 323 \$1 500;
#X msg 547 331 \$1 500;
#X obj 330 405 line;
#X msg 329 376 \$1 0;
#X msg 451 430 \$1 500;
#N canvas 822 290 410 413 translat_new 0;
#X obj 245 -10 inlet;
#X obj 298 -11 inlet;
#X obj 168 244 pack f f f f;
#X obj 245 20 t f f;
#X obj 298 21 t f f;
#X obj 72 135 +;
#X obj 140 142 +;
#X obj 56 -38 inlet r;
#X obj 173 -13 inlet dis;
#X obj 141 92 cos;
#X obj 72 86 sin;
#X obj 72 111 *;
#X obj 140 114 *;
#X obj 56 40 expr ($f1/360)*2*3.1415926;
#X obj 56 -5 expr 360-$f1;
#X obj 168 268 s line\$1;
#X connect 0 0 3 0;
#X connect 1 0 4 0;
#X connect 2 0 15 0;
#X connect 3 0 5 1;
#X connect 3 1 2 2;
#X connect 4 0 6 1;
#X connect 4 1 2 3;
#X connect 5 0 2 0;
#X connect 6 0 2 1;
#X connect 7 0 14 0;
#X connect 8 0 11 1;
#X connect 8 0 12 1;
#X connect 9 0 12 0;
#X connect 10 0 11 0;
#X connect 11 0 5 0;
#X connect 12 0 6 0;
#X connect 13 0 10 0;
#X connect 13 0 9 0;
#X connect 14 0 13 0;
#X restore 446 457 pd translat_new;
#X msg 550 564 send /pos0 \$1 \$2;
#X msg 692 503 set send /pos\$1 \, adddollar 1 \, adddollar 2 \,;
#X obj 550 537 pack f f;
#X obj 692 476 init \$1;
#X obj 266 292 sel 0 1;
#X msg 240 335 1 1 1;
#X msg 260 359 1 1 0;
#X obj 238 382 unpack f f f;
#X obj -28 371 loadbang;
#X msg -29 399 auto 1;
#X obj 586 112 t f f f f f f f;
#X obj 389 648 distance2d;
#X obj 389 618 pack f f;
#X obj 459 619 pack f f;
#X floatatom 782 230 5 0 0 0 - - -, f 5;
#X obj 782 255 > 0.1;
#X obj 732 277 spigot;
#X obj 768 121 distance2d;
#X obj 768 74 r mouse_pos;
#X obj 825 95 pack f f;
#X floatatom 768 143 5 0 0 0 - - -, f 5;
#X obj 768 166 < 0.05;
#X obj 735 -28 sel 1;
#X msg 735 -4 0;
#X obj 735 188 spigot;
#X obj 735 -53 r mouse_right;
#X obj 536 209 sel 0;
#X obj 782 278 tgl 15 0 empty empty empty 17 7 0 10 -262144 -1 -1 1
1;
#X msg 615 218 0;
#X msg 536 254 0 0;
#X obj 536 232 del 55;
#X obj 499 30 t f f;
#X obj 768 -10 r hid;
#X obj 735 39 spigot;
#X obj 768 14 route key_29;
#X obj 32 9 spigot;
#X obj 183 -95 sel 1;
#X obj 216 -77 r hid;
#X obj 183 -28 spigot;
#X obj 183 -120 r mouse_center;
#X obj 183 -1 spigot;
#X obj 231 226 tgl 15 0 empty empty empty 17 7 0 10 -262144 -1 -1 0
1;
#X obj 231 204 r auto-boids;
#X msg 183 -61 1;
#X obj 232 250 expr if($f1+$f2==2 \, 1 \, 0);
#X obj 230 275 tgl 15 0 empty empty empty 17 7 0 10 -262144 -1 -1 0
1;
#X obj 146 478 circle 0.06;
#X obj 613 262 metro 100;
#X floatatom 364 277 5 0 0 0 - - -, f 5;
#X obj 123 283 t a b;
#X obj 328 348 f;
#X obj 179 291 spigot;
#X obj 354 347 + 0.5;
#X obj 402 346 fmod 360;
#X obj 182 83 t b;
#X obj 197 264 tgl 15 0 empty empty empty 17 7 0 10 -262144 -1 -1 0
1;
#X obj 315 177 sel 1;
#X msg 321 207 0;
#X obj 816 313 int;
#X floatatom 851 411 5 0 0 0 - - -, f 5;
#X obj 815 337 moses 0.5;
#X obj 856 358 moses 1;
#X obj 897 382 moses 2;
#X obj 935 403 moses 4;
#X msg 814 363 8;
#X msg 855 382 4;
#X msg 896 409 2;
#X msg 933 427 0.5;
#X obj 216 -53 route key_29 key_225;
#X obj 184 45 gate 2;
#X obj 274 -28 + 1;
#X obj 217 80 t b;
#X msg 216 105 1;
#X msg 137 658 draw point;
#X msg 45 715 res \$1;
#X obj 45 637 int;
#X floatatom 45 564 5 0 0 0 - - -, f 5;
#X floatatom 45 614 5 0 0 0 - - -, f 5;
#X obj 45 589 k_range 0.1 10 10 150;
#X obj 146 453 alpha 1;
#X obj 244 599 alpha 1;
#X msg 352 474 2;
#X msg 387 477 3;
#X obj 246 521 GEMglPointSize 2;
#X floatatom 517 585 5 0 0 0 - - -, f 5;
#X obj 119 563 circle 1;
#X obj 136 508 spigot;
#X msg 52 382 \$1 1000;
#X obj 52 408 line;
#X obj 52 459 > 0;
#X obj 231 -20 tgl 15 0 empty empty empty 17 7 0 10 -262144 -1 -1 0
1;
#X msg 13 498 draw line \, width 1;
#X obj 119 538 colorRGB 1 1 0 0;
#X obj 52 438 * 0.2;
#X floatatom 415 304 5 0 0 0 - - -, f 5;
#X obj 32 108 v tagX;
#X obj 602 0 loadbang;
#X msg 602 22 0;
#X obj -63 564 r \$0-resres;
#X floatatom -61 690 5 0 0 0 - - -, f 5;
#X obj 246 563 colorRGB 1 1 1 0.6;
#X obj -61 668 expr $f2-$f1;
#X obj -63 586 random 30;
#X obj -62 464 random 5;
#X obj -62 486 sel 0;
#X msg -24 534 0;
#X msg -56 512 1;
#X obj -50 540 tgl 15 0 empty empty empty 17 7 0 10 -262144 -1 -1 0
1;
#X obj 45 669 moses 6;
#X msg 45 691 6;
#X connect 1 0 33 0;
#X connect 2 0 1 0;
#X connect 3 0 73 0;
#X connect 3 1 73 1;
#X connect 3 2 52 0;
#X connect 3 2 74 0;
#X connect 3 3 54 0;
#X connect 3 3 74 1;
#X connect 4 0 110 0;
#X connect 5 0 25 0;
#X connect 6 0 71 0;
#X connect 6 0 105 1;
#X connect 6 0 117 0;
#X connect 7 0 6 0;
#X connect 8 0 92 0;
#X connect 9 0 108 0;
#X connect 10 0 11 0;
#X connect 10 1 12 0;
#X connect 10 2 13 0;
#X connect 11 0 15 0;
#X connect 12 0 15 0;
#X connect 13 0 15 0;
#X connect 15 0 14 0;
#X connect 16 0 17 0;
#X connect 17 0 89 0;
#X connect 18 0 19 0;
#X connect 18 1 20 0;
#X connect 18 2 21 0;
#X connect 19 0 11 2;
#X connect 20 0 12 2;
#X connect 21 0 13 2;
#X connect 22 0 140 0;
#X connect 23 0 22 0;
#X connect 24 0 77 0;
#X connect 25 0 23 0;
#X connect 25 2 26 0;
#X connect 26 0 32 0;
#X connect 28 0 134 0;
#X connect 29 0 27 0;
#X connect 29 1 30 0;
#X connect 30 0 27 1;
#X connect 31 0 109 0;
#X connect 32 0 144 0;
#X connect 33 0 3 0;
#X connect 33 1 0 0;
#X connect 33 2 8 0;
#X connect 33 3 31 0;
#X connect 34 0 59 0;
#X connect 35 0 55 0;
#X connect 35 0 155 0;
#X connect 36 0 56 0;
#X connect 37 0 48 0;
#X connect 38 0 48 1;
#X connect 39 0 38 0;
#X connect 40 0 44 0;
#X connect 40 1 45 0;
#X connect 41 0 96 0;
#X connect 42 0 40 0;
#X connect 44 0 156 0;
#X connect 44 1 37 1;
#X connect 44 2 43 0;
#X connect 45 0 39 0;
#X connect 45 1 38 1;
#X connect 45 2 46 0;
#X connect 48 0 47 0;
#X connect 49 0 50 0;
#X connect 50 0 27 2;
#X connect 51 0 5 1;
#X connect 51 0 60 2;
#X connect 51 0 63 0;
#X connect 51 0 80 0;
#X connect 52 0 51 0;
#X connect 53 0 5 2;
#X connect 53 0 60 3;
#X connect 53 0 63 1;
#X connect 53 0 80 1;
#X connect 54 0 53 0;
#X connect 55 0 51 0;
#X connect 56 0 53 0;
#X connect 57 0 60 0;
#X connect 57 0 32 3;
#X connect 58 0 57 0;
#X connect 59 0 57 0;
#X connect 61 0 15 0;
#X connect 62 0 61 0;
#X connect 63 0 61 0;
#X connect 63 0 145 0;
#X connect 64 0 62 0;
#X connect 65 0 66 0;
#X connect 65 0 142 0;
#X connect 65 1 67 0;
#X connect 65 1 143 0;
#X connect 66 0 68 0;
#X connect 67 0 68 0;
#X connect 68 0 22 1;
#X connect 68 0 161 1;
#X connect 68 1 22 2;
#X connect 68 1 161 2;
#X connect 68 2 22 3;
#X connect 68 2 161 3;
#X connect 69 0 70 0;
#X connect 69 0 152 0;
#X connect 70 0 140 0;
#X connect 71 0 87 0;
#X connect 71 1 4 0;
#X connect 71 2 16 0;
#X connect 71 3 19 0;
#X connect 71 4 20 0;
#X connect 71 5 21 0;
#X connect 71 6 24 0;
#X connect 72 0 49 0;
#X connect 72 0 60 1;
#X connect 72 0 75 0;
#X connect 72 0 137 0;
#X connect 72 0 146 1;
#X connect 73 0 72 0;
#X connect 74 0 72 1;
#X connect 75 0 76 0;
#X connect 75 0 119 0;
#X connect 76 0 88 0;
#X connect 77 0 18 0;
#X connect 78 0 81 0;
#X connect 79 0 78 0;
#X connect 80 0 78 1;
#X connect 81 0 82 0;
#X connect 82 0 85 1;
#X connect 82 0 151 0;
#X connect 83 0 84 0;
#X connect 84 0 94 0;
#X connect 85 0 6 0;
#X connect 86 0 83 0;
#X connect 87 0 91 0;
#X connect 88 0 77 1;
#X connect 89 0 9 0;
#X connect 90 0 11 1;
#X connect 90 0 12 1;
#X connect 90 0 13 1;
#X connect 91 0 90 0;
#X connect 92 0 9 0;
#X connect 92 1 6 0;
#X connect 93 0 95 0;
#X connect 94 0 85 0;
#X connect 95 0 94 1;
#X connect 96 0 42 0;
#X connect 97 0 104 0;
#X connect 98 0 129 0;
#X connect 99 0 101 0;
#X connect 100 0 97 0;
#X connect 101 0 130 1;
#X connect 102 0 105 0;
#X connect 103 0 102 0;
#X connect 104 0 99 0;
#X connect 105 0 106 0;
#X connect 106 0 65 0;
#X connect 106 0 96 1;
#X connect 107 0 147 0;
#X connect 108 0 10 0;
#X connect 109 0 111 0;
#X connect 110 0 5 0;
#X connect 110 1 112 0;
#X connect 111 0 113 0;
#X connect 111 0 58 0;
#X connect 112 0 111 0;
#X connect 113 0 114 0;
#X connect 114 0 111 1;
#X connect 115 0 116 0;
#X connect 116 0 112 1;
#X connect 116 0 148 0;
#X connect 116 0 65 0;
#X connect 117 0 118 0;
#X connect 118 0 116 0;
#X connect 119 0 121 0;
#X connect 120 0 113 1;
#X connect 121 0 125 0;
#X connect 121 1 122 0;
#X connect 122 0 126 0;
#X connect 122 1 123 0;
#X connect 123 0 127 0;
#X connect 123 1 124 0;
#X connect 124 0 128 0;
#X connect 124 1 128 0;
#X connect 125 0 120 0;
#X connect 126 0 120 0;
#X connect 127 0 120 0;
#X connect 128 0 120 0;
#X connect 129 0 99 1;
#X connect 129 1 131 0;
#X connect 130 0 115 0;
#X connect 130 1 132 0;
#X connect 131 0 130 0;
#X connect 132 0 133 0;
#X connect 133 0 102 0;
#X connect 134 0 27 0;
#X connect 135 0 27 0;
#X connect 136 0 162 1;
#X connect 136 0 169 0;
#X connect 137 0 139 0;
#X connect 138 0 136 0;
#X connect 139 0 138 0;
#X connect 140 0 107 0;
#X connect 141 0 29 0;
#X connect 142 0 144 1;
#X connect 143 0 144 1;
#X connect 144 0 161 0;
#X connect 147 0 153 0;
#X connect 148 0 149 0;
#X connect 149 0 154 0;
#X connect 150 0 147 1;
#X connect 151 0 101 1;
#X connect 152 0 146 0;
#X connect 153 0 146 0;
#X connect 154 0 150 0;
#X connect 154 0 153 4;
#X connect 156 0 37 0;
#X connect 157 0 158 0;
#X connect 158 0 6 0;
#X connect 159 0 163 0;
#X connect 159 0 164 0;
#X connect 160 0 169 0;
#X connect 161 0 141 0;
#X connect 162 0 160 0;
#X connect 163 0 162 0;
#X connect 164 0 165 0;
#X connect 165 0 167 0;
#X connect 165 1 166 0;
#X connect 166 0 168 0;
#X connect 167 0 168 0;
#X connect 168 0 65 0;
#X connect 169 0 170 0;
#X connect 169 1 135 0;
#X connect 170 0 135 0;
