#N canvas 714 199 1271 773 10;
#X obj 653 140 s line\$1;
#X obj 636 94 route \$1;
#X obj 636 64 r addline;
#X obj 636 162 unpack f f f f;
#X obj 209 262 gemhead;
#X obj 209 391 translateXYZ;
#X obj 843 151 tgl 15 0 empty empty empty 17 7 0 10 -262144 -1 -1 1
1;
#X obj 843 108 r allclose;
#X msg 776 103 1;
#X obj 925 320 tgl 15 0 empty empty empty 17 7 0 10 -262144 -1 -1 1
1;
#X obj 925 246 sel 0;
#X obj 925 269 del 45;
#X obj 209 514 colorRGB 1 1 1 0.5;
#X obj 209 440 separator;
#X obj 209 414 t a a a;
#X obj 379 582 separator;
#N canvas 886 432 432 293 angle 0;
#X obj 45 75 expr $f1-$f2;
#X obj 264 75 expr $f1-$f2;
#X obj 45 -3 inlet;
#X obj 45 43 unpack f f f f;
#X obj 45 102 expr atan2($f1 \, $f2)*-1*180/3.1415926;
#X msg 45 19 \$3 \$4 \$1 \$2;
#X obj 45 126 + 180;
#X msg 45 148 \$1 0;
#X obj 45 170 line;
#X msg 197 28 \$1 500;
#X obj 197 2 inlet;
#X floatatom 64 200 5 0 0 0 - - -, f 5;
#X obj 44 233 outlet;
#X connect 0 0 4 0;
#X connect 1 0 4 1;
#X connect 2 0 5 0;
#X connect 3 0 0 0;
#X connect 3 1 1 0;
#X connect 3 2 0 1;
#X connect 3 3 1 1;
#X connect 4 0 6 0;
#X connect 5 0 3 0;
#X connect 6 0 7 0;
#X connect 7 0 8 0;
#X connect 8 0 11 0;
#X connect 8 0 12 0;
#X connect 9 0 8 0;
#X connect 10 0 9 0;
#X restore 584 373 pd angle;
#X obj 379 606 rotateXYZ 0 0 0;
#X obj 600 473 r \$0-r;
#X obj 713 349 r \$0-x;
#X obj 809 351 r \$0-y;
#X obj 289 216 expr $f1-$f2;
#X obj 510 197 expr $f1-$f2;
#X obj 510 151 v mouseY;
#X obj 289 123 unpack f f;
#X obj 289 47 r boid_pos;
#X obj 289 97 route \$1;
#X obj 371 185 s \$0-x;
#X obj 289 148 t b f f;
#X obj 510 126 t b f f;
#X obj 578 152 s \$0-y;
#X obj 289 269 s \$0-r;
#X obj 289 243 expr atan2($f1 \, $f2)*-1*180/3.1415926;
#X obj 586 527 line;
#X msg 585 447 \$1 0;
#X msg 600 495 \$1 500;
#N canvas 822 290 410 413 translat_new 0;
#X obj 245 -10 inlet;
#X obj 298 -11 inlet;
#X obj 168 244 pack f f f f;
#X obj 245 20 t f f;
#X obj 298 21 t f f;
#X obj 72 135 +;
#X obj 140 142 +;
#X obj 56 -38 inlet r;
#X obj 173 -13 inlet dis;
#X obj 141 92 cos;
#X obj 72 86 sin;
#X obj 72 111 *;
#X obj 140 114 *;
#X obj 56 40 expr ($f1/360)*2*3.1415926;
#X obj 56 -5 expr 360-$f1;
#X obj 168 268 s line\$1;
#X connect 0 0 3 0;
#X connect 1 0 4 0;
#X connect 2 0 15 0;
#X connect 3 0 5 1;
#X connect 3 1 2 2;
#X connect 4 0 6 1;
#X connect 4 1 2 3;
#X connect 5 0 2 0;
#X connect 6 0 2 1;
#X connect 7 0 14 0;
#X connect 8 0 11 1;
#X connect 8 0 12 1;
#X connect 9 0 12 0;
#X connect 10 0 11 0;
#X connect 11 0 5 0;
#X connect 12 0 6 0;
#X connect 13 0 10 0;
#X connect 13 0 9 0;
#X connect 14 0 13 0;
#X restore 586 609 pd translat_new;
#X obj 488 533 sel 0 1;
#X msg 275 414 1 1 1;
#X obj 239 462 unpack f f f;
#X obj 123 667 loadbang;
#X obj 911 468 distance2d;
#X obj 911 438 pack f f;
#X obj 981 439 pack f f;
#X msg 925 297 0;
#X obj 776 126 t f f;
#X obj 289 73 spigot;
#X obj 443 -66 sel 1;
#X obj 487 -65 r hid;
#X obj 443 1 spigot;
#X obj 443 28 spigot;
#X obj 462 292 tgl 15 0 empty empty empty 17 7 0 10 -262144 -1 -1 0
1;
#X msg 443 -32 1;
#X obj 462 346 tgl 15 0 empty empty empty 17 7 0 10 -262144 -1 -1 0
1;
#X obj 209 640 circle 0.06;
#X obj 925 341 metro 100;
#X obj 209 289 t a b;
#X obj 585 419 f;
#X obj 241 310 spigot;
#X obj 614 419 + 0.5;
#X obj 657 419 fmod 360;
#X obj 441 154 t b;
#X obj 441 184 tgl 15 0 empty empty empty 17 7 0 10 -262144 -1 -1 1
1;
#X obj 572 248 sel 1;
#X msg 572 275 0;
#X obj 480 150 t b;
#X obj 209 615 alpha 1;
#X obj 379 714 alpha 1;
#X msg 488 565 2;
#X obj 379 636 GEMglPointSize 2;
#X obj 209 738 circle 1;
#X obj 209 667 spigot;
#X msg 304 567 \$1 1000;
#X obj 304 593 line;
#X obj 304 640 > 0;
#X obj 702 -51 tgl 15 0 empty empty empty 17 7 0 10 -262144 -1 -1 0
1;
#X msg 123 690 draw line \, width 1;
#X obj 209 713 colorRGB 1 1 0 0;
#X obj 304 617 * 0.2;
#X obj 289 172 v tagX;
#X msg 539 67 0;
#X obj 379 678 colorRGB 1 1 1 0.6;
#X msg 293 438 0.13 0.98 0.6;
#X msg 504 610 6;
#X obj 487 -19 tgl 15 0 empty empty empty 17 7 0 10 -262144 -1 -1 0
1;
#X obj 443 -91 r mouse_right;
#X obj 713 372 spigot;
#X obj 809 373 spigot;
#X obj 462 317 expr if($f1+$f2==2 \, 1 \, 0);
#X obj 462 271 tgl 15 0 empty empty empty 17 7 0 10 -262144 -1 -1 0
1;
#X obj 636 116 t a a b a b;
#X obj 843 530 s \$0-posy;
#X obj 654 555 r \$0-posx;
#X obj 688 532 r \$0-posy;
#X obj 236 363 r \$0-posx;
#X obj 263 332 r \$0-posy;
#X obj 910 542 s \$0-line_lengh;
#X obj 843 183 t f f f f f f f f;
#X obj 264 665 r \$0-line_lengh;
#X obj 620 580 r \$0-line_lengh;
#X msg 911 496 \$1 0;
#X obj 910 519 line;
#X obj 959 216 v \$0-linehead;
#X obj 811 502 v \$0-vposy;
#X obj 560 634 s \$0-lineangle;
#X obj 441 222 s \$0-linero;
#N canvas 0 22 700 663 send2net 0;
#X obj 247 205 t b b b;
#N canvas 439 149 823 635 target1 0;
#X obj 436 333 translateXYZ 0 0 0;
#X obj 591 232 == 2;
#X obj 540 274 pack f f;
#X msg 540 297 \$2 \$1;
#X obj 436 275 *;
#X obj 463 431 circle 0.07;
#X obj 540 147 spigot;
#X obj 540 111 r mainline1;
#X obj 194 83 expr sqrt(pow(($f1-$f3) \, 2)+pow(($f2-$f4) \, 2));
#X obj 277 172 distance2d;
#X msg 359 150 \$1 \$2;
#X obj 277 219 /;
#X obj 359 126 r line\$1;
#X obj 194 55 r line\$1;
#X obj 197 158 int;
#X obj 277 275 *;
#X obj 92 337 pack f f;
#X obj 47 386 list 0 0;
#X msg 47 480 send /red/0 \$1 \$2;
#X msg 92 360 \$2 \$1;
#X obj 158 368 init \$1;
#X obj 47 510 outlet;
#X obj 481 19 inlet;
#X obj 47 323 inlet;
#X floatatom 436 245 5 0 0 0 - - -, f 5;
#X obj 436 212 t b f;
#X obj 345 292 line;
#X obj 322 214 t b f;
#X floatatom 277 249 5 0 0 0 - - -, f 5;
#X obj 481 51 t f f;
#X obj 436 307 gemhead 2000;
#X obj 436 567 circle 0.07;
#X obj 436 360 t a a;
#X msg 445 533 draw line;
#X obj 445 510 loadbang;
#X obj 436 485 color 1 1 1;
#X obj 436 458 separator;
#X obj 463 383 separator;
#X obj 376 186 loadbang;
#X msg 376 210 0;
#X obj 540 183 intersect;
#X floatatom 345 315 5 0 0 0 - - -, f 5;
#X obj 97 270 inlet;
#X obj 116 126 moses 8;
#X msg 155 148 8;
#X floatatom 116 168 5 0 0 0 - - -, f 5;
#X floatatom 196 186 5 0 0 0 - - -, f 5;
#X obj 47 419 nchange l;
#X floatatom 140 239 5 0 0 0 - - -, f 5;
#X obj 140 217 expr int($f1*100)/100;
#X msg 345 268 \$1 100;
#X obj 284 475 t f b;
#X obj 270 532 tabwrite rr;
#X obj 311 500 f \$1;
#X msg 575 508 0 1 0.3;
#X msg 609 564 1 0.6 0.2;
#X msg 593 537 0.4 0.1 1;
#X obj 186 430 tgl 15 0 empty empty empty 17 7 0 10 -262144 -1 -1 0
1;
#X obj 186 450 metro 100;
#X obj 186 472 s \$0-resres;
#X obj 463 407 color 0.85 0.61 0.27;
#X obj 20 195 f;
#X obj 20 -23 * 127;
#X obj 19 28 int;
#X obj 19 50 change;
#X floatatom 55 217 5 0 0 0 - - -, f 5;
#X obj 20 173 t b f b;
#X msg 78 243 1;
#X obj 17 283 noteout;
#X obj 20 81 sel 0;
#X msg 20 103 0;
#X msg 53 102 100;
#X obj 21 131 change;
#X msg 158 389 set send /red/\$1 \, adddollar 1 \, adddollar 2 \,;
#X obj 237 363 bng 15 250 50 0 empty empty empty 17 7 0 10 -262144
-1 -1;
#X obj 141 261 * 127;
#X obj 141 283 int;
#X obj 197 131 expr 84-(($f1/8)*24);
#X connect 0 0 32 0;
#X connect 1 0 25 0;
#X connect 2 0 3 0;
#X connect 3 0 9 0;
#X connect 4 0 50 0;
#X connect 4 0 30 0;
#X connect 4 0 51 0;
#X connect 4 0 57 0;
#X connect 6 0 40 0;
#X connect 7 0 6 0;
#X connect 8 0 11 1;
#X connect 8 0 43 0;
#X connect 9 0 11 0;
#X connect 10 0 9 1;
#X connect 11 0 28 0;
#X connect 12 0 10 0;
#X connect 13 0 8 0;
#X connect 13 0 40 1;
#X connect 14 0 46 0;
#X connect 15 0 49 0;
#X connect 16 0 19 0;
#X connect 17 0 47 0;
#X connect 18 0 21 0;
#X connect 19 0 17 1;
#X connect 20 0 73 0;
#X connect 22 0 29 0;
#X connect 23 0 17 0;
#X connect 24 0 4 0;
#X connect 25 0 24 0;
#X connect 25 1 4 1;
#X connect 26 0 41 0;
#X connect 27 0 28 0;
#X connect 27 1 15 1;
#X connect 28 0 15 0;
#X connect 29 0 24 0;
#X connect 29 1 6 1;
#X connect 30 0 0 0;
#X connect 32 0 36 0;
#X connect 32 1 37 0;
#X connect 33 0 31 0;
#X connect 34 0 33 0;
#X connect 35 0 31 0;
#X connect 36 0 35 0;
#X connect 37 0 60 0;
#X connect 38 0 39 0;
#X connect 39 0 30 0;
#X connect 40 0 2 0;
#X connect 40 0 0 2;
#X connect 40 1 2 1;
#X connect 40 1 0 1;
#X connect 40 2 1 0;
#X connect 41 0 27 0;
#X connect 42 0 18 0;
#X connect 43 0 45 0;
#X connect 43 1 44 0;
#X connect 44 0 45 0;
#X connect 45 0 77 0;
#X connect 46 0 61 1;
#X connect 46 0 16 1;
#X connect 47 0 18 0;
#X connect 48 0 75 0;
#X connect 49 0 48 0;
#X connect 49 0 62 0;
#X connect 50 0 26 0;
#X connect 51 0 52 0;
#X connect 51 1 53 0;
#X connect 53 0 52 1;
#X connect 57 0 58 0;
#X connect 58 0 59 0;
#X connect 60 0 5 0;
#X connect 61 0 68 0;
#X connect 62 0 63 0;
#X connect 63 0 64 0;
#X connect 64 0 69 0;
#X connect 65 0 68 1;
#X connect 66 0 61 0;
#X connect 66 1 65 0;
#X connect 66 2 67 0;
#X connect 67 0 68 2;
#X connect 69 0 70 0;
#X connect 69 1 71 0;
#X connect 70 0 72 0;
#X connect 71 0 72 0;
#X connect 73 0 18 0;
#X connect 74 0 20 0;
#X connect 75 0 76 0;
#X connect 76 0 16 0;
#X connect 77 0 14 0;
#X restore 247 277 pd target1;
#X obj 254 384 s net;
#X obj 254 356 packOSC;
#X obj 366 207 t b b b;
#X obj 306 240 expr $f1*display1;
#X obj 323 273 expr $f1*display2;
#X obj 344 301 expr $f1*display3;
#X obj 366 128 gemhead;
#X msg 187 128 send /pos/0 \$1 \$2;
#X obj 187 101 pack f f;
#X obj 22 -4 init \$1;
#X floatatom 470 141 5 0 0 0 - - -, f 5;
#X obj 470 166 > 0.1;
#X obj 366 175 spigot;
#X obj 470 189 tgl 15 0 empty empty empty 17 7 0 10 -262144 -1 -1 1
1;
#X obj 450 211 int;
#X floatatom 485 309 5 0 0 0 - - -, f 5;
#X obj 449 235 moses 0.5;
#X obj 490 256 moses 1;
#X obj 531 280 moses 2;
#X obj 569 301 moses 4;
#X msg 448 261 8;
#X msg 489 280 4;
#X msg 530 307 2;
#X msg 567 325 0.5;
#N canvas 502 212 874 757 target2 0;
#X obj 437 334 translateXYZ 0 0 0;
#X obj 591 232 == 2;
#X obj 540 274 pack f f;
#X msg 540 297 \$2 \$1;
#X obj 436 275 *;
#X obj 540 147 spigot;
#X obj 194 83 expr sqrt(pow(($f1-$f3) \, 2)+pow(($f2-$f4) \, 2));
#X obj 268 219 distance2d;
#X obj 268 248 /;
#X obj 325 172 r line\$1;
#X obj 194 55 r line\$1;
#X obj 194 155 int;
#X obj 268 322 *;
#X obj 81 348 pack f f;
#X obj 36 397 list 0 0;
#X msg 38 476 send /green/0 \$1 \$2;
#X msg 81 371 \$2 \$1;
#X obj 147 379 init \$1;
#X obj 38 506 outlet;
#X obj 480 46 inlet;
#X obj 36 334 inlet;
#X floatatom 436 245 5 0 0 0 - - -, f 5;
#X obj 436 212 t b f;
#X obj 309 272 line;
#X obj 308 294 t b f;
#X floatatom 268 296 5 0 0 0 - - -, f 5;
#X obj 480 78 t f f;
#X obj 540 111 r mainline2;
#X obj 436 307 gemhead 2000;
#X obj 530 467 circle 0.07;
#X obj 421 621 circle 0.07;
#X obj 443 370 t a a;
#X msg 441 587 draw line;
#X obj 444 558 loadbang;
#X obj 412 535 color 1 1 1;
#X obj 412 515 separator;
#X obj 530 418 separator;
#X obj 381 270 loadbang;
#X msg 381 294 0;
#X obj 540 183 intersect;
#X obj 99 268 inlet;
#X obj 126 136 moses 8;
#X msg 165 158 8;
#X floatatom 126 178 5 0 0 0 - - -, f 5;
#X msg 325 196 \$1 \$2;
#X floatatom 194 190 5 0 0 0 - - -, f 5;
#X obj 37 426 nchange l;
#X floatatom 229 370 5 0 0 0 - - -, f 5;
#X obj 229 348 expr int($f1*100)/100;
#X msg 309 248 \$1 100;
#X obj 323 144 expr ($f1/8)*24+48;
#X obj 294 485 t f b;
#X obj 321 510 f \$1;
#X obj 280 542 tabwrite gg;
#X msg 660 376 0 1 0.3;
#X msg 694 432 1 0.6 0.2;
#X msg 678 405 0.4 0.1 1;
#X obj 186 430 tgl 15 0 empty empty empty 17 7 0 10 -262144 -1 -1 0
1;
#X obj 186 450 metro 100;
#X obj 186 472 s \$0-resres;
#X obj 530 443 color 0.52 0.31 0.76;
#X obj 18 6 * 127;
#X obj 20 195 f;
#X floatatom 40 242 5 0 0 0 - - -, f 5;
#X obj 18 28 int;
#X obj 18 50 change;
#X obj 20 173 t b f b;
#X obj 17 283 noteout;
#X msg 78 243 2;
#X obj 22 85 sel 0;
#X msg 22 107 0;
#X msg 55 106 100;
#X obj 23 135 change;
#X msg 147 400 set send /green/\$1 \, adddollar 1 \, adddollar 2 \,
;
#X obj 144 294 * 127;
#X obj 144 316 int;
#X obj 194 129 expr 84-(($f1/8)*24);
#X connect 0 0 31 0;
#X connect 1 0 22 0;
#X connect 2 0 3 0;
#X connect 3 0 7 0;
#X connect 4 0 49 0;
#X connect 4 0 28 0;
#X connect 4 0 51 0;
#X connect 4 0 57 0;
#X connect 5 0 39 0;
#X connect 6 0 8 1;
#X connect 6 0 41 0;
#X connect 7 0 8 0;
#X connect 8 0 25 0;
#X connect 9 0 44 0;
#X connect 10 0 6 0;
#X connect 10 0 39 1;
#X connect 11 0 45 0;
#X connect 12 0 48 0;
#X connect 13 0 16 0;
#X connect 14 0 46 0;
#X connect 15 0 18 0;
#X connect 16 0 14 1;
#X connect 17 0 73 0;
#X connect 19 0 26 0;
#X connect 20 0 14 0;
#X connect 21 0 4 0;
#X connect 22 0 21 0;
#X connect 22 1 4 1;
#X connect 23 0 24 0;
#X connect 24 0 25 0;
#X connect 24 1 12 1;
#X connect 25 0 12 0;
#X connect 26 0 21 0;
#X connect 26 1 5 1;
#X connect 27 0 5 0;
#X connect 28 0 0 0;
#X connect 31 0 35 0;
#X connect 31 1 36 0;
#X connect 32 0 30 0;
#X connect 33 0 32 0;
#X connect 34 0 30 0;
#X connect 35 0 34 0;
#X connect 36 0 60 0;
#X connect 37 0 38 0;
#X connect 38 0 28 0;
#X connect 39 0 2 0;
#X connect 39 0 0 2;
#X connect 39 1 2 1;
#X connect 39 1 0 1;
#X connect 39 2 1 0;
#X connect 40 0 15 0;
#X connect 41 0 43 0;
#X connect 41 1 42 0;
#X connect 42 0 43 0;
#X connect 43 0 76 0;
#X connect 44 0 7 1;
#X connect 45 0 62 1;
#X connect 45 0 13 1;
#X connect 46 0 15 0;
#X connect 47 0 75 1;
#X connect 47 0 74 0;
#X connect 48 0 47 0;
#X connect 49 0 23 0;
#X connect 51 0 53 0;
#X connect 51 1 52 0;
#X connect 52 0 53 1;
#X connect 57 0 58 0;
#X connect 58 0 59 0;
#X connect 60 0 29 0;
#X connect 61 0 64 0;
#X connect 62 0 67 0;
#X connect 63 0 67 1;
#X connect 64 0 65 0;
#X connect 65 0 69 0;
#X connect 66 0 62 0;
#X connect 66 1 63 0;
#X connect 66 2 68 0;
#X connect 68 0 67 2;
#X connect 69 0 70 0;
#X connect 69 1 71 0;
#X connect 70 0 72 0;
#X connect 71 0 72 0;
#X connect 73 0 15 0;
#X connect 74 0 75 0;
#X connect 75 0 13 0;
#X connect 76 0 11 0;
#X restore 266 302 pd target2;
#N canvas 455 109 805 524 target3 0;
#X obj 437 345 translateXYZ 0 0 0;
#X obj 591 232 == 2;
#X obj 540 274 pack f f;
#X msg 540 297 \$2 \$1;
#X obj 436 275 *;
#X obj 540 147 spigot;
#X obj 125 67 expr sqrt(pow(($f1-$f3) \, 2)+pow(($f2-$f4) \, 2));
#X obj 268 219 distance2d;
#X msg 335 194 \$1 \$2;
#X obj 268 266 /;
#X obj 335 170 r line\$1;
#X obj 125 39 r line\$1;
#X obj 194 155 int;
#X obj 268 322 *;
#X obj 94 336 pack f f;
#X obj 49 385 list 0 0;
#X msg 68 470 send /blue/0 \$1 \$2;
#X msg 94 359 \$2 \$1;
#X obj 138 409 init \$1;
#X obj 68 500 outlet;
#X obj 480 46 inlet;
#X obj 49 322 inlet;
#X floatatom 436 245 5 0 0 0 - - -, f 5;
#X obj 436 212 t b f;
#X obj 309 269 line;
#X obj 308 294 t b f;
#X floatatom 268 296 5 0 0 0 - - -, f 5;
#X obj 480 78 t f f;
#X obj 540 111 r mainline3;
#X obj 436 307 gemhead 2000;
#X obj 636 380 circle 0.07;
#X obj 538 494 circle 0.07;
#X obj 436 368 t a a;
#X msg 558 460 draw line;
#X obj 561 431 loadbang;
#X obj 529 408 color 1 1 1;
#X obj 529 388 separator;
#X obj 635 329 separator;
#X obj 377 270 loadbang;
#X msg 377 294 0;
#X obj 540 183 intersect;
#X obj 112 251 inlet;
#X obj 116 107 moses 8;
#X msg 155 129 8;
#X floatatom 116 149 5 0 0 0 - - -, f 5;
#X floatatom 257 158 5 0 0 0 - - -, f 5;
#X obj 67 439 nchange l;
#X obj 325 143 expr 108-(($f1/8)*48);
#X msg 309 245 \$1 100;
#X floatatom 221 376 5 0 0 0 - - -, f 5;
#X obj 221 354 expr int($f1*100)/100;
#X obj 311 459 t f b;
#X obj 338 484 f \$1;
#X obj 297 516 tabwrite bb;
#X obj 195 504 tgl 15 0 empty empty empty 17 7 0 10 -262144 -1 -1 0
1;
#X obj 195 524 metro 100;
#X obj 195 546 s \$0-resres;
#X obj 635 356 color 0.13 0.71 0.85;
#X obj 11 -8 * 127;
#X obj 20 195 f;
#X floatatom 39 241 5 0 0 0 - - -, f 5;
#X obj 15 45 int;
#X obj 15 67 change;
#X obj 20 173 t b f b;
#X msg 62 216 3;
#X obj 17 283 noteout;
#X obj 15 90 sel 0;
#X msg 15 112 0;
#X msg 48 111 100;
#X obj 16 140 change;
#X msg 138 430 set send /blue/\$1 \, adddollar 1 \, adddollar 2 \,
;
#X obj 120 278 * 127;
#X obj 120 300 int;
#X obj 194 126 expr 60-(($f1/8)*12);
#X connect 0 0 32 0;
#X connect 1 0 23 0;
#X connect 2 0 3 0;
#X connect 3 0 7 0;
#X connect 4 0 48 0;
#X connect 4 0 29 0;
#X connect 4 0 51 0;
#X connect 4 0 54 0;
#X connect 5 0 40 0;
#X connect 6 0 9 1;
#X connect 6 0 42 0;
#X connect 7 0 9 0;
#X connect 8 0 7 1;
#X connect 9 0 26 0;
#X connect 10 0 8 0;
#X connect 11 0 6 0;
#X connect 11 0 40 1;
#X connect 12 0 59 1;
#X connect 12 0 14 1;
#X connect 13 0 50 0;
#X connect 14 0 17 0;
#X connect 15 0 46 0;
#X connect 16 0 19 0;
#X connect 17 0 15 1;
#X connect 18 0 70 0;
#X connect 20 0 27 0;
#X connect 21 0 15 0;
#X connect 22 0 4 0;
#X connect 23 0 22 0;
#X connect 23 1 4 1;
#X connect 24 0 25 0;
#X connect 25 0 26 0;
#X connect 25 1 13 1;
#X connect 26 0 13 0;
#X connect 27 0 22 0;
#X connect 27 1 5 1;
#X connect 28 0 5 0;
#X connect 29 0 0 0;
#X connect 32 0 36 0;
#X connect 32 1 37 0;
#X connect 33 0 31 0;
#X connect 34 0 33 0;
#X connect 35 0 31 0;
#X connect 36 0 35 0;
#X connect 37 0 57 0;
#X connect 38 0 39 0;
#X connect 39 0 29 0;
#X connect 40 0 2 0;
#X connect 40 0 0 2;
#X connect 40 1 2 1;
#X connect 40 1 0 1;
#X connect 40 2 1 0;
#X connect 41 0 16 0;
#X connect 42 0 44 0;
#X connect 42 1 43 0;
#X connect 43 0 44 0;
#X connect 44 0 73 0;
#X connect 46 0 16 0;
#X connect 48 0 24 0;
#X connect 49 0 71 0;
#X connect 50 0 49 0;
#X connect 51 0 53 0;
#X connect 51 1 52 0;
#X connect 52 0 53 1;
#X connect 54 0 55 0;
#X connect 55 0 56 0;
#X connect 57 0 30 0;
#X connect 58 0 61 0;
#X connect 59 0 65 0;
#X connect 60 0 65 1;
#X connect 61 0 62 0;
#X connect 62 0 66 0;
#X connect 63 0 59 0;
#X connect 63 1 60 0;
#X connect 63 2 64 0;
#X connect 64 0 65 2;
#X connect 66 0 67 0;
#X connect 66 1 68 0;
#X connect 67 0 69 0;
#X connect 68 0 69 0;
#X connect 70 0 16 0;
#X connect 71 0 72 0;
#X connect 72 0 14 0;
#X connect 73 0 12 0;
#X connect 73 0 45 0;
#X restore 287 329 pd target3;
#X msg 22 23 set send /pos/\$1 \, adddollar 1 \, adddollar 2 \,;
#X obj 187 47 r \$0-posx;
#X obj 240 75 r \$0-posy;
#X obj 470 117 r \$0-line_lengh;
#X obj 246 176 inlet;
#X obj 295 3 t f f f f f;
#X obj 295 -20 inlet;
#X obj 153 158 sel 0;
#X msg 153 204 0 0;
#X obj 153 181 del 55;
#X obj 485 346 s \$0-rospeed;
#X connect 0 0 1 0;
#X connect 0 1 26 0;
#X connect 0 2 27 0;
#X connect 1 0 3 0;
#X connect 3 0 2 0;
#X connect 4 0 5 0;
#X connect 4 1 6 0;
#X connect 4 2 7 0;
#X connect 5 0 1 2;
#X connect 6 0 26 2;
#X connect 7 0 27 2;
#X connect 8 0 14 0;
#X connect 9 0 3 0;
#X connect 10 0 9 0;
#X connect 11 0 28 0;
#X connect 12 0 13 0;
#X connect 12 0 16 0;
#X connect 13 0 15 0;
#X connect 14 0 4 0;
#X connect 15 0 14 1;
#X connect 16 0 18 0;
#X connect 17 0 38 0;
#X connect 18 0 22 0;
#X connect 18 1 19 0;
#X connect 19 0 23 0;
#X connect 19 1 20 0;
#X connect 20 0 24 0;
#X connect 20 1 21 0;
#X connect 21 0 25 0;
#X connect 21 1 25 0;
#X connect 22 0 17 0;
#X connect 23 0 17 0;
#X connect 24 0 17 0;
#X connect 25 0 17 0;
#X connect 26 0 3 0;
#X connect 27 0 3 0;
#X connect 28 0 9 0;
#X connect 29 0 10 0;
#X connect 30 0 10 1;
#X connect 31 0 12 0;
#X connect 32 0 0 0;
#X connect 33 0 35 0;
#X connect 33 1 5 0;
#X connect 33 2 6 0;
#X connect 33 3 7 0;
#X connect 33 4 8 0;
#X connect 34 0 33 0;
#X connect 35 0 37 0;
#X connect 36 0 1 1;
#X connect 36 0 26 1;
#X connect 36 0 27 1;
#X connect 37 0 36 0;
#X restore 925 368 pd send2net;
#X obj 605 396 r \$0-rospeed;
#N canvas 0 22 559 498 delect-circle 0;
#X obj 141 201 outlet;
#X obj 258 204 outlet;
#X obj 187 64 distance2d;
#X obj 187 17 r mouse_pos;
#X obj 244 38 pack f f;
#X floatatom 187 86 5 0 0 0 - - -, f 5;
#X obj 154 -85 sel 1;
#X msg 154 -61 0;
#X obj 154 131 spigot;
#X obj 154 -110 r mouse_right;
#X obj 187 -67 r hid;
#X obj 154 -18 spigot;
#X obj 187 -43 route key_29;
#X obj 189 104 < 0.1;
#X obj 281 13 r \$0-posx;
#X obj 336 -9 r \$0-posy;
#X connect 2 0 5 0;
#X connect 3 0 2 0;
#X connect 4 0 2 1;
#X connect 5 0 13 0;
#X connect 6 0 7 0;
#X connect 7 0 11 0;
#X connect 8 0 1 0;
#X connect 9 0 6 0;
#X connect 10 0 12 0;
#X connect 11 0 8 0;
#X connect 12 0 11 1;
#X connect 13 0 8 1;
#X connect 13 0 0 0;
#X connect 14 0 4 0;
#X connect 15 0 4 1;
#X restore 702 -78 pd delect-circle;
#N canvas 0 22 817 567 curve 0;
#X obj 485 406 curve 2;
#X obj 376 343 loadbang;
#X obj 485 342 t a b;
#X msg 504 376 0 0 0;
#X obj 557 432 pack 0 0 0;
#X msg 557 452 \$2 \$1 \$3;
#X msg 376 375 draw point;
#X msg 268 436 res \$1;
#X obj 268 358 int;
#X floatatom 268 285 5 0 0 0 - - -, f 5;
#X floatatom 268 335 5 0 0 0 - - -, f 5;
#X obj 268 310 k_range 0.1 10 10 150;
#X obj 128 250 r \$0-resres;
#X floatatom 160 356 5 0 0 0 - - -, f 5;
#X obj 160 334 expr $f2-$f1;
#X obj 160 307 random 30;
#X obj 96 354 random 5;
#X obj 96 376 sel 0;
#X msg 134 424 0;
#X msg 102 402 1;
#X obj 108 430 tgl 15 0 empty empty empty 17 7 0 10 -262144 -1 -1 0
1;
#X obj 268 390 moses 6;
#X msg 268 412 6;
#X obj 128 274 t b b;
#X obj 556 412 r \$0-line_lengh;
#X obj 117 204 r \$0-line_lengh;
#X obj 503 301 inlet;
#X obj 107 458 outlet;
#X connect 1 0 6 0;
#X connect 2 0 0 0;
#X connect 2 1 3 0;
#X connect 3 0 0 1;
#X connect 4 0 5 0;
#X connect 5 0 0 2;
#X connect 6 0 0 0;
#X connect 7 0 0 0;
#X connect 8 0 14 1;
#X connect 8 0 21 0;
#X connect 9 0 11 0;
#X connect 10 0 8 0;
#X connect 11 0 10 0;
#X connect 12 0 23 0;
#X connect 13 0 21 0;
#X connect 14 0 13 0;
#X connect 15 0 14 0;
#X connect 16 0 17 0;
#X connect 17 0 19 0;
#X connect 17 1 18 0;
#X connect 18 0 20 0;
#X connect 19 0 20 0;
#X connect 20 0 27 0;
#X connect 21 0 22 0;
#X connect 21 1 7 0;
#X connect 22 0 7 0;
#X connect 23 0 16 0;
#X connect 23 1 15 0;
#X connect 24 0 4 0;
#X connect 25 0 9 0;
#X connect 26 0 2 0;
#X restore 379 743 pd curve;
#X obj 304 542 r \$0-linero;
#X obj 280 288 r \$0-linero;
#X obj 488 505 r \$0-linero;
#N canvas 211 158 1387 666 save--------- 0;
#X obj 197 166 r save;
#X obj 158 422 t f b;
#X obj 56 504 t f b;
#X obj 108 526 v \$0-index;
#X obj 197 190 bng 15 250 50 0 empty empty empty 17 7 0 10 -262144
-1 -1;
#X floatatom 108 548 5 0 0 0 - - -, f 5;
#X floatatom 56 526 5 0 0 0 - - -, f 5;
#X floatatom 158 451 5 0 0 0 - - -, f 5;
#X obj 56 476 v x_\$0;
#X obj 158 383 v y_\$0;
#X obj 208 595 t f b;
#X obj 281 611 v \$0-index;
#X floatatom 281 633 5 0 0 0 - - -, f 5;
#X floatatom 208 617 5 0 0 0 - - -, f 5;
#X obj 208 567 v show_\$0;
#X obj 232 428 v \$0-index;
#X floatatom 232 450 5 0 0 0 - - -, f 5;
#X obj 7 567 tabwrite line_x;
#X obj 158 475 tabwrite line_y;
#X obj 388 456 t f b;
#X obj 440 478 v \$0-index;
#X floatatom 440 500 5 0 0 0 - - -, f 5;
#X floatatom 359 490 5 0 0 0 - - -, f 5;
#X obj 339 519 tabwrite line_l;
#X obj 285 300 t f b;
#X obj 337 322 v \$0-index;
#X floatatom 337 344 5 0 0 0 - - -, f 5;
#X floatatom 285 322 5 0 0 0 - - -, f 5;
#X obj 285 366 tabwrite line_r;
#X obj 520 96 r \$0-posx;
#X obj 524 144 r \$0-posy;
#X obj 375 35 r index_multi;
#X obj 375 57 t b f;
#X obj 375 81 f \$1;
#X obj 376 159 v \$0-index;
#X floatatom 375 134 5 0 0 0 - - -, f 5;
#X obj 520 123 v x_\$0;
#X obj 524 173 v y_\$0;
#X obj 388 428 v l_\$0;
#X obj 285 272 v r_\$0;
#X obj 524 204 r \$0-line_lengh;
#X obj 524 233 v l_\$0;
#X obj 529 260 r \$0-lineangle;
#X obj 530 288 v r_\$0;
#X obj 159 658 tabwrite line_show;
#X obj 784 351 r load;
#X obj 784 387 v \$0-index;
#X floatatom 784 409 5 0 0 0 - - -, f 5;
#X obj 762 475 tabread line_x;
#X obj 787 502 tabread line_y;
#X obj 857 549 tabread line_show;
#X obj 984 527 tabread line_l;
#X obj 923 487 tabread line_r;
#X obj 732 578 outlet;
#X obj 787 556 outlet;
#X obj 857 584 outlet;
#X obj 923 519 outlet;
#X obj 375 112 expr ($f1)+$f2*30;
#X obj 984 576 outlet;
#X obj 225 520 v \$0-linehead;
#X obj 195 489 t b b;
#X obj 44 392 t b b;
#X obj 163 319 t b b;
#X obj 74 423 v \$0-vposx;
#X obj 193 350 v \$0-vposy;
#X obj 526 73 v ro_\$0;
#X obj 526 51 r \$0-linero;
#X obj 1078 643 outlet;
#X obj 1067 546 tabread line_ro;
#X obj 453 342 t f b;
#X obj 505 364 v \$0-index;
#X floatatom 505 386 5 0 0 0 - - -, f 5;
#X floatatom 453 364 5 0 0 0 - - -, f 5;
#X obj 453 314 v ro_\$0;
#X obj 453 408 tabwrite line_ro, f 14;
#X msg 732 549 \$1 1000;
#X msg 787 530 \$1 1000;
#X msg 984 553 \$1 1000;
#X obj 197 217 t b b b b b b b;
#X obj 599 361 t f b;
#X obj 651 383 v \$0-index;
#X floatatom 651 405 5 0 0 0 - - -, f 5;
#X floatatom 599 383 5 0 0 0 - - -, f 5;
#X obj 649 259 r \$0-line_state;
#X obj 650 287 v state_\$0;
#X obj 599 333 v state_\$0;
#X obj 599 427 tabwrite line_state, f 21;
#X obj 1189 622 outlet;
#X obj 784 437 t f f f f f f f;
#X obj 1196 546 tabread line_state;
#X floatatom 1196 568 5 0 0 0 - - -, f 5;
#X obj 1193 595 pipe 10;
#X obj 1075 586 tgl 15 0 empty empty empty 17 7 0 10 -262144 -1 -1
1 1;
#X obj 1074 612 pipe 10;
#X connect 0 0 4 0;
#X connect 1 0 7 0;
#X connect 1 1 15 0;
#X connect 2 0 6 0;
#X connect 2 1 3 0;
#X connect 3 0 5 0;
#X connect 4 0 78 0;
#X connect 5 0 17 1;
#X connect 6 0 17 0;
#X connect 7 0 18 0;
#X connect 8 0 2 0;
#X connect 9 0 1 0;
#X connect 10 0 13 0;
#X connect 10 1 11 0;
#X connect 11 0 12 0;
#X connect 12 0 44 1;
#X connect 13 0 44 0;
#X connect 14 0 10 0;
#X connect 15 0 16 0;
#X connect 16 0 18 1;
#X connect 19 0 22 0;
#X connect 19 1 20 0;
#X connect 20 0 21 0;
#X connect 21 0 23 1;
#X connect 22 0 23 0;
#X connect 24 0 27 0;
#X connect 24 1 25 0;
#X connect 25 0 26 0;
#X connect 26 0 28 1;
#X connect 27 0 28 0;
#X connect 29 0 36 0;
#X connect 30 0 37 0;
#X connect 31 0 32 0;
#X connect 32 0 33 0;
#X connect 32 1 57 1;
#X connect 33 0 57 0;
#X connect 35 0 34 0;
#X connect 38 0 19 0;
#X connect 39 0 24 0;
#X connect 40 0 41 0;
#X connect 42 0 43 0;
#X connect 45 0 46 0;
#X connect 46 0 47 0;
#X connect 47 0 88 0;
#X connect 48 0 75 0;
#X connect 49 0 76 0;
#X connect 50 0 55 0;
#X connect 51 0 77 0;
#X connect 52 0 56 0;
#X connect 57 0 35 0;
#X connect 59 0 14 0;
#X connect 60 0 14 0;
#X connect 60 1 59 0;
#X connect 61 0 8 0;
#X connect 61 1 63 0;
#X connect 62 0 9 0;
#X connect 62 1 64 0;
#X connect 63 0 8 0;
#X connect 64 0 9 0;
#X connect 66 0 65 0;
#X connect 68 0 92 0;
#X connect 69 0 72 0;
#X connect 69 1 70 0;
#X connect 70 0 71 0;
#X connect 71 0 74 1;
#X connect 72 0 74 0;
#X connect 73 0 69 0;
#X connect 75 0 53 0;
#X connect 76 0 54 0;
#X connect 77 0 58 0;
#X connect 78 0 61 0;
#X connect 78 1 62 0;
#X connect 78 2 60 0;
#X connect 78 3 38 0;
#X connect 78 4 39 0;
#X connect 78 5 73 0;
#X connect 78 6 85 0;
#X connect 79 0 82 0;
#X connect 79 1 80 0;
#X connect 80 0 81 0;
#X connect 81 0 86 1;
#X connect 82 0 86 0;
#X connect 83 0 84 0;
#X connect 85 0 79 0;
#X connect 88 0 48 0;
#X connect 88 1 49 0;
#X connect 88 2 50 0;
#X connect 88 3 51 0;
#X connect 88 4 52 0;
#X connect 88 5 68 0;
#X connect 88 6 89 0;
#X connect 89 0 90 0;
#X connect 90 0 91 0;
#X connect 91 0 87 0;
#X connect 92 0 93 0;
#X connect 93 0 67 0;
#X restore 772 265 pd save---------;
#X obj 811 481 t f f;
#X obj 756 502 t f f;
#X obj 788 581 s \$0-posx;
#X obj 756 550 v \$0-vposx;
#X obj 977 246 sel 1;
#X msg 977 268 1;
#X obj 401 99 r auto-boids;
#X obj 808 422 k_smooth 5;
#X obj 716 447 k_smooth 5;
#X obj 378 9 spigot;
#X obj 378 37 spigot;
#X obj 337 -65 sel 1;
#X msg 337 -31 1;
#X obj 337 -90 r mouse_left;
#X obj 487 -41 route key_27;
#X obj 400 385 s \$0-line_state;
#X obj 882 293 tgl 15 0 empty empty empty 17 7 0 10 -262144 -1 -1 0
1;
#X connect 1 0 90 0;
#X connect 2 0 1 0;
#X connect 3 0 42 0;
#X connect 3 1 42 1;
#X connect 3 2 43 0;
#X connect 3 2 115 0;
#X connect 3 3 43 1;
#X connect 3 3 114 0;
#X connect 4 0 56 0;
#X connect 5 0 14 0;
#X connect 6 0 63 0;
#X connect 6 0 88 1;
#X connect 6 0 97 0;
#X connect 7 0 6 0;
#X connect 8 0 45 0;
#X connect 9 0 55 0;
#X connect 10 0 11 0;
#X connect 10 0 80 0;
#X connect 11 0 44 0;
#X connect 12 0 66 0;
#X connect 13 0 12 0;
#X connect 14 0 13 0;
#X connect 14 2 15 0;
#X connect 15 0 17 0;
#X connect 16 0 57 0;
#X connect 17 0 69 0;
#X connect 18 0 35 0;
#X connect 19 0 86 0;
#X connect 20 0 87 0;
#X connect 21 0 32 0;
#X connect 22 0 32 1;
#X connect 23 0 22 0;
#X connect 24 0 28 0;
#X connect 24 1 29 0;
#X connect 25 0 46 0;
#X connect 26 0 24 0;
#X connect 28 0 79 0;
#X connect 28 1 21 1;
#X connect 28 2 27 0;
#X connect 29 0 23 0;
#X connect 29 1 22 1;
#X connect 29 2 30 0;
#X connect 32 0 31 0;
#X connect 33 0 36 0;
#X connect 33 0 17 3;
#X connect 33 0 104 0;
#X connect 34 0 33 0;
#X connect 35 0 33 0;
#X connect 37 0 38 0;
#X connect 37 0 68 0;
#X connect 37 1 82 0;
#X connect 37 1 83 0;
#X connect 38 0 39 0;
#X connect 39 0 12 1;
#X connect 39 0 81 1;
#X connect 39 1 12 2;
#X connect 39 1 81 2;
#X connect 39 2 12 3;
#X connect 39 2 81 3;
#X connect 40 0 76 0;
#X connect 41 0 100 0;
#X connect 42 0 41 0;
#X connect 43 0 41 1;
#X connect 44 0 9 0;
#X connect 45 0 9 0;
#X connect 45 1 6 0;
#X connect 46 0 26 0;
#X connect 47 0 52 0;
#X connect 48 0 128 0;
#X connect 49 0 50 0;
#X connect 50 0 65 0;
#X connect 51 0 86 1;
#X connect 51 0 87 1;
#X connect 51 0 88 0;
#X connect 51 0 129 0;
#X connect 52 0 49 0;
#X connect 53 0 37 0;
#X connect 53 0 46 1;
#X connect 54 0 71 0;
#X connect 55 0 106 0;
#X connect 56 0 5 0;
#X connect 56 1 58 0;
#X connect 57 0 59 0;
#X connect 57 0 34 0;
#X connect 58 0 57 0;
#X connect 59 0 60 0;
#X connect 60 0 57 1;
#X connect 61 0 62 0;
#X connect 62 0 105 0;
#X connect 63 0 64 0;
#X connect 64 0 62 0;
#X connect 65 0 89 0;
#X connect 66 0 54 0;
#X connect 67 0 109 0;
#X connect 68 0 69 1;
#X connect 69 0 81 0;
#X connect 71 0 77 0;
#X connect 72 0 73 0;
#X connect 73 0 78 0;
#X connect 74 0 71 1;
#X connect 75 0 50 1;
#X connect 75 0 124 1;
#X connect 76 0 70 0;
#X connect 77 0 70 0;
#X connect 78 0 74 0;
#X connect 78 0 77 4;
#X connect 79 0 21 0;
#X connect 80 0 89 0;
#X connect 81 0 67 0;
#X connect 82 0 39 0;
#X connect 83 0 69 1;
#X connect 84 0 49 1;
#X connect 84 0 123 1;
#X connect 85 0 47 0;
#X connect 86 0 122 0;
#X connect 87 0 121 0;
#X connect 88 0 53 0;
#X connect 89 0 51 0;
#X connect 90 0 3 0;
#X connect 90 1 0 0;
#X connect 90 2 8 0;
#X connect 90 3 16 0;
#X connect 90 4 80 0;
#X connect 92 0 36 2;
#X connect 93 0 36 3;
#X connect 94 0 5 1;
#X connect 95 0 5 2;
#X connect 97 1 4 0;
#X connect 97 5 10 0;
#X connect 97 6 106 1;
#X connect 97 7 102 0;
#X connect 98 0 70 1;
#X connect 99 0 36 1;
#X connect 100 0 101 0;
#X connect 101 0 96 0;
#X connect 107 0 59 1;
#X connect 108 0 75 0;
#X connect 108 1 6 0;
#X connect 109 0 37 0;
#X connect 110 0 72 0;
#X connect 111 0 58 1;
#X connect 112 0 37 0;
#X connect 113 0 122 0;
#X connect 113 1 121 0;
#X connect 113 2 6 0;
#X connect 113 2 118 0;
#X connect 113 3 16 1;
#X connect 113 4 101 0;
#X connect 113 5 62 0;
#X connect 113 6 130 0;
#X connect 114 0 103 0;
#X connect 114 1 91 0;
#X connect 115 0 117 0;
#X connect 115 1 116 0;
#X connect 118 0 119 0;
#X connect 119 0 9 0;
#X connect 120 0 89 0;
#X connect 121 0 114 0;
#X connect 122 0 115 0;
#X connect 123 0 124 0;
#X connect 124 0 61 0;
#X connect 125 0 126 0;
#X connect 126 0 123 0;
#X connect 127 0 125 0;
#X connect 128 0 84 0;
#X connect 130 0 89 0;
