#N canvas 652 203 709 418 10;
#X obj 491 205 gemhead;
#X obj 491 228 s gemhead;
#X obj 436 326 table rr 100;
#X obj 438 349 table gg 100;
#X obj 437 373 table bb 100;
#N canvas 163 93 824 638 gui-volume 0;
#X obj -13 -59 udpreceive 9998;
#X obj -13 -36 unpackOSC;
#X obj -13 15 unpack f f;
#X obj -67 82 expr ($f1-38.2)/61.8;
#X obj 139 78 expr ($f1-38.2)/61.8;
#X floatatom -70 128 5 0 0 0 - - -, f 5;
#X floatatom 147 134 5 0 0 0 - - -, f 5;
#X obj -134 253 t a b;
#X obj -112 274 f;
#X obj -81 275 + 1;
#X obj -140 180 gemhead 3000;
#X obj -135 337 separator;
#X obj 122 247 t a b;
#X obj 171 262 f;
#X obj 202 263 + 1;
#X obj 121 176 gemhead 3000;
#X obj 123 344 separator;
#X obj -59 301 t f f f f;
#X obj 209 293 t f f f f;
#X obj -134 426 spigot;
#X obj 124 437 spigot;
#X obj -48 425 <;
#X obj 271 358 <;
#X msg -370 456 draw line;
#X obj -297 380 gemhead 2999;
#X obj -295 458 alpha;
#X obj -371 433 loadbang;
#X obj -208 147 s voll;
#X obj -294 403 translateXYZ 0 -3.8 0;
#X obj -138 483 alpha 1;
#X obj 124 486 alpha 1;
#X obj -134 398 translateXYZ 0 0 0;
#X obj -138 228 repeat 15;
#X obj -50 275 % 15;
#X obj 233 263 % 15;
#X obj 123 224 repeat 15;
#X obj 124 405 translateXYZ 0 0 0;
#X obj -138 507 rectangle 0.02 0.1;
#X obj 124 511 rectangle 0.02 0.1;
#X obj -71 353 expr (($f1/15)-0.5)*-1.6;
#X obj 197 322 expr (($f1/15)-0.5)*1.6;
#X obj -138 204 translateXYZ -0.9 -3.8 0;
#X obj 123 201 translateXYZ 0.9 -3.8 0;
#X obj -70 105 expr floor($f1*15);
#X obj 138 102 expr floor($f1*15);
#X obj 20 402 sel 14;
#X msg 20 424 1;
#X obj 269 397 sel 14;
#X msg 269 419 1;
#X obj -134 457 colorRGB 1 1 1 0.5;
#X obj 124 464 colorRGB 1 1 1 0.5;
#X obj -297 496 rectangle 0.03 0.1;
#X obj -293 431 colorRGB 1 1 1 1;
#X obj 88 19 s ctlin;
#X obj -13 -14 route /vol /midi;
#X connect 0 0 1 0;
#X connect 1 0 54 0;
#X connect 2 0 3 0;
#X connect 2 0 27 0;
#X connect 2 1 4 0;
#X connect 3 0 43 0;
#X connect 4 0 44 0;
#X connect 5 0 21 1;
#X connect 6 0 22 1;
#X connect 7 0 11 0;
#X connect 7 1 8 0;
#X connect 8 0 9 0;
#X connect 8 0 17 0;
#X connect 9 0 33 0;
#X connect 10 0 41 0;
#X connect 11 0 31 0;
#X connect 12 0 16 0;
#X connect 12 1 13 0;
#X connect 13 0 14 0;
#X connect 13 0 18 0;
#X connect 14 0 34 0;
#X connect 15 0 42 0;
#X connect 16 0 36 0;
#X connect 17 0 39 0;
#X connect 17 2 45 0;
#X connect 17 3 21 0;
#X connect 18 0 40 0;
#X connect 18 2 47 0;
#X connect 18 3 22 0;
#X connect 19 0 49 0;
#X connect 20 0 50 0;
#X connect 21 0 19 1;
#X connect 22 0 20 1;
#X connect 24 0 28 0;
#X connect 25 0 51 0;
#X connect 26 0 23 0;
#X connect 28 0 52 0;
#X connect 29 0 37 0;
#X connect 30 0 38 0;
#X connect 31 0 19 0;
#X connect 32 0 7 0;
#X connect 33 0 8 1;
#X connect 34 0 13 1;
#X connect 35 0 12 0;
#X connect 36 0 20 0;
#X connect 39 0 31 1;
#X connect 40 0 36 1;
#X connect 41 0 32 0;
#X connect 42 0 35 0;
#X connect 43 0 5 0;
#X connect 44 0 6 0;
#X connect 45 0 46 0;
#X connect 46 0 19 1;
#X connect 47 0 48 0;
#X connect 48 0 20 1;
#X connect 49 0 29 0;
#X connect 50 0 30 0;
#X connect 52 0 25 0;
#X connect 54 0 2 0;
#X connect 54 1 53 0;
#X restore 316 124 pd gui-volume;
#X obj 69 156 tgl 30 0 empty empty empty 17 7 0 10 -262144 -1 -1 1
1;
#X obj 69 193 s keyctl;
#X obj 69 97 loadbang;
#X msg 69 119 1;
#X obj 315 322 0.85 0.61 0.27;
#X obj 315 345 0.52 0.31 0.76;
#X obj 315 368 0.13 0.71 0.85;
#N canvas 411 68 1196 713 gui-arc 0;
#X obj -202 71 repeat 50;
#X obj -202 96 t a b;
#X obj -175 119 f;
#X obj -149 119 + 1;
#X obj -121 119 % 50;
#X obj -202 222 separator;
#X obj -202 379 curve 2;
#X obj -175 141 t f f;
#X obj -139 163 + 1;
#X obj -139 187 % 50;
#X obj -174 274 t f f;
#X obj -174 352 pack f f 0;
#X obj -40 301 t f f;
#X obj -40 379 pack f f 0;
#X obj -174 252 expr ($f1-0.25)*2*3.141592;
#X obj -93 275 expr ($f1-0.25)*2*3.141592;
#X obj -139 210 / 49;
#X obj -139 231 / 2;
#X obj -175 163 / 49;
#X obj -175 184 / 2;
#X msg -239 338 width 2;
#X obj -239 312 loadbang;
#X obj -147 327 expr cos($f1)* 1;
#X obj -174 304 expr sin($f1)* 1;
#X obj -12 355 expr cos($f1)* 1;
#X obj -40 331 expr sin($f1)* 1;
#X obj 156 172 expr 1-$f1;
#X obj 112 149 t f f;
#X floatatom 112 173 5 0 0 0 - - -, f 5;
#X floatatom 156 195 5 0 0 0 - - -, f 5;
#X obj 504 508 curve 2;
#X obj 503 406 color 1 0 0;
#X obj 451 450 loadbang;
#X obj 523 485 pack f f 0;
#X floatatom 494 80 5 0 0 0 - - -, f 5;
#X obj 421 258 color 1 0 0;
#X obj 421 314 translateXYZ 0 0 0;
#X obj 421 358 circle 0.07;
#X obj 97 331 text2d;
#X obj 112 273 expr int($f1*100)/100;
#X msg 112 298 text L=\$1;
#X obj 251 334 text2d;
#X msg 281 298 text R=\$1;
#X obj 281 275 expr int($f1*100)/100;
#X obj 498 108 expr ($f1)*2*3.141592;
#X obj 499 133 t f f;
#X msg 451 472 width 2;
#X obj -36 170 tgl 15 0 empty empty empty 17 7 0 10 -262144 -1 -1 0
1;
#X obj 7 113 loadbang;
#X msg 7 136 0;
#X obj 183 374 loadbang;
#X msg 183 397 font ACaslonPro-BoldItalic.otf;
#X obj 521 270 expr sin($f1)* 1;
#X obj 548 292 expr cos($f1)* 1;
#X text 491 49 -0.25 0.25;
#X floatatom 112 112 5 0 0 0 - - -, f 5;
#X obj 167 133 k_range 0 1 -0.25 0.25;
#X obj -202 37 translateXYZ 4 -3.6 0;
#X obj 421 226 translateXYZ 4 -3.6 0;
#X obj 503 374 translateXYZ 4 -3.6 0;
#X obj 4 -113 r hid;
#X obj 4 -89 route key_7;
#X msg 42 136 0.5;
#X obj 97 251 translateXYZ 2.6 -3.5 0;
#X obj 251 246 translateXYZ 5.4 -3.5 0;
#X obj 317 -24 r gui-id;
#X obj 300 40 sel 1 2 3;
#X obj 302 5 f 1;
#X obj 300 68 v area-1;
#X obj 317 89 v area-2;
#X obj 333 107 v area-3;
#X obj -204 0 t a b;
#X obj 656 181 r gui-id;
#X obj 656 230 sel 1 2 3;
#X obj 113 66 k_range 5 100 0 1;
#X obj 168 89 moses 1;
#X msg 203 110 1;
#X obj 120 -103 sel 1 2 3;
#X obj 120 -77 v display1;
#X obj 132 -54 v display2;
#X obj 146 -32 v display3;
#X floatatom 120 -9 5 0 0 0 - - -, f 5;
#X obj 135 -152 r gui-id;
#X obj 120 -173 sel 1;
#X obj 4 -67 t f f;
#X obj 4 -38 * 0;
#X obj 120 -126 f 0;
#X obj -203 -33 gemhead 4000;
#X obj 97 220 gemhead 4000;
#X obj 421 195 gemhead 4000;
#X obj 251 215 gemhead 4000;
#X msg 171 335 15;
#X obj 663 -80 gemhead;
#X obj 752 -76 loadbang;
#X obj 661 54 rotateXYZ 0 0 0;
#X obj 661 79 text3d;
#X obj 568 -32 loadbang;
#X msg 568 -4 auto 1;
#X obj 662 -3 color 1 1 1;
#X obj 661 32 alpha 1;
#X msg 752 -53 5;
#X obj 663 -28 translateXYZ 4 -2.9 0;
#X obj 503 343 gemhead 4000;
#X msg 656 254 0.85 0.61 0.27;
#X msg 672 276 0.52 0.31 0.76;
#X msg 689 301 0.13 0.71 0.85;
#X obj 676 105 r fonttype;
#X connect 0 0 1 0;
#X connect 1 0 5 0;
#X connect 1 1 2 0;
#X connect 2 0 3 0;
#X connect 2 0 7 0;
#X connect 3 0 4 0;
#X connect 4 0 2 1;
#X connect 5 0 6 0;
#X connect 7 0 18 0;
#X connect 7 1 8 0;
#X connect 8 0 9 0;
#X connect 9 0 16 0;
#X connect 10 0 23 0;
#X connect 10 1 22 0;
#X connect 11 0 6 1;
#X connect 12 0 25 0;
#X connect 12 1 24 0;
#X connect 13 0 6 2;
#X connect 14 0 10 0;
#X connect 15 0 12 0;
#X connect 16 0 17 0;
#X connect 17 0 15 0;
#X connect 18 0 19 0;
#X connect 19 0 14 0;
#X connect 20 0 6 0;
#X connect 21 0 20 0;
#X connect 22 0 11 1;
#X connect 23 0 11 0;
#X connect 24 0 13 1;
#X connect 25 0 13 0;
#X connect 26 0 29 0;
#X connect 27 0 28 0;
#X connect 27 1 26 0;
#X connect 28 0 39 0;
#X connect 29 0 43 0;
#X connect 31 0 30 0;
#X connect 32 0 46 0;
#X connect 33 0 30 1;
#X connect 34 0 44 0;
#X connect 35 0 36 0;
#X connect 36 0 37 0;
#X connect 39 0 40 0;
#X connect 40 0 38 0;
#X connect 42 0 41 0;
#X connect 43 0 42 0;
#X connect 44 0 45 0;
#X connect 45 0 52 0;
#X connect 45 1 53 0;
#X connect 46 0 30 0;
#X connect 47 0 87 0;
#X connect 47 0 88 0;
#X connect 47 0 89 0;
#X connect 47 0 90 0;
#X connect 47 0 92 0;
#X connect 47 0 102 0;
#X connect 48 0 49 0;
#X connect 48 0 62 0;
#X connect 49 0 47 0;
#X connect 50 0 51 0;
#X connect 50 0 91 0;
#X connect 51 0 38 0;
#X connect 51 0 41 0;
#X connect 52 0 36 1;
#X connect 52 0 33 0;
#X connect 53 0 36 2;
#X connect 53 0 33 1;
#X connect 55 0 27 0;
#X connect 55 0 75 0;
#X connect 56 0 34 0;
#X connect 57 0 0 0;
#X connect 58 0 35 0;
#X connect 59 0 31 0;
#X connect 60 0 61 0;
#X connect 61 0 84 0;
#X connect 62 0 55 0;
#X connect 63 0 38 0;
#X connect 64 0 41 0;
#X connect 65 0 67 1;
#X connect 66 0 68 0;
#X connect 66 1 69 0;
#X connect 66 2 70 0;
#X connect 67 0 66 0;
#X connect 68 0 74 0;
#X connect 69 0 74 0;
#X connect 70 0 74 0;
#X connect 71 0 57 0;
#X connect 71 1 67 0;
#X connect 72 0 73 0;
#X connect 73 0 103 0;
#X connect 73 1 104 0;
#X connect 73 2 105 0;
#X connect 74 0 55 0;
#X connect 75 0 56 0;
#X connect 75 1 76 0;
#X connect 76 0 56 0;
#X connect 77 0 78 0;
#X connect 77 1 79 0;
#X connect 77 2 80 0;
#X connect 78 0 81 0;
#X connect 79 0 81 0;
#X connect 80 0 81 0;
#X connect 81 0 85 1;
#X connect 82 0 86 1;
#X connect 83 0 86 0;
#X connect 84 0 85 0;
#X connect 84 1 83 0;
#X connect 85 0 47 0;
#X connect 86 0 77 0;
#X connect 87 0 71 0;
#X connect 88 0 63 0;
#X connect 89 0 58 0;
#X connect 90 0 64 0;
#X connect 91 0 41 1;
#X connect 91 0 38 1;
#X connect 92 0 101 0;
#X connect 93 0 100 0;
#X connect 94 0 95 0;
#X connect 96 0 97 0;
#X connect 97 0 99 0;
#X connect 98 0 99 0;
#X connect 99 0 94 0;
#X connect 100 0 95 1;
#X connect 101 0 98 0;
#X connect 102 0 59 0;
#X connect 103 0 35 1;
#X connect 103 0 31 1;
#X connect 104 0 35 1;
#X connect 104 0 31 1;
#X connect 105 0 35 1;
#X connect 105 0 31 1;
#X connect 106 0 95 0;
#X restore 315 290 pd gui-arc;
#N canvas 570 29 1188 692 gui-speed 0;
#X obj 212 95 gemhead 3100;
#X obj 256 382 text2d;
#X msg 326 526 text Blue speed [\$1];
#X msg 292 591 text Green speed [\$1];
#X obj 489 253 translateXYZ 0 -3.5 0;
#X obj 489 301 alpha;
#X obj 470 399 translateXYZ 0 -3.5 0;
#X obj 469 574 alpha;
#X obj 489 223 gemhead 3200;
#X obj 470 369 gemhead 3300;
#X obj 487 485 unpack f f f;
#X obj 469 553 scaleXYZ 1 1 1;
#X obj 489 275 colorRGB 1 1 1 0.8;
#X obj 636 397 t f f;
#X obj 764 566 alpha;
#X obj 764 542 colorRGB 1 1 1 0.8;
#X obj 764 498 gemhead 3300;
#X obj 913 562 alpha;
#X obj 913 539 colorRGB 1 1 1 0.8;
#X obj 913 499 gemhead 3300;
#X obj 764 476 *;
#X obj 765 429 t b f;
#X floatatom 764 450 5 0 0 0 - - -, f 5;
#X obj 913 475 *;
#X obj 913 428 t b f;
#X floatatom 912 449 5 0 0 0 - - -, f 5;
#X obj 651 216 t f f;
#X obj 651 244 -;
#X obj 752 204 -;
#X obj 752 247 sel 0;
#X obj 651 169 r mouse_pos;
#X obj 748 177 t f f;
#X obj 651 192 unpack f f;
#X obj 649 289 sel 0;
#X obj 650 266 expr if(abs($f1)>0.3 \, 1 \, 0);
#X obj 752 228 expr if(abs($f1)>0.1 \, 2 \, 0);
#X floatatom 743 300 5 0 0 0 - - -, f 5;
#X obj 743 324 sel 1 2;
#X obj 743 376 unpack f f;
#X msg 775 343 1 0;
#X msg 743 345 1 1;
#X obj 292 568 v speed-2;
#X obj 326 503 v speed-3;
#X obj 292 546 metro 50;
#X obj 355 567 s show-speed;
#X obj 404 502 s show-speed;
#X obj 636 375 r show-speed;
#X obj 469 594 rectangle 1.49 0.08;
#X obj 636 422 expr (1-$f1)*-1.49;
#X obj 489 322 rectangle 1.51 0.1;
#X obj 636 447 - 0.01;
#X obj 663 479 * 0.99;
#X obj 469 518 colorRGB 1 0 0 0.9;
#X obj 913 583 rectangle 0.015 0.08;
#X obj 764 591 rectangle 0.08 0.015;
#X obj 764 521 translateXYZ 1.7 -3.5 0;
#X obj 913 519 translateXYZ 1.7 -3.5 0;
#X msg 162 615 text Red speed [\$1];
#X obj 173 540 v speed-1;
#X obj 192 568 s show-speed;
#X obj 342 73 loadbang;
#X msg 342 96 0;
#X obj 401 1 r hid;
#X obj 404 160 tgl 15 0 empty empty empty 17 7 0 10 -262144 -1 -1 0
1;
#X obj 401 25 route key_22;
#X obj 236 517 loadbang;
#X msg 236 538 0;
#X obj 282 411 r gui-id;
#X floatatom 282 439 5 0 0 0 - - -, f 5;
#X obj 282 467 gate 3 2 1;
#X obj 520 61 sel 1 2 3;
#X obj 520 87 v display1;
#X obj 532 110 v display2;
#X obj 546 132 v display3;
#X floatatom 520 155 5 0 0 0 - - -, f 5;
#X obj 559 -7 r gui-id;
#X obj 404 75 tgl 15 0 empty empty empty 17 7 0 10 -262144 -1 -1 0
1;
#X obj 520 -9 sel 1;
#X obj 404 97 t f f;
#X obj 404 126 * 0;
#X obj 520 38 f 0;
#X msg 348 402 15;
#X obj 78 284 pack f f;
#X msg 78 309 \$2 \$1;
#X obj 40 342 route 4 5 6;
#X floatatom 78 352 5 0 0 0 - - -, f 5;
#X floatatom 112 368 5 0 0 0 - - -, f 5;
#X floatatom 147 367 5 0 0 0 - - -, f 5;
#X obj 78 402 k_range 0 127 0.01 1;
#X obj 106 429 k_range 0 127 0.01 1;
#X obj 146 455 k_range 0 127 0.01 1;
#X obj 62 83 t b b;
#X msg 69 132 0;
#X msg 128 130 1;
#X obj 47 468 t b;
#X msg 48 497 1;
#X obj 83 479 t b;
#X obj 129 491 t b;
#X msg 84 508 2;
#X msg 117 525 3;
#X obj 275 173 t b b;
#X obj 271 197 v px1;
#X obj 292 221 v py1;
#X obj 212 118 t a b b;
#X obj 279 145 gate 3 2 1;
#X obj 254 256 translateXYZ 0 0 0;
#X obj 328 176 t b b;
#X obj 326 201 v px2;
#X obj 345 224 v py2;
#X obj 374 187 t b b;
#X obj 391 235 v py3;
#X obj 256 280 translateXYZ 0.2 -0.3 0;
#X obj 251 342 alpha;
#X msg 132 168 \$1 1000;
#X obj 133 191 line;
#X obj 133 212 > 0;
#X obj 214 57 change;
#X obj 252 313 colorRGB 1 1 1 0;
#X obj 62 108 del 500;
#X floatatom 553 20 5 0 0 0 - - -, f 5;
#X floatatom 62 540 5 0 0 0 - - -, f 5;
#X obj 372 212 v px3;
#X obj 853 35 gemhead;
#X obj 942 39 loadbang;
#X obj 851 169 rotateXYZ 0 0 0;
#X obj 851 194 text3d;
#X obj 758 83 loadbang;
#X msg 758 111 auto 1;
#X obj 852 112 color 1 1 1;
#X obj 851 147 alpha 1;
#X msg 942 62 5;
#X obj 853 87 translateXYZ 0 -2.9 0;
#X msg 477 415 0.85 0.61 0.27;
#X msg 520 440 0.52 0.31 0.76;
#X msg 572 460 0.13 0.71 0.85;
#X obj 990 206 r fonttype;
#X msg 967 137 text speed;
#X obj 321 341 r fonttype;
#X obj 22 194 r ctlin;
#X obj 22 216 unpack f f f;
#X connect 0 0 103 0;
#X connect 2 0 1 0;
#X connect 3 0 1 0;
#X connect 4 0 12 0;
#X connect 5 0 49 0;
#X connect 6 0 52 0;
#X connect 7 0 47 0;
#X connect 8 0 4 0;
#X connect 9 0 6 0;
#X connect 10 0 52 1;
#X connect 10 1 52 2;
#X connect 10 2 52 3;
#X connect 11 0 7 0;
#X connect 12 0 5 0;
#X connect 13 0 48 0;
#X connect 13 1 51 0;
#X connect 14 0 54 0;
#X connect 15 0 14 0;
#X connect 16 0 55 0;
#X connect 17 0 53 0;
#X connect 18 0 17 0;
#X connect 19 0 56 0;
#X connect 20 0 16 0;
#X connect 21 0 22 0;
#X connect 21 1 20 1;
#X connect 22 0 20 0;
#X connect 23 0 19 0;
#X connect 24 0 25 0;
#X connect 24 1 23 1;
#X connect 25 0 23 0;
#X connect 26 0 27 1;
#X connect 26 1 27 0;
#X connect 27 0 34 0;
#X connect 28 0 35 0;
#X connect 29 1 36 0;
#X connect 30 0 32 0;
#X connect 31 0 28 1;
#X connect 31 1 28 0;
#X connect 32 0 26 0;
#X connect 32 1 31 0;
#X connect 33 1 36 0;
#X connect 34 0 33 0;
#X connect 35 0 29 0;
#X connect 36 0 37 0;
#X connect 37 0 40 0;
#X connect 37 1 39 0;
#X connect 38 0 22 0;
#X connect 38 1 25 0;
#X connect 39 0 38 0;
#X connect 40 0 38 0;
#X connect 41 0 3 0;
#X connect 41 0 44 0;
#X connect 42 0 2 0;
#X connect 42 0 45 0;
#X connect 43 0 41 0;
#X connect 46 0 13 0;
#X connect 48 0 50 0;
#X connect 50 0 6 1;
#X connect 51 0 11 1;
#X connect 52 0 11 0;
#X connect 55 0 15 0;
#X connect 56 0 18 0;
#X connect 57 0 1 0;
#X connect 58 0 57 0;
#X connect 58 0 59 0;
#X connect 60 0 61 0;
#X connect 61 0 63 0;
#X connect 62 0 64 0;
#X connect 63 0 0 0;
#X connect 63 0 8 0;
#X connect 63 0 9 0;
#X connect 63 0 21 0;
#X connect 63 0 24 0;
#X connect 63 0 122 0;
#X connect 65 0 66 0;
#X connect 65 0 81 0;
#X connect 66 0 57 0;
#X connect 67 0 68 0;
#X connect 68 0 69 0;
#X connect 68 0 104 0;
#X connect 69 0 58 0;
#X connect 69 0 132 0;
#X connect 69 1 43 0;
#X connect 69 1 133 0;
#X connect 69 2 42 0;
#X connect 69 2 134 0;
#X connect 70 0 71 0;
#X connect 70 1 72 0;
#X connect 70 2 73 0;
#X connect 71 0 74 0;
#X connect 72 0 74 0;
#X connect 73 0 74 0;
#X connect 74 0 79 1;
#X connect 75 0 119 0;
#X connect 76 0 78 0;
#X connect 77 0 80 0;
#X connect 78 0 79 0;
#X connect 78 1 77 0;
#X connect 79 0 63 0;
#X connect 80 0 70 0;
#X connect 81 0 1 1;
#X connect 82 0 83 0;
#X connect 84 0 85 0;
#X connect 84 1 86 0;
#X connect 84 2 87 0;
#X connect 85 0 88 0;
#X connect 85 0 91 0;
#X connect 85 0 94 0;
#X connect 86 0 89 0;
#X connect 86 0 91 0;
#X connect 86 0 96 0;
#X connect 87 0 90 0;
#X connect 87 0 91 0;
#X connect 87 0 97 0;
#X connect 88 0 57 0;
#X connect 89 0 3 0;
#X connect 90 0 2 0;
#X connect 91 0 118 0;
#X connect 91 1 93 0;
#X connect 92 0 113 0;
#X connect 93 0 113 0;
#X connect 94 0 95 0;
#X connect 95 0 68 0;
#X connect 95 0 120 0;
#X connect 96 0 98 0;
#X connect 97 0 99 0;
#X connect 98 0 68 0;
#X connect 98 0 120 0;
#X connect 99 0 68 0;
#X connect 99 0 120 0;
#X connect 100 0 101 0;
#X connect 100 1 102 0;
#X connect 101 0 105 1;
#X connect 102 0 105 2;
#X connect 103 0 105 0;
#X connect 103 1 69 1;
#X connect 103 2 104 1;
#X connect 104 0 100 0;
#X connect 104 1 106 0;
#X connect 104 2 109 0;
#X connect 105 0 111 0;
#X connect 106 0 107 0;
#X connect 106 1 108 0;
#X connect 107 0 105 1;
#X connect 108 0 105 2;
#X connect 109 0 121 0;
#X connect 109 1 110 0;
#X connect 110 0 105 2;
#X connect 111 0 117 0;
#X connect 112 0 1 0;
#X connect 113 0 114 0;
#X connect 114 0 115 0;
#X connect 114 0 117 4;
#X connect 115 0 116 0;
#X connect 116 0 76 0;
#X connect 117 0 112 0;
#X connect 118 0 92 0;
#X connect 119 0 80 1;
#X connect 120 0 119 0;
#X connect 121 0 105 1;
#X connect 122 0 131 0;
#X connect 123 0 130 0;
#X connect 123 0 136 0;
#X connect 124 0 125 0;
#X connect 126 0 127 0;
#X connect 127 0 129 0;
#X connect 128 0 129 0;
#X connect 129 0 124 0;
#X connect 130 0 125 1;
#X connect 131 0 128 0;
#X connect 132 0 10 0;
#X connect 133 0 10 0;
#X connect 134 0 10 0;
#X connect 135 0 125 0;
#X connect 136 0 125 0;
#X connect 137 0 1 0;
#X connect 138 0 139 0;
#X connect 139 0 82 0;
#X connect 139 1 82 1;
#X restore 317 171 pd gui-speed;
#N canvas 619 23 998 737 gui-deform 0;
#X obj 122 31 pix_texture;
#X obj 55 475 rectangle 1 2;
#X obj 55 445 scale 0.1;
#X obj 55 417 colorRGB 1 1 1 1;
#X obj 122 51 alpha;
#X obj 54 137 repeat 10;
#X obj 54 167 t a b;
#X obj 81 191 f;
#X obj 108 191 + 1;
#X obj 139 190 % 10;
#X obj 81 241 / 10;
#X obj 54 321 translateXYZ;
#X obj 54 291 separator;
#X obj 81 265 expr ($f1-0.5)* 2.5;
#X obj 370 75 pix_texture;
#X obj 313 304 scale 0.1;
#X obj 313 332 rectangle 15 2;
#X obj 122 -173 r hid;
#X obj 122 -69 tgl 15 0 empty empty empty 17 7 0 10 -262144 -1 -1 0
1;
#X obj 122 -149 route key_4;
#X obj 360 258 text2d;
#X obj 574 236 loadbang;
#X obj 122 -38 gemhead 4000;
#X obj 370 -45 gemhead 4100;
#X obj 370 98 alpha;
#X obj 313 281 colorRGB 1 1 1 1;
#X msg 375 225 text V:\$1;
#X obj 234 262 > 0;
#X obj 209 289 sel 0 1;
#X obj 176 314 gate 3;
#X obj 78 382 unpack f f f;
#X obj 81 217 t f f;
#X floatatom 273 459 5 0 0 0 - - -, f 5;
#X msg 226 313 1 1 1;
#X obj 273 483 - 1;
#X obj 564 43 v vel-1;
#X obj 581 64 v vel-2;
#X obj 597 82 v vel-3;
#X obj 564 15 sel 1 2 3;
#X floatatom 578 104 5 0 0 0 - - -, f 5;
#X obj 370 -9 t a b;
#X obj 566 -20 f 1;
#X obj 388 201 expr int($f1*100)/100;
#X obj 269 159 * 10;
#X obj 37 -26 loadbang;
#X msg 37 -3 0;
#X obj 272 434 expr if($f1>0 \, int($f1)+1 \, 0);
#X msg 457 231 0;
#X obj 238 -159 sel 1 2 3;
#X obj 238 -133 v display1;
#X obj 250 -110 v display2;
#X obj 264 -88 v display3;
#X floatatom 238 -65 5 0 0 0 - - -, f 5;
#X obj 277 -227 r gui-id;
#X obj 238 -229 sel 1;
#X obj 122 -123 t f f;
#X obj 122 -94 * 0;
#X obj 238 -182 f 0;
#X obj 360 147 gemhead 4000;
#X msg 577 267 11122;
#X msg 524 196 15;
#X floatatom 276 -195 5 0 0 0 - - -, f 5;
#X obj 16 -239 t b b;
#X msg 16 -189 0;
#X msg 46 -184 1;
#X obj 47 -137 line;
#X floatatom -75 -42 5 0 0 0 - - -, f 5;
#X floatatom -112 -38 5 0 0 0 - - -, f 5;
#X obj -95 -11 pack f f;
#X msg -95 14 \$2 \$1;
#X obj -96 36 route 1 2 3;
#X obj -100 64 bng 15 250 50 0 empty empty empty 17 7 0 10 -262144
-1 -1;
#X obj -77 68 bng 15 250 50 0 empty empty empty 17 7 0 10 -262144 -1
-1;
#X obj -49 72 bng 15 250 50 0 empty empty empty 17 7 0 10 -262144 -1
-1;
#X obj 47 -112 > 0;
#X obj 47 -87 change;
#X msg -95 99 1;
#X msg -61 97 2;
#X msg -28 96 3;
#X obj 590 -222 gemhead;
#X obj 679 -218 loadbang;
#X obj 588 -88 rotateXYZ 0 0 0;
#X obj 588 -63 text3d;
#X obj 495 -174 loadbang;
#X msg 495 -146 auto 1;
#X obj 589 -145 color 1 1 1;
#X obj 588 -110 alpha 1;
#X msg 679 -195 5;
#X obj 590 -170 translateXYZ -4.05 -2.9 0;
#X msg 176 338 0.85 0.61 0.27;
#X msg 192 360 0.52 0.31 0.76;
#X msg 209 385 0.13 0.71 0.85;
#X obj 370 50 pix_image ../abs/img/line.png;
#X obj 122 6 pix_image ../abs/img/button.png;
#X msg 427 -265 text deform;
#X obj 482 -96 r fonttype;
#X obj 122 -15 translateXYZ -3 -3.5 0;
#X obj 371 17 translateXYZ -3.05 -3.25 0;
#X obj 360 178 translateXYZ -1.75 -3.6 0;
#X msg 46 -160 \$1 100;
#X obj 16 -214 del 1000;
#X obj -110 -96 r ctlin;
#X obj -110 -74 unpack f f f;
#X connect 0 0 4 0;
#X connect 2 0 1 0;
#X connect 3 0 2 0;
#X connect 4 0 5 0;
#X connect 5 0 6 0;
#X connect 6 0 12 0;
#X connect 6 1 7 0;
#X connect 7 0 8 0;
#X connect 7 0 31 0;
#X connect 8 0 9 0;
#X connect 9 0 7 1;
#X connect 10 0 13 0;
#X connect 11 0 3 0;
#X connect 12 0 11 0;
#X connect 13 0 11 1;
#X connect 14 0 24 0;
#X connect 15 0 16 0;
#X connect 17 0 19 0;
#X connect 18 0 22 0;
#X connect 18 0 23 0;
#X connect 18 0 58 0;
#X connect 18 0 79 0;
#X connect 19 0 55 0;
#X connect 21 0 59 0;
#X connect 21 0 47 0;
#X connect 21 0 60 0;
#X connect 22 0 96 0;
#X connect 23 0 40 0;
#X connect 24 0 25 0;
#X connect 25 0 15 0;
#X connect 26 0 20 0;
#X connect 27 0 28 0;
#X connect 28 0 29 1;
#X connect 28 1 33 0;
#X connect 29 0 89 0;
#X connect 29 1 90 0;
#X connect 29 2 91 0;
#X connect 30 0 3 1;
#X connect 30 1 3 2;
#X connect 30 2 3 3;
#X connect 31 0 10 0;
#X connect 31 1 27 0;
#X connect 32 0 34 0;
#X connect 33 0 30 0;
#X connect 34 0 27 1;
#X connect 35 0 39 0;
#X connect 36 0 39 0;
#X connect 37 0 39 0;
#X connect 38 0 35 0;
#X connect 38 1 36 0;
#X connect 38 2 37 0;
#X connect 39 0 43 0;
#X connect 40 0 97 0;
#X connect 40 1 41 0;
#X connect 41 0 38 0;
#X connect 42 0 26 0;
#X connect 43 0 42 0;
#X connect 43 0 46 0;
#X connect 44 0 45 0;
#X connect 45 0 18 0;
#X connect 45 0 4 1;
#X connect 45 0 24 1;
#X connect 46 0 32 0;
#X connect 47 0 26 0;
#X connect 48 0 49 0;
#X connect 48 1 50 0;
#X connect 48 2 51 0;
#X connect 49 0 52 0;
#X connect 50 0 52 0;
#X connect 51 0 52 0;
#X connect 52 0 56 1;
#X connect 53 0 61 0;
#X connect 54 0 57 0;
#X connect 55 0 56 0;
#X connect 55 1 54 0;
#X connect 56 0 18 0;
#X connect 57 0 48 0;
#X connect 58 0 98 0;
#X connect 59 0 20 0;
#X connect 60 0 20 1;
#X connect 61 0 57 1;
#X connect 61 0 41 1;
#X connect 61 0 29 0;
#X connect 62 0 100 0;
#X connect 62 1 64 0;
#X connect 63 0 99 0;
#X connect 64 0 99 0;
#X connect 65 0 74 0;
#X connect 65 0 3 4;
#X connect 66 0 68 1;
#X connect 67 0 68 0;
#X connect 68 0 69 0;
#X connect 69 0 70 0;
#X connect 70 0 71 0;
#X connect 70 1 72 0;
#X connect 70 2 73 0;
#X connect 71 0 62 0;
#X connect 71 0 76 0;
#X connect 72 0 62 0;
#X connect 72 0 77 0;
#X connect 73 0 62 0;
#X connect 73 0 78 0;
#X connect 74 0 75 0;
#X connect 75 0 56 0;
#X connect 76 0 61 0;
#X connect 77 0 61 0;
#X connect 78 0 61 0;
#X connect 79 0 88 0;
#X connect 80 0 87 0;
#X connect 80 0 94 0;
#X connect 81 0 82 0;
#X connect 83 0 84 0;
#X connect 84 0 86 0;
#X connect 85 0 86 0;
#X connect 86 0 81 0;
#X connect 87 0 82 1;
#X connect 88 0 85 0;
#X connect 89 0 30 0;
#X connect 90 0 30 0;
#X connect 91 0 30 0;
#X connect 92 0 14 0;
#X connect 93 0 0 0;
#X connect 94 0 82 0;
#X connect 95 0 82 0;
#X connect 95 0 20 0;
#X connect 96 0 93 0;
#X connect 97 0 92 0;
#X connect 98 0 20 0;
#X connect 99 0 65 0;
#X connect 100 0 63 0;
#X connect 101 0 102 0;
#X connect 102 0 67 0;
#X connect 102 1 66 0;
#X restore 316 147 pd gui-deform;
#X obj 310 37 loadbang;
#X msg 310 60 font ACaslonPro-BoldItalic.otf \, justify left center
;
#X obj 310 85 s fonttype;
#N canvas 0 22 450 300 array 0;
#X obj 45 57 metro 100;
#X obj 46 35 tgl 15 0 empty empty empty 17 7 0 10 -262144 -1 -1 1 1
;
#X obj 43 116 repeat 100;
#X obj 42 142 f;
#X obj 67 142 + 1;
#X obj 95 142 % 100;
#X obj 44 86 t b b b;
#X obj 42 169 tabread rr;
#X obj 42 217 +;
#X obj 44 191 t f b;
#X obj 72 217 v rr;
#X obj 43 240 v rr;
#X obj 2 138 v rr;
#X msg 113 183 0;
#X floatatom 2 159 5 0 0 0 - - -, f 5;
#X obj 210 115 repeat 100;
#X obj 209 141 f;
#X obj 234 141 + 1;
#X obj 262 141 % 100;
#X obj 211 85 t b b b;
#X obj 209 216 +;
#X obj 211 190 t f b;
#X msg 280 182 0;
#X floatatom 169 158 5 0 0 0 - - -, f 5;
#X obj 359 125 repeat 100;
#X obj 358 151 f;
#X obj 383 151 + 1;
#X obj 411 151 % 100;
#X obj 360 95 t b b b;
#X obj 358 226 +;
#X obj 360 200 t f b;
#X msg 429 192 0;
#X floatatom 318 168 5 0 0 0 - - -, f 5;
#X obj 169 137 v gg;
#X obj 318 147 v bb;
#X obj 239 216 v gg;
#X obj 388 226 v bb;
#X obj 359 249 v bb;
#X obj 358 178 tabread bb;
#X obj 209 168 tabread gg;
#X obj 210 239 v gg;
#X obj 47 14 loadbang;
#X connect 0 0 6 0;
#X connect 0 0 19 0;
#X connect 0 0 28 0;
#X connect 1 0 0 0;
#X connect 2 0 3 0;
#X connect 3 0 4 0;
#X connect 3 0 7 0;
#X connect 4 0 5 0;
#X connect 5 0 3 1;
#X connect 6 0 12 0;
#X connect 6 1 2 0;
#X connect 6 2 13 0;
#X connect 7 0 9 0;
#X connect 8 0 11 0;
#X connect 9 0 8 0;
#X connect 9 1 10 0;
#X connect 10 0 8 1;
#X connect 12 0 14 0;
#X connect 13 0 10 0;
#X connect 15 0 16 0;
#X connect 16 0 17 0;
#X connect 16 0 39 0;
#X connect 17 0 18 0;
#X connect 18 0 16 1;
#X connect 19 0 33 0;
#X connect 19 1 15 0;
#X connect 19 2 22 0;
#X connect 20 0 40 0;
#X connect 21 0 20 0;
#X connect 21 1 35 0;
#X connect 22 0 35 0;
#X connect 24 0 25 0;
#X connect 25 0 26 0;
#X connect 25 0 38 0;
#X connect 26 0 27 0;
#X connect 27 0 25 1;
#X connect 28 0 34 0;
#X connect 28 1 24 0;
#X connect 28 2 31 0;
#X connect 29 0 37 0;
#X connect 30 0 29 0;
#X connect 30 1 36 0;
#X connect 31 0 36 0;
#X connect 33 0 23 0;
#X connect 34 0 32 0;
#X connect 35 0 20 1;
#X connect 36 0 29 1;
#X connect 38 0 30 0;
#X connect 39 0 21 0;
#X connect 41 0 1 0;
#X restore 316 200 pd array rr gg bb;
#N canvas 429 48 845 714 line 0;
#X obj 166 -23 table l-x 30;
#X obj 166 -1 table l-y 30;
#X obj 165 26 table ll-x 30;
#X obj 165 48 table ll-y 30;
#X obj 99 46 gemhead;
#X obj 99 162 repeat 30;
#X obj 99 189 t a b;
#X obj 99 242 separator;
#X obj 99 132 alpha;
#X obj 150 141 tgl 15 0 empty empty empty 17 7 0 10 -262144 -1 -1 1
1;
#X obj 150 120 loadbang;
#X obj 99 362 curve 2;
#X obj 165 181 f;
#X obj 195 182 + 1;
#X obj 224 182 % 30;
#X obj 165 208 t f f f f;
#X obj 165 235 tabread l-x;
#X obj 182 258 tabread l-y;
#X obj 199 279 tabread ll-x;
#X obj 216 302 tabread ll-y;
#X obj 124 309 pack f f 0;
#X obj 138 339 pack f f 0;
#X obj -6 -87 r hid;
#X obj -6 2 tgl 15 0 empty empty empty 17 7 0 10 -262144 -1 -1 0 1
;
#X obj -6 21 sel 1;
#X msg -6 44 0;
#X msg -79 339 \; l-x const 0 \; l-y const 0 \; ll-x const 0 \; ll-y
const 0 \;;
#X obj 269 -15 t f f f f;
#X obj 365 104 v mouseX;
#X obj 435 109 v mouseY;
#X obj 365 39 sel 1;
#X obj 365 74 t b b b;
#X msg 74 14 1;
#X obj 502 470 f;
#X obj 555 470 % 30;
#X obj 528 470 + 1;
#X obj 364 140 t f f f f;
#X obj 435 140 t f f f f;
#X obj 364 166 + 10;
#X obj 409 186 - 10;
#X obj 435 165 + 10;
#X obj 452 195 - 10;
#X obj 448 267 list;
#X obj 333 298 list;
#X obj 352 271 pack f f 0 0;
#X obj 454 230 pack f f f f;
#X obj 291 382 sel 0;
#X obj 471 377 gate 2;
#X floatatom 471 348 5 0 0 0 index - -, f 5;
#X obj 333 323 unpack f f f f;
#X obj 448 290 unpack f f f f;
#X obj 549 75 k_angle;
#X obj 627 48 pack f f 0;
#X obj 549 20 r mouse_pos;
#X obj 549 45 list 0;
#X obj 587 159 abs;
#X obj 200 392 gemhead;
#X obj 200 478 alpha;
#X obj 251 487 tgl 15 0 empty empty empty 17 7 0 10 -262144 -1 -1 1
1;
#X obj 251 466 loadbang;
#X obj 201 567 curve 2;
#X obj 140 488 loadbang;
#X obj 587 205 + 1;
#X floatatom 587 232 5 0 0 0 - - -, f 5;
#X obj 60 407 gemhead;
#X obj 60 459 translateXYZ;
#X obj 608 364 metro 30;
#X obj 353 436 pack f f 0;
#X obj 428 435 pack f f 0;
#X obj 587 181 < 45;
#X obj 353 470 list;
#X obj 418 473 list;
#X obj 349 560 tabwrite l-x;
#X obj 364 581 tabwrite l-y;
#X obj 460 566 tabwrite ll-x;
#X obj 475 587 tabwrite ll-y;
#X obj 354 509 unpack f f;
#X obj 427 510 unpack f f;
#X obj -6 -28 expr if($f1+$f2==2 \, 1 \, 0);
#X obj 269 -42 tgl 15 0 empty empty empty 17 7 0 10 -262144 -1 -1 0
1;
#X obj 58 497 circle 0.02;
#X obj 332 -109 r hid;
#X obj 502 446 sel 1;
#X obj 304 -52 spigot;
#X obj 237 -86 r mouse_left;
#X obj 376 -16 loadbang;
#X msg 378 7 0;
#X obj 201 444 colorRGB 1 1 0 0.5;
#X msg 139 512 draw line \, width 1;
#X obj 332 -81 route key_15;
#X obj -6 -58 route key_44 key_15;
#X obj -36 199 line;
#X obj -36 250 > 0;
#X obj -36 148 tgl 15 0 empty empty empty 17 7 0 10 -262144 -1 -1 0
1;
#X obj -35 275 sel 0;
#X msg -36 173 \$1 1000;
#X obj 99 98 colorRGB 0 0 1 0.3;
#X obj -36 226 * 0.7;
#X connect 4 0 96 0;
#X connect 5 0 6 0;
#X connect 6 0 7 0;
#X connect 6 1 12 0;
#X connect 7 0 11 0;
#X connect 8 0 5 0;
#X connect 9 0 8 1;
#X connect 10 0 9 0;
#X connect 12 0 13 0;
#X connect 12 0 15 0;
#X connect 13 0 14 0;
#X connect 14 0 12 1;
#X connect 15 0 16 0;
#X connect 15 1 17 0;
#X connect 15 2 18 0;
#X connect 15 3 19 0;
#X connect 16 0 20 0;
#X connect 17 0 20 1;
#X connect 18 0 21 0;
#X connect 19 0 21 1;
#X connect 20 0 11 1;
#X connect 21 0 11 2;
#X connect 22 0 90 0;
#X connect 23 0 24 0;
#X connect 24 0 25 0;
#X connect 25 0 93 0;
#X connect 27 0 46 0;
#X connect 27 1 30 0;
#X connect 27 2 66 0;
#X connect 27 3 82 0;
#X connect 28 0 36 0;
#X connect 28 0 52 0;
#X connect 28 0 65 1;
#X connect 29 0 37 0;
#X connect 29 0 52 1;
#X connect 29 0 65 2;
#X connect 30 0 31 0;
#X connect 31 0 28 0;
#X connect 31 1 29 0;
#X connect 31 2 32 0;
#X connect 32 0 93 0;
#X connect 33 0 35 0;
#X connect 33 0 72 1;
#X connect 33 0 73 1;
#X connect 33 0 74 1;
#X connect 33 0 75 1;
#X connect 34 0 33 1;
#X connect 35 0 34 0;
#X connect 36 0 38 0;
#X connect 36 1 39 0;
#X connect 36 2 44 0;
#X connect 36 3 44 1;
#X connect 37 0 40 0;
#X connect 37 1 41 0;
#X connect 37 2 45 2;
#X connect 37 3 45 3;
#X connect 38 0 45 0;
#X connect 39 0 45 1;
#X connect 40 0 44 2;
#X connect 41 0 44 3;
#X connect 42 0 50 0;
#X connect 43 0 49 0;
#X connect 44 0 43 1;
#X connect 45 0 42 1;
#X connect 46 0 70 0;
#X connect 46 0 71 0;
#X connect 47 0 43 0;
#X connect 47 1 42 0;
#X connect 48 0 47 0;
#X connect 49 0 67 0;
#X connect 49 1 68 0;
#X connect 49 2 67 1;
#X connect 49 3 68 1;
#X connect 50 0 67 0;
#X connect 50 1 68 0;
#X connect 50 2 67 1;
#X connect 50 3 68 1;
#X connect 51 1 55 0;
#X connect 52 0 51 1;
#X connect 53 0 54 0;
#X connect 54 0 51 0;
#X connect 55 0 69 0;
#X connect 56 0 87 0;
#X connect 57 0 60 0;
#X connect 58 0 57 1;
#X connect 59 0 58 0;
#X connect 61 0 88 0;
#X connect 62 0 48 0;
#X connect 62 0 63 0;
#X connect 64 0 65 0;
#X connect 65 0 80 0;
#X connect 66 0 47 1;
#X connect 67 0 60 1;
#X connect 67 0 70 1;
#X connect 68 0 60 2;
#X connect 68 0 71 1;
#X connect 69 0 62 0;
#X connect 70 0 76 0;
#X connect 71 0 77 0;
#X connect 76 0 72 0;
#X connect 76 1 73 0;
#X connect 77 0 74 0;
#X connect 77 1 75 0;
#X connect 78 0 23 0;
#X connect 79 0 27 0;
#X connect 79 0 64 0;
#X connect 79 0 56 0;
#X connect 81 0 89 0;
#X connect 82 0 33 0;
#X connect 83 0 79 0;
#X connect 84 0 83 0;
#X connect 85 0 86 0;
#X connect 86 0 79 0;
#X connect 87 0 57 0;
#X connect 88 0 60 0;
#X connect 89 0 83 1;
#X connect 90 0 78 0;
#X connect 90 1 78 1;
#X connect 91 0 97 0;
#X connect 92 0 94 0;
#X connect 92 0 4 0;
#X connect 93 0 95 0;
#X connect 94 0 26 0;
#X connect 95 0 91 0;
#X connect 96 0 8 0;
#X connect 97 0 92 0;
#X connect 97 0 96 4;
#X restore 181 98 pd line;
#N canvas 692 161 685 578 circleline 0;
#X obj 89 36 gemhead;
#X obj 89 179 t a b;
#X obj 157 176 f;
#X obj 187 177 + 1;
#X obj 89 232 separator;
#X obj 89 260 translateXYZ;
#X obj 91 416 circle 1;
#X obj 489 -106 table b-s 30;
#X obj 489 -83 table b-x 30;
#X obj 490 -61 table b-y 30;
#X obj 91 390 scale 1;
#X obj 334 -110 r hid;
#X obj 269 -97 spigot;
#X obj 269 25 v mouseX;
#X obj 317 57 v mouseY;
#X obj 269 96 pack f f 0;
#X obj 301 127 sel 1;
#X obj 301 152 f;
#X obj 361 150 % 30;
#X obj 232 210 tabwrite b-x;
#X obj 278 246 tabwrite b-y;
#X obj 433 41 gemhead;
#X obj 433 183 translateXYZ;
#X obj 461 279 circle 0.1;
#X obj 537 285 loadbang;
#X obj 540 230 distance2d;
#X obj 540 196 pack f f;
#X obj 433 74 t a b;
#X obj 540 139 t b b;
#X obj 540 114 spigot;
#X obj 472 73 unpack f f;
#X obj 540 164 v mouseX;
#X obj 597 163 v mouseY;
#X obj 433 -23 loadbang;
#X msg 433 3 0;
#X obj 433 214 t a a;
#X obj 269 -128 r mouse_left;
#X obj 433 246 circle 0.05;
#X msg 537 315 draw point;
#X obj 318 274 tabwrite b-s;
#X obj 158 223 tabread b-x;
#X obj 177 243 tabread b-y;
#X obj 197 272 tabread b-s;
#X obj 10 267 loadbang;
#X obj 329 151 + 1;
#X obj 89 122 alpha;
#X obj 269 -70 t f f f f;
#X obj -16 -97 r hid;
#X obj -16 -35 expr if($f1+$f2==2 \, 1 \, 0);
#X obj -16 -8 tgl 15 0 empty empty empty 17 7 0 10 -262144 -1 -1 0
1;
#X obj -16 11 sel 1;
#X msg -16 34 0;
#X obj 89 12 tgl 15 0 empty empty empty 17 7 0 10 -262144 -1 -1 0 1
;
#X msg -19 170 \; b-s const 0 \; b-x const 0 \; b-y const 0 \;;
#X obj 269 -40 sel 1;
#X msg 150 -98 1;
#X obj 140 131 tgl 15 0 empty empty empty 17 7 0 10 -262144 -1 -1 1
1;
#X msg 10 291 draw line;
#X obj 140 110 loadbang;
#X obj 433 145 GEMglPointSize 2;
#X obj 433 113 colorRGB 1 1 0 1;
#X obj 91 329 t a a;
#X obj 91 354 separator;
#X obj 175 371 separator;
#X obj 175 398 circle 0.02;
#X obj 269 -5 t b b b;
#X obj 89 152 repeat 30;
#X obj 217 177 % 30;
#X obj 89 300 spigot;
#X floatatom 251 324 5 0 0 0 - - -, f 5;
#X obj 158 197 t f f f f;
#X obj 236 344 <;
#X obj 251 303 + 1;
#X obj -16 -68 route key_44 key_6;
#X obj 334 -78 route key_6;
#X obj 193 -23 line;
#X obj 193 28 > 0;
#X obj -19 147 sel 0;
#X obj 89 88 colorRGB 0 0 1 0.25;
#X obj 193 4 * 0.7;
#X msg 193 -49 \$1 1000;
#X connect 0 0 78 0;
#X connect 1 0 4 0;
#X connect 1 1 2 0;
#X connect 2 0 3 0;
#X connect 2 0 70 0;
#X connect 3 0 67 0;
#X connect 4 0 5 0;
#X connect 5 0 68 0;
#X connect 10 0 6 0;
#X connect 11 0 74 0;
#X connect 12 0 46 0;
#X connect 13 0 15 0;
#X connect 14 0 15 1;
#X connect 15 0 30 0;
#X connect 15 0 25 1;
#X connect 16 0 17 0;
#X connect 17 0 19 1;
#X connect 17 0 20 1;
#X connect 17 0 39 1;
#X connect 17 0 44 0;
#X connect 17 0 72 0;
#X connect 18 0 17 1;
#X connect 21 0 27 0;
#X connect 22 0 35 0;
#X connect 24 0 38 0;
#X connect 25 0 23 1;
#X connect 25 0 39 0;
#X connect 26 0 25 0;
#X connect 27 0 60 0;
#X connect 27 1 29 0;
#X connect 28 0 31 0;
#X connect 28 1 32 0;
#X connect 29 0 28 0;
#X connect 30 0 22 1;
#X connect 30 0 19 0;
#X connect 30 1 22 2;
#X connect 30 1 20 0;
#X connect 31 0 26 0;
#X connect 32 0 26 1;
#X connect 33 0 34 0;
#X connect 34 0 21 0;
#X connect 35 0 37 0;
#X connect 35 1 23 0;
#X connect 36 0 12 0;
#X connect 38 0 23 0;
#X connect 40 0 5 1;
#X connect 41 0 5 2;
#X connect 42 0 10 1;
#X connect 43 0 57 0;
#X connect 44 0 18 0;
#X connect 45 0 66 0;
#X connect 46 0 54 0;
#X connect 46 1 29 1;
#X connect 46 2 16 0;
#X connect 46 3 21 0;
#X connect 47 0 73 0;
#X connect 48 0 49 0;
#X connect 49 0 50 0;
#X connect 50 0 51 0;
#X connect 51 0 52 0;
#X connect 51 0 17 1;
#X connect 52 0 80 0;
#X connect 54 0 55 0;
#X connect 54 0 65 0;
#X connect 55 0 52 0;
#X connect 56 0 45 1;
#X connect 57 0 6 0;
#X connect 58 0 56 0;
#X connect 59 0 22 0;
#X connect 60 0 59 0;
#X connect 61 0 62 0;
#X connect 61 1 63 0;
#X connect 62 0 10 0;
#X connect 63 0 64 0;
#X connect 65 1 13 0;
#X connect 65 2 14 0;
#X connect 66 0 1 0;
#X connect 67 0 2 1;
#X connect 68 0 61 0;
#X connect 69 0 71 1;
#X connect 70 0 40 0;
#X connect 70 1 41 0;
#X connect 70 2 42 0;
#X connect 70 3 71 0;
#X connect 71 0 68 1;
#X connect 72 0 69 0;
#X connect 73 0 48 0;
#X connect 73 1 48 1;
#X connect 74 0 12 1;
#X connect 75 0 79 0;
#X connect 76 0 0 0;
#X connect 76 0 77 0;
#X connect 77 0 53 0;
#X connect 78 0 45 0;
#X connect 79 0 76 0;
#X connect 79 0 78 4;
#X connect 80 0 75 0;
#X restore 179 124 pd circleline;
#N canvas 797 184 921 629 polygon 0;
#X obj 311 -104 gemhead;
#X obj 307 71 GEMglEnd;
#X obj 378 34 GEMglBegin;
#X obj 330 347 GEMglVertex3f 0 0 0;
#X obj 330 124 t a b;
#X obj 388 158 + 1;
#X obj 311 8 separator;
#X msg 381 8 9;
#X obj 311 -51 t a b;
#X obj 406 -160 + 1;
#X obj 411 -84 tabread gonnum;
#X obj 330 99 repeat 10;
#X obj 416 158 % 10;
#X obj 357 265 t f f;
#X obj 357 293 tabread gonx;
#X obj 384 318 tabread gony;
#X obj 654 -14 r hid;
#X obj 608 -2 spigot;
#X obj 608 -49 r mouse_left;
#X obj 608 39 sel 1;
#X obj 608 64 bng 15 250 50 0 empty empty empty 17 7 0 10 -262144 -1
-1;
#X obj 608 131 f;
#X obj 635 131 + 1;
#X obj 654 54 sel 1;
#X msg 654 95 0;
#X floatatom 608 156 5 0 0 0 - - -, f 5;
#X obj 697 124 f;
#X obj 724 124 + 1;
#X obj 654 73 t b b;
#X obj 712 33 spigot;
#X obj 654 31 t f f f;
#X obj 712 57 sel 1;
#X msg 712 79 0;
#X floatatom 697 147 5 0 0 0 - - -, f 5;
#X floatatom 763 54 5 0 0 0 - - -, f 5;
#X msg 635 223 \; gonx const 0 \; gony const 0 \; gonnum const 0 \;
;
#X obj 608 184 tabwrite gonnum;
#X obj 578 215 + 1;
#X obj 551 215 f 0;
#X floatatom 551 236 5 0 0 0 - - -, f 5;
#X obj 482 203 v gnum;
#X obj 381 -15 loadbang;
#X obj 482 233 + 0;
#X obj 482 260 v gnum;
#N canvas 0 22 450 278 (subpatch) 0;
#X array gonnum 20 float 3;
#A 0 0 0 0 0 0 0 0 0 0 0 0 0 0 0 0 0 0 0 0 0;
#X coords 0 10 20 0 100 50 1 0 0;
#X restore 35 95 graph;
#X floatatom 482 287 5 0 0 0 - - -, f 5;
#X obj 430 34 + 1;
#X floatatom 357 241 5 0 0 0 - - -, f 5;
#X obj 357 158 f 0;
#X obj 551 287 v mouseX;
#X obj 568 315 v mouseY;
#X obj 551 344 tabwrite gonx;
#X obj 568 367 tabwrite gony;
#X obj 551 259 t b b f f;
#N canvas 0 22 450 278 (subpatch) 0;
#X array gonx 200 float 3;
#A 0 0 0 0 0 0 0 0 0 0 0 0 0 0 0 0 0 0 0 0 0 0 0 0 0 0 0 0 0 0 0 0
0 0 0 0 0 0 0 0 0 0 0 0 0 0 0 0 0 0 0 0 0 0 0 0 0 0 0 0 0 0 0 0 0 0
0 0 0 0 0 0 0 0 0 0 0 0 0 0 0 0 0 0 0 0 0 0 0 0 0 0 0 0 0 0 0 0 0 0
0 0 0 0 0 0 0 0 0 0 0 0 0 0 0 0 0 0 0 0 0 0 0 0 0 0 0 0 0 0 0 0 0 0
0 0 0 0 0 0 0 0 0 0 0 0 0 0 0 0 0 0 0 0 0 0 0 0 0 0 0 0 0 0 0 0 0 0
0 0 0 0 0 0 0 0 0 0 0 0 0 0 0 0 0 0 0 0 0 0 0 0 0 0 0 0 0 0 0 0 0;
#X coords 0 8 200 -8 200 50 1 0 0;
#X restore 41 -42 graph;
#N canvas 0 22 450 278 (subpatch) 0;
#X array gony 200 float 3;
#A 0 0 0 0 0 0 0 0 0 0 0 0 0 0 0 0 0 0 0 0 0 0 0 0 0 0 0 0 0 0 0 0
0 0 0 0 0 0 0 0 0 0 0 0 0 0 0 0 0 0 0 0 0 0 0 0 0 0 0 0 0 0 0 0 0 0
0 0 0 0 0 0 0 0 0 0 0 0 0 0 0 0 0 0 0 0 0 0 0 0 0 0 0 0 0 0 0 0 0 0
0 0 0 0 0 0 0 0 0 0 0 0 0 0 0 0 0 0 0 0 0 0 0 0 0 0 0 0 0 0 0 0 0 0
0 0 0 0 0 0 0 0 0 0 0 0 0 0 0 0 0 0 0 0 0 0 0 0 0 0 0 0 0 0 0 0 0 0
0 0 0 0 0 0 0 0 0 0 0 0 0 0 0 0 0 0 0 0 0 0 0 0 0 0 0 0 0 0 0 0 0;
#X coords 0 8 200 -8 200 50 1 0 0;
#X restore 41 26 graph;
#X msg 519 -47 0;
#X obj 519 -25 v gnum;
#X obj 445 5 > 0;
#X obj 411 -58 t b f f;
#X floatatom 418 104 5 0 0 0 - - -, f 5;
#X obj 477 -41 - 1;
#X obj 482 57 tabread gonnum;
#X obj 482 142 + 1;
#X obj 497 113 > 0;
#X obj 482 79 t f f;
#X obj 482 174 t b f;
#X obj 357 219 + 0;
#X obj 477 -16 t f f;
#X obj 515 11 >= 0;
#X obj 482 33 spigot;
#X obj 357 187 t f b;
#X obj 707 179 loadbang;
#X obj 654 9 route key_5 key_44;
#X obj 418 133 t f f f;
#X obj 311 35 t a a b a;
#X obj 387 212 v gnum;
#X obj 418 185 v polynum;
#X obj 381 -160 f 0;
#X obj 431 -160 % 20;
#X obj 311 -76 repeat 20;
#X obj 519 -68 sel 19;
#N canvas 664 377 267 347 color 0;
#X obj 83 113 alpha;
#X obj 83 91 colorRGB 1 1 0 0.5;
#X obj 83 34 inlet;
#X obj 83 159 outlet;
#X obj 130 -123 inlet;
#X obj 128 -29 sel 0 1;
#X msg 147 22 1 0 0 0.5;
#X obj 128 59 unpack f f f f;
#X obj 130 -94 tabread goncolor;
#X msg 128 -3 1 1 1 0.3;
#X connect 0 0 3 0;
#X connect 1 0 0 0;
#X connect 2 0 1 0;
#X connect 4 0 8 0;
#X connect 5 0 9 0;
#X connect 5 1 6 0;
#X connect 6 0 7 0;
#X connect 7 0 1 1;
#X connect 7 1 1 2;
#X connect 7 2 1 3;
#X connect 7 3 1 4;
#X connect 8 0 5 0;
#X connect 9 0 7 0;
#X restore 311 -22 pd color;
#X obj 382 -128 t f f f f;
#N canvas 0 22 450 278 (subpatch) 0;
#X array goncolor 200 float 3;
#A 0 0 0 0 0 0 0 0 0 0 0 0 0 0 0 0 0 0 0 0 0 0 0 0 0 0 0 0 0 0 0 0
0 0 0 0 0 0 0 0 0 0 0 0 0 0 0 0 0 0 0 0 0 0 0 0 0 0 0 0 0 0 0 0 0 0
0 0 0 0 0 0 0 0 0 0 0 0 0 0 0 0 0 0 0 0 0 0 0 0 0 0 0 0 0 0 0 0 0 0
0 0 0 0 0 0 0 0 0 0 0 0 0 0 0 0 0 0 0 0 0 0 0 0 0 0 0 0 0 0 0 0 0 0
0 0 0 0 0 0 0 0 0 0 0 0 0 0 0 0 0 0 0 0 0 0 0 0 0 0 0 0 0 0 0 0 0 0
0 0 0 0 0 0 0 0 0 0 0 0 0 0 0 0 0 0 0 0 0 0 0 0 0 0 0 0 0 0 0 0 0;
#X coords 0 8 200 -8 200 50 1 0 0;
#X restore 36 -115 graph;
#X obj 750 148 s open-collision;
#X obj 778 90 loadbang;
#X obj 311 -188 r open-collision;
#X obj 311 -163 >= 0;
#X obj -3 173 poly-c 0;
#X obj -4 253 poly-c 3;
#X obj 0 225 poly-c 2;
#X obj -2 201 poly-c 1;
#X obj -3 280 poly-c 4;
#X obj -1 304 poly-c 5;
#X obj 60 173 poly-c 6;
#X obj 61 200 poly-c 7;
#X obj 63 224 poly-c 8;
#X obj 59 252 poly-c 9;
#X obj 60 279 poly-c 10;
#X obj 62 303 poly-c 11;
#X obj 128 173 poly-c 12;
#X obj 129 200 poly-c 13;
#X obj 131 224 poly-c 14;
#X obj 127 252 poly-c 15;
#X obj 128 279 poly-c 16;
#X obj 130 303 poly-c 17;
#X obj 199 177 poly-c 18;
#X obj 201 201 poly-c 19;
#X msg 778 112 -1;
#X connect 0 0 80 0;
#X connect 4 0 3 0;
#X connect 4 1 48 0;
#X connect 5 0 12 0;
#X connect 6 0 75 0;
#X connect 7 0 2 1;
#X connect 8 0 82 0;
#X connect 8 1 78 0;
#X connect 9 0 79 0;
#X connect 10 0 59 0;
#X connect 11 0 4 0;
#X connect 12 0 48 1;
#X connect 13 0 14 0;
#X connect 13 1 15 0;
#X connect 14 0 3 1;
#X connect 15 0 3 2;
#X connect 16 0 73 0;
#X connect 17 0 19 0;
#X connect 18 0 17 0;
#X connect 19 0 20 0;
#X connect 20 0 21 0;
#X connect 20 0 38 0;
#X connect 21 0 22 0;
#X connect 21 0 25 0;
#X connect 22 0 21 1;
#X connect 23 0 28 0;
#X connect 24 0 21 1;
#X connect 25 0 36 0;
#X connect 26 0 27 0;
#X connect 26 0 33 0;
#X connect 27 0 26 1;
#X connect 28 0 24 0;
#X connect 28 1 26 0;
#X connect 29 0 31 0;
#X connect 30 0 23 0;
#X connect 30 1 17 1;
#X connect 30 2 29 1;
#X connect 31 0 32 0;
#X connect 31 0 35 0;
#X connect 32 0 26 1;
#X connect 32 0 38 1;
#X connect 33 0 36 1;
#X connect 33 0 85 0;
#X connect 37 0 38 1;
#X connect 38 0 37 0;
#X connect 38 0 39 0;
#X connect 39 0 53 0;
#X connect 40 0 42 0;
#X connect 41 0 7 0;
#X connect 42 0 43 0;
#X connect 43 0 45 0;
#X connect 46 0 60 0;
#X connect 47 0 13 0;
#X connect 48 0 5 0;
#X connect 48 0 71 0;
#X connect 49 0 51 0;
#X connect 50 0 52 0;
#X connect 53 0 49 0;
#X connect 53 1 50 0;
#X connect 53 2 51 1;
#X connect 53 3 52 1;
#X connect 56 0 57 0;
#X connect 58 0 46 1;
#X connect 59 1 46 0;
#X connect 59 2 58 0;
#X connect 60 0 11 1;
#X connect 60 0 74 0;
#X connect 61 0 68 0;
#X connect 62 0 65 0;
#X connect 63 0 66 0;
#X connect 64 0 63 1;
#X connect 65 0 63 0;
#X connect 65 1 64 0;
#X connect 66 0 40 0;
#X connect 66 1 42 1;
#X connect 67 0 47 0;
#X connect 68 0 70 0;
#X connect 68 1 69 0;
#X connect 69 0 70 1;
#X connect 70 0 62 0;
#X connect 71 0 67 0;
#X connect 71 1 76 0;
#X connect 72 0 35 0;
#X connect 73 0 30 0;
#X connect 73 1 29 0;
#X connect 73 1 34 0;
#X connect 74 0 11 1;
#X connect 74 1 12 1;
#X connect 74 2 77 0;
#X connect 75 0 1 0;
#X connect 75 1 11 0;
#X connect 75 3 2 0;
#X connect 76 0 67 1;
#X connect 78 0 9 0;
#X connect 78 0 83 0;
#X connect 79 0 78 1;
#X connect 80 0 8 0;
#X connect 81 0 56 0;
#X connect 82 0 6 0;
#X connect 83 0 82 1;
#X connect 83 1 61 0;
#X connect 83 2 10 0;
#X connect 83 3 81 0;
#X connect 86 0 109 0;
#X connect 87 0 88 0;
#X connect 88 0 0 0;
#X connect 109 0 85 0;
#X restore 181 74 pd polygon;
#N canvas 177 23 1219 763 gui-krog- 0;
#X obj 109 225 alpha;
#X obj 115 161 pix_texture;
#X obj 111 76 gemhead 3999;
#X obj 322 219 alpha;
#X obj 324 170 pix_texture;
#X obj 320 85 gemhead 3999;
#X obj 506 222 alpha;
#X obj 506 171 pix_texture;
#X obj 502 86 gemhead 3999;
#X obj 686 199 alpha;
#X obj 683 149 pix_texture;
#X obj 679 64 gemhead 3999;
#X obj 677 257 square 0.35;
#X obj 502 265 square 0.35;
#X obj 316 272 square 0.35;
#X obj 113 484 rotateXYZ 0 0 0;
#X floatatom 241 454 5 0 0 0 - - -, f 5;
#X obj 112 523 translateXYZ 0 0.15 0;
#X obj 237 313 k_range 0 127 150 -150;
#X obj 915 703 s net;
#X msg 700 379 send /ctl16 \$1;
#X obj 911 655 packOSC;
#X obj 996 376 s bg-alpha;
#X obj 995 347 / 127;
#X msg 922 555 send /ctl17 \$1;
#X msg 863 405 send /ctl18 \$1;
#X msg 926 429 send /ctl19 \$1;
#X obj 302 503 rotateXYZ 0 0 0;
#X floatatom 377 474 5 0 0 0 - - -, f 5;
#X obj 302 536 translateXYZ 0 0.15 0;
#X obj 479 476 rotateXYZ 0 0 0;
#X floatatom 568 358 5 0 0 0 - - -, f 5;
#X obj 475 520 translateXYZ 0 0.15 0;
#X obj 660 540 rotateXYZ 0 0 0;
#X floatatom 832 583 5 0 0 0 - - -, f 5;
#X obj 661 567 translateXYZ 0 0.15 0;
#X obj 393 313 k_range 0 127 150 -150;
#X obj 564 288 k_range 0 127 150 -150;
#X obj 830 502 k_range 0 127 150 -150;
#X obj 108 285 square 0.35;
#X obj 110 352 gemhead 3995;
#X obj 294 345 gemhead 3995;
#X obj 481 356 gemhead 3995;
#X obj 616 415 gemhead 3995;
#X msg 829 526 \$1 200;
#X obj 832 555 line;
#X msg 564 311 \$1 200;
#X obj 566 334 line;
#X msg 367 403 \$1 200;
#X obj 370 423 line;
#X msg 238 358 \$1 200;
#X obj 238 385 line;
#X obj 934 211 r netbang;
#X msg 934 266 63;
#X msg 986 279 0;
#X obj 691 342 f;
#X obj 752 344 f;
#X obj 863 345 f;
#X obj 928 376 f;
#X obj 201 -41 t b b;
#X msg 201 9 0;
#X msg 231 14 1;
#X msg 231 38 \$1 1000;
#X obj 232 61 line;
#X obj 201 -16 del 500;
#X obj 382 -34 t b b;
#X msg 382 16 0;
#X msg 412 21 1;
#X msg 412 45 \$1 1000;
#X obj 413 68 line;
#X obj 382 -9 del 500;
#X obj 565 -31 t b b;
#X msg 565 19 0;
#X msg 595 24 1;
#X msg 595 48 \$1 1000;
#X obj 596 71 line;
#X obj 565 -6 del 500;
#X obj 847 1 t b b;
#X msg 847 51 0;
#X msg 862 83 1;
#X msg 862 107 \$1 1000;
#X obj 863 130 line;
#X obj 847 26 del 500;
#X obj 111 198 colorRGB 1 1 1 0;
#X obj 321 197 colorRGB 1 1 1 0;
#X obj 508 195 colorRGB 1 1 1 0;
#X obj 688 172 colorRGB 1 1 1 0;
#X obj 643 445 colorRGB 1 1 0 0;
#X obj 480 392 colorRGB 1 1 0 0;
#X obj 292 370 colorRGB 1 1 0 0;
#X obj 108 379 colorRGB 1 1 0 0;
#X obj 298 420 alpha 1;
#X obj 108 405 alpha 1;
#X obj 482 416 alpha 1;
#X obj 639 472 alpha 1;
#X obj 952 469 s tochbg;
#X floatatom 1057 538 5 0 0 0 - - -, f 5;
#X msg 1060 567 send /ctl23 \$1;
#X obj 1019 596 s tochbgblack;
#X obj 112 545 scale 1.5;
#X obj 109 250 scale 1.5;
#X obj 303 566 scale 1.5;
#X obj 320 243 scale 1.5;
#X obj 114 99 translateXYZ -3 -2.8 0;
#X obj 109 429 translateXYZ -3 -2.8 0;
#X obj 323 108 translateXYZ -1.5 -2.8 0;
#X obj 298 447 translateXYZ -1.5 -2.8 0;
#X obj 642 498 translateXYZ 3 -2.8 0;
#X obj 484 444 translateXYZ 1.5 -2.8 0;
#X obj 506 243 scale 1.5;
#X obj 683 223 scale 1.5;
#X obj 476 556 scale 1.5;
#X obj 658 599 scale 1.5;
#X obj 505 109 translateXYZ 1.5 -2.8 0;
#X obj 682 86 translateXYZ 3 -2.8 0;
#X obj 111 577 rectangle 0.015 0.15;
#X obj 300 596 rectangle 0.015 0.15;
#X obj 470 593 rectangle 0.015 0.15;
#X obj 657 625 rectangle 0.015 0.15;
#X obj 683 122 pix_image ../img/knobw.png;
#X obj 505 144 pix_image ../img/knobw.png;
#X obj 324 143 pix_image ../img/knobw.png;
#X obj 115 134 pix_image ../img/knobw.png;
#X obj 964 85 r ctlin;
#X msg 966 111 \$2 \$1;
#X floatatom 973 153 5 0 0 0 - - -, f 5;
#X obj 966 133 route 0 19 18 23 16 17;
#X connect 0 0 100 0;
#X connect 1 0 83 0;
#X connect 2 0 103 0;
#X connect 3 0 102 0;
#X connect 4 0 84 0;
#X connect 5 0 105 0;
#X connect 6 0 109 0;
#X connect 7 0 85 0;
#X connect 8 0 113 0;
#X connect 9 0 110 0;
#X connect 10 0 86 0;
#X connect 11 0 114 0;
#X connect 15 0 17 0;
#X connect 16 0 15 3;
#X connect 17 0 99 0;
#X connect 18 0 50 0;
#X connect 18 0 59 0;
#X connect 20 0 21 0;
#X connect 23 0 22 0;
#X connect 24 0 21 0;
#X connect 25 0 21 0;
#X connect 26 0 21 0;
#X connect 27 0 29 0;
#X connect 28 0 27 3;
#X connect 29 0 101 0;
#X connect 30 0 32 0;
#X connect 31 0 30 3;
#X connect 32 0 111 0;
#X connect 33 0 35 0;
#X connect 34 0 33 3;
#X connect 35 0 112 0;
#X connect 36 0 48 0;
#X connect 36 0 65 0;
#X connect 37 0 46 0;
#X connect 37 0 71 0;
#X connect 38 0 44 0;
#X connect 38 0 77 0;
#X connect 40 0 90 0;
#X connect 41 0 89 0;
#X connect 42 0 88 0;
#X connect 43 0 87 0;
#X connect 44 0 45 0;
#X connect 45 0 34 0;
#X connect 46 0 47 0;
#X connect 47 0 31 0;
#X connect 48 0 49 0;
#X connect 49 0 28 0;
#X connect 50 0 51 0;
#X connect 51 0 16 0;
#X connect 52 0 53 0;
#X connect 52 0 54 0;
#X connect 53 0 55 0;
#X connect 53 0 56 0;
#X connect 53 0 57 0;
#X connect 53 0 58 0;
#X connect 54 0 23 0;
#X connect 55 0 20 0;
#X connect 55 0 18 0;
#X connect 55 0 95 0;
#X connect 56 0 24 0;
#X connect 56 0 36 0;
#X connect 56 0 95 0;
#X connect 57 0 25 0;
#X connect 57 0 37 0;
#X connect 57 0 95 0;
#X connect 58 0 26 0;
#X connect 58 0 38 0;
#X connect 58 0 95 0;
#X connect 59 0 64 0;
#X connect 59 1 61 0;
#X connect 60 0 62 0;
#X connect 61 0 62 0;
#X connect 62 0 63 0;
#X connect 63 0 83 4;
#X connect 63 0 90 4;
#X connect 64 0 60 0;
#X connect 65 0 70 0;
#X connect 65 1 67 0;
#X connect 66 0 68 0;
#X connect 67 0 68 0;
#X connect 68 0 69 0;
#X connect 69 0 89 4;
#X connect 69 0 84 4;
#X connect 70 0 66 0;
#X connect 71 0 76 0;
#X connect 71 1 73 0;
#X connect 72 0 74 0;
#X connect 73 0 74 0;
#X connect 74 0 75 0;
#X connect 75 0 85 4;
#X connect 75 0 88 4;
#X connect 76 0 72 0;
#X connect 77 0 82 0;
#X connect 77 1 79 0;
#X connect 78 0 80 0;
#X connect 79 0 80 0;
#X connect 80 0 81 0;
#X connect 81 0 86 4;
#X connect 81 0 87 4;
#X connect 82 0 78 0;
#X connect 83 0 0 0;
#X connect 84 0 3 0;
#X connect 85 0 6 0;
#X connect 86 0 9 0;
#X connect 87 0 94 0;
#X connect 88 0 93 0;
#X connect 89 0 91 0;
#X connect 90 0 92 0;
#X connect 91 0 106 0;
#X connect 92 0 104 0;
#X connect 93 0 108 0;
#X connect 94 0 107 0;
#X connect 96 0 97 0;
#X connect 96 0 98 0;
#X connect 97 0 21 0;
#X connect 99 0 115 0;
#X connect 100 0 39 0;
#X connect 101 0 116 0;
#X connect 102 0 14 0;
#X connect 103 0 122 0;
#X connect 104 0 15 0;
#X connect 105 0 121 0;
#X connect 106 0 27 0;
#X connect 107 0 33 0;
#X connect 108 0 30 0;
#X connect 109 0 13 0;
#X connect 110 0 12 0;
#X connect 111 0 117 0;
#X connect 112 0 118 0;
#X connect 113 0 120 0;
#X connect 114 0 119 0;
#X connect 119 0 10 0;
#X connect 120 0 7 0;
#X connect 121 0 4 0;
#X connect 122 0 1 0;
#X connect 123 0 124 0;
#X connect 124 0 126 0;
#X connect 125 0 23 0;
#X connect 126 0 125 0;
#X connect 126 1 58 0;
#X connect 126 2 57 0;
#X connect 126 3 96 0;
#X connect 126 4 55 0;
#X connect 126 5 56 0;
#X restore 180 24 pd gui-krog-;
#N canvas 105 30 1129 723 gui-center 0;
#X obj 156 71 r mouse_pos;
#X obj 108 288 translateXYZ;
#X obj 131 260 unpack f f f;
#X obj 304 14 sel 1 2 3;
#X obj 108 176 alpha;
#X obj 108 205 t a a;
#X obj 108 232 separator;
#X obj 348 123 separator;
#X obj 348 296 curve 2;
#X obj 368 253 list 0;
#X obj 227 235 loadbang;
#X obj 348 196 GEMglPointSize 4;
#X msg 227 259 draw point \, res 10;
#X obj 304 40 v display1;
#X obj 316 63 v display2;
#X obj 330 85 v display3;
#X obj 108 86 *;
#X floatatom 314 108 5 0 0 0 - - -, f 5;
#X obj 156 98 spigot;
#X obj 176 208 tgl 15 0 empty empty empty 17 7 0 10 -262144 -1 -1 1
1;
#X obj 177 184 loadbang;
#X obj 108 148 gemhead 3000;
#X obj 54 40 loadbang;
#X msg 54 61 0;
#X obj 669 166 v cx-1;
#X obj 669 188 pack f f 0;
#X obj 669 119 metro 50;
#X obj 669 139 t b b;
#X obj 719 140 v cy-1;
#X obj 477 130 pack f f 0;
#X obj 477 61 metro 50;
#X obj 477 81 t b b;
#X obj 572 194 pack f f 0;
#X obj 572 125 metro 50;
#X obj 572 145 t b b;
#X obj 572 172 v cx-3;
#X obj 622 146 v cy-3;
#X obj 180 390 v cy-2;
#X obj 477 108 v cx-2;
#X obj 669 93 tgl 15 0 empty empty empty 17 7 0 10 -262144 -1 -1 0
1;
#X obj 477 40 tgl 15 0 empty empty empty 17 7 0 10 -262144 -1 -1 0
1;
#X obj 572 107 tgl 15 0 empty empty empty 17 7 0 10 -262144 -1 -1 0
1;
#X obj 304 -10 r gui-id;
#X obj 572 83 r gui-3;
#X obj 477 12 r gui-2;
#X obj 669 68 r gui-1;
#X obj 108 46 expr if($f1+$f2+$f3>=1 \, 1 \, 0);
#X obj 252 0 r gui-3;
#X obj 166 1 r gui-2;
#X obj 108 1 r gui-1;
#X obj 166 24 t b f;
#X obj 252 23 t b f;
#X obj 108 119 tgl 15 0 empty empty empty 17 7 0 10 -262144 -1 -1 0
1;
#X obj 348 166 colorRGB 1 1 1 0.7;
#X obj 368 225 t a a;
#X obj 469 243 unpack f f;
#X obj 591 260 unpack f f;
#X obj 469 286 expr ($f1-$f2);
#X obj 567 289 expr ($f1-$f2);
#X obj 468 314 expr atan2($f1 \, $f2)*180/3.1415926;
#X floatatom 468 337 5 0 0 0 - - -, f 5;
#X obj 380 400 gemhead;
#X obj 468 383 - 90;
#X obj 222 308 loadbang;
#X obj 202 401 gemhead;
#X obj 572 221 t a a a;
#X obj 286 400 gemhead;
#X obj 286 501 curve 2;
#N canvas 229 294 450 300 center 0;
#X obj 115 57 inlet;
#X obj 265 57 inlet;
#X obj 113 96 unpack f f f;
#X obj 269 92 unpack f f f;
#X obj 109 146 expr ($f1+$f2)/2;
#X obj 140 173 expr ($f1+$f2)/2;
#X obj 180 200 expr ($f1+$f2)/2;
#X obj 91 237 outlet;
#X obj 135 236 outlet;
#X obj 182 239 outlet;
#X connect 0 0 2 0;
#X connect 1 0 3 0;
#X connect 2 0 4 0;
#X connect 2 1 5 0;
#X connect 2 2 6 0;
#X connect 3 0 4 1;
#X connect 3 1 5 1;
#X connect 3 2 6 1;
#X connect 4 0 7 0;
#X connect 5 0 8 0;
#X connect 6 0 9 0;
#X restore -22 302 pd center;
#X obj -45 327 translateXYZ;
#X obj 15 413 loadbang;
#X floatatom 42 348 5 0 0 0 - - -, f 5;
#X obj -45 373 rotateXYZ 0 0 0;
#X obj -45 398 text3d;
#X obj 236 566 distance_n;
#X msg 222 331 0.6;
#X obj 797 172 expr if($f1+$f2==2 \, 1 \, 0);
#X obj 944 112 r hid;
#X obj 944 144 route key_25;
#X obj 215 427 r stratPos;
#X obj 717 280 r mouse_pos;
#X obj 717 327 list 0;
#X obj 717 361 unpack f f;
#X obj 839 378 unpack f f;
#X obj 717 404 expr ($f1-$f2);
#X obj 815 407 expr ($f1-$f2);
#X obj 716 432 expr atan2($f1 \, $f2)*180/3.1415926;
#X floatatom 716 455 5 0 0 0 - - -, f 5;
#X obj 716 478 - 90;
#X obj 839 355 r stratPos;
#X obj 468 405 s drawan;
#X obj 716 504 s drawan;
#X obj 421 426 r drawan;
#X obj 797 201 s drawl;
#X obj 54 85 s drawl;
#X obj -45 248 r drawl;
#X obj 202 379 r drawl;
#X obj 286 375 r drawl;
#X obj 380 375 r drawl;
#N canvas 712 487 450 300 circle 0;
#X obj 103 111 inlet;
#X obj 103 156 pix_texture;
#X obj 103 195 circle 0.3;
#X obj 103 132 pix_image ../img/mouse.png;
#X connect 0 0 3 0;
#X connect 1 0 2 0;
#X connect 3 0 1 0;
#X restore 108 310 pd circle;
#X obj 901 76 r gui-3;
#X obj 890 54 r gui-2;
#X obj 877 32 r gui-1;
#X obj 564 342 r hid;
#X obj 564 374 route key_25;
#X obj 564 396 invert;
#X obj 468 358 spigot;
#X obj 509 336 tgl 15 0 empty empty empty 17 7 0 10 -262144 -1 -1 1
1;
#X obj 561 422 loadbang;
#X msg 561 447 1;
#X obj 816 234 r hid;
#X obj 816 257 route key_25;
#X obj 717 304 spigot;
#X obj 579 497 gemhead;
#X obj 579 538 translateXYZ;
#X obj 627 509 unpack f f f;
#X obj 579 565 rotateXYZ 0 0 0;
#X obj 681 542 - 180;
#X obj 579 682 triangle 0.2;
#X obj 579 589 colorRGB 1 1 1 0.5;
#X obj 579 615 alpha;
#X obj 704 589 loadbang;
#X msg 705 608 1;
#X obj 579 636 t a b;
#X obj 620 636 f;
#X obj 647 636 + 0.01;
#X obj 691 636 fmod 0.1;
#X obj 620 658 + 0.15;
#X obj 598 461 r showcircle;
#X obj 636 412 loadbang;
#X msg 636 433 0;
#X obj 797 148 r mouse_right;
#X obj 751 68 r mouse_left;
#X obj 852 99 invert;
#X obj 754 101 spigot;
#X msg 15 436 3;
#X obj 879 643 s net;
#X obj 879 614 packOSC;
#X msg 894 591 send /radius \$1;
#X floatatom 236 587 5 0 0 0 - - -, f 5;
#X obj 830 461 r drawl;
#X obj 930 396 r hid;
#X obj 930 428 route key_25;
#X obj 930 458 tgl 15 0 empty empty empty 17 7 0 10 -262144 -1 -1 0
1;
#X obj 818 505 gate 2;
#X obj 930 482 + 1;
#X floatatom 928 505 5 0 0 0 - - -, f 5;
#X msg 828 562 send /release \$1;
#X floatatom 808 532 5 0 0 0 - - -, f 5;
#X floatatom 856 528 5 0 0 0 - - -, f 5;
#X obj 975 480 loadbang;
#X msg 978 503 1;
#X obj 202 471 k_aLine_1;
#X obj 204 497 circle 0.05;
#X obj 383 498 circle 0.05;
#X obj -45 274 gemhead;
#X obj 236 606 expr int($f1*10)/10;
#X obj 383 474 k_aLine_1;
#X obj 236 628 t f f;
#X obj 466 474 loadbang;
#X msg 466 497 0.3;
#X obj 337 564 k_aLine_2;
#X obj 450 567 k_aLine_2;
#X obj 350 533 r stratPos;
#X msg 6 544 text L : [\$1];
#X obj 10 501 r fonttype;
#X connect 0 0 18 0;
#X connect 1 0 99 0;
#X connect 2 0 1 1;
#X connect 2 1 1 2;
#X connect 2 2 1 3;
#X connect 3 0 13 0;
#X connect 3 1 14 0;
#X connect 3 2 15 0;
#X connect 4 0 5 0;
#X connect 5 0 6 0;
#X connect 5 1 7 0;
#X connect 6 0 1 0;
#X connect 7 0 53 0;
#X connect 9 0 8 1;
#X connect 9 0 157 1;
#X connect 9 0 162 1;
#X connect 10 0 12 0;
#X connect 11 0 8 0;
#X connect 12 0 8 0;
#X connect 13 0 17 0;
#X connect 14 0 17 0;
#X connect 15 0 17 0;
#X connect 16 0 52 0;
#X connect 17 0 16 1;
#X connect 17 0 18 1;
#X connect 18 0 2 0;
#X connect 18 0 54 0;
#X connect 19 0 4 1;
#X connect 20 0 19 0;
#X connect 21 0 4 0;
#X connect 22 0 23 0;
#X connect 23 0 52 0;
#X connect 23 0 94 0;
#X connect 24 0 25 0;
#X connect 25 0 65 0;
#X connect 26 0 27 0;
#X connect 27 0 24 0;
#X connect 27 1 28 0;
#X connect 28 0 25 1;
#X connect 29 0 65 0;
#X connect 30 0 31 0;
#X connect 31 0 38 0;
#X connect 31 1 37 0;
#X connect 32 0 65 0;
#X connect 33 0 34 0;
#X connect 34 0 35 0;
#X connect 34 1 36 0;
#X connect 35 0 32 0;
#X connect 36 0 32 1;
#X connect 37 0 29 1;
#X connect 38 0 29 0;
#X connect 39 0 26 0;
#X connect 40 0 30 0;
#X connect 41 0 33 0;
#X connect 42 0 3 0;
#X connect 43 0 41 0;
#X connect 44 0 40 0;
#X connect 45 0 39 0;
#X connect 46 0 16 0;
#X connect 47 0 51 0;
#X connect 48 0 50 0;
#X connect 49 0 46 0;
#X connect 50 0 46 0;
#X connect 50 1 46 1;
#X connect 51 0 46 0;
#X connect 51 1 46 2;
#X connect 52 0 21 0;
#X connect 53 0 11 0;
#X connect 54 0 9 0;
#X connect 54 1 55 0;
#X connect 55 0 57 0;
#X connect 55 1 58 0;
#X connect 56 0 57 1;
#X connect 56 1 58 1;
#X connect 57 0 59 1;
#X connect 58 0 59 0;
#X connect 59 0 60 0;
#X connect 60 0 106 0;
#X connect 61 0 157 0;
#X connect 61 0 162 0;
#X connect 62 0 90 0;
#X connect 63 0 75 0;
#X connect 64 0 152 0;
#X connect 64 0 161 0;
#X connect 65 0 8 2;
#X connect 65 1 56 0;
#X connect 65 2 152 1;
#X connect 65 2 161 1;
#X connect 66 0 67 0;
#X connect 68 0 69 1;
#X connect 68 1 69 2;
#X connect 68 2 69 3;
#X connect 69 0 72 0;
#X connect 70 0 135 0;
#X connect 71 0 72 3;
#X connect 72 0 73 0;
#X connect 74 0 139 0;
#X connect 75 0 152 2;
#X connect 75 0 157 2;
#X connect 76 0 93 0;
#X connect 77 0 78 0;
#X connect 78 0 76 1;
#X connect 79 0 152 1;
#X connect 80 0 112 0;
#X connect 81 0 82 0;
#X connect 81 0 115 0;
#X connect 81 0 157 1;
#X connect 81 0 162 1;
#X connect 82 0 84 0;
#X connect 82 1 85 0;
#X connect 83 0 84 1;
#X connect 83 1 85 1;
#X connect 84 0 86 1;
#X connect 85 0 86 0;
#X connect 86 0 87 0;
#X connect 87 0 88 0;
#X connect 87 0 71 0;
#X connect 87 0 117 0;
#X connect 88 0 91 0;
#X connect 89 0 83 0;
#X connect 92 0 152 3;
#X connect 92 0 157 3;
#X connect 92 0 161 3;
#X connect 92 0 162 3;
#X connect 95 0 155 0;
#X connect 96 0 64 0;
#X connect 97 0 66 0;
#X connect 98 0 61 0;
#X connect 100 0 76 1;
#X connect 100 0 133 0;
#X connect 101 0 76 1;
#X connect 101 0 133 0;
#X connect 102 0 76 1;
#X connect 102 0 133 0;
#X connect 103 0 104 0;
#X connect 104 0 105 0;
#X connect 105 0 107 0;
#X connect 106 0 62 0;
#X connect 106 0 71 0;
#X connect 107 0 106 1;
#X connect 108 0 109 0;
#X connect 109 0 107 0;
#X connect 110 0 111 0;
#X connect 111 0 112 1;
#X connect 112 0 81 0;
#X connect 113 0 114 0;
#X connect 114 0 116 0;
#X connect 115 0 114 1;
#X connect 115 1 114 2;
#X connect 115 2 114 3;
#X connect 116 0 119 0;
#X connect 117 0 116 3;
#X connect 119 0 120 0;
#X connect 120 0 123 0;
#X connect 121 0 122 0;
#X connect 122 0 120 1;
#X connect 123 1 124 0;
#X connect 124 0 125 0;
#X connect 124 0 127 0;
#X connect 125 0 126 0;
#X connect 126 0 124 1;
#X connect 127 0 118 1;
#X connect 128 0 113 0;
#X connect 129 0 130 0;
#X connect 130 0 113 0;
#X connect 131 0 76 0;
#X connect 132 0 134 0;
#X connect 133 0 134 1;
#X connect 134 0 76 0;
#X connect 135 0 73 1;
#X connect 137 0 136 0;
#X connect 138 0 137 0;
#X connect 139 0 156 0;
#X connect 140 0 144 1;
#X connect 141 0 142 0;
#X connect 142 0 143 0;
#X connect 143 0 145 0;
#X connect 144 0 148 0;
#X connect 144 1 149 0;
#X connect 145 0 146 0;
#X connect 146 0 144 0;
#X connect 147 0 137 0;
#X connect 148 0 147 0;
#X connect 150 0 151 0;
#X connect 151 0 146 0;
#X connect 152 0 153 0;
#X connect 152 1 67 1;
#X connect 152 1 74 0;
#X connect 155 0 69 0;
#X connect 156 0 158 0;
#X connect 157 0 154 0;
#X connect 157 1 67 2;
#X connect 157 1 74 1;
#X connect 158 0 164 0;
#X connect 158 1 138 0;
#X connect 159 0 160 0;
#X connect 160 0 161 2;
#X connect 160 0 162 2;
#X connect 161 0 68 0;
#X connect 162 0 68 1;
#X connect 163 0 161 1;
#X connect 164 0 73 0;
#X connect 165 0 73 0;
#X restore 181 151 pd gui-center;
#N canvas 821 89 619 705 gui-cursor 0;
#X restore 182 177 pd gui-cursor;
#N canvas 134 43 1295 721 gui-shack-drag 1;
#X obj -18 440 circle 0.2;
#X obj 113 237 r mouse_pos;
#X obj -18 335 translateXYZ;
#X obj 5 307 unpack f f f;
#X obj -18 227 alpha;
#X obj -18 362 t a a;
#X obj 24 407 circle 0.3;
#X msg 24 386 draw line \, width 3;
#X obj 24 364 loadbang;
#X obj -18 256 t a a;
#X obj -18 283 separator;
#X obj 148 353 separator;
#X obj 148 435 curve 2;
#X obj 167 407 list 0;
#X obj 121 305 loadbang;
#X obj 148 378 GEMglPointSize 4;
#X msg 121 329 draw point \, res 10;
#X obj -18 91 *;
#X obj 50 259 tgl 15 0 empty empty empty 17 7 0 10 -262144 -1 -1 1
1;
#X obj 50 235 loadbang;
#X obj -18 203 colorRGB 1 1 1 0.7;
#X obj -18 167 gemhead 3000;
#X obj 46 -5 loadbang;
#X msg 46 16 0;
#X obj -18 138 tgl 15 0 empty empty empty 17 7 0 10 -262144 -1 -1 0
1;
#X obj 16 97 v show-deformed;
#X obj -18 9 r hid;
#X obj -18 68 t f b;
#X obj 189 237 r redball;
#X obj 189 268 list 0;
#X obj 67 126 sel 1;
#X obj 118 92 sel 1;
#X msg 67 151 1 0 0 0.7;
#X msg 118 116 0 0 1 0.7;
#X obj 67 176 unpack f f f f;
#X obj -18 37 route key_9 key_10 key_33;
#X obj 161 153 sel 1;
#X msg 161 178 1 1 1 0.7;
#X obj 311 240 t a b;
#X obj 469 120 t f f;
#X obj 469 148 -;
#X obj 523 100 t f f;
#X obj 524 125 -;
#X obj 469 70 t b b;
#X obj 469 170 expr if(abs($f1)>0.3 \, 1 \, 0);
#X obj 524 149 expr if(abs($f1)>0.1 \, 2 \, 0);
#X obj 469 193 sel 1 2;
#X obj 488 244 loadbang;
#X floatatom 492 347 5 0 0 0 - - -, f 5;
#X obj 311 268 spigot;
#X msg 488 267 text [ Less - ];
#X obj 492 314 route key_9 key_10;
#X obj 311 351 translateXYZ;
#X obj 334 323 unpack f f f;
#X obj 311 208 gemhead;
#X obj 523 77 v mouseY;
#X obj 469 99 v mouseX;
#X msg 469 221 text [ More + ];
#X obj 311 412 text2d;
#X obj 311 382 translateXYZ 0.35 -0.1 0;
#X obj 311 293 color 1 1 1;
#X obj 710 159 r W_H;
#X obj 710 184 unpack f f;
#X obj 710 207 /;
#X floatatom 710 275 5 0 0 0 - - -, f 5;
#X floatatom 710 227 5 0 0 0 - - -, f 5;
#X floatatom 749 276 5 0 0 0 - - -, f 5;
#X obj 492 290 r hid;
#X floatatom 580 -164 5 0 0 0 - - -, f 5;
#X obj 580 -227 r hid;
#X obj 580 -141 change;
#X obj 601 42 line;
#X obj 581 -109 sel 0 1;
#X obj 650 88 hsl 30 15 0 1 0 0 empty empty empty -2 -8 0 10 -262144
-1 -1 49 1;
#X floatatom 647 64 5 0 0 0 - - -, f 5;
#X msg 606 -31 0 \, 1 1000;
#X msg 630 -1 1 \, 0 1000;
#X obj 647 37 inoutbounce;
#X obj 987 78 scale 1;
#X obj 836 85 scale 1;
#X obj 843 -38 gemhead 4000;
#X obj 961 -80 gemhead 4000;
#X obj 987 56 translateXYZ 0 0 0;
#X obj 836 63 translateXYZ 0 0 0;
#X obj 843 -67 > 0.01;
#X obj 922 -122 loadbang;
#X msg 922 -101 0;
#X obj 961 -54 t a b;
#X obj 1065 87 f;
#X obj 1092 87 + 0.1;
#X obj 1129 87 fmod 1;
#X obj 987 106 scale 1;
#X obj 836 117 scale 1;
#X obj 1064 111 expr 2*abs($f1-0.5)*0.2+1;
#X obj 710 249 * -4;
#X obj 749 251 * 4;
#X obj 710 302 + 1;
#X obj 749 303 - 1;
#X obj 843 -12 colorRGB 1 1 1 1;
#X obj 955 -15 colorRGB 1 1 1 1;
#X obj 834 28 alpha;
#X obj 971 21 alpha;
#X obj 921 293 square 0.16;
#X obj 1059 303 square 0.16;
#X obj 859 -104 tgl 15 0 empty empty empty 17 7 0 10 -262144 -1 -1
1 1;
#X obj 918 266 pix_texture;
#X obj 1054 265 pix_texture;
#X obj 842 158 gate 2;
#X obj 1026 160 gate 2;
#X obj 688 394 change;
#X obj 835 287 square 0.16;
#X obj 832 260 pix_texture;
#X obj 1166 299 square 0.16;
#X obj 1161 261 pix_texture;
#X floatatom 688 422 5 0 0 0 - - -, f 5;
#X msg 686 337 1;
#X msg 714 337 2;
#X obj 1038 198 pix_image ../img/add.png;
#X obj 1064 221 pix_image ../img/sub.png;
#X obj 873 223 pix_image ../img/sub.png;
#X obj 845 191 pix_image ../img/add.png;
#X obj 391 434 r fonttype;
#X obj 580 -201 route key_9 key_10 key_4 key_7;
#X connect 1 0 3 0;
#X connect 1 0 13 0;
#X connect 1 0 53 0;
#X connect 2 0 5 0;
#X connect 3 0 2 1;
#X connect 3 1 2 2;
#X connect 3 2 2 3;
#X connect 4 0 9 0;
#X connect 5 0 0 0;
#X connect 5 1 6 0;
#X connect 7 0 6 0;
#X connect 8 0 7 0;
#X connect 9 0 10 0;
#X connect 9 1 11 0;
#X connect 10 0 2 0;
#X connect 11 0 15 0;
#X connect 13 0 12 1;
#X connect 14 0 16 0;
#X connect 15 0 12 0;
#X connect 16 0 12 0;
#X connect 17 0 24 0;
#X connect 18 0 4 1;
#X connect 19 0 18 0;
#X connect 20 0 4 0;
#X connect 21 0 20 0;
#X connect 22 0 23 0;
#X connect 23 0 24 0;
#X connect 24 0 21 0;
#X connect 25 0 17 1;
#X connect 26 0 35 0;
#X connect 27 0 17 0;
#X connect 27 1 25 0;
#X connect 28 0 29 0;
#X connect 29 0 12 2;
#X connect 30 0 32 0;
#X connect 31 0 33 0;
#X connect 32 0 34 0;
#X connect 33 0 34 0;
#X connect 34 0 20 1;
#X connect 34 1 20 2;
#X connect 34 2 20 3;
#X connect 34 3 20 4;
#X connect 35 0 27 0;
#X connect 35 0 30 0;
#X connect 35 1 27 0;
#X connect 35 1 31 0;
#X connect 35 2 27 0;
#X connect 35 2 36 0;
#X connect 36 0 37 0;
#X connect 37 0 34 0;
#X connect 38 0 49 0;
#X connect 38 1 43 0;
#X connect 39 0 40 1;
#X connect 39 1 40 0;
#X connect 40 0 44 0;
#X connect 41 0 42 1;
#X connect 41 1 42 0;
#X connect 42 0 45 0;
#X connect 43 0 56 0;
#X connect 43 1 55 0;
#X connect 44 0 46 0;
#X connect 45 0 46 0;
#X connect 46 0 57 0;
#X connect 46 0 115 0;
#X connect 46 1 50 0;
#X connect 46 1 116 0;
#X connect 47 0 50 0;
#X connect 48 0 49 1;
#X connect 49 0 60 0;
#X connect 50 0 58 0;
#X connect 51 0 48 0;
#X connect 51 1 48 0;
#X connect 52 0 59 0;
#X connect 53 0 52 1;
#X connect 53 1 52 2;
#X connect 53 2 52 3;
#X connect 54 0 38 0;
#X connect 55 0 41 0;
#X connect 56 0 39 0;
#X connect 57 0 58 0;
#X connect 59 0 58 0;
#X connect 60 0 52 0;
#X connect 61 0 62 0;
#X connect 62 0 63 0;
#X connect 62 1 63 1;
#X connect 63 0 65 0;
#X connect 64 0 96 0;
#X connect 65 0 94 0;
#X connect 65 0 95 0;
#X connect 66 0 97 0;
#X connect 67 0 51 0;
#X connect 68 0 70 0;
#X connect 69 0 122 0;
#X connect 70 0 72 0;
#X connect 71 0 77 0;
#X connect 72 0 76 0;
#X connect 72 1 75 0;
#X connect 73 0 79 1;
#X connect 73 0 78 1;
#X connect 73 0 84 0;
#X connect 74 0 73 0;
#X connect 75 0 71 0;
#X connect 76 0 71 0;
#X connect 77 0 74 0;
#X connect 78 0 91 0;
#X connect 79 0 92 0;
#X connect 80 0 98 0;
#X connect 81 0 87 0;
#X connect 82 0 78 0;
#X connect 83 0 79 0;
#X connect 84 0 80 0;
#X connect 84 0 81 0;
#X connect 85 0 86 0;
#X connect 85 0 104 0;
#X connect 86 0 80 0;
#X connect 86 0 81 0;
#X connect 87 0 99 0;
#X connect 87 1 88 0;
#X connect 88 0 89 0;
#X connect 88 0 93 0;
#X connect 89 0 90 0;
#X connect 90 0 88 1;
#X connect 91 0 108 1;
#X connect 92 0 107 1;
#X connect 93 0 91 1;
#X connect 93 0 92 1;
#X connect 94 0 64 0;
#X connect 95 0 66 0;
#X connect 96 0 83 1;
#X connect 97 0 82 1;
#X connect 98 0 100 0;
#X connect 99 0 101 0;
#X connect 100 0 83 0;
#X connect 101 0 82 0;
#X connect 104 0 100 1;
#X connect 104 0 101 1;
#X connect 105 0 102 0;
#X connect 106 0 103 0;
#X connect 107 0 120 0;
#X connect 107 1 119 0;
#X connect 108 0 117 0;
#X connect 108 1 118 0;
#X connect 109 0 107 0;
#X connect 109 0 108 0;
#X connect 109 0 114 0;
#X connect 111 0 110 0;
#X connect 113 0 112 0;
#X connect 115 0 109 0;
#X connect 116 0 109 0;
#X connect 117 0 106 0;
#X connect 118 0 113 0;
#X connect 119 0 105 0;
#X connect 120 0 111 0;
#X connect 121 0 58 0;
#X connect 122 0 68 0;
#X connect 122 1 68 0;
#X connect 122 2 68 0;
#X connect 122 3 68 0;
#X restore 182 200 pd gui-shack-drag;
#N canvas 730 149 598 603 gui-radio 0;
#X obj 54 115 gemhead;
#X obj 54 168 rotateXYZ 0 0 180;
#X obj 243 125 gemhead;
#X obj 243 178 rotateXYZ 180 0 0;
#X msg 122 210 color 1 0 0;
#X obj 368 188 loadbang;
#X msg 368 211 color 0 0 1;
#X obj 122 190 loadbang;
#X obj 352 250 hsl 50 15 0 1 0 0 empty empty empty -2 -8 0 10 -262144
-1 -1 0 1;
#X obj 54 239 radio 2 1.3 0.5;
#X obj 168 246 r damping;
#X obj 411 298 / 3;
#X obj 168 275 / 50;
#X obj 243 249 radio 2 1.3 0.5;
#X obj 54 144 translateXYZ -0.1 -2 0;
#X obj 243 154 translateXYZ 0.1 -2 0;
#X obj 54 201 scale 0.3;
#X obj 243 211 scale 0.3;
#X obj 393 502 text2d;
#X obj -38 510 text2d;
#X obj -38 430 translateXYZ -0.75 -2 0;
#X obj 393 422 translateXYZ 0.75 -2 0;
#X obj 229 276 loadbang;
#X msg 230 296 0;
#X obj 460 216 loadbang;
#X msg 461 236 0;
#X obj 339 327 expr int($f1*100)/100;
#X obj 411 275 r length;
#X obj 37 41 r hid;
#X obj 37 65 route key_9 key_10;
#X obj 235 27 loadbang;
#X msg 236 48 0;
#X obj -38 399 gemhead 4200;
#X obj 393 391 gemhead 4200;
#X obj 1 266 + 25;
#X obj 18 324 expr int($f1*100)/100;
#X floatatom 168 325 5 0 0 0 - - -, f 5;
#X obj 13 293 / 50;
#X msg 28 553 14;
#X msg -23 477 text Damping=[\$1];
#X msg 412 468 text Length=[\$1];
#X obj 134 414 expr int($f1*100)/100;
#X obj 59 521 r fonttype;
#X obj 418 541 r fonttype;
#X connect 0 0 14 0;
#X connect 1 0 16 0;
#X connect 2 0 15 0;
#X connect 3 0 17 0;
#X connect 4 0 9 0;
#X connect 5 0 6 0;
#X connect 6 0 13 0;
#X connect 7 0 4 0;
#X connect 8 0 13 1;
#X connect 8 0 26 0;
#X connect 10 0 12 0;
#X connect 10 0 34 0;
#X connect 11 0 8 0;
#X connect 12 0 36 0;
#X connect 14 0 1 0;
#X connect 15 0 3 0;
#X connect 16 0 9 0;
#X connect 17 0 13 0;
#X connect 20 0 19 0;
#X connect 21 0 18 0;
#X connect 22 0 23 0;
#X connect 23 0 36 0;
#X connect 24 0 25 0;
#X connect 25 0 8 0;
#X connect 26 0 40 0;
#X connect 27 0 11 0;
#X connect 28 0 29 0;
#X connect 29 0 0 0;
#X connect 29 0 32 0;
#X connect 29 1 2 0;
#X connect 29 1 33 0;
#X connect 30 0 31 0;
#X connect 31 0 0 0;
#X connect 31 0 2 0;
#X connect 31 0 32 0;
#X connect 31 0 33 0;
#X connect 32 0 20 0;
#X connect 33 0 21 0;
#X connect 34 0 37 0;
#X connect 35 0 9 1;
#X connect 36 0 41 0;
#X connect 37 0 35 0;
#X connect 38 0 19 1;
#X connect 38 0 18 1;
#X connect 39 0 19 0;
#X connect 40 0 18 0;
#X connect 41 0 39 0;
#X connect 42 0 19 0;
#X connect 43 0 18 0;
#X restore 183 222 pd gui-radio;
#N canvas 336 231 612 442 speed_ctl 0;
#X obj 145 3 r hid;
#X obj 221 58 route key_30 key_31 key_32;
#X obj 150 197 spigot;
#X obj 145 112 sel 1;
#X obj 201 113 sel 1;
#X obj 259 114 sel 1;
#X obj 316 118 sel 1;
#X msg 144 142 1 0;
#X msg 201 143 1 1;
#X msg 258 140 1 2;
#X msg 315 142 1 3;
#X obj 150 226 s tglspeed;
#X obj 243 290 spigot;
#X obj 238 205 sel 1;
#X obj 294 206 sel 1;
#X obj 352 207 sel 1;
#X obj 409 211 sel 1;
#X obj 243 319 s tglspeed;
#X obj 329 362 spigot;
#X obj 329 298 sel 1;
#X obj 385 299 sel 1;
#X obj 443 300 sel 1;
#X obj 500 304 sel 1;
#X obj 329 391 s tglspeed;
#X obj 145 32 t a a a a a;
#X msg 237 235 2 0;
#X msg 294 236 2 1;
#X msg 351 233 2 2;
#X msg 408 235 2 3;
#X msg 328 328 3 0;
#X msg 385 329 3 1;
#X msg 442 326 3 2;
#X msg 499 328 3 3;
#X obj 368 120 sel 1;
#X obj 145 90 route key_36 key_37 key_38 key_39 key_45;
#X msg 367 144 1 4;
#X obj 457 214 sel 1;
#X obj 238 183 route key_36 key_37 key_38 key_39 key_45;
#X msg 456 238 2 4;
#X obj 546 304 sel 1;
#X msg 545 328 3 4;
#X obj 329 276 route key_36 key_37 key_38 key_39 key_45;
#X connect 0 0 24 0;
#X connect 1 0 2 1;
#X connect 1 1 12 1;
#X connect 1 2 18 1;
#X connect 2 0 11 0;
#X connect 3 0 7 0;
#X connect 4 0 8 0;
#X connect 5 0 9 0;
#X connect 6 0 10 0;
#X connect 7 0 2 0;
#X connect 8 0 2 0;
#X connect 9 0 2 0;
#X connect 10 0 2 0;
#X connect 12 0 17 0;
#X connect 13 0 25 0;
#X connect 14 0 26 0;
#X connect 15 0 27 0;
#X connect 16 0 28 0;
#X connect 18 0 23 0;
#X connect 19 0 29 0;
#X connect 20 0 30 0;
#X connect 21 0 31 0;
#X connect 22 0 32 0;
#X connect 24 0 34 0;
#X connect 24 1 37 0;
#X connect 24 2 41 0;
#X connect 24 4 1 0;
#X connect 25 0 12 0;
#X connect 26 0 12 0;
#X connect 27 0 12 0;
#X connect 28 0 12 0;
#X connect 29 0 18 0;
#X connect 30 0 18 0;
#X connect 31 0 18 0;
#X connect 32 0 18 0;
#X connect 33 0 35 0;
#X connect 34 0 3 0;
#X connect 34 1 4 0;
#X connect 34 2 5 0;
#X connect 34 3 6 0;
#X connect 34 4 33 0;
#X connect 35 0 2 0;
#X connect 36 0 38 0;
#X connect 37 0 13 0;
#X connect 37 1 14 0;
#X connect 37 2 15 0;
#X connect 37 3 16 0;
#X connect 37 4 36 0;
#X connect 38 0 12 0;
#X connect 39 0 40 0;
#X connect 40 0 18 0;
#X connect 41 0 19 0;
#X connect 41 1 20 0;
#X connect 41 2 21 0;
#X connect 41 3 22 0;
#X connect 41 4 39 0;
#X restore 61 279 pd speed_ctl;
#X connect 0 0 1 0;
#X connect 6 0 7 0;
#X connect 8 0 9 0;
#X connect 9 0 6 0;
#X connect 16 0 17 0;
#X connect 17 0 18 0;
