#N canvas 577 193 663 584 10;
#X floatatom 76 404 5 0 0 0 - - -;
#X obj -220 294 tgl 15 0 empty empty empty 17 7 0 10 -262144 -1 -1
1 1;
#X obj -220 313 metro 50;
#X obj -84 270 +;
#X obj 5 268 +;
#X floatatom 129 188 5 0 0 0 - - -;
#X floatatom 127 291 5 0 0 0 - - -;
#X floatatom 254 291 5 0 0 0 - - -;
#X floatatom -116 293 5 0 0 0 - - -;
#X obj -220 456 expr $f1-$f2;
#X obj -115 471 expr $f1-$f2;
#X floatatom -27 292 5 0 0 0 - - -;
#X floatatom -220 481 5 0 0 0 - - -;
#X floatatom -115 503 5 0 0 0 - - -;
#X obj -116 269 f 0;
#X obj -27 267 f 0;
#X obj -116 316 t f f;
#X obj -27 316 t f f;
#X obj 76 378 expr atan2($f1 \, $f2)*-1*180/3.1415926;
#X floatatom -220 435 5 0 0 0 - - -;
#X floatatom -115 448 5 0 0 0 - - -;
#X obj -220 389 t b b;
#X obj -115 400 t b b;
#X obj 127 269 expr cos($f1)*0.1;
#X obj 254 268 expr sin($f1)*0.1;
#X obj 129 166 expr atan2($f1 \, $f2)*1;
#X text -52 52 var dx=mouseX-arrow.x;
#X text -51 71 var dy=mouseY-arrow.Y;
#X text -51 87 var angle=atan2(dy \, dx);
#X text -52 106 arrow.rotation=angle*180/PI;
#X text -51 124 vx=cos(angle)*speed;
#X text -51 140 vy=sin(angle)*speed;
#X text -51 159 arrow.x +=vx \;;
#X text -51 173 arrow.y +=vy \;;
#X obj -249 111 inlet;
#X obj -203 112 inlet;
#X obj -221 264 loadbang;
#X obj -254 150 v xxx;
#X obj -192 156 v yyy;
#X obj -220 412 v xxx;
#X obj -115 425 v yyy;
#X obj 78 430 outlet;
#X obj -73 386 outlet;
#X obj -5 390 outlet;
#X obj -220 507 s dx1;
#X obj -115 525 s dy1;
#X obj 129 144 r dx1;
#X obj 258 141 r dy1;
#X obj 76 340 r dx1;
#X obj 295 349 r dy1;
#X obj -116 341 v ax1;
#X obj -27 344 v ay1;
#X obj -27 240 v ay1;
#X obj -116 240 v ax1;
#X obj -69 241 r vx1;
#X obj 20 239 r vy1;
#X obj -46 447 v ay1;
#X obj -151 431 v ax1;
#X obj 127 315 s vy1;
#X obj 254 316 s vx1;
#X obj 127 243 r angle1;
#X obj 254 244 r angle1;
#X obj 129 209 s angle1;
#X obj -220 351 t b b b b;
#X connect 0 0 41 0;
#X connect 1 0 2 0;
#X connect 2 0 63 0;
#X connect 3 0 8 0;
#X connect 4 0 11 0;
#X connect 5 0 62 0;
#X connect 6 0 58 0;
#X connect 7 0 59 0;
#X connect 8 0 16 0;
#X connect 9 0 12 0;
#X connect 10 0 13 0;
#X connect 11 0 17 0;
#X connect 12 0 44 0;
#X connect 13 0 45 0;
#X connect 14 0 3 0;
#X connect 15 0 4 0;
#X connect 16 0 50 0;
#X connect 16 1 42 0;
#X connect 17 0 51 0;
#X connect 17 1 43 0;
#X connect 18 0 0 0;
#X connect 19 0 9 0;
#X connect 20 0 10 0;
#X connect 21 0 39 0;
#X connect 21 1 57 0;
#X connect 22 0 40 0;
#X connect 22 1 56 0;
#X connect 23 0 6 0;
#X connect 24 0 7 0;
#X connect 25 0 5 0;
#X connect 34 0 37 0;
#X connect 35 0 38 0;
#X connect 36 0 1 0;
#X connect 39 0 19 0;
#X connect 40 0 20 0;
#X connect 46 0 25 0;
#X connect 47 0 25 1;
#X connect 48 0 18 0;
#X connect 49 0 18 1;
#X connect 52 0 15 0;
#X connect 53 0 14 0;
#X connect 54 0 3 1;
#X connect 55 0 4 1;
#X connect 56 0 10 1;
#X connect 57 0 9 1;
#X connect 60 0 23 0;
#X connect 61 0 24 0;
#X connect 63 0 21 0;
#X connect 63 1 22 0;
#X connect 63 2 53 0;
#X connect 63 3 52 0;
