#N canvas 128 146 822 628 10;
#X obj 19 19 inlet;
#X obj 18 485 glsl_program;
#X obj 171 369 pack 0 0;
#X obj 192 340 t b f;
#X obj 192 296 change;
#X obj 171 129 change;
#X msg 171 397 link \$1 \$2;
#X floatatom 192 321 2 0 0 0 ID - -;
#X floatatom 171 152 2 0 0 0 ID - -;
#X obj 18 221 glsl_fragment;
#X obj 19 96 glsl_vertex;
#X obj 18 519 outlet;
#X obj 300 23 inlet;
#X obj 357 207 symbol \$1;
#X text 61 19 Gemlist;
#X obj 357 258 s \$0.filename;
#X obj 33 47 r \$0.filename;
#X obj 28 170 r \$0.filename;
#X obj 39 388 r \$1[\$2].args;
#X obj 420 118 s \$1[\$2].args;
#X obj 171 432 print Linking;
#X obj 87 512 change;
#X obj 87 542 t b;
#X text 138 512 Shader is loaded;
#X obj 300 68 route bang;
#X obj 357 117 t b b;
#X obj 384 167 print [pix_shader];
#X msg 384 141 Resetting shader;
#X obj 357 92 route reset;
#X text 539 52 v 0.1 guido;
#X text 539 34 Simple abstraction to load glsl shaders;
#X text 541 92 Inlet 1 gem;
#X text 541 114 Inlet 2 arguments for shader;
#X text 542 153 Outlet 1 gem;
#X text 542 176 Outlet 2 bang when shader compiled;
#X msg 48 430 print;
#X msg 28 192 open \$1.frag;
#X msg 33 69 open \$1.vert;
#X obj 201 72 t a b;
#X obj 313 172 once;
#X connect 0 0 38 0;
#X connect 1 0 11 0;
#X connect 1 1 21 0;
#X connect 2 0 6 0;
#X connect 3 0 2 0;
#X connect 3 1 2 1;
#X connect 4 0 7 0;
#X connect 5 0 8 0;
#X connect 6 0 1 0;
#X connect 6 0 20 0;
#X connect 7 0 3 0;
#X connect 8 0 2 0;
#X connect 9 0 1 0;
#X connect 9 1 4 0;
#X connect 10 0 9 0;
#X connect 10 1 5 0;
#X connect 12 0 24 0;
#X connect 13 0 15 0;
#X connect 16 0 37 0;
#X connect 17 0 36 0;
#X connect 18 0 1 0;
#X connect 21 0 22 0;
#X connect 22 0 35 0;
#X connect 24 1 28 0;
#X connect 25 0 13 0;
#X connect 25 1 27 0;
#X connect 27 0 26 0;
#X connect 28 0 25 0;
#X connect 28 1 19 0;
#X connect 35 0 1 0;
#X connect 36 0 9 0;
#X connect 37 0 10 0;
#X connect 38 0 10 0;
#X connect 38 1 39 0;
#X connect 39 0 13 0;
