#N canvas 792 22 614 778 10;
#X floatatom 107 62 5 0 0 0 - - -;
#X obj 193 169 + 1;
#X msg 258 -59 0;
#N canvas 700 154 485 612 vAtan2cent180 0;
#X obj 131 77 list;
#X obj 226 76 list;
#X obj 102 16 t b b a;
#X obj 131 105 unpack f f;
#X obj 226 106 unpack f f;
#X obj 177 -43 unpack f f;
#X obj 230 144 expr $f2-$f1;
#X obj 272 167 expr $f2-$f1;
#X text 304 105 vA;
#X text 112 125 vB;
#X text 232 14 cent;
#X obj 75 -51 inlet cent;
#X obj 152 41 inlet v2;
#X obj 247 43 inlet v1;
#X obj 90 147 expr ($f2-$f1)*-1;
#X obj 125 172 expr ($f2-$f1)*-1;
#X obj 75 -24 t b a;
#X obj 90 200 expr atan2($f1 \, $f2)- atan2($f3 \, $f4);
#X obj 139 273 v ang;
#X floatatom 90 225 5 0 0 0 - - -;
#X obj 109 271 < 0;
#X obj 90 245 t b f f;
#X obj 90 303 spigot;
#X obj 90 328 expr 2*(3.1415926)+ang;
#X obj 90 354 v ang;
#X obj -6 48 expr ang-3.1415926;
#X obj -6 96 outlet;
#X floatatom -6 73 5 0 0 0 - - -;
#X obj 176 -15 t f f;
#X obj 237 -14 t f f;
#X connect 0 0 3 0;
#X connect 1 0 4 0;
#X connect 2 0 0 0;
#X connect 2 1 1 0;
#X connect 2 2 5 0;
#X connect 3 0 14 1;
#X connect 3 1 15 1;
#X connect 4 0 6 1;
#X connect 4 1 7 1;
#X connect 5 0 28 0;
#X connect 5 1 29 0;
#X connect 6 0 17 2;
#X connect 7 0 17 3;
#X connect 11 0 16 0;
#X connect 12 0 0 1;
#X connect 13 0 1 1;
#X connect 14 0 17 0;
#X connect 15 0 17 1;
#X connect 16 0 25 0;
#X connect 16 1 2 0;
#X connect 17 0 19 0;
#X connect 19 0 21 0;
#X connect 20 0 22 1;
#X connect 21 0 22 0;
#X connect 21 1 20 0;
#X connect 21 2 18 0;
#X connect 22 0 23 0;
#X connect 23 0 24 0;
#X connect 25 0 27 0;
#X connect 27 0 26 0;
#X connect 28 0 14 0;
#X connect 28 1 6 0;
#X connect 29 0 15 0;
#X connect 29 1 7 0;
#X restore 97 304 pd vAtan2cent180;
#X text 137 326 return ang;
#X obj 97 327 t f b;
#X obj 97 428 +;
#X obj -33 410 t f b;
#X obj -33 458 +;
#X obj -69 585 expr if($f1<0.01 \, 1 \, 0);
#X floatatom -69 563 5 0 0 0 - - -;
#X floatatom -33 483 15 0 0 0 - - -;
#X floatatom 97 451 10 0 0 0 - - -;
#X obj 97 179 t b b;
#N canvas 65 156 485 612 vAtan2cent180 0;
#X obj 131 77 list;
#X obj 226 76 list;
#X obj 102 16 t b b a;
#X obj 131 105 unpack f f;
#X obj 226 106 unpack f f;
#X obj 177 -43 unpack f f;
#X obj 230 144 expr $f2-$f1;
#X obj 272 167 expr $f2-$f1;
#X text 304 105 vA;
#X text 112 125 vB;
#X text 232 14 cent;
#X obj 75 -51 inlet cent;
#X obj 152 41 inlet v2;
#X obj 247 43 inlet v1;
#X obj 90 147 expr ($f2-$f1)*-1;
#X obj 125 172 expr ($f2-$f1)*-1;
#X obj 75 -24 t b a;
#X obj 90 200 expr atan2($f1 \, $f2)- atan2($f3 \, $f4);
#X obj 139 273 v ang;
#X floatatom 90 225 5 0 0 0 - - -;
#X obj 109 271 < 0;
#X obj 90 245 t b f f;
#X obj 90 303 spigot;
#X obj 90 328 expr 2*(3.1415926)+ang;
#X obj 90 354 v ang;
#X obj -6 48 expr ang-3.1415926;
#X obj -6 96 outlet;
#X floatatom -6 73 5 0 0 0 - - -;
#X obj 176 -15 t f f;
#X obj 237 -14 t f f;
#X connect 0 0 3 0;
#X connect 1 0 4 0;
#X connect 2 0 0 0;
#X connect 2 1 1 0;
#X connect 2 2 5 0;
#X connect 3 0 14 1;
#X connect 3 1 15 1;
#X connect 4 0 6 1;
#X connect 4 1 7 1;
#X connect 5 0 28 0;
#X connect 5 1 29 0;
#X connect 6 0 17 2;
#X connect 7 0 17 3;
#X connect 11 0 16 0;
#X connect 12 0 0 1;
#X connect 13 0 1 1;
#X connect 14 0 17 0;
#X connect 15 0 17 1;
#X connect 16 0 25 0;
#X connect 16 1 2 0;
#X connect 17 0 19 0;
#X connect 19 0 21 0;
#X connect 20 0 22 1;
#X connect 21 0 22 0;
#X connect 21 1 20 0;
#X connect 21 2 18 0;
#X connect 22 0 23 0;
#X connect 23 0 24 0;
#X connect 25 0 27 0;
#X connect 27 0 26 0;
#X connect 28 0 14 0;
#X connect 28 1 6 0;
#X connect 29 0 15 0;
#X connect 29 1 7 0;
#X restore -33 363 pd vAtan2cent180;
#X floatatom 124 373 10 0 0 0 - - -;
#X floatatom -33 386 5 0 0 0 - - -;
#X obj -48 168 t b b b b b;
#X floatatom -6 453 5 0 0 0 - - -;
#X obj -69 537 expr abs(abs($f1)-(2*3.1415926));
#X floatatom -69 512 5 0 0 0 - - -;
#N canvas 712 417 450 300 v2 0;
#X obj 137 110 t f f;
#X obj 137 234 pack f f;
#X obj 137 263 outlet;
#X obj 137 57 inlet;
#X obj 137 84 + 1;
#X obj 215 9 r W_H;
#X obj 215 64 unpack f f;
#X obj 215 34 t a a;
#X obj 289 61 expr $f1/$f2;
#X obj 289 85 t f f;
#X obj 316 107 * 2;
#X obj 138 205 expr (($f1+$f2)/$f3)*$f4;
#X obj 164 180 expr $f2-(($f1+4)/8)*$f2;
#X obj 138 135 tabread gonx;
#X obj 164 157 tabread gony;
#X connect 0 0 13 0;
#X connect 0 1 14 0;
#X connect 1 0 2 0;
#X connect 3 0 4 0;
#X connect 4 0 0 0;
#X connect 5 0 7 0;
#X connect 6 0 11 3;
#X connect 6 1 12 1;
#X connect 7 0 6 0;
#X connect 7 1 8 0;
#X connect 8 0 9 0;
#X connect 9 0 11 1;
#X connect 9 1 10 0;
#X connect 10 0 11 2;
#X connect 11 0 1 0;
#X connect 12 0 1 1;
#X connect 13 0 11 0;
#X connect 14 0 12 0;
#X restore 190 279 pd v2;
#N canvas 558 323 450 300 v1 0;
#X obj 137 110 t f f;
#X obj 137 234 pack f f;
#X obj 137 263 outlet;
#X obj 137 57 inlet;
#X obj 219 6 r W_H;
#X obj 219 61 unpack f f;
#X obj 219 31 t a a;
#X obj 293 58 expr $f1/$f2;
#X obj 293 82 t f f;
#X obj 320 104 * 2;
#X obj 142 202 expr (($f1+$f2)/$f3)*$f4;
#X obj 168 177 expr $f2-(($f1+4)/8)*$f2;
#X obj 137 135 tabread gonx;
#X obj 164 157 tabread gony;
#X connect 0 0 12 0;
#X connect 0 1 13 0;
#X connect 1 0 2 0;
#X connect 3 0 0 0;
#X connect 4 0 6 0;
#X connect 5 0 10 3;
#X connect 5 1 11 1;
#X connect 6 0 5 0;
#X connect 6 1 7 0;
#X connect 7 0 8 0;
#X connect 8 0 10 1;
#X connect 8 1 9 0;
#X connect 9 0 10 2;
#X connect 10 0 1 0;
#X connect 11 0 1 1;
#X connect 12 0 10 0;
#X connect 13 0 11 0;
#X restore 143 277 pd v1;
#N canvas 747 369 450 300 v 0;
#X obj 131 227 pack f f;
#X obj 131 104 t b b;
#X obj 129 64 inlet;
#X obj 131 251 outlet;
#X obj 221 -1 r W_H;
#X obj 221 54 unpack f f;
#X obj 221 24 t a a;
#X obj 295 51 expr $f1/$f2;
#X obj 295 75 t f f;
#X obj 322 97 * 2;
#X obj 144 195 expr (($f1+$f2)/$f3)*$f4;
#X obj 170 170 expr $f2-(($f1+4)/8)*$f2;
#X obj 131 139 v mouseX;
#X obj 192 139 v mouseY;
#X connect 0 0 3 0;
#X connect 1 0 12 0;
#X connect 1 1 13 0;
#X connect 2 0 1 0;
#X connect 4 0 6 0;
#X connect 5 0 10 3;
#X connect 5 1 11 1;
#X connect 6 0 5 0;
#X connect 6 1 7 0;
#X connect 7 0 8 0;
#X connect 8 0 10 1;
#X connect 8 1 9 0;
#X connect 9 0 10 2;
#X connect 10 0 0 0;
#X connect 11 0 0 1;
#X connect 12 0 10 0;
#X connect 13 0 11 0;
#X restore 97 274 pd v;
#N canvas 677 393 450 300 v2 0;
#X obj 137 110 t f f;
#X obj 137 234 pack f f;
#X obj 137 263 outlet;
#X obj 137 57 inlet;
#X obj 219 10 r W_H;
#X obj 219 65 unpack f f;
#X obj 219 35 t a a;
#X obj 293 62 expr $f1/$f2;
#X obj 293 86 t f f;
#X obj 320 108 * 2;
#X obj 142 206 expr (($f1+$f2)/$f3)*$f4;
#X obj 168 181 expr $f2-(($f1+4)/8)*$f2;
#X obj 137 135 tabread gonx;
#X obj 164 157 tabread gony;
#X connect 0 0 12 0;
#X connect 0 1 13 0;
#X connect 1 0 2 0;
#X connect 3 0 0 0;
#X connect 4 0 6 0;
#X connect 5 0 10 3;
#X connect 5 1 11 1;
#X connect 6 0 5 0;
#X connect 6 1 7 0;
#X connect 7 0 8 0;
#X connect 8 0 10 1;
#X connect 8 1 9 0;
#X connect 9 0 10 2;
#X connect 10 0 1 0;
#X connect 11 0 1 1;
#X connect 12 0 10 0;
#X connect 13 0 11 0;
#X restore 32 313 pd v2;
#N canvas 707 384 450 300 v1 0;
#X obj 137 110 t f f;
#X obj 137 234 pack f f;
#X obj 137 263 outlet;
#X obj 137 57 inlet;
#X obj 218 9 r W_H;
#X obj 218 64 unpack f f;
#X obj 218 34 t a a;
#X obj 292 61 expr $f1/$f2;
#X obj 292 85 t f f;
#X obj 319 107 * 2;
#X obj 141 205 expr (($f1+$f2)/$f3)*$f4;
#X obj 167 180 expr $f2-(($f1+4)/8)*$f2;
#X obj 137 135 tabread gonx;
#X obj 164 157 tabread gony;
#X connect 0 0 12 0;
#X connect 0 1 13 0;
#X connect 1 0 2 0;
#X connect 3 0 0 0;
#X connect 4 0 6 0;
#X connect 5 0 10 3;
#X connect 5 1 11 1;
#X connect 6 0 5 0;
#X connect 6 1 7 0;
#X connect 7 0 8 0;
#X connect 8 0 10 1;
#X connect 8 1 9 0;
#X connect 9 0 10 2;
#X connect 10 0 1 0;
#X connect 11 0 1 1;
#X connect 12 0 10 0;
#X connect 13 0 11 0;
#X restore -14 303 pd v1;
#N canvas 846 374 450 300 v 0;
#X obj 131 227 pack f f;
#X obj 131 104 t b b;
#X obj 129 64 inlet;
#X obj 131 251 outlet;
#X obj 229 -4 r W_H;
#X obj 229 51 unpack f f;
#X obj 229 21 t a a;
#X obj 303 48 expr $f1/$f2;
#X obj 303 72 t f f;
#X obj 330 94 * 2;
#X obj 152 192 expr (($f1+$f2)/$f3)*$f4;
#X obj 178 167 expr $f2-(($f1+4)/8)*$f2;
#X obj 131 139 v mouseX;
#X obj 192 138 v mouseY;
#X connect 0 0 3 0;
#X connect 1 0 12 0;
#X connect 1 1 13 0;
#X connect 2 0 1 0;
#X connect 4 0 6 0;
#X connect 5 0 10 3;
#X connect 5 1 11 1;
#X connect 6 0 5 0;
#X connect 6 1 7 0;
#X connect 7 0 8 0;
#X connect 8 0 10 1;
#X connect 8 1 9 0;
#X connect 9 0 10 2;
#X connect 10 0 0 0;
#X connect 11 0 0 1;
#X connect 12 0 10 0;
#X connect 13 0 11 0;
#X restore -33 335 pd v;
#X obj 166 169 f 0;
#X floatatom 166 194 5 0 0 0 - - -;
#X obj 143 254 t f f f;
#X floatatom -48 134 10 0 0 0 - - -;
#X obj 97 125 repeat 4;
#X obj 222 169 % 4;
#X floatatom 215 246 5 0 0 0 - - -;
#X obj 215 192 t f b;
#X obj 215 224 + 0;
#X obj 237 95 moses 0;
#X msg 237 114 0;
#X floatatom 237 138 5 0 0 0 - - -;
#X msg 181 104 0;
#X obj 51 -34 gemhead;
#X obj 258 -38 v \$0-a;
#X obj 97 472 v \$0-a;
#X obj -33 507 v \$0-a;
#X obj -48 106 v \$0-a;
#X obj -6 432 v \$0-a;
#X obj 107 17 f \$1;
#X obj 107 41 tabread gonnum;
#X obj 124 350 v \$0-a;
#X obj -94 487 v \$0-a;
#X obj -69 678 tabwrite goncolor;
#X obj -69 651 t f b;
#X obj -7 647 f \$1;
#X obj 325 232 repeat;
#X obj 362 151 f \$1;
#X obj 353 264 + 1;
#X obj 325 265 f 0;
#X msg 417 140 0;
#X floatatom 362 175 5 0 0 0 - - -;
#X obj 325 296 tabread gonnum;
#X obj 325 320 + 1;
#X floatatom 325 344 5 0 0 0 - - -;
#X obj 246 225 v \$0-gnum;
#X obj 275 16 v \$0-gnum;
#X msg 275 -5 0;
#X obj 363 398 v \$0-gnum;
#X obj 325 368 t f b;
#X obj 325 407 +;
#X floatatom 325 436 5 0 0 0 - - -;
#X obj 325 460 v \$0-gnum;
#X obj -14 275 v \$0-gnum;
#X obj 11 209 v \$0-gnum;
#X obj 9 240 +;
#X obj 244 416 r hid;
#X obj 244 439 route key_42;
#X obj 212 453 spigot;
#X obj -68 613 tgl 15 0 empty empty empty 17 7 0 10 -262144 -1 -1 0
1;
#X obj 168 482 spigot;
#X obj 168 435 r mouse_left;
#X obj 168 505 sel 1;
#X obj 167 578 t b b;
#X obj 167 552 repeat 4;
#X obj 219 505 + 1;
#X obj 196 601 f;
#X obj 224 602 + 1;
#X obj 51 -10 t b b b b b b b b b b b;
#X obj 168 529 t b b;
#X msg 255 551 0;
#X floatatom 193 627 5 0 0 0 - - -;
#X obj 272 639 tabwrite gonx;
#X obj 289 662 tabwrite gony;
#X msg 272 611 0;
#X obj 337 581 v \$0-gnum;
#X obj 305 599 +;
#X obj 272 577 t b f b;
#X obj 52 -91 r open-collision;
#X obj 50 -60 >= \$1;
#X connect 0 0 36 0;
#X connect 0 0 72 1;
#X connect 0 0 82 0;
#X connect 1 0 32 0;
#X connect 2 0 41 0;
#X connect 3 0 5 0;
#X connect 5 0 6 0;
#X connect 5 1 48 0;
#X connect 6 0 12 0;
#X connect 7 0 8 0;
#X connect 7 1 45 0;
#X connect 8 0 11 0;
#X connect 9 0 76 0;
#X connect 10 0 9 0;
#X connect 11 0 43 0;
#X connect 12 0 42 0;
#X connect 13 0 23 0;
#X connect 13 1 27 0;
#X connect 14 0 16 0;
#X connect 15 0 6 1;
#X connect 16 0 7 0;
#X connect 17 0 49 0;
#X connect 17 1 26 0;
#X connect 17 2 70 0;
#X connect 17 3 71 0;
#X connect 18 0 8 1;
#X connect 19 0 10 0;
#X connect 20 0 19 0;
#X connect 21 0 3 2;
#X connect 22 0 3 1;
#X connect 23 0 3 0;
#X connect 24 0 14 1;
#X connect 25 0 14 2;
#X connect 26 0 14 0;
#X connect 27 0 1 0;
#X connect 27 0 28 0;
#X connect 28 0 34 0;
#X connect 29 0 22 0;
#X connect 29 1 21 0;
#X connect 30 0 17 0;
#X connect 31 0 13 0;
#X connect 32 0 27 1;
#X connect 33 0 29 0;
#X connect 34 0 35 0;
#X connect 34 1 62 0;
#X connect 35 0 33 0;
#X connect 36 0 37 0;
#X connect 36 1 38 0;
#X connect 37 0 38 0;
#X connect 38 0 31 1;
#X connect 38 0 32 1;
#X connect 39 0 27 1;
#X connect 40 0 85 0;
#X connect 44 0 30 0;
#X connect 45 0 18 0;
#X connect 46 0 47 0;
#X connect 47 0 0 0;
#X connect 48 0 15 0;
#X connect 49 0 20 0;
#X connect 51 0 50 0;
#X connect 51 1 52 0;
#X connect 52 0 50 1;
#X connect 53 0 56 0;
#X connect 54 0 58 0;
#X connect 55 0 56 1;
#X connect 56 0 55 0;
#X connect 56 0 59 0;
#X connect 57 0 56 1;
#X connect 58 0 53 1;
#X connect 59 0 60 0;
#X connect 60 0 61 0;
#X connect 61 0 66 0;
#X connect 62 0 35 1;
#X connect 64 0 63 0;
#X connect 65 0 67 1;
#X connect 66 0 67 0;
#X connect 66 1 65 0;
#X connect 67 0 68 0;
#X connect 68 0 69 0;
#X connect 70 0 25 0;
#X connect 71 0 72 0;
#X connect 72 0 24 0;
#X connect 73 0 74 0;
#X connect 74 0 75 1;
#X connect 75 0 77 1;
#X connect 75 0 51 0;
#X connect 76 0 75 0;
#X connect 77 0 79 0;
#X connect 78 0 77 0;
#X connect 79 0 86 0;
#X connect 80 1 83 0;
#X connect 81 0 80 0;
#X connect 82 0 81 1;
#X connect 83 0 84 0;
#X connect 83 0 88 0;
#X connect 84 0 83 1;
#X connect 85 0 44 0;
#X connect 85 1 31 0;
#X connect 85 3 39 0;
#X connect 85 4 46 0;
#X connect 85 5 53 0;
#X connect 85 6 54 0;
#X connect 85 7 2 0;
#X connect 85 8 57 0;
#X connect 85 9 64 0;
#X connect 86 0 81 0;
#X connect 86 1 87 0;
#X connect 87 0 83 1;
#X connect 88 0 94 0;
#X connect 91 0 89 0;
#X connect 91 0 90 0;
#X connect 92 0 93 1;
#X connect 93 0 89 1;
#X connect 93 0 90 1;
#X connect 94 0 91 0;
#X connect 94 1 93 0;
#X connect 94 2 92 0;
#X connect 95 0 96 0;
#X connect 96 0 40 0;
