#N canvas 56 93 938 717 10;
#X obj -60 293 f \$0;
#X msg -60 317 position \$1-x \$1-y \$1-z;
#X obj -246 289 loadbang;
#X obj -87 218 separator;
#N canvas 8 209 1021 518 shape-line 0;
#X obj 27 320 t f f;
#X obj 237 300 t f f;
#X obj 437 305 t f f;
#X obj 667 313 t f f;
#X obj 611 128 t f f;
#X obj 192 183 t f f;
#X obj 638 164 t f f;
#X obj 237 321 expr sin($f1)*$f2;
#X obj 264 344 expr cos($f1)*$f2;
#X obj 437 326 expr sin($f1)*$f2;
#X obj 465 351 expr cos($f1)*$f2;
#X msg 237 249 23;
#X msg 667 260 23;
#X obj 27 405 tabwrite \$0-x;
#X obj 102 383 r \$0-index;
#X obj 129 418 r \$0-index;
#X obj 54 439 tabwrite \$0-y;
#X obj 237 404 tabwrite \$0-x;
#X obj 312 382 r \$0-index;
#X obj 339 417 r \$0-index;
#X obj 264 438 tabwrite \$0-y;
#X obj 437 407 tabwrite \$0-x;
#X obj 512 385 r \$0-index;
#X obj 540 420 r \$0-index;
#X obj 465 441 tabwrite \$0-y;
#X obj 667 416 tabwrite \$0-x;
#X obj 742 394 r \$0-index;
#X obj 770 429 r \$0-index;
#X obj 695 450 tabwrite \$0-y;
#X obj 336 296 r \$0-in_radius;
#X obj 564 299 r \$0-in_radius;
#X obj 27 342 expr sin($f1)*$f2;
#X obj 126 318 r \$0-out_radius;
#X obj 54 363 expr cos($f1)*$f2;
#X obj 794 312 r \$0-out_radius;
#X obj 667 334 expr sin($f1)*$f2;
#X obj 695 357 expr cos($f1)*$f2;
#X obj 27 58 inlet;
#X obj 611 101 inlet;
#X obj 27 172 moses 25;
#X obj 72 196 - 25;
#X obj 27 231 moses 23;
#X obj 27 297 expr ($f1/23*$f2)*3.141592*2;
#X obj 237 275 expr ($f1/23*$f2)*3.141592*2;
#X obj 437 280 expr ($f2-($f1/23*$f2))*3.141592*2;
#X obj 667 289 expr ($f2-($f1/23*$f2))*3.141592*2;
#X obj 437 220 moses 23;
#X obj 27 264 + 1;
#X obj 437 244 + 1;
#X connect 0 0 31 0;
#X connect 0 1 33 0;
#X connect 1 0 7 0;
#X connect 1 1 8 0;
#X connect 2 0 9 0;
#X connect 2 1 10 0;
#X connect 3 0 35 0;
#X connect 3 1 36 0;
#X connect 4 0 5 0;
#X connect 4 1 6 0;
#X connect 5 0 42 1;
#X connect 5 1 43 1;
#X connect 6 0 44 1;
#X connect 6 1 45 1;
#X connect 7 0 17 0;
#X connect 8 0 20 0;
#X connect 9 0 21 0;
#X connect 10 0 24 0;
#X connect 11 0 43 0;
#X connect 12 0 45 0;
#X connect 14 0 13 1;
#X connect 15 0 16 1;
#X connect 18 0 17 1;
#X connect 19 0 20 1;
#X connect 22 0 21 1;
#X connect 23 0 24 1;
#X connect 26 0 25 1;
#X connect 27 0 28 1;
#X connect 29 0 7 1;
#X connect 29 0 8 1;
#X connect 30 0 9 1;
#X connect 30 0 10 1;
#X connect 31 0 13 0;
#X connect 32 0 31 1;
#X connect 32 0 33 1;
#X connect 33 0 16 0;
#X connect 34 0 35 1;
#X connect 34 0 36 1;
#X connect 35 0 25 0;
#X connect 36 0 28 0;
#X connect 37 0 39 0;
#X connect 38 0 4 0;
#X connect 39 0 41 0;
#X connect 39 1 40 0;
#X connect 40 0 46 0;
#X connect 41 0 47 0;
#X connect 41 1 11 0;
#X connect 42 0 0 0;
#X connect 43 0 1 0;
#X connect 44 0 2 0;
#X connect 45 0 3 0;
#X connect 46 0 48 0;
#X connect 46 1 12 0;
#X connect 47 0 42 0;
#X connect 48 0 44 0;
#X restore 308 391 pd shape-line;
#N canvas 200 199 549 418 shape-fill 0;
#X obj 66 169 t f f;
#X obj 285 121 t f f;
#X obj 230 53 t f f;
#X floatatom 230 23 5 0 0 0 - - -;
#X obj 38 -18 inlet;
#X obj 230 -7 inlet;
#X obj 285 142 expr sin($f1)*$f2;
#X obj 312 167 expr cos($f1)*$f2;
#X obj 38 9 t f f;
#X obj 65 37 % 2;
#X obj 65 92 gate 2;
#X obj 66 265 tabwrite \$0-x1;
#X obj 93 299 tabwrite \$0-y1;
#X obj 285 243 tabwrite \$0-x1;
#X obj 312 277 tabwrite \$0-y1;
#X obj 412 115 r \$0-in_radius;
#X obj 66 190 expr sin($f1)*$f2;
#X obj 93 213 expr cos($f1)*$f2;
#X obj 192 184 r \$0-out_radius;
#X obj 366 220 r \$0-index-2;
#X obj 393 255 r \$0-index-2;
#X obj 141 243 r \$0-index-2;
#X obj 168 278 r \$0-index-2;
#X obj 65 62 + 1;
#X obj 65 144 expr ($f1/48*$f2)*3.141592*2;
#X obj 285 96 expr (($f1/48*$f2))*3.141592*2;
#X obj 256 88 - 1;
#X connect 0 0 16 0;
#X connect 0 1 17 0;
#X connect 1 0 6 0;
#X connect 1 1 7 0;
#X connect 2 0 24 1;
#X connect 2 1 25 1;
#X connect 3 0 2 0;
#X connect 4 0 8 0;
#X connect 5 0 3 0;
#X connect 6 0 13 0;
#X connect 7 0 14 0;
#X connect 8 0 10 1;
#X connect 8 1 9 0;
#X connect 9 0 23 0;
#X connect 10 0 24 0;
#X connect 10 1 26 0;
#X connect 15 0 6 1;
#X connect 15 0 7 1;
#X connect 16 0 11 0;
#X connect 17 0 12 0;
#X connect 18 0 16 1;
#X connect 18 0 17 1;
#X connect 19 0 13 1;
#X connect 20 0 14 1;
#X connect 21 0 11 1;
#X connect 22 0 12 1;
#X connect 23 0 10 0;
#X connect 24 0 0 0;
#X connect 25 0 1 0;
#X connect 26 0 25 0;
#X restore 342 370 pd shape-fill;
#X obj 308 250 f;
#X obj 338 251 + 1;
#X obj -87 270 t a b;
#X obj 308 285 t f f f f;
#X obj 359 344 s \$0-index-2;
#N canvas 233 245 798 441 color 0;
#X obj 31 389 outlet;
#X obj 42 84 inlet;
#X obj 121 225 inlet;
#X obj 121 258 unpack f f f;
#X obj 31 358 colorRGB 1 1 1 0.5;
#X connect 1 0 4 0;
#X connect 2 0 3 0;
#X connect 3 0 4 1;
#X connect 3 1 4 2;
#X connect 3 2 4 3;
#X connect 4 0 0 0;
#X restore 106 228 pd color;
#X obj 133 342 f \$0;
#X obj 106 100 separator;
#X obj 106 319 t a b;
#X msg 133 361 position \$1-x1 \$1-y1 \$1-z1;
#X obj -17 179 table \$0-z1 50;
#X obj -17 134 table \$0-x1 50;
#X obj -17 103 table \$0-z 50;
#X obj -18 82 table \$0-y 50;
#X obj -17 157 table \$0-y1 50;
#X obj 308 218 repeat 50;
#X obj 364 250 % 50;
#X obj -18 59 table \$0-x 50;
#X obj -87 243 colorRGB 1 1 1;
#X obj 325 319 s \$0-index;
#X obj -87 359 gemvertexbuffer 50;
#X obj -87 191 t a a b;
#X obj 106 195 alpha;
#X obj 182 133 loadbang;
#X msg 182 159 1;
#X floatatom 417 316 5 0 0 0 - - -;
#X obj 293 119 s \$0-out_radius;
#X obj 390 118 s \$0-in_radius;
#X floatatom 293 86 5 0 0 0 - - -;
#X floatatom 390 96 5 0 0 0 - - -;
#X obj 22 395 loadbang;
#X msg 22 423 shape tristrip;
#X obj 106 392 gemvertexbuffer 50;
#X floatatom 486 95 5 0 0 0 - - -;
#X obj 486 117 s \$0-radio;
#X obj 397 390 r \$0-radio;
#X obj 432 262 r \$0-radio;
#X obj 417 288 * 1;
#X obj -113 41 inlet;
#X obj 292 16 init \$1;
#X obj 348 17 init \$2;
#X obj 405 16 init \$3;
#X obj 417 202 inlet;
#X obj -113 68 route color;
#X msg -246 317 draw line \, width 1;
#X connect 0 0 1 0;
#X connect 1 0 26 0;
#X connect 2 0 50 0;
#X connect 3 0 24 0;
#X connect 6 0 7 0;
#X connect 6 0 9 0;
#X connect 7 0 22 0;
#X connect 8 0 26 0;
#X connect 8 1 0 0;
#X connect 9 0 4 0;
#X connect 9 1 25 0;
#X connect 9 2 5 0;
#X connect 9 3 10 0;
#X connect 11 0 14 0;
#X connect 12 0 15 0;
#X connect 13 0 28 0;
#X connect 14 0 38 0;
#X connect 14 1 12 0;
#X connect 15 0 38 0;
#X connect 21 0 6 0;
#X connect 22 0 6 1;
#X connect 24 0 8 0;
#X connect 27 0 3 0;
#X connect 27 1 13 0;
#X connect 27 2 21 0;
#X connect 28 0 11 0;
#X connect 29 0 30 0;
#X connect 30 0 28 1;
#X connect 31 0 5 1;
#X connect 34 0 32 0;
#X connect 35 0 33 0;
#X connect 36 0 37 0;
#X connect 37 0 38 0;
#X connect 39 0 40 0;
#X connect 41 0 4 1;
#X connect 42 0 43 1;
#X connect 43 0 31 0;
#X connect 44 0 49 0;
#X connect 45 0 34 0;
#X connect 46 0 35 0;
#X connect 47 0 39 0;
#X connect 48 0 43 0;
#X connect 49 0 11 1;
#X connect 49 1 27 0;
#X connect 50 0 26 0;
