#N canvas 738 250 506 478 10;
#X obj 83 48 unpack f f;
#X obj 83 17 inlet;
#X floatatom 83 80 5 0 0 0 - - -;
#X obj 83 109 abs;
#X floatatom 87 183 5 0 0 0 - - -;
#X obj 88 279 *~;
#X obj 71 436 throw~ ll;
#X obj 150 434 throw~ rr;
#X obj 101 379 *~ 0;
#X obj 151 380 *~ 0;
#X obj 135 283 t f f;
#X obj 170 307 k_range -7 7 0 1;
#X obj 139 339 k_range -7 7 1 0;
#X floatatom 337 39 5 0 0 0 - - -;
#X obj 338 112 autoscale 0 1;
#X floatatom 337 139 5 0 0 0 - - -;
#X obj 337 60 t f f;
#X obj 338 88 -;
#X floatatom 245 37 5 0 0 0 - - -;
#X obj 246 110 autoscale 0 1;
#X floatatom 246 134 5 0 0 0 - - -;
#X obj 245 58 t f f;
#X obj 246 86 -;
#X obj 322 167 +;
#X obj 323 189 t b f;
#X obj 316 244 f;
#X obj 370 196 change;
#X floatatom 372 216 5 0 0 0 - - -;
#X obj 346 268 moses 0;
#X floatatom 385 293 5 0 0 0 - - -;
#X obj 206 257 line~;
#X obj 80 160 + 100;
#X obj 82 137 * 50;
#X obj 378 154 expr int($f1*100)/100;
#X obj 86 217 osc~;
#X msg 206 233 \$1 50;
#X obj 86 311 *~ 0.5;
#X floatatom 204 169 5 0 0 0 - - -;
#X obj 207 191 change;
#X obj 346 244 - 0.1;
#X connect 0 0 2 0;
#X connect 0 0 18 0;
#X connect 0 1 13 0;
#X connect 1 0 0 0;
#X connect 2 0 3 0;
#X connect 2 0 10 0;
#X connect 3 0 32 0;
#X connect 4 0 34 0;
#X connect 5 0 36 0;
#X connect 8 0 6 0;
#X connect 9 0 7 0;
#X connect 10 0 12 0;
#X connect 10 1 11 0;
#X connect 11 0 9 1;
#X connect 12 0 8 1;
#X connect 13 0 16 0;
#X connect 14 0 15 0;
#X connect 15 0 23 1;
#X connect 16 0 17 1;
#X connect 16 1 17 0;
#X connect 17 0 14 0;
#X connect 18 0 21 0;
#X connect 19 0 20 0;
#X connect 20 0 23 0;
#X connect 21 0 22 1;
#X connect 21 1 22 0;
#X connect 22 0 19 0;
#X connect 23 0 24 0;
#X connect 24 0 25 0;
#X connect 24 1 33 0;
#X connect 25 0 37 0;
#X connect 25 0 39 0;
#X connect 26 0 27 0;
#X connect 27 0 25 1;
#X connect 28 1 29 0;
#X connect 29 0 25 1;
#X connect 30 0 5 1;
#X connect 31 0 4 0;
#X connect 32 0 31 0;
#X connect 33 0 26 0;
#X connect 34 0 5 0;
#X connect 35 0 30 0;
#X connect 36 0 8 0;
#X connect 36 0 9 0;
#X connect 37 0 38 0;
#X connect 38 0 35 0;
#X connect 39 0 28 0;
