#N canvas 631 78 803 604 10;
#X obj -131 -26 + 1;
#X obj 165 158 hsl 50 15 0 1 0 0 empty empty Dir 10 7 0 10 -228856
-1 -1 4900 1;
#X obj 106 178 hsl 50 15 5 100 0 0 empty empty Area 10 7 0 10 -262144
-1 -1 4900 1;
#X obj 106 158 hsl 50 15 0 1 0 0 empty empty Speed 10 7 0 10 -262144
-1 -1 490 1;
#X obj 102 123 tgl 30 0 empty empty empty 17 7 0 10 -233017 -1 -262144
1 1;
#X obj -101 -26 fmod 100;
#X obj 191 32 f;
#X obj 275 32 fmod 1;
#X obj -130 26 expr fmod(($f1/100)+$f2 \, 1);
#X obj -14 169 loadbang;
#X obj 36 102 r \$0-speed;
#X obj -54 250 r \$0-area;
#X obj -189 -51 t b b;
#X obj -189 124 s \$0-bang;
#X obj 33 136 s \$0-start;
#X obj 253 216 r \$0-start;
#X obj -189 -99 r \$0-start;
#X obj 256 327 hsl 50 15 0.1 14 0 0 empty empty Size 10 7 0 10 -262144
-1 -1 320 1;
#X obj 253 238 sel 0 1;
#X msg 253 287 0;
#X obj 284 261 bng 15 250 50 0 empty empty empty 17 7 0 10 -262144
-1 -1;
#X obj 253 264 bng 15 250 50 0 empty empty empty 17 7 0 10 -262144
-1 -1;
#N canvas 936 377 427 388 defult 0;
#X msg 352 101 0.05;
#X obj 76 32 t b b b b b;
#X obj 76 -14 sel 1;
#X obj 149 136 v display\$1;
#X obj 353 124 s \$0-speed;
#X obj 76 -36 r \$0-start;
#X obj 149 113 r \$0-start;
#X obj 72 132 s \$0-dir;
#X obj 76 67 randomF 1;
#X msg 291 102 100;
#X obj 291 127 s \$0-area;
#X obj 291 75 loadbang;
#X obj 52 87 loadbang;
#X msg 50 106 1;
#X connect 0 0 4 0;
#X connect 1 0 8 0;
#X connect 2 0 1 0;
#X connect 5 0 2 0;
#X connect 6 0 3 0;
#X connect 9 0 10 0;
#X connect 11 0 9 0;
#X connect 11 0 0 0;
#X connect 12 0 13 0;
#X connect 13 0 7 0;
#X restore 85 287 pd defult;
#X obj 86 241 k_smooth 1;
#X obj -80 -93 k_spring 3;
#N canvas 122 325 1440 710 fill-circl 0;
#X obj 55 376 GEMglEnd;
#X obj 122 355 GEMglBegin;
#X obj 55 345 t a a a;
#X obj 74 690 GEMglVertex3f 0 0 0;
#X obj 74 434 t a b;
#X obj 101 457 f;
#X obj 132 457 + 1;
#X obj 146 534 expr $f1*2 *3.1415926;
#X obj 55 290 separator;
#X obj 162 456 % 100;
#X obj 74 409 repeat 100;
#X obj 102 488 sel 0;
#X msg 179 332 9;
#X obj 146 508 expr fmod(($f1/98)+$f2 \, 1);
#X obj 84 549 t b b;
#X obj 216 108 sel 1 2 3;
#X obj 146 624 expr cos($f1)*$f2+$f3;
#X obj 179 647 expr sin($f1)*$f2+$f3;
#X obj 146 558 t f f b b b;
#X obj 269 600 v x_\$0;
#X obj 84 578 v x_\$0;
#X obj 111 598 v y_\$0;
#X msg -21 192 auto 1;
#X msg 216 133 1 0 0;
#X msg 233 161 0 1 0;
#X msg 250 188 0 0 1;
#X obj -21 161 loadbang;
#X obj 54 30 r \$0-start;
#X obj 54 53 sel 0 1;
#X msg 73 78 1;
#X msg 54 122 0;
#X obj 54 99 del 500;
#X obj 227 422 inlet;
#X obj 314 466 inlet;
#X obj 302 623 v y_\$0;
#X obj 471 317 +;
#X obj 474 206 t b b;
#X obj 390 289 v a1;
#X obj 390 314 +;
#X obj 389 338 v a1;
#X obj 393 203 t b b;
#X obj 470 341 v a2;
#X obj 471 292 v a2;
#X obj 402 159 t b b b;
#X obj 349 370 pack f f;
#X obj 407 237 randomF 0.2;
#X obj 488 240 randomF 0.2;
#X obj 488 264 - 0.1;
#X obj 407 261 - 0.1;
#X obj 216 86 init \$1;
#X obj 55 266 pix_shader noise\$1;
#X msg 181 222 color \$1 \$2 \$3 \$4;
#X msg 233 285 vel \$1;
#X obj 55 241 t a b;
#X obj 314 359 list;
#X msg 314 399 noise \$1 \$2;
#X obj 233 261 r \$0-vel;
#X obj 291 286 sel 0;
#X msg 291 307 0;
#X obj 333 190 loadbang;
#X msg 333 250 0;
#X obj 333 220 del 200;
#X obj 216 56 del 100;
#X obj 207 598 v r_\$1;
#X msg 162 140 1 1 1;
#X obj 179 305 loadbang;
#X obj 181 198 list 0.6;
#X obj 54 209 alpha 1;
#X obj 54 144 tgl 15 0 empty empty empty 17 7 0 10 -262144 -1 -1 0
1;
#X obj 54 166 gemhead 1;
#X obj 1179 183 GEMglEnd;
#X obj 1260 173 GEMglBegin;
#X obj 1179 152 t a a a;
#X obj 1198 518 GEMglVertex3f 0 0 0;
#X obj 1198 241 t a b;
#X obj 1225 264 f;
#X obj 1256 264 + 1;
#X msg 1317 150 9;
#X obj 1323 117 loadbang;
#X obj 1227 287 t f f;
#X obj 608 252 GEMglEnd;
#X obj 711 249 GEMglBegin;
#X obj 608 221 t a a a;
#X obj 627 587 GEMglVertex3f 0 0 0;
#X obj 627 310 t a b;
#X obj 654 333 f;
#X obj 685 333 + 1;
#X obj 699 431 expr $f1*2 *3.1415926;
#X obj 699 521 expr cos($f1)*$f2+$f3;
#X obj 732 544 expr sin($f1)*$f2+$f3;
#X obj 699 455 t f f b b b;
#X obj 873 524 v x_\$0;
#X obj 952 537 v y_\$0;
#X obj 768 203 loadbang;
#X obj 656 356 t f f;
#X obj 912 383 tabread \$0-sound;
#X msg 912 331 0;
#X obj 912 406 * 0.5;
#X obj 912 305 sel 0 199;
#X obj 912 279 t f f;
#X obj 987 306 expr if($f1>100 \, 200-$f1 \, $f1);
#X obj 978 338 expr pow(($f1/100) \, 1);
#X obj 1170 76 alpha 1;
#X obj 805 455 v r_\$1;
#X obj 808 482 +;
#X obj 608 189 GEMglLineWidth 1;
#X obj 975 116 r \$0-vel;
#X floatatom 975 138 5 0 0 0 - - -, f 5;
#X obj 1205 9 unpack f f f f;
#X floatatom 768 287 5 0 0 0 - - -, f 5;
#X floatatom 928 245 5 0 0 0 - - -, f 5;
#X floatatom 823 314 5 0 0 0 - - -, f 5;
#X obj 643 104 t a b;
#X obj 810 265 k_count 0.05 1;
#X floatatom 810 287 5 0 0 0 - - -, f 5;
#X floatatom 1215 122 5 0 0 0 - - -, f 5;
#X obj 1170 113 t a b;
#X obj 1215 100 k_count 0.02 1;
#X obj 1198 216 repeat 100;
#X obj 627 285 repeat 200;
#X obj 715 332 % 200;
#X obj 1286 263 % 200;
#X obj 920 204 * 2;
#X obj 608 164 colorRGB 1 1 1 0.1;
#X obj 643 133 separator;
#X obj 1166 -15 separator;
#X obj 975 184 + 0.1;
#X obj 926 222 int;
#X obj 1275 365 expr $f1*2 *3.1415926;
#X obj 1231 319 sel 0;
#X obj 1213 380 t b b;
#X obj 1275 455 expr cos($f1)*$f2+$f3;
#X obj 1308 478 expr sin($f1)*$f2+$f3;
#X obj 1275 389 t f f b b b;
#X obj 1398 431 v x_\$0;
#X obj 1213 409 v x_\$0;
#X obj 1240 429 v y_\$0;
#X obj 1431 454 v y_\$0;
#X obj 1336 429 v r_\$1;
#X floatatom 1409 293 5 0 0 0 - - -, f 5;
#X obj 1275 339 expr fmod(($f1/198)+$f2 \, 1);
#X obj 1031 280 expr if($f1==200 \, 1 \, 0);
#X obj 823 333 *;
#X msg 768 226 3;
#X obj 699 405 expr fmod($f1/198+$f2+$f3 \, 1);
#X obj 643 76 t a a;
#X obj 727 -91 r \$0-volvol;
#X floatatom 727 49 5 0 0 0 - - -, f 5;
#X obj 727 68 + 1;
#X floatatom 727 90 5 0 0 0 - - -, f 5;
#X obj 795 131 sel 0 1;
#X msg 795 153 0;
#X msg 834 155 3;
#X obj 727 27 expr int(($f1-70)/6);
#X obj 795 102 < 85;
#X obj 826 -86 moses 70;
#X msg 826 -64 70;
#X floatatom 826 -35 5 0 0 0 - - -, f 5;
#X obj 1166 54 colorRGB 1 0 0 0.6;
#X floatatom 936 67 5 0 0 0 - - -, f 5;
#X obj 936 45 k_range 70 95 0.4 0.9;
#X obj 912 430 * 0.5;
#X obj 912 355 * 2;
#X obj 723 122 abs;
#X obj 727 -69 moses;
#X connect 2 0 0 0;
#X connect 2 1 10 0;
#X connect 2 2 1 0;
#X connect 4 0 3 0;
#X connect 4 1 5 0;
#X connect 5 0 6 0;
#X connect 5 0 11 0;
#X connect 6 0 9 0;
#X connect 7 0 18 0;
#X connect 8 0 2 0;
#X connect 9 0 5 1;
#X connect 10 0 4 0;
#X connect 11 0 14 0;
#X connect 11 1 13 0;
#X connect 12 0 1 1;
#X connect 13 0 7 0;
#X connect 14 0 20 0;
#X connect 14 1 21 0;
#X connect 15 0 23 0;
#X connect 15 1 24 0;
#X connect 15 2 25 0;
#X connect 16 0 3 1;
#X connect 17 0 3 2;
#X connect 18 0 16 0;
#X connect 18 1 17 0;
#X connect 18 2 19 0;
#X connect 18 3 34 0;
#X connect 18 4 63 0;
#X connect 19 0 16 2;
#X connect 20 0 3 1;
#X connect 21 0 3 2;
#X connect 22 0 67 0;
#X connect 23 0 66 0;
#X connect 24 0 66 0;
#X connect 25 0 66 0;
#X connect 26 0 22 0;
#X connect 27 0 28 0;
#X connect 28 0 31 0;
#X connect 28 1 29 0;
#X connect 28 1 62 0;
#X connect 29 0 69 0;
#X connect 30 0 68 0;
#X connect 31 0 30 0;
#X connect 32 0 10 1;
#X connect 32 0 9 1;
#X connect 32 0 122 0;
#X connect 33 0 13 1;
#X connect 33 0 139 0;
#X connect 34 0 17 2;
#X connect 35 0 41 0;
#X connect 35 0 44 1;
#X connect 36 0 42 0;
#X connect 36 1 46 0;
#X connect 37 0 38 0;
#X connect 38 0 39 0;
#X connect 38 0 44 0;
#X connect 40 0 37 0;
#X connect 40 1 45 0;
#X connect 42 0 35 0;
#X connect 43 0 54 0;
#X connect 43 1 40 0;
#X connect 43 2 36 0;
#X connect 44 0 54 1;
#X connect 45 0 48 0;
#X connect 46 0 47 0;
#X connect 47 0 35 1;
#X connect 48 0 38 1;
#X connect 49 0 15 0;
#X connect 50 0 8 0;
#X connect 51 0 50 1;
#X connect 52 0 50 1;
#X connect 53 0 50 0;
#X connect 53 1 43 0;
#X connect 54 0 55 0;
#X connect 55 0 50 1;
#X connect 56 0 52 0;
#X connect 56 0 57 0;
#X connect 57 0 58 0;
#X connect 58 0 39 0;
#X connect 58 0 41 0;
#X connect 59 0 61 0;
#X connect 60 0 52 0;
#X connect 61 0 60 0;
#X connect 62 0 49 0;
#X connect 63 0 17 1;
#X connect 63 0 16 1;
#X connect 64 0 66 0;
#X connect 65 0 12 0;
#X connect 66 0 51 0;
#X connect 66 0 108 0;
#X connect 67 0 145 0;
#X connect 68 0 69 0;
#X connect 69 0 67 0;
#X connect 72 0 70 0;
#X connect 72 1 118 0;
#X connect 72 2 71 0;
#X connect 74 0 73 0;
#X connect 74 1 75 0;
#X connect 75 0 76 0;
#X connect 75 0 79 0;
#X connect 76 0 121 0;
#X connect 77 0 71 1;
#X connect 78 0 77 0;
#X connect 79 0 129 0;
#X connect 82 0 80 0;
#X connect 82 1 119 0;
#X connect 82 2 81 0;
#X connect 84 0 83 0;
#X connect 84 1 85 0;
#X connect 85 0 86 0;
#X connect 85 0 94 0;
#X connect 86 0 120 0;
#X connect 87 0 90 0;
#X connect 88 0 83 1;
#X connect 89 0 83 2;
#X connect 90 0 88 0;
#X connect 90 1 89 0;
#X connect 90 2 91 0;
#X connect 90 3 92 0;
#X connect 90 4 103 0;
#X connect 91 0 88 2;
#X connect 92 0 89 2;
#X connect 93 0 143 0;
#X connect 94 0 144 0;
#X connect 94 1 99 0;
#X connect 95 0 97 0;
#X connect 96 0 162 0;
#X connect 97 0 161 0;
#X connect 98 0 96 0;
#X connect 98 1 96 0;
#X connect 98 2 162 0;
#X connect 99 0 98 0;
#X connect 99 1 100 0;
#X connect 100 0 101 0;
#X connect 101 0 97 1;
#X connect 102 0 116 0;
#X connect 103 0 104 0;
#X connect 104 0 89 1;
#X connect 104 0 88 1;
#X connect 105 0 82 0;
#X connect 106 0 107 0;
#X connect 107 0 126 0;
#X connect 108 0 158 1;
#X connect 108 1 158 2;
#X connect 108 2 158 3;
#X connect 109 0 119 1;
#X connect 109 0 120 1;
#X connect 110 0 118 1;
#X connect 110 0 121 1;
#X connect 110 0 141 0;
#X connect 111 0 142 0;
#X connect 112 0 124 0;
#X connect 112 1 113 0;
#X connect 113 0 114 0;
#X connect 114 0 111 0;
#X connect 116 0 72 0;
#X connect 116 1 117 0;
#X connect 117 0 115 0;
#X connect 118 0 74 0;
#X connect 119 0 84 0;
#X connect 120 0 85 1;
#X connect 121 0 75 1;
#X connect 122 0 127 0;
#X connect 123 0 105 0;
#X connect 124 0 123 0;
#X connect 125 0 158 0;
#X connect 126 0 161 1;
#X connect 127 0 110 0;
#X connect 127 0 109 0;
#X connect 128 0 133 0;
#X connect 129 0 130 0;
#X connect 129 1 140 0;
#X connect 130 0 135 0;
#X connect 130 1 136 0;
#X connect 131 0 73 1;
#X connect 132 0 73 2;
#X connect 133 0 131 0;
#X connect 133 1 132 0;
#X connect 133 2 134 0;
#X connect 133 3 137 0;
#X connect 133 4 138 0;
#X connect 134 0 131 2;
#X connect 135 0 73 1;
#X connect 136 0 73 2;
#X connect 137 0 132 2;
#X connect 138 0 132 1;
#X connect 138 0 131 1;
#X connect 139 0 140 1;
#X connect 139 0 144 2;
#X connect 140 0 128 0;
#X connect 141 0 142 1;
#X connect 142 0 144 1;
#X connect 143 0 81 1;
#X connect 144 0 87 0;
#X connect 145 0 112 0;
#X connect 145 1 125 0;
#X connect 146 0 164 0;
#X connect 147 0 148 0;
#X connect 148 0 149 0;
#X connect 149 0 163 0;
#X connect 150 0 151 0;
#X connect 150 1 152 0;
#X connect 151 0 81 1;
#X connect 152 0 81 1;
#X connect 153 0 147 0;
#X connect 154 0 150 0;
#X connect 155 0 156 0;
#X connect 155 1 157 0;
#X connect 156 0 157 0;
#X connect 157 0 160 0;
#X connect 157 0 153 0;
#X connect 157 0 154 0;
#X connect 158 0 102 0;
#X connect 159 0 158 4;
#X connect 160 0 159 0;
#X connect 161 0 104 1;
#X connect 162 0 95 0;
#X connect 163 0 105 1;
#X connect 164 0 155 0;
#X restore -80 109 pd fill-circl;
#X obj 183 400 s \$0-area1;
#X obj -80 -116 r \$0-area1;
#X obj -162 -26 f 0;
#X obj 165 178 hsl 50 15 0 1 0 0 empty empty Vel 10 7 0 10 -228856
-1 -1 0 1;
#X obj 162 273 s \$0-vel;
#X obj 138 305 r mouseSize;
#X msg 138 327 \$2 \$1;
#X obj 138 349 route \$1;
#X obj -189 -74 metro 5;
#X obj 112 11 r \$0-dir;
#X floatatom 190 57 5 0 0 0 - - -, f 5;
#X floatatom 191 4 5 0 0 0 - - -, f 5;
#X obj 191 -24 k_spring 1;
#X obj 175 225 v vel-\$1;
#X obj -14 219 v speed-\$1;
#X obj 21 378 v area-\$1;
#X obj 162 249 * 3;
#X obj 86 265 v r_\$1;
#X obj 162 122 tgl 30 0 empty empty empty 17 7 0 10 -262144 -1 -1 0
1;
#X msg 237 93 0;
#X obj 36 50 r tomove;
#X obj 36 75 route \$1;
#X obj 138 48 bng 15 250 50 0 empty empty empty 17 7 0 10 -262144 -1
-1;
#X obj 222 32 + 0;
#X obj 230 134 s \$0-rename;
#X floatatom -132 -48 5 0 0 0 - - -, f 5;
#N canvas 652 173 450 300 tgl 0;
#X obj 49 55 ctlin;
#X floatatom 60 82 5 0 0 0 - - -, f 5;
#X floatatom 97 82 5 0 0 0 - - -, f 5;
#X floatatom 23 86 5 0 0 0 - - -, f 5;
#X obj 40 113 pack f f;
#X msg 40 138 \$2 \$1;
#X obj 40 161 route 0;
#X obj 123 121 init \$1;
#X obj 145 96 bng 15 250 50 0 empty empty empty 17 7 0 10 -262144 -1
-1;
#X obj 123 145 + 35;
#X floatatom 34 189 5 0 0 0 - - -, f 5;
#X obj 31 217 / 127;
#X obj 32 241 outlet;
#X obj 244 59 r mouseOpen;
#X msg 244 118 \$2 \$1;
#X obj 244 141 route \$1;
#X obj 317 88 r keyctl;
#X obj 244 90 spigot 1;
#X msg 171 64 0;
#X obj 171 37 loadbang;
#X connect 0 0 3 0;
#X connect 0 1 1 0;
#X connect 0 2 2 0;
#X connect 1 0 4 1;
#X connect 3 0 4 0;
#X connect 4 0 5 0;
#X connect 5 0 6 0;
#X connect 6 0 10 0;
#X connect 7 0 9 0;
#X connect 8 0 7 0;
#X connect 9 0 6 1;
#X connect 10 0 11 0;
#X connect 11 0 12 0;
#X connect 13 0 17 0;
#X connect 14 0 15 0;
#X connect 15 0 12 0;
#X connect 16 0 17 1;
#X connect 17 0 14 0;
#X connect 18 0 12 0;
#X connect 19 0 18 0;
#X restore 402 59 pd tgl;
#X obj 237 68 sel 0;
#X obj 327 305 + 0.5;
#X floatatom 21 353 5 0 0 0 - - -, f 5;
#X msg -14 194 100;
#X obj -54 272 moses 100;
#X msg 5 295 100;
#X obj 95 -145 inlet~;
#X obj 30 -76 tabwrite~ \$0-sound;
#X obj 30 -135 gemhead;
#X obj 30 -111 t b;
#N canvas 0 22 690 674 shake 0;
#X obj 238 597 outlet;
#X floatatom 96 398 4 -7 7 0 x - -, f 4;
#X floatatom 175 400 4 -4 4 0 y - -, f 4;
#X obj 96 472 v x_\$0;
#X obj 175 471 v y_\$0;
#X floatatom 175 450 5 0 0 0 - - -, f 5;
#X floatatom 96 447 5 0 0 0 - - -, f 5;
#X obj 105 296 r mouseMove;
#X obj 105 347 route \$1;
#X obj 105 372 unpack f f;
#X msg 105 320 \$3 \$1 \$2;
#X obj 96 422 k_spring 1;
#N canvas 972 22 449 707 speed 0;
#X obj 105 77 t f f;
#X obj 105 105 -;
#X obj 114 256 f;
#X obj 114 226 t b f;
#X floatatom 114 345 5 0 0 0 - - -, f 5;
#X obj 160 -75 t f f;
#X obj 161 -26 -;
#X obj 184 99 t b f;
#X obj 149 256 + 0;
#X obj 105 28 inlet x;
#X obj 154 -98 inlet y;
#X obj -18 565 outlet speed;
#X obj 212 304 moses 1;
#X msg 251 329 1;
#X obj 103 150 sel 0;
#X obj 161 17 sel 0;
#X obj 31 226 loadbang;
#X obj 149 282 moses 0;
#X msg 149 302 0;
#X floatatom 126 185 5 0 0 0 - - -, f 5;
#X floatatom 193 58 5 0 0 0 - - -, f 5;
#X obj 104 126 expr if(abs($f1)>0.1 \, 0.01 \, 0);
#X obj 161 -2 expr if(abs($f1)>0.1 \, -0.01 \, 0);
#X obj 114 370 expr int($f1*100)/100;
#X obj -48 389 / 2;
#X floatatom -54 441 5 0 0 0 - - -, f 5;
#X obj -49 413 expr int($f1*10);
#X obj -55 467 sel 0 1 2 3 4 5;
#X msg 47 495 1;
#X msg 18 495 0.8;
#X msg 0 511 0.4;
#X msg -15 491 0.2;
#X msg -42 511 0.1;
#X msg -57 489 0.05;
#X floatatom 123 397 5 0 0 0 - - -, f 5;
#X obj -33 4 ctlin;
#X floatatom -22 31 5 0 0 0 - - -, f 5;
#X floatatom 15 31 5 0 0 0 - - -, f 5;
#X floatatom -59 35 5 0 0 0 - - -, f 5;
#X obj -42 62 pack f f;
#X msg -42 87 \$2 \$1;
#X obj -42 110 route 0;
#X obj 41 70 init \$1;
#X obj 41 94 + 3;
#X obj 63 45 bng 15 250 50 0 empty empty empty 17 7 0 10 -262144 -1
-1;
#X floatatom -50 200 5 0 0 0 - - -, f 5;
#X obj -57 154 k_range 0 127 0.01 1;
#X msg 29 257 0.1;
#X connect 0 0 1 1;
#X connect 0 1 1 0;
#X connect 1 0 21 0;
#X connect 2 0 4 0;
#X connect 2 0 8 0;
#X connect 3 0 2 0;
#X connect 3 1 8 1;
#X connect 4 0 23 0;
#X connect 5 0 6 1;
#X connect 5 1 6 0;
#X connect 6 0 22 0;
#X connect 7 0 2 0;
#X connect 7 1 8 1;
#X connect 8 0 17 0;
#X connect 9 0 0 0;
#X connect 10 0 5 0;
#X connect 12 0 2 1;
#X connect 12 1 13 0;
#X connect 13 0 4 0;
#X connect 14 1 19 0;
#X connect 15 1 20 0;
#X connect 16 0 47 0;
#X connect 17 0 18 0;
#X connect 17 1 12 0;
#X connect 18 0 4 0;
#X connect 19 0 3 0;
#X connect 20 0 7 0;
#X connect 21 0 14 0;
#X connect 22 0 15 0;
#X connect 23 0 11 0;
#X connect 23 0 34 0;
#X connect 24 0 26 0;
#X connect 25 0 27 0;
#X connect 26 0 25 0;
#X connect 27 0 33 0;
#X connect 27 1 32 0;
#X connect 27 2 31 0;
#X connect 27 3 30 0;
#X connect 27 4 29 0;
#X connect 27 5 28 0;
#X connect 28 0 11 0;
#X connect 29 0 11 0;
#X connect 30 0 11 0;
#X connect 31 0 11 0;
#X connect 32 0 11 0;
#X connect 33 0 11 0;
#X connect 35 0 38 0;
#X connect 35 1 36 0;
#X connect 35 2 37 0;
#X connect 36 0 39 1;
#X connect 38 0 39 0;
#X connect 39 0 40 0;
#X connect 40 0 41 0;
#X connect 41 0 46 0;
#X connect 42 0 43 0;
#X connect 43 0 41 1;
#X connect 44 0 42 0;
#X connect 45 0 2 0;
#X connect 46 0 45 0;
#X connect 47 0 2 0;
#X restore 362 529 pd speed;
#X obj 361 551 s \$0-speed;
#X obj 175 424 k_spring 1;
#X obj 251 242 random 5;
#X obj 250 212 loadbang;
#X obj 251 266 + 5;
#X obj 59 530 v cx-\$1;
#X obj 120 529 v cy-\$1;
#X obj 416 412 r hid;
#X obj 416 436 route key_22;
#X obj 362 483 *;
#X obj 395 480 *;
#X obj 291 420 r hid;
#X obj 238 493 *;
#X obj 271 490 *;
#X obj 291 444 route key_4;
#N canvas 494 22 471 532 vel 0;
#X obj 105 77 t f f;
#X obj 106 147 -;
#X obj 124 268 t b f;
#X floatatom 123 387 5 0 0 0 - - -, f 5;
#X obj 157 -17 t f f;
#X obj 158 32 -;
#X obj 185 141 t b f;
#X obj 158 298 + 0;
#X obj 105 28 inlet x;
#X obj 151 -40 inlet y;
#X obj 125 437 outlet speed;
#X obj 221 346 moses 1;
#X msg 260 371 1;
#X obj 105 192 sel 0;
#X obj 158 75 sel 0;
#X obj 158 324 moses 0;
#X msg 158 344 0;
#X obj 123 298 f 0;
#X obj 31 179 loadbang;
#X msg 31 201 0;
#X obj 158 56 expr if(abs($f1)>0.1 \, -0.01 \, 0);
#X obj 105 169 expr if(abs($f1)>0.1 \, 0.01 \, 0);
#X obj 123 412 expr int($f1*100)/100;
#X connect 0 0 1 1;
#X connect 0 1 1 0;
#X connect 1 0 21 0;
#X connect 2 0 17 0;
#X connect 2 1 7 1;
#X connect 3 0 22 0;
#X connect 4 0 5 1;
#X connect 4 1 5 0;
#X connect 5 0 20 0;
#X connect 6 0 17 0;
#X connect 6 1 7 1;
#X connect 7 0 15 0;
#X connect 8 0 0 0;
#X connect 9 0 4 0;
#X connect 11 0 17 1;
#X connect 11 1 12 0;
#X connect 12 0 3 0;
#X connect 13 1 2 0;
#X connect 14 1 6 0;
#X connect 15 0 16 0;
#X connect 15 1 11 0;
#X connect 16 0 3 0;
#X connect 17 0 3 0;
#X connect 17 0 7 0;
#X connect 18 0 19 0;
#X connect 19 0 17 0;
#X connect 20 0 14 0;
#X connect 21 0 13 0;
#X connect 22 0 10 0;
#X restore 238 550 pd vel;
#X obj 524 422 r hid;
#X obj 470 493 *;
#X obj 503 490 *;
#X obj 524 446 route key_7;
#N canvas 619 22 468 521 area 0;
#X obj 105 77 t f f;
#X obj 98 137 -;
#X obj 110 229 t b f;
#X floatatom 110 348 5 0 0 0 - - -, f 5;
#X obj 157 -17 t f f;
#X obj 158 32 -;
#X obj 190 109 t b f;
#X obj 145 259 + 0;
#X obj 105 28 inlet x;
#X obj 151 -40 inlet y;
#X obj 109 425 outlet speed;
#X obj 208 307 moses 1;
#X msg 247 332 1;
#X obj 96 182 sel 0;
#X obj 158 75 sel 0;
#X obj 145 285 moses 0;
#X msg 145 305 0;
#X obj 110 397 + 5;
#X obj 110 373 expr int($f1*95)+5;
#X obj 110 259 f 1;
#X obj 18 202 loadbang;
#X msg 18 224 1;
#X obj 96 159 expr if(abs($f1)>0.1 \, 0.01 \, 0);
#X obj 158 56 expr if(abs($f1)>0.1 \, -0.01 \, 0);
#X connect 0 0 1 1;
#X connect 0 1 1 0;
#X connect 1 0 22 0;
#X connect 2 0 19 0;
#X connect 2 1 7 1;
#X connect 3 0 18 0;
#X connect 4 0 5 1;
#X connect 4 1 5 0;
#X connect 5 0 23 0;
#X connect 6 0 19 0;
#X connect 6 1 7 1;
#X connect 7 0 15 0;
#X connect 8 0 0 0;
#X connect 9 0 4 0;
#X connect 11 0 19 1;
#X connect 11 1 12 0;
#X connect 12 0 3 0;
#X connect 13 1 2 0;
#X connect 14 1 6 0;
#X connect 15 0 16 0;
#X connect 15 1 11 0;
#X connect 16 0 3 0;
#X connect 17 0 10 0;
#X connect 18 0 17 0;
#X connect 19 0 3 0;
#X connect 19 0 7 0;
#X connect 20 0 21 0;
#X connect 21 0 19 0;
#X connect 22 0 13 0;
#X connect 23 0 14 0;
#X restore 470 535 pd area;
#X obj 469 559 s \$0-area;
#X obj 345 83 metro 1000;
#X obj 470 77 r W_H;
#X obj 470 108 expr ($f1/$f2)*8;
#X obj 489 133 expr ($f1/$f2)*4;
#X obj 345 168 -;
#X obj 345 142 randomF 1;
#X obj 418 177 randomF 8;
#X obj 418 200 - 4;
#X msg 345 191 \$1 500;
#X floatatom 422 80 5 0 0 0 - - -, f 5;
#X obj 345 106 t b b b;
#X obj 345 221 line;
#X obj 418 249 line;
#X msg 418 225 \$1 500;
#X obj 422 57 + 300;
#X obj 423 33 random 400;
#X obj 345 245 spigot;
#X obj 418 273 spigot;
#N canvas 878 259 415 416 last 0;
#X obj 158 31 inlet;
#X obj 188 134 f;
#X obj 256 63 metro 30;
#X obj 218 161 moses 0;
#X msg 220 191 0;
#X floatatom 235 216 5 0 0 0 - - -, f 5;
#X obj 158 56 t b;
#X msg 158 80 1;
#X floatatom 188 200 5 0 0 0 - - -, f 5;
#X obj 257 42 tgl 15 0 empty empty empty 17 7 0 10 -262144 -1 -1 1
1;
#X obj 259 16 loadbang;
#X obj 220 135 - 0.1;
#X obj 189 268 invert;
#X obj 188 236 > 0.1;
#X obj 189 296 outlet;
#X connect 0 0 6 0;
#X connect 1 0 8 0;
#X connect 1 0 11 0;
#X connect 2 0 1 0;
#X connect 3 0 4 0;
#X connect 3 1 5 0;
#X connect 4 0 5 0;
#X connect 5 0 1 1;
#X connect 6 0 7 0;
#X connect 7 0 1 1;
#X connect 8 0 13 0;
#X connect 9 0 2 0;
#X connect 10 0 9 0;
#X connect 11 0 3 0;
#X connect 12 0 14 0;
#X connect 13 0 12 0;
#X restore 285 120 pd last;
#X obj 425 299 r hid;
#X obj 492 220 sel 1 2 3;
#X msg 513 268 key_31;
#X msg 538 288 key_32;
#X obj 237 521 *;
#X obj 270 518 *;
#X obj 363 505 *;
#X obj 396 502 *;
#X obj 471 514 *;
#X obj 504 511 *;
#X obj 422 354 tgl 15 0 empty empty empty 17 7 0 10 -262144 -1 -1 0
1;
#X obj 480 302 symbol;
#X obj 424 328 route s;
#X msg 493 247 key_30;
#X obj 491 193 init \$1;
#X obj 492 168 bng 15 250 50 0 empty empty empty 17 7 0 10 -262144
-1 -1;
#X obj 343 55 r \$0-rename;
#X connect 1 0 11 0;
#X connect 2 0 14 0;
#X connect 5 0 4 0;
#X connect 5 0 19 0;
#X connect 5 0 23 0;
#X connect 5 0 26 0;
#X connect 5 0 31 0;
#X connect 6 0 3 0;
#X connect 6 0 18 0;
#X connect 6 0 22 0;
#X connect 6 0 25 0;
#X connect 6 0 30 0;
#X connect 7 0 10 0;
#X connect 8 0 9 0;
#X connect 9 0 1 0;
#X connect 9 0 53 0;
#X connect 9 1 2 0;
#X connect 10 0 8 0;
#X connect 11 0 6 0;
#X connect 12 0 13 0;
#X connect 14 0 5 0;
#X connect 15 0 17 0;
#X connect 16 0 15 0;
#X connect 17 0 11 1;
#X connect 17 0 14 1;
#X connect 20 0 21 0;
#X connect 21 0 22 1;
#X connect 21 0 23 1;
#X connect 22 0 60 0;
#X connect 23 0 61 0;
#X connect 24 0 27 0;
#X connect 25 0 58 0;
#X connect 26 0 59 0;
#X connect 27 0 25 1;
#X connect 27 0 26 1;
#X connect 28 0 0 0;
#X connect 29 0 32 0;
#X connect 30 0 62 0;
#X connect 31 0 63 0;
#X connect 32 0 30 1;
#X connect 32 0 31 1;
#X connect 33 0 34 0;
#X connect 35 0 45 0;
#X connect 36 0 37 0;
#X connect 36 0 38 0;
#X connect 37 0 40 1;
#X connect 38 0 39 1;
#X connect 39 0 43 0;
#X connect 40 0 39 0;
#X connect 41 0 42 0;
#X connect 42 0 48 0;
#X connect 43 0 46 0;
#X connect 44 0 35 1;
#X connect 45 0 40 0;
#X connect 45 1 41 0;
#X connect 45 2 50 0;
#X connect 46 0 51 0;
#X connect 47 0 52 0;
#X connect 48 0 47 0;
#X connect 49 0 44 0;
#X connect 50 0 49 0;
#X connect 51 0 1 0;
#X connect 52 0 2 0;
#X connect 53 0 51 1;
#X connect 53 0 52 1;
#X connect 54 0 66 0;
#X connect 55 0 67 0;
#X connect 55 1 56 0;
#X connect 55 2 57 0;
#X connect 56 0 65 0;
#X connect 57 0 65 0;
#X connect 58 0 28 0;
#X connect 59 0 28 1;
#X connect 60 0 12 0;
#X connect 61 0 12 1;
#X connect 62 0 33 0;
#X connect 63 0 33 1;
#X connect 64 0 58 1;
#X connect 64 0 59 1;
#X connect 64 0 60 1;
#X connect 64 0 61 1;
#X connect 64 0 62 1;
#X connect 64 0 63 1;
#X connect 65 0 66 1;
#X connect 66 0 64 0;
#X connect 67 0 65 0;
#X connect 68 0 55 0;
#X connect 69 0 68 0;
#X connect 70 0 35 0;
#X restore 231 157 pd shake;
#N canvas 0 22 483 424 midi 0;
#X obj 147 4 ctlin;
#X floatatom 158 31 5 0 0 0 - - -, f 5;
#X floatatom 195 31 5 0 0 0 - - -, f 5;
#X floatatom 121 35 5 0 0 0 - - -, f 5;
#X obj 138 62 pack f f;
#X msg 138 87 \$2 \$1;
#X obj 137 134 / 127;
#X obj 137 159 s \$0-dir;
#X obj 247 59 init \$1;
#X obj 269 34 bng 15 250 50 0 empty empty empty 17 7 0 10 -262144 -1
-1;
#X obj 247 83 + 19;
#X obj 137 110 route 0;
#X obj 92 79 route \$1;
#X obj 92 104 / 127;
#X obj 84 148 line;
#X obj 162 185 t b b;
#X msg 162 235 0;
#X msg 192 240 1;
#X msg 192 264 \$1 1000;
#X obj 193 287 line;
#X obj 162 210 del 500;
#X obj 192 310 s \$0-rororect;
#X msg 86 128 \$1 500;
#X obj 85 167 incirc;
#X obj 85 189 outlet;
#X connect 0 0 3 0;
#X connect 0 1 1 0;
#X connect 0 2 2 0;
#X connect 1 0 4 1;
#X connect 3 0 4 0;
#X connect 4 0 5 0;
#X connect 5 0 11 0;
#X connect 5 0 12 0;
#X connect 6 0 7 0;
#X connect 6 0 15 0;
#X connect 8 0 10 0;
#X connect 9 0 8 0;
#X connect 10 0 11 1;
#X connect 11 0 6 0;
#X connect 12 0 13 0;
#X connect 13 0 22 0;
#X connect 14 0 23 0;
#X connect 15 0 20 0;
#X connect 15 1 17 0;
#X connect 16 0 18 0;
#X connect 17 0 18 0;
#X connect 18 0 19 0;
#X connect 19 0 21 0;
#X connect 20 0 16 0;
#X connect 22 0 14 0;
#X connect 23 0 24 0;
#X restore 281 106 pd midi;
#X obj 333 -21 s \$0-dirdir;
#X obj 24 -25 r \$0-dirdir;
#N canvas 0 22 450 300 click_rectangle 0;
#N canvas 597 64 478 700 rectangle 0;
#X obj 10 523 translateXYZ;
#X obj 238 97 init \$1;
#X obj 85 214 unpack f f f;
#X obj 238 119 sel 1 2 3;
#X obj 256 -13 inlet;
#X obj -14 18 r \$0-start;
#X obj -14 41 sel 0 1;
#X msg 5 66 1;
#X msg -14 110 0;
#X obj -14 87 del 500;
#X obj 48 360 expr $f1*2*3.1415926;
#X obj 48 387 t f f b b b;
#X obj 128 447 v x_\$0;
#X obj 154 411 v y_\$0;
#X obj 6 283 t a b;
#X obj 48 310 expr fmod(($f1/100)+$f2 \, 1);
#X obj 207 275 inlet;
#X obj 69 -8 r \$0-area1;
#X obj 69 40 tgl 15 0 empty empty empty 17 7 0 10 -262144 -1 -1 1 1
;
#X obj 69 17 == 100;
#X floatatom 17 138 5 0 0 0 - - -, f 5;
#X obj 31 110 t b f;
#X obj 17 159 *;
#X obj 10 615 scale 1;
#X obj 10 567 t a b;
#X obj 62 590 / 8;
#X obj 62 616 * 0.4;
#X obj 10 546 rotateXYZ;
#X floatatom 91 522 5 0 0 0 - - -, f 5;
#X obj 91 544 * 360;
#X obj 48 333 t f f;
#X msg 48 283 0;
#X obj 30 474 expr cos($f1)*$f2+$f3;
#X obj 56 494 expr sin($f1)*$f2+$f3;
#X obj 10 642 rectangle 0.6 0.1;
#X obj 238 56 delay 200;
#X obj 215 454 line;
#X floatatom 215 507 5 0 0 0 - - -, f 5;
#X msg 215 428 1 \, 0 200;
#X obj 215 529 * 2;
#X obj 215 554 + 0.6;
#X obj 256 12 t b b b;
#X obj 215 479 inoutbounce;
#X obj 254 554 + 0.1;
#X obj 254 529 * 0.1;
#X obj 82 429 v r_\$1;
#X obj 62 566 v r_\$1;
#X obj 7 262 alpha;
#X obj 47 262 tgl 15 0 empty empty empty 17 7 0 10 -262144 -1 -1 1
1;
#X obj 81 272 loadbang;
#X obj 305 419 r \$0-rororect;
#X floatatom 306 443 5 0 0 0 - - -, f 5;
#X msg 306 490 \$1 50;
#X obj 204 216 k_between;
#X msg 285 255 1 1 1;
#X obj 285 232 loadbang;
#X msg 164 75 1;
#X msg 202 79 0;
#X obj 30 242 colorRGB 1 0 0 1;
#X msg 218 155 1 1 1;
#X msg 259 157 1 1 1;
#X msg 307 155 1 1 1;
#X obj 30 195 gemhead 10;
#X connect 0 0 27 0;
#X connect 1 0 3 0;
#X connect 2 0 58 1;
#X connect 2 1 58 2;
#X connect 2 2 58 3;
#X connect 3 0 59 0;
#X connect 3 1 60 0;
#X connect 3 2 61 0;
#X connect 4 0 41 0;
#X connect 5 0 6 0;
#X connect 6 0 9 0;
#X connect 6 1 7 0;
#X connect 7 0 20 0;
#X connect 8 0 20 0;
#X connect 9 0 8 0;
#X connect 10 0 11 0;
#X connect 11 0 32 0;
#X connect 11 1 33 0;
#X connect 11 2 12 0;
#X connect 11 3 13 0;
#X connect 11 4 45 0;
#X connect 12 0 32 2;
#X connect 13 0 33 2;
#X connect 14 0 0 0;
#X connect 14 1 31 0;
#X connect 15 0 30 0;
#X connect 16 0 15 1;
#X connect 17 0 19 0;
#X connect 18 0 21 0;
#X connect 19 0 18 0;
#X connect 20 0 22 0;
#X connect 21 0 20 0;
#X connect 21 1 22 1;
#X connect 22 0 62 0;
#X connect 23 0 34 0;
#X connect 24 0 23 0;
#X connect 24 1 46 0;
#X connect 25 0 23 1;
#X connect 25 0 26 0;
#X connect 27 0 24 0;
#X connect 28 0 29 0;
#X connect 29 0 27 3;
#X connect 30 0 10 0;
#X connect 30 1 28 0;
#X connect 31 0 15 0;
#X connect 32 0 0 1;
#X connect 33 0 0 2;
#X connect 35 0 57 0;
#X connect 36 0 42 0;
#X connect 37 0 39 0;
#X connect 37 0 44 0;
#X connect 38 0 36 0;
#X connect 39 0 40 0;
#X connect 40 0 34 1;
#X connect 41 0 35 0;
#X connect 41 1 56 0;
#X connect 41 2 38 0;
#X connect 42 0 37 0;
#X connect 43 0 34 2;
#X connect 44 0 43 0;
#X connect 45 0 32 1;
#X connect 45 0 33 1;
#X connect 46 0 25 0;
#X connect 47 0 14 0;
#X connect 48 0 47 1;
#X connect 49 0 48 0;
#X connect 50 0 51 0;
#X connect 51 0 52 0;
#X connect 51 0 53 0;
#X connect 52 0 36 0;
#X connect 53 0 2 0;
#X connect 54 0 53 2;
#X connect 55 0 54 0;
#X connect 56 0 53 0;
#X connect 57 0 53 0;
#X connect 58 0 47 0;
#X connect 59 0 53 1;
#X connect 60 0 53 1;
#X connect 61 0 53 1;
#X connect 62 0 58 0;
#X restore 113 280 pd rectangle;
#X obj 115 51 t f f;
#X obj 147 80 expr if($f1>90 && $f1<99 \, 1 \, 0);
#X obj 115 105 expr if($f1>0 && $f1<10 \, 1 \, 0);
#X obj 114 167 once;
#X obj 153 137 sel 1;
#X obj 115 139 sel 1;
#X obj 114 192 bng 15 250 50 0 empty empty empty 17 7 0 10 -262144
-1 -1;
#X obj 115 224 s ch-color;
#X obj 81 309 s click_\$1;
#X obj 113 258 r \$0-dirdir;
#X obj 120 22 inlet;
#X connect 1 0 3 0;
#X connect 1 1 2 0;
#X connect 2 0 5 0;
#X connect 3 0 6 0;
#X connect 4 0 7 0;
#X connect 5 0 4 1;
#X connect 6 0 4 0;
#X connect 7 0 0 1;
#X connect 7 0 8 0;
#X connect 7 0 9 0;
#X connect 10 0 0 0;
#X connect 11 0 1 0;
#X restore -162 76 pd click_rectangle;
#N canvas 0 22 804 627 net 0;
#X obj 201 326 s net;
#X obj 370 161 init \$1;
#X obj 201 265 packOSC;
#X msg 201 240 send /env1 \$1 \$2 \$3 \$4 \$5;
#X obj 213 144 init \$1;
#X obj 213 124 bng 15 250 50 0 empty empty empty 17 7 0 10 -262144
-1 -1;
#X msg 213 189 send /click1;
#X msg 213 165 set send /click\$1;
#X obj 201 299 spigot;
#X obj 269 281 r \$0-start;
#X obj 269 303 pipe 500;
#X msg 370 182 set send /env\$1 \, adddollar 1 \, adddollar 2 \, adddollar
3 \, adddollar 4 \, adddollar 5;
#X obj 280 136 r click_\$1;
#X obj 97 46 v x_\$0;
#X obj 116 71 v y_\$0;
#X obj 166 -16 v vel-\$1;
#X floatatom 166 62 5 0 0 0 - - -, f 5;
#X obj 166 37 expr 1-$f1;
#X obj 235 -7 v r_\$1;
#X obj 94 110 pack f f f f f;
#X obj 82 20 t f b b b b;
#X floatatom 235 15 5 0 0 0 - - -, f 5;
#X obj 166 10 * 0.4;
#X obj 65 163 metro 100;
#X obj 65 133 r \$0-start;
#X obj 65 187 list;
#X obj 161 82 k_float;
#X obj 235 34 k_float;
#X obj 88 -72 inlet;
#X obj 390 -41 expr $f1*2*3.1415926;
#N canvas 0 22 1000 714 mainline 0;
#X obj 518 100 inlet;
#X obj 296 345 pack f f;
#X obj 299 461 pack f f;
#X obj 505 278 expr cos($f1)*$f2+$f3;
#X obj 531 318 expr sin($f1)*$f2+$f3;
#X obj 554 162 v x_\$0;
#X obj 579 233 v y_\$0;
#X obj 319 401 v x_\$0;
#X obj 389 454 v y_\$0;
#N canvas 997 81 685 694 circle 0;
#X obj 56 226 inlet;
#X obj 117 247 inlet;
#X obj -58 73 gemhead;
#X obj -3 323 translate 1 0 0 0;
#X obj -136 325 translate 1 0 0 0;
#X obj -61 272 separator;
#X obj -136 297 separator;
#X obj -3 295 separator;
#X obj -61 303 curve 2;
#X obj -59 149 t a b b b;
#X obj 96 274 list;
#X obj 96 298 list append 0;
#X obj 73 -19 init \$1;
#X obj 73 3 sel 1 2 3;
#X obj 21 226 list;
#X obj 21 250 list append 0;
#X obj -58 45 t f f;
#X obj -58 20 r \$0-start;
#X obj 97 535 translate 1 0 0 0;
#X obj 97 353 separator;
#X obj 97 560 text2d;
#X obj 191 567 loadbang;
#X obj 192 184 v x_\$0;
#X obj 244 112 v y_\$0;
#X obj 97 381 t a b;
#X obj 192 205 t f f;
#X obj 192 233 -;
#X obj 244 135 t f f;
#X obj 245 160 -;
#X obj 196 112 t b b;
#X obj 192 255 expr if(abs($f1)>0.3 \, 1 \, 0);
#X obj 245 184 expr if(abs($f1)>0.1 \, 2 \, 0);
#X obj 192 278 sel 1 2;
#X obj 97 480 color 1 1 1;
#X obj 207 328 loadbang;
#X obj 215 375 r hid;
#X obj 215 399 route key_4 key_22 key_7;
#X floatatom 215 428 5 0 0 0 - - -, f 5;
#X obj 97 409 spigot;
#X obj 97 454 spigot;
#X obj 130 430 r gui-\$1;
#X msg 192 306 text [ More + ];
#X msg 207 351 text [ Less - ];
#X obj -58 191 alpha;
#X obj 88 147 loadbang;
#X obj 88 170 tgl 15 0 empty empty empty 17 7 0 10 -262144 -1 -1 1
1;
#X obj -61 228 t a a a a a;
#X obj -84 368 separator;
#X obj -77 551 text2d;
#X obj -82 423 translate 1 0 0 0;
#X obj -83 397 color 1 1 1;
#X obj -81 453 translateXYZ 0.15 -0.1 0;
#X msg 219 531 15;
#X obj 274 495 loadbang;
#X obj 97 508 translateXYZ 0.6 -0.05 0;
#X obj -136 348 circle 0.08;
#X obj -3 348 circle 0.04;
#X obj -177 451 r \$0-rename;
#X msg 191 590 font ACaslonPro-BoldItalic.otf \, justify left base
;
#X msg -170 568 text -Walk-;
#X obj -18 518 gate 3;
#X obj 38 417 init \$1;
#X obj -29 605 v rr;
#X obj 11 548 v gg;
#X obj 49 549 v bb;
#X obj -177 510 gate 2;
#X obj -176 482 + 1;
#X obj -158 403 loadbang;
#X msg -158 425 2;
#X obj -81 480 t a b;
#X obj 54 395 bng 15 250 50 0 empty empty empty 17 7 0 10 -262144 -1
-1;
#X msg -29 635 text -R : \$1-;
#X msg 65 636 text -B : \$1-;
#X msg 14 599 text -G : \$1-;
#X obj 82 -46 bng 15 250 50 0 empty empty empty 17 7 0 10 -262144 -1
-1;
#X msg -140 195 width 2;
#X obj -136 173 loadbang;
#X obj -58 128 color 1 1 1;
#X obj -58 101 spigot 0;
#X msg 73 27 0 1 0.3;
#X msg 107 83 1 0.6 0.2;
#X msg 90 56 0.4 0.1 1;
#X connect 0 0 14 1;
#X connect 1 0 10 1;
#X connect 2 0 78 0;
#X connect 3 0 56 0;
#X connect 4 0 55 0;
#X connect 5 0 8 0;
#X connect 6 0 4 0;
#X connect 7 0 3 0;
#X connect 9 0 43 0;
#X connect 9 2 14 0;
#X connect 9 3 10 0;
#X connect 10 0 11 0;
#X connect 11 0 8 2;
#X connect 11 0 3 2;
#X connect 11 0 18 2;
#X connect 11 0 49 2;
#X connect 12 0 13 0;
#X connect 13 0 79 0;
#X connect 13 1 81 0;
#X connect 13 2 80 0;
#X connect 14 0 15 0;
#X connect 15 0 8 1;
#X connect 15 0 4 2;
#X connect 16 0 2 0;
#X connect 16 1 78 1;
#X connect 17 0 16 0;
#X connect 18 0 20 0;
#X connect 19 0 24 0;
#X connect 21 0 58 0;
#X connect 22 0 25 0;
#X connect 23 0 27 0;
#X connect 24 0 38 0;
#X connect 24 1 29 0;
#X connect 25 0 26 1;
#X connect 25 1 26 0;
#X connect 26 0 30 0;
#X connect 27 0 28 1;
#X connect 27 1 28 0;
#X connect 28 0 31 0;
#X connect 29 0 22 0;
#X connect 29 1 23 0;
#X connect 30 0 32 0;
#X connect 31 0 32 0;
#X connect 32 0 41 0;
#X connect 32 1 42 0;
#X connect 33 0 54 0;
#X connect 34 0 42 0;
#X connect 35 0 36 0;
#X connect 36 0 37 0;
#X connect 36 1 37 0;
#X connect 36 2 37 0;
#X connect 37 0 38 1;
#X connect 38 0 39 0;
#X connect 39 0 33 0;
#X connect 40 0 39 1;
#X connect 41 0 20 0;
#X connect 42 0 20 0;
#X connect 43 0 46 0;
#X connect 44 0 45 0;
#X connect 46 0 47 0;
#X connect 46 1 5 0;
#X connect 46 2 6 0;
#X connect 46 3 7 0;
#X connect 46 4 19 0;
#X connect 47 0 50 0;
#X connect 49 0 51 0;
#X connect 50 0 49 0;
#X connect 51 0 69 0;
#X connect 52 0 20 1;
#X connect 53 0 52 0;
#X connect 54 0 18 0;
#X connect 57 0 66 0;
#X connect 58 0 20 0;
#X connect 58 0 48 0;
#X connect 59 0 48 0;
#X connect 60 0 62 0;
#X connect 60 1 63 0;
#X connect 60 2 64 0;
#X connect 61 0 60 0;
#X connect 62 0 71 0;
#X connect 63 0 73 0;
#X connect 64 0 72 0;
#X connect 65 0 60 1;
#X connect 65 1 59 0;
#X connect 66 0 65 0;
#X connect 67 0 68 0;
#X connect 68 0 65 0;
#X connect 69 0 48 0;
#X connect 69 1 65 1;
#X connect 70 0 61 0;
#X connect 71 0 48 0;
#X connect 72 0 48 0;
#X connect 73 0 48 0;
#X connect 74 0 12 0;
#X connect 75 0 8 0;
#X connect 76 0 75 0;
#X connect 77 0 9 0;
#X connect 78 0 77 0;
#X connect 79 0 77 1;
#X connect 80 0 77 1;
#X connect 81 0 77 1;
#X restore 239 488 pd circle;
#X obj 464 367 k_range -4 4 0 200;
#X obj 509 394 k_range 4 -4 0 200;
#X obj 485 472 k_range -4 4 0 200;
#X obj 538 444 k_range 4 -4 0 200;
#X obj 485 497 pack f f;
#X obj 464 522 list;
#X obj 464 568 s mainline\$1;
#X obj 464 420 pack f f;
#X obj 296 373 t a b b;
#X obj 735 466 > 0;
#X obj 464 546 spigot;
#X obj 610 161 v r_\$1;
#X floatatom 327 545 5 0 0 0 - - -, f 5;
#X floatatom 389 499 5 0 0 0 - - -, f 5;
#X obj 389 525 v py\$1;
#X obj 327 574 v px\$1;
#X obj 735 434 v speed-\$1;
#X obj 518 129 t f f b b b b;
#X connect 0 0 27 0;
#X connect 1 0 18 0;
#X connect 2 0 9 1;
#X connect 3 0 1 0;
#X connect 3 0 10 0;
#X connect 4 0 1 1;
#X connect 4 0 11 0;
#X connect 5 0 3 2;
#X connect 6 0 4 2;
#X connect 7 0 2 0;
#X connect 7 0 12 0;
#X connect 7 0 22 0;
#X connect 8 0 2 1;
#X connect 8 0 13 0;
#X connect 8 0 23 0;
#X connect 10 0 17 0;
#X connect 11 0 17 1;
#X connect 12 0 14 0;
#X connect 13 0 14 1;
#X connect 14 0 15 1;
#X connect 15 0 20 0;
#X connect 17 0 15 0;
#X connect 18 0 9 0;
#X connect 18 1 7 0;
#X connect 18 2 8 0;
#X connect 19 0 20 1;
#X connect 20 0 16 0;
#X connect 21 0 3 1;
#X connect 21 0 4 1;
#X connect 22 0 25 0;
#X connect 23 0 24 0;
#X connect 26 0 19 0;
#X connect 27 0 3 0;
#X connect 27 1 4 0;
#X connect 27 2 5 0;
#X connect 27 3 6 0;
#X connect 27 4 21 0;
#X connect 27 5 26 0;
#X restore 390 -19 pd mainline;
#X obj 88 -50 t f f;
#X connect 1 0 11 0;
#X connect 2 0 8 0;
#X connect 3 0 2 0;
#X connect 4 0 7 0;
#X connect 5 0 4 0;
#X connect 6 0 2 0;
#X connect 7 0 6 0;
#X connect 8 0 0 0;
#X connect 9 0 10 0;
#X connect 10 0 8 1;
#X connect 11 0 3 0;
#X connect 12 0 6 0;
#X connect 13 0 19 1;
#X connect 14 0 19 2;
#X connect 15 0 22 0;
#X connect 16 0 26 0;
#X connect 17 0 16 0;
#X connect 18 0 21 0;
#X connect 19 0 25 1;
#X connect 20 0 19 0;
#X connect 20 1 13 0;
#X connect 20 2 14 0;
#X connect 20 3 15 0;
#X connect 20 4 18 0;
#X connect 21 0 27 0;
#X connect 22 0 17 0;
#X connect 23 0 25 0;
#X connect 24 0 23 0;
#X connect 25 0 3 0;
#X connect 26 0 19 3;
#X connect 27 0 19 4;
#X connect 28 0 31 0;
#X connect 29 0 30 0;
#X connect 31 0 20 0;
#X connect 31 1 29 0;
#X restore -130 55 pd net;
#X obj -162 -1 t f f;
#X obj 24 -3 t f f;
#X obj -80 -69 t f f;
#X obj 95 -122 env~;
#X obj 95 -100 s \$0-volvol;
#X obj 30 -53 table \$0-sound 400;
#X obj 333 266 randomF 3;
#X connect 0 0 5 0;
#X connect 1 0 38 0;
#X connect 2 0 26 0;
#X connect 2 0 55 0;
#X connect 3 0 40 0;
#X connect 3 0 51 0;
#X connect 4 0 14 0;
#X connect 4 0 53 0;
#X connect 5 0 28 1;
#X connect 6 0 36 0;
#X connect 6 0 49 0;
#X connect 7 0 6 1;
#X connect 8 0 68 0;
#X connect 9 0 56 0;
#X connect 10 0 3 0;
#X connect 11 0 57 0;
#X connect 12 0 13 0;
#X connect 12 1 28 0;
#X connect 15 0 18 0;
#X connect 16 0 34 0;
#X connect 17 0 23 0;
#X connect 18 0 21 0;
#X connect 18 1 20 0;
#X connect 19 0 17 0;
#X connect 20 0 75 0;
#X connect 21 0 19 0;
#X connect 23 0 43 0;
#X connect 24 0 71 0;
#X connect 27 0 24 0;
#X connect 28 0 0 0;
#X connect 28 0 69 0;
#X connect 29 0 39 0;
#X connect 29 0 42 0;
#X connect 31 0 32 0;
#X connect 32 0 33 0;
#X connect 33 0 17 0;
#X connect 34 0 12 0;
#X connect 35 0 1 0;
#X connect 36 0 65 0;
#X connect 37 0 6 0;
#X connect 38 0 37 0;
#X connect 42 0 30 0;
#X connect 44 0 50 0;
#X connect 45 0 44 0;
#X connect 46 0 47 0;
#X connect 47 0 48 0;
#X connect 48 0 44 0;
#X connect 49 0 7 0;
#X connect 51 0 0 1;
#X connect 52 0 4 0;
#X connect 53 0 45 0;
#X connect 54 0 17 0;
#X connect 55 0 41 0;
#X connect 56 0 2 0;
#X connect 57 0 2 0;
#X connect 57 1 58 0;
#X connect 58 0 2 0;
#X connect 59 0 60 0;
#X connect 59 0 72 0;
#X connect 61 0 62 0;
#X connect 62 0 60 0;
#X connect 63 0 29 0;
#X connect 64 0 29 0;
#X connect 66 0 70 0;
#X connect 69 0 67 0;
#X connect 69 1 8 0;
#X connect 70 0 25 1;
#X connect 70 1 8 1;
#X connect 71 0 25 0;
#X connect 71 1 5 1;
#X connect 72 0 73 0;
#X connect 75 0 54 0;
#X coords 0 -1 1 1 120 100 1 100 100;
