#N canvas 761 316 1023 635 10;
#X obj -131 -26 + 1;
#X obj 165 158 hsl 50 15 0 1 0 0 empty empty Dir 10 7 0 10 -228856
-1 -1 4900 1;
#X obj 106 178 hsl 50 15 5 100 0 0 empty empty Area 10 7 0 10 -262144
-1 -1 4900 1;
#X obj 106 158 hsl 50 15 0 1.6 0 0 empty empty Speed 10 7 0 10 -262144
-1 -1 306 1;
#X obj 103 119 tgl 30 0 empty empty empty 17 7 0 10 -233017 -1 -262144
1 1;
#X obj -130 26 expr fmod(($f1/100)+$f2 \, 1);
#X obj -14 169 loadbang;
#X obj -54 250 r \$0-area;
#X obj -189 -51 t b b;
#X obj -189 124 s \$0-bang;
#X obj -10 143 s \$0-start;
#X obj -190 -167 r \$0-start;
#N canvas 646 358 570 307 defult 0;
#X msg 363 104 0.05;
#X obj 149 136 v display\$1;
#X obj 364 127 s \$0-speed;
#X obj 149 113 r \$0-start;
#X obj 49 128 s \$0-dir;
#X msg 291 102 100;
#X obj 291 127 s \$0-area;
#X obj 291 75 loadbang;
#X obj 52 87 loadbang;
#X msg 50 106 1;
#X connect 0 0 2 0;
#X connect 3 0 1 0;
#X connect 5 0 6 0;
#X connect 7 0 5 0;
#X connect 7 0 0 0;
#X connect 8 0 9 0;
#X connect 9 0 4 0;
#X restore 307 138 pd defult;
#X obj -80 -93 k_spring 3;
#N canvas 167 306 1440 710 fill-circl 0;
#X obj 55 376 GEMglEnd;
#X obj 122 355 GEMglBegin;
#X obj 55 345 t a a a;
#X obj 74 690 GEMglVertex3f 0 0 0;
#X obj 74 434 t a b;
#X obj 101 457 f;
#X obj 132 457 + 1;
#X obj 146 534 expr $f1*2 *3.1415926;
#X obj 55 290 separator;
#X obj 162 456 % 100;
#X obj 74 409 repeat 100;
#X obj 102 488 sel 0;
#X msg 179 332 9;
#X obj 146 508 expr fmod(($f1/98)+$f2 \, 1);
#X obj 84 549 t b b;
#X obj 215 41 sel 1 2 3;
#X obj 146 624 expr cos($f1)*$f2+$f3;
#X obj 179 647 expr sin($f1)*$f2+$f3;
#X obj 146 558 t f f b b b;
#X obj 305 583 v x_\$0;
#X obj 84 578 v x_\$0;
#X obj 111 598 v y_\$0;
#X msg -22 166 auto 1;
#X obj -22 135 loadbang;
#X obj 54 30 r \$0-start;
#X obj 54 53 sel 0 1;
#X msg 73 78 1;
#X msg 54 122 0;
#X obj 54 99 del 500;
#X obj 227 422 inlet;
#X obj 314 466 inlet;
#X obj 319 606 v y_\$0;
#X obj 471 317 +;
#X obj 474 206 t b b;
#X obj 390 289 v a1;
#X obj 390 314 +;
#X obj 389 338 v a1;
#X obj 393 203 t b b;
#X obj 470 341 v a2;
#X obj 471 292 v a2;
#X obj 402 159 t b b b;
#X obj 349 370 pack f f;
#X obj 407 237 randomF 0.2;
#X obj 488 240 randomF 0.2;
#X obj 488 264 - 0.1;
#X obj 407 261 - 0.1;
#X obj 215 19 init \$1;
#X obj 55 266 pix_shader noise\$1;
#X msg 181 222 color \$1 \$2 \$3 \$4;
#X msg 233 285 vel \$1;
#X obj 55 241 t a b;
#X obj 314 359 list;
#X msg 314 399 noise \$1 \$2;
#X obj 233 261 r \$0-vel;
#X obj 291 286 sel 0;
#X msg 291 307 0;
#X obj 333 190 loadbang;
#X msg 333 250 0;
#X obj 333 220 del 200;
#X obj 215 -11 del 100;
#X obj 207 598 v r_\$1;
#X msg 162 140 1 1 1;
#X obj 179 305 loadbang;
#X obj 54 144 tgl 15 0 empty empty empty 17 7 0 10 -262144 -1 -1 0
1;
#X obj 54 166 gemhead 1;
#X obj 1179 183 GEMglEnd;
#X obj 1260 173 GEMglBegin;
#X obj 1179 152 t a a a;
#X obj 1198 518 GEMglVertex3f 0 0 0;
#X obj 1198 241 t a b;
#X obj 1225 264 f;
#X obj 1256 264 + 1;
#X msg 1317 150 9;
#X obj 1323 117 loadbang;
#X obj 1227 287 t f f;
#X obj 608 252 GEMglEnd;
#X obj 711 249 GEMglBegin;
#X obj 608 221 t a a a;
#X obj 627 587 GEMglVertex3f 0 0 0;
#X obj 627 310 t a b;
#X obj 654 333 f;
#X obj 685 333 + 1;
#X obj 699 431 expr $f1*2 *3.1415926;
#X obj 699 521 expr cos($f1)*$f2+$f3;
#X obj 732 544 expr sin($f1)*$f2+$f3;
#X obj 699 455 t f f b b b;
#X obj 862 487 v x_\$0;
#X obj 923 481 v y_\$0;
#X obj 768 203 loadbang;
#X obj 656 356 t f f;
#X obj 912 383 tabread \$0-sound;
#X msg 912 331 0;
#X obj 912 406 * 0.5;
#X obj 912 305 sel 0 199;
#X obj 912 279 t f f;
#X obj 987 313 expr if($f1>100 \, 200-$f1 \, $f1);
#X obj 967 344 expr pow(($f1/100) \, 1);
#X obj 805 455 v r_\$1;
#X obj 808 482 +;
#X obj 975 116 r \$0-vel;
#X floatatom 975 138 5 0 0 0 - - -, f 5;
#X obj 1205 9 unpack f f f f;
#X floatatom 768 287 5 0 0 0 - - -, f 5;
#X floatatom 928 245 5 0 0 0 - - -, f 5;
#X floatatom 823 314 5 0 0 0 - - -, f 5;
#X obj 643 104 t a b;
#X obj 810 265 k_count 0.05 1;
#X floatatom 810 287 5 0 0 0 - - -, f 5;
#X floatatom 1215 122 5 0 0 0 - - -, f 5;
#X obj 1170 113 t a b;
#X obj 1215 100 k_count 0.02 1;
#X obj 1198 216 repeat 100;
#X obj 627 285 repeat 200;
#X obj 715 332 % 200;
#X obj 1286 263 % 200;
#X obj 920 204 * 2;
#X obj 608 164 colorRGB 1 1 1 0.1;
#X obj 643 133 separator;
#X obj 1166 -15 separator;
#X obj 975 184 + 0.1;
#X obj 926 222 int;
#X obj 1275 365 expr $f1*2 *3.1415926;
#X obj 1231 319 sel 0;
#X obj 1213 380 t b b;
#X obj 1275 455 expr cos($f1)*$f2+$f3;
#X obj 1308 478 expr sin($f1)*$f2+$f3;
#X obj 1275 389 t f f b b b;
#X obj 1398 431 v x_\$0;
#X obj 1213 409 v x_\$0;
#X obj 1240 429 v y_\$0;
#X obj 1431 454 v y_\$0;
#X obj 1336 429 v r_\$1;
#X floatatom 1409 293 5 0 0 0 - - -, f 5;
#X obj 1275 339 expr fmod(($f1/198)+$f2 \, 1);
#X obj 985 276 expr if($f1==200 \, 1 \, 0);
#X obj 823 333 *;
#X msg 768 226 3;
#X obj 699 405 expr fmod($f1/198+$f2+$f3 \, 1);
#X obj 717 -102 r \$0-volvol;
#X floatatom 717 62 5 0 0 0 - - -, f 5;
#X obj 717 81 + 1;
#X floatatom 717 103 5 0 0 0 - - -, f 5;
#X obj 795 131 sel 0 1;
#X msg 795 153 0;
#X msg 834 155 3;
#X obj 717 40 expr int(($f1-70)/6);
#X obj 795 102 < 85;
#X obj 717 -50 moses 70;
#X msg 717 -28 70;
#X floatatom 717 1 5 0 0 0 - - -, f 5;
#X obj 1166 54 colorRGB 1 0 0 0.6;
#X floatatom 1291 -24 5 0 0 0 - - -, f 5;
#X obj 1291 -46 k_range 70 95 0.4 0.9;
#X obj 912 430 * 0.5;
#X obj 912 355 * 2;
#X obj 717 129 abs;
#X obj 717 -80 moses;
#X msg 215 66 0.85 0.2 0.32;
#X msg 232 94 0.13 0.85 0.54;
#X msg 249 121 0.33 0.46 0.81;
#X obj 181 195 list 0.95;
#X obj 608 189 GEMglLineWidth 2;
#X obj -384 46 init \$1;
#X obj -384 68 expr if($f1==2 \, 1 \, 0);
#X obj 603 49 t a a a a;
#X floatatom 862 509 5 0 0 0 - - -, f 5;
#X obj 29 -49 init \$1;
#X msg 28 -21 set \$1;
#X obj 54 209 alpha;
#X obj 46 -76 bng 15 250 50 0 empty empty empty 17 7 0 10 -262144 -1
-1;
#X obj 1170 76 alpha;
#X connect 2 0 0 0;
#X connect 2 1 10 0;
#X connect 2 2 1 0;
#X connect 4 0 3 0;
#X connect 4 1 5 0;
#X connect 5 0 6 0;
#X connect 5 0 11 0;
#X connect 6 0 9 0;
#X connect 7 0 18 0;
#X connect 8 0 2 0;
#X connect 9 0 5 1;
#X connect 10 0 4 0;
#X connect 11 0 14 0;
#X connect 11 1 13 0;
#X connect 12 0 1 1;
#X connect 13 0 7 0;
#X connect 14 0 20 0;
#X connect 14 1 21 0;
#X connect 15 0 157 0;
#X connect 15 1 158 0;
#X connect 15 2 159 0;
#X connect 16 0 3 1;
#X connect 17 0 3 2;
#X connect 18 0 16 0;
#X connect 18 1 17 0;
#X connect 18 2 19 0;
#X connect 18 3 31 0;
#X connect 18 4 60 0;
#X connect 19 0 16 2;
#X connect 20 0 3 1;
#X connect 21 0 3 2;
#X connect 22 0 168 0;
#X connect 23 0 22 0;
#X connect 24 0 25 0;
#X connect 25 0 28 0;
#X connect 25 1 26 0;
#X connect 25 1 59 0;
#X connect 26 0 64 0;
#X connect 27 0 63 0;
#X connect 28 0 27 0;
#X connect 29 0 10 1;
#X connect 29 0 9 1;
#X connect 29 0 115 0;
#X connect 30 0 13 1;
#X connect 30 0 132 0;
#X connect 31 0 17 2;
#X connect 32 0 38 0;
#X connect 32 0 41 1;
#X connect 33 0 39 0;
#X connect 33 1 43 0;
#X connect 34 0 35 0;
#X connect 35 0 36 0;
#X connect 35 0 41 0;
#X connect 37 0 34 0;
#X connect 37 1 42 0;
#X connect 39 0 32 0;
#X connect 40 0 51 0;
#X connect 40 1 37 0;
#X connect 40 2 33 0;
#X connect 41 0 51 1;
#X connect 42 0 45 0;
#X connect 43 0 44 0;
#X connect 44 0 32 1;
#X connect 45 0 35 1;
#X connect 46 0 15 0;
#X connect 47 0 8 0;
#X connect 48 0 47 1;
#X connect 49 0 47 1;
#X connect 50 0 47 0;
#X connect 50 1 40 0;
#X connect 51 0 52 0;
#X connect 52 0 47 1;
#X connect 53 0 49 0;
#X connect 53 0 54 0;
#X connect 54 0 55 0;
#X connect 55 0 36 0;
#X connect 55 0 38 0;
#X connect 56 0 58 0;
#X connect 57 0 49 0;
#X connect 58 0 57 0;
#X connect 59 0 46 0;
#X connect 60 0 17 1;
#X connect 60 0 16 1;
#X connect 61 0 160 0;
#X connect 62 0 12 0;
#X connect 63 0 64 0;
#X connect 64 0 168 0;
#X connect 67 0 65 0;
#X connect 67 1 111 0;
#X connect 67 2 66 0;
#X connect 69 0 68 0;
#X connect 69 1 70 0;
#X connect 70 0 71 0;
#X connect 70 0 74 0;
#X connect 71 0 114 0;
#X connect 72 0 66 1;
#X connect 73 0 72 0;
#X connect 74 0 122 0;
#X connect 77 0 75 0;
#X connect 77 1 112 0;
#X connect 77 2 76 0;
#X connect 79 0 78 0;
#X connect 79 1 80 0;
#X connect 80 0 81 0;
#X connect 80 0 89 0;
#X connect 81 0 113 0;
#X connect 82 0 85 0;
#X connect 83 0 78 1;
#X connect 84 0 78 2;
#X connect 85 0 83 0;
#X connect 85 1 84 0;
#X connect 85 2 86 0;
#X connect 85 3 87 0;
#X connect 85 4 97 0;
#X connect 86 0 165 0;
#X connect 87 0 84 2;
#X connect 88 0 136 0;
#X connect 89 0 137 0;
#X connect 89 1 94 0;
#X connect 90 0 92 0;
#X connect 91 0 154 0;
#X connect 92 0 153 0;
#X connect 93 0 91 0;
#X connect 93 1 91 0;
#X connect 93 2 154 0;
#X connect 94 0 93 0;
#X connect 94 1 95 0;
#X connect 95 0 96 0;
#X connect 96 0 92 1;
#X connect 97 0 98 0;
#X connect 98 0 84 1;
#X connect 98 0 83 1;
#X connect 99 0 100 0;
#X connect 100 0 119 0;
#X connect 101 0 150 1;
#X connect 101 1 150 2;
#X connect 101 2 150 3;
#X connect 102 0 112 1;
#X connect 102 0 113 1;
#X connect 103 0 111 1;
#X connect 103 0 114 1;
#X connect 103 0 134 0;
#X connect 104 0 135 0;
#X connect 105 0 117 0;
#X connect 105 1 106 0;
#X connect 106 0 107 0;
#X connect 107 0 104 0;
#X connect 109 0 67 0;
#X connect 109 1 110 0;
#X connect 110 0 108 0;
#X connect 111 0 69 0;
#X connect 112 0 79 0;
#X connect 113 0 80 1;
#X connect 114 0 70 1;
#X connect 115 0 120 0;
#X connect 116 0 161 0;
#X connect 117 0 116 0;
#X connect 118 0 150 0;
#X connect 119 0 153 1;
#X connect 120 0 103 0;
#X connect 120 0 102 0;
#X connect 121 0 126 0;
#X connect 122 0 123 0;
#X connect 122 1 133 0;
#X connect 123 0 128 0;
#X connect 123 1 129 0;
#X connect 124 0 68 1;
#X connect 125 0 68 2;
#X connect 126 0 124 0;
#X connect 126 1 125 0;
#X connect 126 2 127 0;
#X connect 126 3 130 0;
#X connect 126 4 131 0;
#X connect 127 0 124 2;
#X connect 128 0 68 1;
#X connect 129 0 68 2;
#X connect 130 0 125 2;
#X connect 131 0 125 1;
#X connect 131 0 124 1;
#X connect 132 0 133 1;
#X connect 132 0 137 2;
#X connect 133 0 121 0;
#X connect 134 0 135 1;
#X connect 135 0 137 1;
#X connect 136 0 76 1;
#X connect 137 0 82 0;
#X connect 138 0 156 0;
#X connect 139 0 140 0;
#X connect 140 0 141 0;
#X connect 141 0 155 0;
#X connect 142 0 143 0;
#X connect 142 1 144 0;
#X connect 143 0 76 1;
#X connect 144 0 76 1;
#X connect 145 0 139 0;
#X connect 146 0 142 0;
#X connect 147 0 148 0;
#X connect 147 1 149 0;
#X connect 148 0 149 0;
#X connect 149 0 152 0;
#X connect 149 0 145 0;
#X connect 149 0 146 0;
#X connect 150 0 170 0;
#X connect 151 0 150 4;
#X connect 152 0 151 0;
#X connect 153 0 98 1;
#X connect 154 0 90 0;
#X connect 155 0 161 1;
#X connect 156 0 147 0;
#X connect 157 0 160 0;
#X connect 158 0 160 0;
#X connect 159 0 160 0;
#X connect 160 0 48 0;
#X connect 160 0 101 0;
#X connect 161 0 77 0;
#X connect 162 0 163 0;
#X connect 164 2 105 0;
#X connect 164 3 118 0;
#X connect 165 0 83 2;
#X connect 166 0 167 0;
#X connect 167 0 64 0;
#X connect 168 0 164 0;
#X connect 169 0 166 0;
#X connect 170 0 109 0;
#X restore -80 109 pd fill-circl;
#X obj 81 326 s \$0-area1;
#X obj -80 -116 r \$0-area1;
#X obj -162 -26 f 0;
#X obj 165 178 hsl 50 15 0 1 0 0 empty empty Vel 10 7 0 10 -228856
-1 -1 0 1;
#X obj 114 246 s \$0-vel;
#X obj 112 -10 r \$0-dir;
#X obj 173 369 v vel-\$1;
#X obj -14 219 v speed-\$1;
#X obj 103 303 v area-\$1;
#X obj 114 222 * 3;
#X obj 163 122 tgl 30 0 empty empty empty 17 7 0 10 -262144 -1 -1 0
1;
#X msg 237 93 0;
#X obj 307 161 r tomove;
#X obj 307 186 route \$1;
#X obj 307 209 bng 15 250 50 0 empty empty empty 17 7 0 10 -262144
-1 -1;
#X obj 193 348 s \$0-rename;
#X floatatom -113 -48 5 0 0 0 - - -, f 5;
#N canvas 652 173 450 300 tgl 0;
#X floatatom 60 82 5 0 0 0 - - -, f 5;
#X floatatom 97 82 5 0 0 0 - - -, f 5;
#X floatatom 23 86 5 0 0 0 - - -, f 5;
#X obj 40 113 pack f f;
#X msg 40 138 \$2 \$1;
#X obj 40 161 route 0;
#X obj 123 121 init \$1;
#X obj 145 96 bng 15 250 50 0 empty empty empty 17 7 0 10 -262144 -1
-1;
#X obj 123 145 + 35;
#X floatatom 34 189 5 0 0 0 - - -, f 5;
#X obj 31 217 / 127;
#X obj 32 241 outlet;
#X obj 244 59 r mouseOpen;
#X msg 244 118 \$2 \$1;
#X obj 244 141 route \$1;
#X obj 317 88 r keyctl;
#X obj 244 90 spigot 1;
#X msg 171 64 0;
#X obj 171 37 loadbang;
#X obj 219 227 r read_\$0_head;
#X obj 46 17 r ctlin;
#X obj 46 39 unpack f f f;
#X connect 0 0 3 1;
#X connect 2 0 3 0;
#X connect 3 0 4 0;
#X connect 4 0 5 0;
#X connect 5 0 9 0;
#X connect 6 0 8 0;
#X connect 7 0 6 0;
#X connect 8 0 5 1;
#X connect 9 0 10 0;
#X connect 10 0 11 0;
#X connect 12 0 16 0;
#X connect 13 0 14 0;
#X connect 14 0 11 0;
#X connect 15 0 16 1;
#X connect 16 0 13 0;
#X connect 17 0 11 0;
#X connect 18 0 17 0;
#X connect 19 0 11 0;
#X connect 20 0 21 0;
#X connect 21 0 2 0;
#X connect 21 1 0 0;
#X connect 21 2 1 0;
#X restore 103 69 pd tgl;
#X obj 237 68 sel 0;
#X floatatom 103 278 5 0 0 0 - - -, f 5;
#X msg -14 194 100;
#X obj -54 272 moses 100;
#X msg 5 295 100;
#X obj 95 -145 inlet~;
#X obj 30 -76 tabwrite~ \$0-sound;
#X obj 30 -135 gemhead;
#X obj 30 -111 t b;
#N canvas 341 295 1129 751 shake 0;
#X obj 238 597 outlet;
#X floatatom 96 398 4 -7 7 0 x - -, f 4;
#X floatatom 175 400 4 -4 4 0 y - -, f 4;
#X floatatom 175 450 5 0 0 0 - - -, f 5;
#X floatatom 96 447 5 0 0 0 - - -, f 5;
#X obj 2 -6 r mouseMove;
#X obj 105 372 unpack f f;
#X obj 96 422 k_spring 1;
#N canvas 972 22 449 707 speed 0;
#X obj 105 77 t f f;
#X obj 105 105 -;
#X obj 114 256 f;
#X obj 114 226 t b f;
#X floatatom 114 345 5 0 0 0 - - -, f 5;
#X obj 160 -75 t f f;
#X obj 161 -26 -;
#X obj 184 99 t b f;
#X obj 149 256 + 0;
#X obj 105 28 inlet x;
#X obj 154 -98 inlet y;
#X obj -18 565 outlet speed;
#X obj 212 304 moses 1;
#X msg 251 329 1;
#X obj 103 150 sel 0;
#X obj 161 17 sel 0;
#X obj 31 226 loadbang;
#X obj 149 282 moses 0;
#X msg 149 302 0;
#X floatatom 126 185 5 0 0 0 - - -, f 5;
#X floatatom 193 58 5 0 0 0 - - -, f 5;
#X obj 104 126 expr if(abs($f1)>0.1 \, 0.01 \, 0);
#X obj 161 -2 expr if(abs($f1)>0.1 \, -0.01 \, 0);
#X obj 114 370 expr int($f1*100)/100;
#X obj -48 389 / 2;
#X floatatom -54 441 5 0 0 0 - - -, f 5;
#X obj -49 413 expr int($f1*10);
#X obj -55 467 sel 0 1 2 3 4 5;
#X msg 47 495 1;
#X msg 18 495 0.8;
#X msg 0 511 0.4;
#X msg -15 491 0.2;
#X msg -42 511 0.1;
#X msg -57 489 0.05;
#X floatatom 123 397 5 0 0 0 - - -, f 5;
#X obj -42 62 pack f f;
#X msg -42 87 \$2 \$1;
#X obj -42 110 route 0;
#X obj 41 70 init \$1;
#X obj 41 94 + 3;
#X obj 63 45 bng 15 250 50 0 empty empty empty 17 7 0 10 -262144 -1
-1;
#X floatatom -50 200 5 0 0 0 - - -, f 5;
#X obj -57 154 k_range 0 127 0.01 1;
#X msg 29 257 0.1;
#X obj -40 -11 r ctlin;
#X obj -40 11 unpack f f f;
#X connect 0 0 1 1;
#X connect 0 1 1 0;
#X connect 1 0 21 0;
#X connect 2 0 4 0;
#X connect 2 0 8 0;
#X connect 3 0 2 0;
#X connect 3 1 8 1;
#X connect 4 0 23 0;
#X connect 5 0 6 1;
#X connect 5 1 6 0;
#X connect 6 0 22 0;
#X connect 7 0 2 0;
#X connect 7 1 8 1;
#X connect 8 0 17 0;
#X connect 9 0 0 0;
#X connect 10 0 5 0;
#X connect 12 0 2 1;
#X connect 12 1 13 0;
#X connect 13 0 4 0;
#X connect 14 1 19 0;
#X connect 15 1 20 0;
#X connect 16 0 43 0;
#X connect 17 0 18 0;
#X connect 17 1 12 0;
#X connect 18 0 4 0;
#X connect 19 0 3 0;
#X connect 20 0 7 0;
#X connect 21 0 14 0;
#X connect 22 0 15 0;
#X connect 23 0 11 0;
#X connect 23 0 34 0;
#X connect 24 0 26 0;
#X connect 25 0 27 0;
#X connect 26 0 25 0;
#X connect 27 0 33 0;
#X connect 27 1 32 0;
#X connect 27 2 31 0;
#X connect 27 3 30 0;
#X connect 27 4 29 0;
#X connect 27 5 28 0;
#X connect 28 0 11 0;
#X connect 29 0 11 0;
#X connect 30 0 11 0;
#X connect 31 0 11 0;
#X connect 32 0 11 0;
#X connect 33 0 11 0;
#X connect 35 0 36 0;
#X connect 36 0 37 0;
#X connect 37 0 42 0;
#X connect 38 0 39 0;
#X connect 39 0 37 1;
#X connect 40 0 38 0;
#X connect 41 0 2 0;
#X connect 42 0 41 0;
#X connect 43 0 2 0;
#X connect 44 0 45 0;
#X connect 45 0 35 0;
#X connect 45 1 35 1;
#X restore 362 529 pd speed;
#X obj 361 551 s \$0-speed;
#X obj 175 424 k_spring 1;
#X obj 251 242 random 5;
#X obj 250 212 loadbang;
#X obj 251 266 + 5;
#X obj 59 530 v cx-\$1;
#X obj 120 529 v cy-\$1;
#X obj 416 412 r hid;
#X obj 416 436 route key_22;
#X obj 362 483 *;
#X obj 395 480 *;
#X obj 291 420 r hid;
#X obj 238 493 *;
#X obj 271 490 *;
#X obj 291 444 route key_4;
#N canvas 494 22 471 532 vel 0;
#X obj 105 77 t f f;
#X obj 106 147 -;
#X obj 124 268 t b f;
#X floatatom 123 387 5 0 0 0 - - -, f 5;
#X obj 157 -17 t f f;
#X obj 158 32 -;
#X obj 185 141 t b f;
#X obj 158 298 + 0;
#X obj 105 28 inlet x;
#X obj 151 -40 inlet y;
#X obj 125 437 outlet speed;
#X obj 221 346 moses 1;
#X msg 260 371 1;
#X obj 105 192 sel 0;
#X obj 158 75 sel 0;
#X obj 158 324 moses 0;
#X msg 158 344 0;
#X obj 123 298 f 0;
#X obj 31 179 loadbang;
#X msg 31 201 0;
#X obj 158 56 expr if(abs($f1)>0.1 \, -0.01 \, 0);
#X obj 105 169 expr if(abs($f1)>0.1 \, 0.01 \, 0);
#X obj 123 412 expr int($f1*100)/100;
#X connect 0 0 1 1;
#X connect 0 1 1 0;
#X connect 1 0 21 0;
#X connect 2 0 17 0;
#X connect 2 1 7 1;
#X connect 3 0 22 0;
#X connect 4 0 5 1;
#X connect 4 1 5 0;
#X connect 5 0 20 0;
#X connect 6 0 17 0;
#X connect 6 1 7 1;
#X connect 7 0 15 0;
#X connect 8 0 0 0;
#X connect 9 0 4 0;
#X connect 11 0 17 1;
#X connect 11 1 12 0;
#X connect 12 0 3 0;
#X connect 13 1 2 0;
#X connect 14 1 6 0;
#X connect 15 0 16 0;
#X connect 15 1 11 0;
#X connect 16 0 3 0;
#X connect 17 0 3 0;
#X connect 17 0 7 0;
#X connect 18 0 19 0;
#X connect 19 0 17 0;
#X connect 20 0 14 0;
#X connect 21 0 13 0;
#X connect 22 0 10 0;
#X restore 238 550 pd vel;
#X obj 524 422 r hid;
#X obj 470 493 *;
#X obj 503 490 *;
#X obj 524 446 route key_7;
#N canvas 619 22 468 521 area 0;
#X obj 105 77 t f f;
#X obj 98 137 -;
#X obj 110 229 t b f;
#X floatatom 110 348 5 0 0 0 - - -, f 5;
#X obj 157 -17 t f f;
#X obj 158 32 -;
#X obj 190 109 t b f;
#X obj 145 259 + 0;
#X obj 105 28 inlet x;
#X obj 151 -40 inlet y;
#X obj 109 425 outlet speed;
#X obj 208 307 moses 1;
#X msg 247 332 1;
#X obj 96 182 sel 0;
#X obj 158 75 sel 0;
#X obj 145 285 moses 0;
#X msg 145 305 0;
#X obj 110 397 + 5;
#X obj 110 373 expr int($f1*95)+5;
#X obj 110 259 f 1;
#X obj 18 202 loadbang;
#X msg 18 224 1;
#X obj 96 159 expr if(abs($f1)>0.1 \, 0.01 \, 0);
#X obj 158 56 expr if(abs($f1)>0.1 \, -0.01 \, 0);
#X connect 0 0 1 1;
#X connect 0 1 1 0;
#X connect 1 0 22 0;
#X connect 2 0 19 0;
#X connect 2 1 7 1;
#X connect 3 0 18 0;
#X connect 4 0 5 1;
#X connect 4 1 5 0;
#X connect 5 0 23 0;
#X connect 6 0 19 0;
#X connect 6 1 7 1;
#X connect 7 0 15 0;
#X connect 8 0 0 0;
#X connect 9 0 4 0;
#X connect 11 0 19 1;
#X connect 11 1 12 0;
#X connect 12 0 3 0;
#X connect 13 1 2 0;
#X connect 14 1 6 0;
#X connect 15 0 16 0;
#X connect 15 1 11 0;
#X connect 16 0 3 0;
#X connect 17 0 10 0;
#X connect 18 0 17 0;
#X connect 19 0 3 0;
#X connect 19 0 7 0;
#X connect 20 0 21 0;
#X connect 21 0 19 0;
#X connect 22 0 13 0;
#X connect 23 0 14 0;
#X restore 470 535 pd area;
#X obj 469 559 s \$0-area;
#X obj 345 83 metro 1000;
#X obj 470 77 r W_H;
#X obj 470 108 expr ($f1/$f2)*8;
#X obj 489 133 expr ($f1/$f2)*4;
#X obj 345 168 -;
#X obj 345 142 randomF 1;
#X obj 418 177 randomF 8;
#X obj 418 200 - 4;
#X msg 345 191 \$1 500;
#X floatatom 460 46 5 0 0 0 - - -, f 5;
#X obj 345 106 t b b b;
#X obj 345 221 line;
#X obj 418 249 line;
#X msg 418 225 \$1 500;
#X obj 460 23 + 300;
#X obj 461 -1 random 400;
#X obj 345 245 spigot;
#X obj 418 273 spigot;
#N canvas 878 259 415 416 last 0;
#X obj 158 31 inlet;
#X obj 188 134 f;
#X obj 256 63 metro 30;
#X obj 218 161 moses 0;
#X msg 220 191 0;
#X floatatom 235 216 5 0 0 0 - - -, f 5;
#X obj 158 56 t b;
#X msg 158 80 1;
#X floatatom 188 200 5 0 0 0 - - -, f 5;
#X obj 257 42 tgl 15 0 empty empty empty 17 7 0 10 -262144 -1 -1 1
1;
#X obj 259 16 loadbang;
#X obj 220 135 - 0.1;
#X obj 189 268 invert;
#X obj 188 236 > 0.1;
#X obj 189 296 outlet;
#X connect 0 0 6 0;
#X connect 1 0 8 0;
#X connect 1 0 11 0;
#X connect 2 0 1 0;
#X connect 3 0 4 0;
#X connect 3 1 5 0;
#X connect 4 0 5 0;
#X connect 5 0 1 1;
#X connect 6 0 7 0;
#X connect 7 0 1 1;
#X connect 8 0 13 0;
#X connect 9 0 2 0;
#X connect 10 0 9 0;
#X connect 11 0 3 0;
#X connect 12 0 14 0;
#X connect 13 0 12 0;
#X restore 285 120 pd last;
#X obj 425 299 r hid;
#X obj 492 220 sel 1 2 3;
#X msg 513 268 key_31;
#X msg 538 288 key_32;
#X obj 237 521 *;
#X obj 270 518 *;
#X obj 363 505 *;
#X obj 396 502 *;
#X obj 471 514 *;
#X obj 504 511 *;
#X obj 422 354 tgl 15 0 empty empty empty 17 7 0 10 -262144 -1 -1 0
1;
#X obj 480 302 symbol;
#X obj 424 328 route s;
#X msg 493 247 key_30;
#X obj 491 193 init \$1;
#X obj 492 168 bng 15 250 50 0 empty empty empty 17 7 0 10 -262144
-1 -1;
#X obj 343 55 r \$0-rename;
#X obj -397 -44 t b b b b;
#X obj -312 -61 v r_\$1;
#X obj -396 -107 r save;
#X obj -311 17 tabwrite ball_ss;
#X obj -311 -41 t f b;
#X obj -368 34 t f b;
#X obj -397 149 t f b;
#X obj -446 212 tabwrite ball_x;
#X obj -368 87 tabwrite ball_y;
#X obj -104 9 r load;
#X obj -126 133 tabread ball_x;
#X obj -85 160 tabread ball_y;
#X obj 20 191 tabread ball_ss;
#X msg -197 245 \$1 500;
#X obj -197 267 line;
#X obj -194 365 v x_\$0;
#X msg -128 260 \$1 500;
#X obj -128 282 line;
#X obj -130 352 v y_\$0;
#X obj 21 325 v r_\$1;
#X msg 21 251 \$1 500;
#X obj 21 275 line;
#X obj -347 451 r index_multi;
#X obj -347 473 t b f;
#X obj -347 497 f \$1;
#X obj -346 575 v \$0-index;
#X obj -345 171 v \$0-index;
#X obj -266 60 v \$0-index;
#X floatatom -347 550 5 0 0 0 - - -, f 5;
#X obj -202 -10 v \$0-index;
#X obj -347 528 expr ($f1-1)+$f2*3;
#X obj -396 -83 bng 15 250 50 0 empty empty empty 17 7 0 10 -262144
-1 -1;
#X obj -104 45 v \$0-index;
#X floatatom -104 67 5 0 0 0 - - -, f 5;
#X floatatom -345 193 5 0 0 0 - - -, f 5;
#X floatatom -397 171 5 0 0 0 - - -, f 5;
#X floatatom -368 63 5 0 0 0 - - -, f 5;
#X floatatom -311 -10 5 0 0 0 - - -, f 5;
#X obj -397 121 v x_\$0;
#X obj -368 -5 v y_\$0;
#X msg -211 199 \$1 0;
#X msg -72 229 \$1 0;
#X obj -167 442 bng 15 250 50 0 empty empty empty 17 7 0 10 -262144
-1 -1;
#X obj -167 394 r \$0-start;
#X obj -167 416 sel 0 1;
#X msg -167 465 0;
#X obj -136 439 bng 15 250 50 0 empty empty empty 17 7 0 10 -262144
-1 -1;
#X obj -167 528 k_smooth 1;
#X obj -84 374 r mouseSize;
#X msg 45 221 \$1 0;
#X obj -333 298 t f b;
#X obj -281 320 v \$0-index;
#X floatatom -281 342 5 0 0 0 - - -, f 5;
#X floatatom -333 320 5 0 0 0 - - -, f 5;
#X obj -333 270 v show_\$0;
#X obj -382 361 tabwrite ball_show;
#X obj -300 241 v show_\$0;
#X obj -300 218 r \$0-start;
#X obj -104 95 t f f f f;
#X obj 21 119 tabread ball_show;
#X obj 21 146 s read_\$0_head;
#X obj -50 567 randomF 1;
#X obj -50 589 + 1;
#X obj -50 547 bng 15 250 50 0 empty empty empty 17 7 0 10 -262144
-1 -1;
#X floatatom -167 495 5 0 0 0 - - -, f 5;
#X obj -50 526 loadbang;
#X floatatom -50 613 5 0 0 0 - - -, f 5;
#X floatatom -84 440 5 0 0 0 - - -, f 5;
#X floatatom 21 297 5 0 0 0 - - -, f 5;
#X obj -83 493 v rr_\$1;
#X obj -84 459 t b f;
#X obj -219 103 r \$0-stoppos;
#X obj -218 147 tgl 15 0 empty empty empty 17 7 0 10 -262144 -1 -1
0 1;
#X obj -197 294 spigot 1;
#X obj -128 320 spigot 1;
#X obj -219 125 invert;
#X obj -226 575 k_spring 1;
#X obj 111 256 route \$1;
#X msg 111 229 \$3 \$1 \$2;
#X obj 95 -54 r hid;
#X obj 78 41 spigot;
#X obj 179 -184 loadbang;
#X obj 179 -162 f \$1;
#X obj 179 -140 sel 1 2 3;
#X obj 119 -12 route key_30 key_31 key_32;
#X msg 179 -118 1 0 0;
#X msg 199 -97 0 1 0;
#X msg 219 -73 0 0 1;
#X obj 162 -49 unpack f f f;
#X obj 119 14 spigot;
#X obj 181 12 spigot;
#X obj 246 13 spigot;
#X obj -82 407 spigot;
#X connect 1 0 7 0;
#X connect 2 0 10 0;
#X connect 3 0 19 0;
#X connect 3 0 22 0;
#X connect 3 0 27 0;
#X connect 3 0 108 0;
#X connect 3 0 15 0;
#X connect 4 0 18 0;
#X connect 4 0 21 0;
#X connect 4 0 26 0;
#X connect 4 0 107 0;
#X connect 4 0 14 0;
#X connect 5 0 147 0;
#X connect 6 0 1 0;
#X connect 6 0 49 0;
#X connect 6 1 2 0;
#X connect 7 0 4 0;
#X connect 8 0 9 0;
#X connect 10 0 3 0;
#X connect 11 0 13 0;
#X connect 12 0 11 0;
#X connect 13 0 7 1;
#X connect 13 0 10 1;
#X connect 16 0 17 0;
#X connect 17 0 18 1;
#X connect 17 0 19 1;
#X connect 18 0 56 0;
#X connect 19 0 57 0;
#X connect 20 0 23 0;
#X connect 21 0 54 0;
#X connect 22 0 55 0;
#X connect 23 0 21 1;
#X connect 23 0 22 1;
#X connect 24 0 0 0;
#X connect 25 0 28 0;
#X connect 26 0 58 0;
#X connect 27 0 59 0;
#X connect 28 0 26 1;
#X connect 28 0 27 1;
#X connect 29 0 30 0;
#X connect 31 0 41 0;
#X connect 32 0 33 0;
#X connect 32 0 34 0;
#X connect 33 0 36 1;
#X connect 34 0 35 1;
#X connect 35 0 39 0;
#X connect 36 0 35 0;
#X connect 37 0 38 0;
#X connect 38 0 44 0;
#X connect 39 0 42 0;
#X connect 40 0 31 1;
#X connect 41 0 36 0;
#X connect 41 1 37 0;
#X connect 41 2 46 0;
#X connect 42 0 47 0;
#X connect 43 0 48 0;
#X connect 44 0 43 0;
#X connect 45 0 40 0;
#X connect 46 0 45 0;
#X connect 47 0 1 0;
#X connect 48 0 2 0;
#X connect 49 0 47 1;
#X connect 49 0 48 1;
#X connect 50 0 62 0;
#X connect 51 0 63 0;
#X connect 51 1 52 0;
#X connect 51 2 53 0;
#X connect 52 0 61 0;
#X connect 53 0 61 0;
#X connect 54 0 24 0;
#X connect 55 0 24 1;
#X connect 56 0 8 0;
#X connect 57 0 8 1;
#X connect 58 0 29 0;
#X connect 59 0 29 1;
#X connect 60 0 54 1;
#X connect 60 0 55 1;
#X connect 60 0 56 1;
#X connect 60 0 57 1;
#X connect 60 0 58 1;
#X connect 60 0 59 1;
#X connect 61 0 62 1;
#X connect 62 0 60 0;
#X connect 63 0 61 0;
#X connect 64 0 51 0;
#X connect 65 0 64 0;
#X connect 66 0 31 0;
#X connect 67 0 105 0;
#X connect 67 1 106 0;
#X connect 67 2 121 0;
#X connect 67 3 68 0;
#X connect 68 0 71 0;
#X connect 69 0 98 0;
#X connect 71 0 104 0;
#X connect 71 1 96 0;
#X connect 72 0 103 0;
#X connect 72 1 94 0;
#X connect 73 0 102 0;
#X connect 73 1 93 0;
#X connect 76 0 99 0;
#X connect 77 0 1 0;
#X connect 78 0 2 0;
#X connect 79 0 87 0;
#X connect 80 0 81 0;
#X connect 81 0 140 0;
#X connect 83 0 84 0;
#X connect 84 0 141 0;
#X connect 87 0 88 0;
#X connect 88 0 135 0;
#X connect 89 0 90 0;
#X connect 90 0 91 0;
#X connect 90 1 97 1;
#X connect 91 0 97 0;
#X connect 93 0 101 0;
#X connect 94 0 75 1;
#X connect 95 0 92 0;
#X connect 96 0 70 1;
#X connect 97 0 95 0;
#X connect 98 0 67 0;
#X connect 99 0 100 0;
#X connect 100 0 125 0;
#X connect 101 0 74 1;
#X connect 102 0 74 0;
#X connect 103 0 75 0;
#X connect 104 0 70 0;
#X connect 105 0 73 0;
#X connect 106 0 72 0;
#X connect 107 0 81 0;
#X connect 108 0 84 0;
#X connect 109 0 112 0;
#X connect 110 0 111 0;
#X connect 111 0 109 0;
#X connect 111 1 113 0;
#X connect 112 0 131 0;
#X connect 113 0 136 0;
#X connect 114 0 116 0;
#X connect 115 0 159 0;
#X connect 116 0 88 0;
#X connect 117 0 120 0;
#X connect 117 1 118 0;
#X connect 118 0 119 0;
#X connect 119 0 122 1;
#X connect 120 0 122 0;
#X connect 121 0 117 0;
#X connect 124 0 123 0;
#X connect 125 0 77 0;
#X connect 125 1 78 0;
#X connect 125 2 79 0;
#X connect 125 3 126 0;
#X connect 126 0 127 0;
#X connect 128 0 129 0;
#X connect 129 0 133 0;
#X connect 129 0 136 0;
#X connect 130 0 128 0;
#X connect 131 0 114 0;
#X connect 132 0 130 0;
#X connect 134 0 137 0;
#X connect 135 0 86 0;
#X connect 136 0 131 0;
#X connect 137 0 136 0;
#X connect 137 1 136 0;
#X connect 138 0 142 0;
#X connect 139 0 140 1;
#X connect 139 0 141 1;
#X connect 140 0 82 0;
#X connect 141 0 85 0;
#X connect 142 0 139 0;
#X connect 145 0 144 0;
#X connect 146 0 151 0;
#X connect 147 0 6 0;
#X connect 148 0 149 0;
#X connect 149 0 150 0;
#X connect 150 0 152 0;
#X connect 150 1 153 0;
#X connect 150 2 154 0;
#X connect 151 0 156 0;
#X connect 151 1 157 0;
#X connect 151 2 158 0;
#X connect 152 0 155 0;
#X connect 153 0 155 0;
#X connect 154 0 155 0;
#X connect 155 0 156 1;
#X connect 155 1 157 1;
#X connect 155 2 158 1;
#X connect 156 0 147 1;
#X connect 156 0 159 1;
#X connect 157 0 147 1;
#X connect 157 0 159 1;
#X connect 158 0 147 1;
#X connect 158 0 159 1;
#X connect 159 0 134 0;
#X restore 79 35 pd shake;
#N canvas 312 236 1110 542 midi 0;
#X obj 138 62 pack f f;
#X msg 138 87 \$2 \$1;
#X obj 45 264 / 127;
#X obj 14 466 s \$0-dir;
#X obj 248 41 init \$1;
#X obj 270 16 bng 15 250 50 0 empty empty empty 17 7 0 10 -262144 -1
-1;
#X obj 248 65 + 19;
#X obj 137 110 route 0;
#X obj 57 126 route \$1;
#X obj 57 151 / 127;
#X obj 49 195 line;
#X obj 70 315 t b b;
#X msg 70 365 0;
#X msg 100 370 1;
#X msg 100 394 \$1 1000;
#X obj 101 417 line;
#X obj 70 340 del 500;
#X obj 100 440 s \$0-rororect;
#X obj 50 214 incirc;
#X obj 50 236 outlet;
#X msg 51 175 \$1 200;
#X obj 207 151 k_range 0 127 2 16;
#X obj 203 111 route 0;
#X obj 307 39 init \$1;
#X obj 329 14 bng 15 250 50 0 empty empty empty 17 7 0 10 -262144 -1
-1;
#X floatatom 307 85 5 0 0 0 - - -, f 5;
#X floatatom 248 87 5 0 0 0 - - -, f 5;
#X obj 214 251 outlet;
#X obj 308 288 outlet;
#X obj 307 63 + 3;
#X obj 308 186 k_range 0 127 1 16;
#X obj 123 -3 r ctlin;
#X obj 123 19 unpack f f f;
#X obj 249 369 s \$0-numbeat-click;
#X obj 143 337 s \$0-numbeat;
#X obj 462 46 r hid;
#X obj 462 67 t a a;
#X floatatom 306 255 5 0 0 0 - - -, f 5;
#X floatatom 202 214 5 0 0 0 - - -, f 5;
#X obj 216 182 int;
#X obj 309 207 int;
#X obj 437 307 f;
#X obj 436 281 t b b;
#X obj 479 158 spigot;
#X floatatom 439 363 5 0 0 0 - - -, f 5;
#X floatatom 441 414 5 0 0 0 - - -, f 5;
#X floatatom 518 414 5 0 0 0 - - -, f 5;
#X msg 473 309 -1;
#X obj 480 213 sel 1;
#X obj 519 230 sel 1;
#X obj 486 280 t b b;
#X msg 518 305 1;
#X obj 607 301 f;
#X obj 606 275 t b b;
#X floatatom 609 357 5 0 0 0 - - -, f 5;
#X floatatom 610 418 5 0 0 0 - - -, f 5;
#X floatatom 688 408 5 0 0 0 - - -, f 5;
#X msg 643 303 -1;
#X obj 656 274 t b b;
#X msg 688 299 1;
#X obj 578 240 sel 1;
#X obj 623 221 sel 1;
#X obj 611 386 k_event 1 17;
#X obj 580 -67 loadbang;
#X obj 580 -45 f \$1;
#X obj 580 -23 sel 1 2 3;
#X obj 520 105 route key_30 key_31 key_32;
#X msg 580 -1 1 0 0;
#X msg 600 20 0 1 0;
#X msg 620 44 0 0 1;
#X obj 563 68 unpack f f f;
#X obj 520 131 spigot;
#X obj 582 129 spigot;
#X obj 647 130 spigot;
#X obj 437 334 + 2;
#X obj 607 328 + 2;
#X obj 441 392 k_event 1 17;
#X obj 321 114 inlet;
#X obj 369 113 inlet;
#X obj 718 250 tgl 15 0 empty empty empty 17 7 0 10 -262144 -1 -1 1
1;
#X obj 718 226 sel 1;
#X obj 718 270 s \$0-pluse;
#X obj 480 185 route key_47 key_48 key_52 key_49 key_40 key_44;
#X obj 781 99 loadbang;
#X msg 780 126 1;
#X obj 802 229 sel 1;
#X obj 802 273 s \$0-resetcenter;
#X msg 802 251 0;
#X connect 0 0 1 0;
#X connect 1 0 7 0;
#X connect 1 0 8 0;
#X connect 1 0 22 0;
#X connect 2 0 3 0;
#X connect 2 0 11 0;
#X connect 4 0 6 0;
#X connect 4 0 29 0;
#X connect 5 0 4 0;
#X connect 6 0 26 0;
#X connect 7 0 21 0;
#X connect 8 0 9 0;
#X connect 9 0 20 0;
#X connect 10 0 18 0;
#X connect 11 0 16 0;
#X connect 11 1 13 0;
#X connect 12 0 14 0;
#X connect 13 0 14 0;
#X connect 14 0 15 0;
#X connect 15 0 17 0;
#X connect 16 0 12 0;
#X connect 18 0 19 0;
#X connect 20 0 10 0;
#X connect 21 0 39 0;
#X connect 22 0 30 0;
#X connect 23 0 29 0;
#X connect 24 0 23 0;
#X connect 25 0 22 1;
#X connect 26 0 7 1;
#X connect 29 0 25 0;
#X connect 30 0 40 0;
#X connect 31 0 32 0;
#X connect 32 0 0 0;
#X connect 32 1 0 1;
#X connect 35 0 36 0;
#X connect 36 0 43 0;
#X connect 36 1 66 0;
#X connect 37 0 28 0;
#X connect 37 0 33 0;
#X connect 38 0 27 0;
#X connect 38 0 34 0;
#X connect 39 0 38 0;
#X connect 39 0 41 1;
#X connect 40 0 37 0;
#X connect 40 0 52 1;
#X connect 41 0 74 0;
#X connect 42 0 41 0;
#X connect 42 1 47 0;
#X connect 43 0 82 0;
#X connect 44 0 76 0;
#X connect 45 0 41 1;
#X connect 45 0 38 0;
#X connect 47 0 74 1;
#X connect 48 0 42 0;
#X connect 49 0 50 0;
#X connect 50 0 41 0;
#X connect 50 1 51 0;
#X connect 51 0 74 1;
#X connect 52 0 75 0;
#X connect 53 0 52 0;
#X connect 53 1 57 0;
#X connect 54 0 62 0;
#X connect 55 0 52 1;
#X connect 55 0 37 0;
#X connect 57 0 75 1;
#X connect 58 0 52 0;
#X connect 58 1 59 0;
#X connect 59 0 75 1;
#X connect 60 0 53 0;
#X connect 61 0 58 0;
#X connect 62 0 55 0;
#X connect 62 1 56 0;
#X connect 63 0 64 0;
#X connect 64 0 65 0;
#X connect 65 0 67 0;
#X connect 65 1 68 0;
#X connect 65 2 69 0;
#X connect 66 0 71 0;
#X connect 66 1 72 0;
#X connect 66 2 73 0;
#X connect 67 0 70 0;
#X connect 68 0 70 0;
#X connect 69 0 70 0;
#X connect 70 0 71 1;
#X connect 70 1 72 1;
#X connect 70 2 73 1;
#X connect 71 0 43 1;
#X connect 72 0 43 1;
#X connect 73 0 43 1;
#X connect 74 0 44 0;
#X connect 75 0 54 0;
#X connect 76 0 45 0;
#X connect 76 1 46 0;
#X connect 77 0 38 0;
#X connect 78 0 37 0;
#X connect 79 0 81 0;
#X connect 80 0 79 0;
#X connect 82 0 48 0;
#X connect 82 1 49 0;
#X connect 82 2 60 0;
#X connect 82 3 61 0;
#X connect 82 4 80 0;
#X connect 82 5 85 0;
#X connect 83 0 84 0;
#X connect 84 0 80 0;
#X connect 84 0 85 0;
#X connect 85 0 87 0;
#X connect 87 0 86 0;
#X restore 456 35 pd midi;
#X obj 24 -25 r \$0-dirdir;
#N canvas 573 59 485 393 click_rectangle 0;
#N canvas 720 28 1088 1016 rectangle 0;
#X obj 92 -49 r \$0-start;
#X obj 92 -26 sel 0 1;
#X msg 111 -1 1;
#X msg 92 43 0;
#X obj 92 20 del 500;
#X obj 175 -75 r \$0-area1;
#X obj 175 -27 tgl 15 0 empty empty empty 17 7 0 10 -262144 -1 -1 1
1;
#X obj 175 -50 == 100;
#X floatatom 123 71 5 0 0 0 - - -, f 5;
#X obj 137 43 t b f;
#X obj 123 92 *;
#X obj 115 125 gemhead 10;
#X obj 777 594 init \$1;
#X obj 774 640 sel 1 2 3;
#X msg 791 693 0.52 0.31 0.76;
#X msg 808 720 0.13 0.71 0.85;
#X msg 774 664 0.85 0.61 0.27;
#X obj 222 417 f;
#X obj 249 417 + 1;
#X obj 153 500 separator;
#X obj 153 561 translateXYZ;
#X obj 130 601 color 1 0.89 0;
#X obj 32 648 loadbang;
#X msg 32 670 draw line;
#X obj 222 489 t f f;
#X obj 276 417 % 24;
#X obj 169 385 repeat 24;
#X floatatom 303 346 5 0 0 0 - - -, f 5;
#X obj 130 654 circle 0.14;
#X obj 130 706 circle 0.14;
#X obj 575 809 sel 0 1;
#X obj 153 445 t a b b;
#X floatatom 301 276 5 0 0 0 - - -, f 5;
#X obj 262 586 k_euclide;
#X obj 263 78 r \$0-tocheck;
#X obj 263 122 int;
#X floatatom 263 144 5 0 0 0 - - -, f 5;
#X obj 301 300 int;
#X obj 348 248 hsl 128 15 1 16 0 0 empty empty empty -2 -8 0 10 -262144
-1 -1 847 1;
#X obj 175 254 v x_\$0;
#X obj 193 277 v y_\$0;
#X obj 149 200 separator;
#X obj 173 325 translateXYZ;
#X obj 391 379 v r_\$1;
#X obj 222 513 expr cos($f1)* $f2;
#X obj 249 539 expr sin($f1)* $f2;
#X obj 263 101 k_range 0 100 0 24;
#X obj 219 768 s click_\$1;
#X obj 261 693 sel 1;
#X obj 130 681 color 1 1 1;
#X obj 24 547 scale 1;
#X obj 21 482 t a b;
#X obj 83 488 v r_\$1;
#X msg 599 845 0.85 0.2 0.32;
#X msg 575 866 0.8 0.8 0.8;
#X msg 481 577 set \$1 \$2 \$3;
#X obj 424 558 int;
#X floatatom 396 581 5 0 0 0 - - -, f 5;
#X obj 164 362 rotateXYZ;
#X obj 381 319 expr fmod(($f1/100)+$f2 \, 1);
#X obj 382 346 * 360;
#X msg 377 295 0;
#X obj 153 228 t a b b b b;
#X obj 565 282 r \$0-dirdir;
#X obj 342 217 r \$0-beatnum;
#X obj 448 527 hsl 128 15 0 16 0 0 empty empty empty -2 -8 0 10 -262144
-1 -1 794 1;
#X obj 442 505 r \$0-beatnumcheck;
#X obj 502 637 sel 1 2 3;
#X msg 502 662 0.85 0.2 0.32;
#X msg 519 690 0.13 0.85 0.54;
#X msg 536 717 0.33 0.46 0.81;
#X msg 503 742 set \$1 \$2 \$3;
#X obj 222 466 expr (fmod(($f1/$f2) \, 1.0))*2*3.1415926;
#X obj 130 626 scale 1;
#X msg 587 895 1;
#X floatatom 542 898 5 0 0 0 - - -, f 5;
#X obj 261 671 tgl 15 0 empty empty empty 17 7 0 10 -262144 -1 -1 1
1;
#X obj 266 171 change;
#N canvas 478 27 874 615 beat_alpha 0;
#X msg 138 215 0;
#X obj 174 236 line;
#X obj 355 133 route 0 1 2 3 4 5 6 7 8 9 10 11 12 13 14 15;
#X obj 355 83 inlet;
#X floatatom 365 108 5 0 0 0 - - -, f 5;
#X obj 524 86 table \$0-bb 16;
#X obj 138 265 tabwrite \$0-bb;
#X obj 138 191 t b b;
#X obj 175 342 line;
#X obj 139 371 tabwrite \$0-bb;
#X obj 139 297 t b b;
#X obj 173 447 line;
#X obj 137 476 tabwrite \$0-bb;
#X obj 137 402 t b b;
#X obj 174 553 line;
#X obj 138 582 tabwrite \$0-bb;
#X obj 138 508 t b b;
#X msg 139 321 1;
#X msg 137 426 2;
#X msg 138 532 3;
#X obj 339 237 line;
#X obj 303 266 tabwrite \$0-bb;
#X obj 303 192 t b b;
#X obj 340 343 line;
#X obj 304 372 tabwrite \$0-bb;
#X obj 304 298 t b b;
#X obj 338 448 line;
#X obj 302 477 tabwrite \$0-bb;
#X obj 302 403 t b b;
#X obj 339 554 line;
#X obj 303 583 tabwrite \$0-bb;
#X obj 303 509 t b b;
#X msg 303 216 4;
#X msg 304 322 5;
#X msg 302 427 6;
#X msg 303 533 7;
#X obj 511 226 line;
#X obj 475 255 tabwrite \$0-bb;
#X obj 475 181 t b b;
#X obj 512 332 line;
#X obj 476 361 tabwrite \$0-bb;
#X obj 476 287 t b b;
#X obj 510 437 line;
#X obj 474 466 tabwrite \$0-bb;
#X obj 474 392 t b b;
#X obj 511 543 line;
#X obj 475 572 tabwrite \$0-bb;
#X obj 475 498 t b b;
#X obj 676 227 line;
#X obj 640 256 tabwrite \$0-bb;
#X obj 640 182 t b b;
#X obj 677 333 line;
#X obj 641 362 tabwrite \$0-bb;
#X obj 641 288 t b b;
#X obj 675 438 line;
#X obj 639 467 tabwrite \$0-bb;
#X obj 639 393 t b b;
#X obj 676 544 line;
#X obj 640 573 tabwrite \$0-bb;
#X obj 640 499 t b b;
#X msg 475 205 8;
#X msg 476 311 9;
#X msg 474 416 10;
#X msg 475 522 11;
#X msg 640 206 12;
#X msg 641 312 13;
#X msg 639 417 14;
#X msg 640 523 15;
#X msg 186 215 2 \, 0 100;
#X msg 171 321 2 \, 0 100;
#X msg 169 426 2 \, 0 100;
#X msg 170 532 2 \, 0 100;
#X msg 335 216 2 \, 0 100;
#X msg 336 322 2 \, 0 100;
#X msg 334 427 2 \, 0 100;
#X msg 335 533 2 \, 0 100;
#X msg 507 522 2 \, 0 100;
#X msg 506 416 2 \, 0 100;
#X msg 508 311 2 \, 0 100;
#X msg 507 205 2 \, 0 100;
#X msg 672 206 2 \, 0 100;
#X msg 673 312 2 \, 0 100;
#X msg 671 417 2 \, 0 100;
#X msg 672 523 2 \, 0 100;
#X connect 0 0 6 1;
#X connect 1 0 6 0;
#X connect 2 0 7 0;
#X connect 2 1 10 0;
#X connect 2 2 13 0;
#X connect 2 3 16 0;
#X connect 2 4 22 0;
#X connect 2 5 25 0;
#X connect 2 6 28 0;
#X connect 2 7 31 0;
#X connect 2 8 38 0;
#X connect 2 9 41 0;
#X connect 2 10 44 0;
#X connect 2 11 47 0;
#X connect 2 12 50 0;
#X connect 2 13 53 0;
#X connect 2 14 56 0;
#X connect 2 15 59 0;
#X connect 3 0 4 0;
#X connect 4 0 2 0;
#X connect 7 0 0 0;
#X connect 7 1 68 0;
#X connect 8 0 9 0;
#X connect 10 0 17 0;
#X connect 10 1 69 0;
#X connect 11 0 12 0;
#X connect 13 0 18 0;
#X connect 13 1 70 0;
#X connect 14 0 15 0;
#X connect 16 0 19 0;
#X connect 16 1 71 0;
#X connect 17 0 9 1;
#X connect 18 0 12 1;
#X connect 19 0 15 1;
#X connect 20 0 21 0;
#X connect 22 0 32 0;
#X connect 22 1 72 0;
#X connect 23 0 24 0;
#X connect 25 0 33 0;
#X connect 25 1 73 0;
#X connect 26 0 27 0;
#X connect 28 0 34 0;
#X connect 28 1 74 0;
#X connect 29 0 30 0;
#X connect 31 0 35 0;
#X connect 31 1 75 0;
#X connect 32 0 21 1;
#X connect 33 0 24 1;
#X connect 34 0 27 1;
#X connect 35 0 30 1;
#X connect 36 0 37 0;
#X connect 38 0 60 0;
#X connect 38 1 79 0;
#X connect 39 0 40 0;
#X connect 41 0 61 0;
#X connect 41 1 78 0;
#X connect 42 0 43 0;
#X connect 44 0 62 0;
#X connect 44 1 77 0;
#X connect 45 0 46 0;
#X connect 47 0 63 0;
#X connect 47 1 76 0;
#X connect 48 0 49 0;
#X connect 50 0 64 0;
#X connect 50 1 80 0;
#X connect 51 0 52 0;
#X connect 53 0 65 0;
#X connect 53 1 81 0;
#X connect 54 0 55 0;
#X connect 56 0 66 0;
#X connect 56 1 82 0;
#X connect 57 0 58 0;
#X connect 59 0 67 0;
#X connect 59 1 83 0;
#X connect 60 0 37 1;
#X connect 61 0 40 1;
#X connect 62 0 43 1;
#X connect 63 0 46 1;
#X connect 64 0 49 1;
#X connect 65 0 52 1;
#X connect 66 0 55 1;
#X connect 67 0 58 1;
#X connect 68 0 1 0;
#X connect 69 0 8 0;
#X connect 70 0 11 0;
#X connect 71 0 14 0;
#X connect 72 0 20 0;
#X connect 73 0 23 0;
#X connect 74 0 26 0;
#X connect 75 0 29 0;
#X connect 76 0 45 0;
#X connect 77 0 42 0;
#X connect 78 0 39 0;
#X connect 79 0 36 0;
#X connect 80 0 48 0;
#X connect 81 0 51 0;
#X connect 82 0 54 0;
#X connect 83 0 57 0;
#X restore 370 740 pd beat_alpha;
#X obj 266 219 t f f;
#X obj 265 727 t b b;
#X obj 324 708 f;
#X obj 21 448 scale 1;
#X obj 49 407 + 1;
#X floatatom 368 684 5 0 0 0 - - -, f 5;
#X obj 49 381 tabread \$0-bb;
#X msg 543 875 0.5;
#X obj 83 514 / 3;
#X obj 388 424 +;
#X obj 222 442 t f f f f;
#X obj 483 361 tabread \$0-sound;
#X obj 506 613 init \$1;
#X obj 483 281 * 10;
#X obj 483 383 * 0.1;
#X msg 696 498 0.52 0.31 0.76;
#X msg 713 525 0.13 0.71 0.85;
#X msg 679 469 0.8 0.8 0.8;
#X obj 682 438 loadbang;
#X connect 0 0 1 0;
#X connect 1 0 4 0;
#X connect 1 1 2 0;
#X connect 2 0 8 0;
#X connect 3 0 8 0;
#X connect 4 0 3 0;
#X connect 5 0 7 0;
#X connect 6 0 9 0;
#X connect 7 0 6 0;
#X connect 8 0 10 0;
#X connect 9 0 8 0;
#X connect 9 1 10 1;
#X connect 10 0 11 0;
#X connect 11 0 41 0;
#X connect 13 0 16 0;
#X connect 13 1 14 0;
#X connect 13 2 15 0;
#X connect 14 0 55 0;
#X connect 15 0 55 0;
#X connect 16 0 55 0;
#X connect 17 0 18 0;
#X connect 17 0 89 0;
#X connect 18 0 25 0;
#X connect 19 0 20 0;
#X connect 20 0 82 0;
#X connect 21 0 73 0;
#X connect 22 0 23 0;
#X connect 23 0 29 0;
#X connect 24 0 44 0;
#X connect 24 1 45 0;
#X connect 25 0 17 1;
#X connect 26 0 31 0;
#X connect 27 0 26 1;
#X connect 27 0 25 1;
#X connect 27 0 33 2;
#X connect 27 0 46 4;
#X connect 27 0 72 1;
#X connect 28 0 49 0;
#X connect 30 0 54 0;
#X connect 30 0 86 0;
#X connect 30 1 53 0;
#X connect 30 1 74 0;
#X connect 31 0 19 0;
#X connect 31 1 17 0;
#X connect 32 0 37 0;
#X connect 33 0 76 0;
#X connect 33 1 30 0;
#X connect 34 0 46 0;
#X connect 35 0 36 0;
#X connect 36 0 77 0;
#X connect 37 0 27 0;
#X connect 38 0 32 0;
#X connect 39 0 42 1;
#X connect 40 0 42 2;
#X connect 41 0 62 0;
#X connect 42 0 58 0;
#X connect 43 0 88 1;
#X connect 44 0 20 1;
#X connect 45 0 20 2;
#X connect 46 0 35 0;
#X connect 48 0 80 0;
#X connect 49 0 29 0;
#X connect 50 0 21 0;
#X connect 51 0 50 0;
#X connect 51 1 52 0;
#X connect 52 0 87 0;
#X connect 53 0 21 1;
#X connect 54 0 21 1;
#X connect 55 0 54 0;
#X connect 56 0 57 0;
#X connect 57 0 33 3;
#X connect 58 0 26 0;
#X connect 59 0 60 0;
#X connect 60 0 58 3;
#X connect 61 0 59 0;
#X connect 62 0 42 0;
#X connect 62 1 39 0;
#X connect 62 2 40 0;
#X connect 62 3 43 0;
#X connect 62 4 61 0;
#X connect 63 0 59 1;
#X connect 64 0 38 0;
#X connect 65 0 56 0;
#X connect 66 0 65 0;
#X connect 67 0 68 0;
#X connect 67 1 69 0;
#X connect 67 2 70 0;
#X connect 68 0 71 0;
#X connect 69 0 71 0;
#X connect 70 0 71 0;
#X connect 71 0 53 0;
#X connect 72 0 24 0;
#X connect 73 0 28 0;
#X connect 74 0 75 0;
#X connect 75 0 73 1;
#X connect 76 0 48 0;
#X connect 77 0 79 0;
#X connect 79 0 33 0;
#X connect 79 1 81 1;
#X connect 80 0 47 0;
#X connect 80 1 81 0;
#X connect 81 0 84 0;
#X connect 82 0 51 0;
#X connect 83 0 82 1;
#X connect 84 0 78 0;
#X connect 85 0 83 0;
#X connect 86 0 75 0;
#X connect 87 0 50 1;
#X connect 88 0 44 1;
#X connect 88 0 45 1;
#X connect 89 0 72 0;
#X connect 89 1 33 1;
#X connect 89 2 85 0;
#X connect 89 3 92 0;
#X connect 90 0 93 0;
#X connect 91 0 67 0;
#X connect 92 0 90 0;
#X connect 93 0 88 0;
#X connect 96 0 55 0;
#X connect 97 0 96 0;
#X restore 113 280 pd rectangle;
#X obj 115 51 t f f;
#X obj 147 80 expr if($f1>90 && $f1<99 \, 1 \, 0);
#X obj 115 105 expr if($f1>0 && $f1<10 \, 1 \, 0);
#X obj 114 167 once;
#X obj 153 137 sel 1;
#X obj 115 139 sel 1;
#X obj 146 189 bng 15 250 50 0 empty empty empty 17 7 0 10 -262144
-1 -1;
#X obj 115 224 s ch-color;
#X obj 207 222 s click_\$1;
#X obj 113 258 r \$0-dirdir;
#X obj 120 22 inlet;
#X text 181 187 <----no;
#X connect 1 0 3 0;
#X connect 1 1 2 0;
#X connect 2 0 5 0;
#X connect 3 0 6 0;
#X connect 5 0 4 1;
#X connect 6 0 4 0;
#X connect 7 0 8 0;
#X connect 7 0 9 0;
#X connect 11 0 1 0;
#X restore -162 76 pd click_rectangle;
#N canvas 425 156 804 627 net 0;
#X obj 171 491 s net;
#X obj 340 326 init \$1;
#X obj 171 430 packOSC;
#X msg 171 405 send /env1 \$1 \$2 \$3 \$4 \$5;
#X obj 183 309 init \$1;
#X obj 183 289 bng 15 250 50 0 empty empty empty 17 7 0 10 -262144
-1 -1;
#X msg 183 354 send /click1;
#X msg 183 330 set send /click\$1;
#X obj 171 464 spigot;
#X obj 239 446 r \$0-start;
#X obj 239 468 pipe 500;
#X msg 340 347 set send /env\$1 \, adddollar 1 \, adddollar 2 \, adddollar
3 \, adddollar 4 \, adddollar 5;
#X obj 250 301 r click_\$1;
#X obj 67 211 v x_\$0;
#X obj 86 236 v y_\$0;
#X obj 136 149 v vel-\$1;
#X floatatom 136 227 5 0 0 0 - - -, f 5;
#X obj 136 202 expr 1-$f1;
#X obj 205 158 v r_\$1;
#X obj 64 275 pack f f f f f;
#X obj 52 185 t f b b b b;
#X floatatom 205 180 5 0 0 0 - - -, f 5;
#X obj 136 175 * 0.4;
#X obj 35 328 metro 100;
#X obj 35 298 r \$0-start;
#X obj 35 352 list;
#X obj 131 247 k_float;
#X obj 205 199 k_float;
#X obj 58 93 inlet;
#X obj 379 241 expr $f1*2*3.1415926;
#N canvas 443 40 1000 714 mainline 0;
#X obj 518 100 inlet;
#X obj 296 345 pack f f;
#X obj 299 461 pack f f;
#X obj 505 278 expr cos($f1)*$f2+$f3;
#X obj 531 318 expr sin($f1)*$f2+$f3;
#X obj 554 162 v x_\$0;
#X obj 579 233 v y_\$0;
#X obj 319 401 v x_\$0;
#X obj 389 454 v y_\$0;
#N canvas 529 54 944 703 circle 0;
#X obj 70 116 inlet;
#X obj 117 247 inlet;
#X obj -58 73 gemhead;
#X obj -3 323 translate 1 0 0 0;
#X obj -136 325 translate 1 0 0 0;
#X obj -61 272 separator;
#X obj -136 297 separator;
#X obj -3 295 separator;
#X obj -61 303 curve 2;
#X obj -59 149 t a b b b;
#X obj 96 274 list;
#X obj 96 298 list append 0;
#X obj 73 -19 init \$1;
#X obj 73 3 sel 1 2 3;
#X obj 46 150 list;
#X obj 46 174 list append 0;
#X obj -59 41 r \$0-start;
#X obj 97 535 translate 1 0 0 0;
#X obj 97 353 separator;
#X obj 97 560 text2d;
#X obj 191 567 loadbang;
#X obj 192 184 v x_\$0;
#X obj 244 112 v y_\$0;
#X obj 97 381 t a b;
#X obj 192 205 t f f;
#X obj 192 233 -;
#X obj 244 135 t f f;
#X obj 245 160 -;
#X obj 196 112 t b b;
#X obj 192 255 expr if(abs($f1)>0.3 \, 1 \, 0);
#X obj 245 184 expr if(abs($f1)>0.1 \, 2 \, 0);
#X obj 192 278 sel 1 2;
#X obj 97 480 color 1 1 1;
#X obj 207 328 loadbang;
#X obj 215 375 r hid;
#X obj 215 399 route key_4 key_22 key_7;
#X floatatom 215 428 5 0 0 0 - - -, f 5;
#X obj 97 409 spigot;
#X obj 97 454 spigot;
#X obj 130 430 r gui-\$1;
#X msg 192 306 text [ More + ];
#X msg 207 351 text [ Less - ];
#X obj -73 180 alpha;
#X obj -84 368 separator;
#X obj -77 551 text2d;
#X obj -82 423 translate 1 0 0 0;
#X obj -83 397 color 1 1 1;
#X obj -81 453 translateXYZ 0.15 -0.1 0;
#X msg 261 548 15;
#X obj 274 495 loadbang;
#X obj -136 348 circle 0.08;
#X obj -3 348 circle 0.04;
#X obj -177 451 r \$0-rename;
#X msg 191 590 font ACaslonPro-BoldItalic.otf \, justify left base
;
#X msg -139 538 text -Walk-;
#X obj -18 518 gate 3;
#X obj 38 417 init \$1;
#X obj -29 605 v rr;
#X obj 11 548 v gg;
#X obj 49 549 v bb;
#X obj -177 510 gate 2;
#X obj -176 482 + 1;
#X obj -158 403 loadbang;
#X obj -81 480 t a b;
#X obj 54 395 bng 15 250 50 0 empty empty empty 17 7 0 10 -262144 -1
-1;
#X msg -29 635 text -R : \$1-;
#X msg 65 636 text -B : \$1-;
#X msg 14 599 text -G : \$1-;
#X msg -230 206 width 2;
#X obj -226 184 loadbang;
#X obj -58 128 color 1 1 1;
#X msg 90 56 0.52 0.31 0.76;
#X msg 107 83 0.13 0.71 0.85;
#X msg 73 27 0.85 0.61 0.27;
#X floatatom -84 635 5 0 0 0 - - -, f 5;
#X msg -158 425 1;
#X obj 96 507 translateXYZ 0.2 -0.4 0;
#X obj 540 291 route \$1;
#X obj 398 336 separator;
#X obj 398 543 text2d;
#X obj 399 440 colorRGB 1 1 1;
#X msg 529 416 text Speed-1X;
#X msg 544 438 text Speed-2X;
#X msg 561 457 text Speed-4X;
#X msg 586 478 text Speed-8X;
#X msg 475 373 1 \, 0 2000;
#X obj 475 395 line;
#X obj 402 400 spigot;
#X obj 428 363 > 0;
#X obj 540 269 r tglspeed;
#X obj 515 535 loadbang;
#X msg 515 558 font ACaslonPro-BoldItalic.otf \, justify center base
;
#X msg 465 524 50;
#X obj 522 23 separator;
#X obj 522 230 text2d;
#X obj 523 127 colorRGB 1 1 1;
#X msg 599 60 1 \, 0 2000;
#X obj 599 82 line;
#X obj 526 87 spigot;
#X obj 552 50 > 0;
#X msg 668 125 text N:\$1 | C:\$2;
#X obj -61 228 t a a a a a a a;
#X obj 367 497 translateXYZ 1 -1 0;
#X obj 502 156 translateXYZ 0.2 -0.6 0;
#X obj 697 29 r \$0-numbeat;
#X obj 790 33 r \$0-numbeat-click;
#X obj 697 66 int;
#X obj 795 57 int;
#X obj 696 101 pack f f;
#X obj 616 30 bng 15 250 50 0 empty empty empty 17 7 0 10 -262144 -1
-1;
#X obj 728 64 bng 15 250 50 0 empty empty empty 17 7 0 10 -262144 -1
-1;
#X msg 578 227 15;
#X floatatom 656 348 5 0 0 0 - - -, f 5;
#X msg 606 498 text Speed-16X;
#X obj 544 326 sel 0 1 2 3 4;
#X connect 0 0 14 1;
#X connect 1 0 10 1;
#X connect 2 0 70 0;
#X connect 3 0 51 0;
#X connect 4 0 50 0;
#X connect 5 0 8 0;
#X connect 6 0 4 0;
#X connect 7 0 3 0;
#X connect 9 0 42 0;
#X connect 9 2 14 0;
#X connect 9 3 10 0;
#X connect 10 0 11 0;
#X connect 11 0 8 2;
#X connect 11 0 3 2;
#X connect 11 0 17 2;
#X connect 11 0 45 2;
#X connect 12 0 13 0;
#X connect 13 0 73 0;
#X connect 13 1 71 0;
#X connect 13 2 72 0;
#X connect 14 0 15 0;
#X connect 15 0 8 1;
#X connect 15 0 4 2;
#X connect 16 0 2 0;
#X connect 17 0 19 0;
#X connect 18 0 23 0;
#X connect 20 0 53 0;
#X connect 20 0 94 0;
#X connect 21 0 24 0;
#X connect 22 0 26 0;
#X connect 23 0 37 0;
#X connect 23 1 28 0;
#X connect 24 0 25 1;
#X connect 24 1 25 0;
#X connect 25 0 29 0;
#X connect 26 0 27 1;
#X connect 26 1 27 0;
#X connect 27 0 30 0;
#X connect 28 0 21 0;
#X connect 28 1 22 0;
#X connect 29 0 31 0;
#X connect 30 0 31 0;
#X connect 31 0 40 0;
#X connect 31 1 41 0;
#X connect 32 0 76 0;
#X connect 33 0 41 0;
#X connect 34 0 35 0;
#X connect 35 0 36 0;
#X connect 35 1 36 0;
#X connect 35 2 36 0;
#X connect 36 0 37 1;
#X connect 37 0 38 0;
#X connect 38 0 32 0;
#X connect 39 0 38 1;
#X connect 40 0 19 0;
#X connect 41 0 19 0;
#X connect 42 0 101 0;
#X connect 43 0 46 0;
#X connect 45 0 47 0;
#X connect 46 0 45 0;
#X connect 47 0 63 0;
#X connect 48 0 19 1;
#X connect 49 0 48 0;
#X connect 49 0 92 0;
#X connect 49 0 111 0;
#X connect 52 0 61 0;
#X connect 53 0 19 0;
#X connect 53 0 44 0;
#X connect 54 0 44 0;
#X connect 55 0 57 0;
#X connect 55 1 58 0;
#X connect 55 2 59 0;
#X connect 56 0 55 0;
#X connect 57 0 65 0;
#X connect 57 0 74 0;
#X connect 58 0 67 0;
#X connect 59 0 66 0;
#X connect 60 0 55 1;
#X connect 60 1 54 0;
#X connect 61 0 60 0;
#X connect 62 0 75 0;
#X connect 63 0 44 0;
#X connect 63 1 60 1;
#X connect 64 0 56 0;
#X connect 65 0 44 0;
#X connect 66 0 44 0;
#X connect 67 0 44 0;
#X connect 68 0 8 0;
#X connect 69 0 68 0;
#X connect 70 0 9 0;
#X connect 71 0 70 1;
#X connect 72 0 70 1;
#X connect 73 0 70 1;
#X connect 75 0 60 0;
#X connect 76 0 17 0;
#X connect 77 0 112 0;
#X connect 77 0 114 0;
#X connect 78 0 87 0;
#X connect 80 0 102 0;
#X connect 81 0 79 0;
#X connect 82 0 79 0;
#X connect 83 0 79 0;
#X connect 84 0 79 0;
#X connect 85 0 86 0;
#X connect 86 0 80 4;
#X connect 86 0 88 0;
#X connect 87 0 80 0;
#X connect 88 0 87 1;
#X connect 89 0 77 0;
#X connect 90 0 91 0;
#X connect 91 0 79 0;
#X connect 92 0 79 1;
#X connect 93 0 98 0;
#X connect 95 0 103 0;
#X connect 96 0 97 0;
#X connect 97 0 95 4;
#X connect 97 0 99 0;
#X connect 98 0 95 0;
#X connect 99 0 98 1;
#X connect 100 0 94 0;
#X connect 101 0 43 0;
#X connect 101 1 5 0;
#X connect 101 2 6 0;
#X connect 101 3 7 0;
#X connect 101 4 18 0;
#X connect 101 5 78 0;
#X connect 101 6 93 0;
#X connect 102 0 79 0;
#X connect 103 0 94 0;
#X connect 104 0 106 0;
#X connect 105 0 107 0;
#X connect 106 0 108 0;
#X connect 106 0 109 0;
#X connect 107 0 108 1;
#X connect 107 0 110 0;
#X connect 107 0 109 0;
#X connect 108 0 100 0;
#X connect 109 0 96 0;
#X connect 110 0 108 0;
#X connect 111 0 94 1;
#X connect 113 0 79 0;
#X connect 114 0 81 0;
#X connect 114 0 85 0;
#X connect 114 1 82 0;
#X connect 114 1 85 0;
#X connect 114 2 83 0;
#X connect 114 2 85 0;
#X connect 114 3 84 0;
#X connect 114 3 85 0;
#X connect 114 4 113 0;
#X restore 239 488 pd circle;
#X obj 464 367 k_range -4 4 0 200;
#X obj 509 394 k_range 4 -4 0 200;
#X obj 485 472 k_range -4 4 0 200;
#X obj 538 444 k_range 4 -4 0 200;
#X obj 485 497 pack f f;
#X obj 464 522 list;
#X obj 464 568 s mainline\$1;
#X obj 464 420 pack f f;
#X obj 296 373 t a b b;
#X obj 735 466 > 0;
#X obj 464 546 spigot;
#X obj 610 161 v r_\$1;
#X floatatom 327 545 5 0 0 0 - - -, f 5;
#X floatatom 389 499 5 0 0 0 - - -, f 5;
#X obj 389 525 v py\$1;
#X obj 327 574 v px\$1;
#X obj 735 434 v speed-\$1;
#X obj 518 129 t f f b b b b;
#X connect 0 0 27 0;
#X connect 1 0 18 0;
#X connect 2 0 9 1;
#X connect 3 0 1 0;
#X connect 3 0 10 0;
#X connect 4 0 1 1;
#X connect 4 0 11 0;
#X connect 5 0 3 2;
#X connect 6 0 4 2;
#X connect 7 0 2 0;
#X connect 7 0 12 0;
#X connect 7 0 22 0;
#X connect 8 0 2 1;
#X connect 8 0 13 0;
#X connect 8 0 23 0;
#X connect 10 0 17 0;
#X connect 11 0 17 1;
#X connect 12 0 14 0;
#X connect 13 0 14 1;
#X connect 14 0 15 1;
#X connect 15 0 20 0;
#X connect 17 0 15 0;
#X connect 18 0 9 0;
#X connect 18 1 7 0;
#X connect 18 2 8 0;
#X connect 19 0 20 1;
#X connect 20 0 16 0;
#X connect 21 0 3 1;
#X connect 21 0 4 1;
#X connect 22 0 25 0;
#X connect 23 0 24 0;
#X connect 26 0 19 0;
#X connect 27 0 3 0;
#X connect 27 1 4 0;
#X connect 27 2 5 0;
#X connect 27 3 6 0;
#X connect 27 4 21 0;
#X connect 27 5 26 0;
#X restore 379 263 pd mainline;
#X obj 58 115 t f f;
#X connect 1 0 11 0;
#X connect 2 0 8 0;
#X connect 3 0 2 0;
#X connect 4 0 7 0;
#X connect 5 0 4 0;
#X connect 6 0 2 0;
#X connect 7 0 6 0;
#X connect 8 0 0 0;
#X connect 9 0 10 0;
#X connect 10 0 8 1;
#X connect 11 0 3 0;
#X connect 12 0 6 0;
#X connect 13 0 19 1;
#X connect 14 0 19 2;
#X connect 15 0 22 0;
#X connect 16 0 26 0;
#X connect 17 0 16 0;
#X connect 18 0 21 0;
#X connect 19 0 25 1;
#X connect 20 0 19 0;
#X connect 20 1 13 0;
#X connect 20 2 14 0;
#X connect 20 3 15 0;
#X connect 20 4 18 0;
#X connect 21 0 27 0;
#X connect 22 0 17 0;
#X connect 23 0 25 0;
#X connect 24 0 23 0;
#X connect 25 0 3 0;
#X connect 26 0 19 3;
#X connect 27 0 19 4;
#X connect 28 0 31 0;
#X connect 29 0 30 0;
#X connect 31 0 20 0;
#X connect 31 1 29 0;
#X restore -130 55 pd net;
#X obj 24 -3 t f f;
#X obj -80 -69 t f f;
#X obj 95 -122 env~;
#X obj 95 -100 s \$0-volvol;
#X obj 30 -53 table \$0-sound 400;
#X obj -190 -134 metro 8;
#X msg 246 -74 0.1;
#X obj 174 -155 loadbang;
#X obj -101 -26 fmod 100;
#X obj -162 -1 t f f f;
#X floatatom -154 200 5 0 0 0 - - -, f 5;
#X msg 263 -51 0.2;
#X msg 286 -72 0.4;
#X msg 323 -73 0.8;
#X obj -154 221 int;
#X obj -154 243 change;
#X floatatom -154 265 5 0 0 0 - - -, f 5;
#X obj 246 -119 route \$1;
#X obj -154 287 outlet;
#X obj 246 -141 r tglspeed;
#X obj 298 -15 r hid;
#X obj 298 65 sel 1;
#X msg 298 91 0;
#X obj -154 178 k_range 0 100 0 32;
#N canvas 240 469 450 300 dir 0;
#X obj 174 62 inlet;
#X obj 169 147 f;
#X obj 236 145 fmod 1;
#X floatatom 168 172 5 0 0 0 - - -, f 5;
#X floatatom 169 119 5 0 0 0 - - -, f 5;
#X obj 169 91 k_spring 1;
#X obj 200 147 + 0;
#X obj 168 198 s \$0-dirdir;
#X connect 0 0 5 0;
#X connect 1 0 3 0;
#X connect 1 0 6 0;
#X connect 2 0 1 1;
#X connect 3 0 7 0;
#X connect 4 0 1 0;
#X connect 5 0 4 0;
#X connect 6 0 2 0;
#X restore 126 412 pd dir;
#X obj 298 7 t a a;
#X obj 298 42 route key_21 key_27;
#N canvas 767 90 490 705 record 0;
#X obj 79 405 metro 30;
#X obj 78 427 f;
#X obj 114 428 + 1;
#X obj 69 547 tabwrite \$0-data-x;
#X obj 119 636 tabwrite \$0-data-y;
#X obj 69 492 t b f;
#X obj 119 584 t b f;
#X obj 87 320 spigot;
#X obj 127 295 r \$0-start;
#X obj 87 342 t f f;
#X obj 152 356 sel 0 1;
#X msg 175 382 0;
#X obj 219 355 metro 30;
#X msg 219 306 1;
#X obj 79 449 t f f f;
#X obj 219 383 f;
#X obj 255 384 + 1;
#X obj 290 384 % 100;
#X floatatom 323 359 5 0 0 0 - - -, f 5;
#X obj 219 405 t f f;
#X obj 219 430 tabread \$0-data-x;
#X obj 251 454 tabread \$0-data-y;
#X obj 218 529 v x_\$0;
#X obj 282 557 v y_\$0;
#X obj 253 278 sel 1;
#X msg 256 302 0;
#X obj 219 328 tgl 15 0 empty empty empty 17 7 0 10 -262144 -1 -1 1
1;
#X obj 69 519 v cx-\$1;
#X obj 119 611 v cy-\$1;
#X obj 301 325 s \$0-stoppos;
#X obj -9 104 loadbang;
#X obj -9 126 f \$1;
#X obj -9 147 sel 1 2 3;
#X obj 143 158 tgl 15 0 empty empty empty 17 7 0 10 -262144 -1 -1 0
1;
#X msg -9 172 1 0 0;
#X obj 11 194 0 1 0;
#X msg 31 218 0 0 1;
#X obj -5 239 unpack f f f;
#X obj 140 130 spigot;
#X obj 192 129 spigot;
#X obj 242 129 spigot;
#X obj 41 128 bng 15 250 50 0 empty empty empty 17 7 0 10 -262144 -1
-1;
#X floatatom 77 173 5 0 0 0 - - -, f 5;
#X obj 219 158 r mouse_left;
#X obj 219 180 tgl 15 0 empty empty empty 17 7 0 10 -262144 -1 -1 0
1;
#X obj 216 201 spigot;
#X obj 217 229 spigot;
#X obj 282 247 tgl 15 0 empty empty empty 17 7 0 10 -262144 -1 -1 0
1;
#X obj 217 251 t f f;
#X obj 185 34 table \$0-data-x 2000;
#X obj 184 56 table \$0-data-y 2000;
#X obj 111 64 inlet;
#X obj 111 92 route key_30 key_31 key_32 key_27;
#X msg 188 467 \$1 100;
#X obj 188 489 line;
#X msg 263 486 \$1 100;
#X obj 263 508 line;
#X connect 0 0 1 0;
#X connect 1 0 2 0;
#X connect 1 0 14 0;
#X connect 2 0 1 1;
#X connect 5 0 27 0;
#X connect 5 1 3 1;
#X connect 6 0 28 0;
#X connect 6 1 4 1;
#X connect 7 0 9 0;
#X connect 8 0 7 1;
#X connect 9 0 0 0;
#X connect 9 1 10 0;
#X connect 10 0 13 0;
#X connect 10 1 11 0;
#X connect 11 0 1 1;
#X connect 11 0 26 0;
#X connect 12 0 15 0;
#X connect 13 0 26 0;
#X connect 14 0 5 0;
#X connect 14 1 6 0;
#X connect 14 2 18 0;
#X connect 15 0 16 0;
#X connect 15 0 19 0;
#X connect 16 0 17 0;
#X connect 17 0 15 1;
#X connect 18 0 17 1;
#X connect 19 0 20 0;
#X connect 19 1 21 0;
#X connect 20 0 53 0;
#X connect 21 0 55 0;
#X connect 24 0 25 0;
#X connect 25 0 26 0;
#X connect 26 0 12 0;
#X connect 26 0 29 0;
#X connect 27 0 3 0;
#X connect 28 0 4 0;
#X connect 30 0 31 0;
#X connect 31 0 32 0;
#X connect 31 0 42 0;
#X connect 32 0 34 0;
#X connect 32 1 35 0;
#X connect 32 2 36 0;
#X connect 33 0 45 1;
#X connect 34 0 37 0;
#X connect 35 0 37 0;
#X connect 36 0 37 0;
#X connect 37 0 38 1;
#X connect 37 1 39 1;
#X connect 37 2 40 1;
#X connect 38 0 33 0;
#X connect 39 0 33 0;
#X connect 40 0 33 0;
#X connect 41 0 31 0;
#X connect 43 0 44 0;
#X connect 44 0 45 0;
#X connect 45 0 46 0;
#X connect 45 0 24 0;
#X connect 46 0 48 0;
#X connect 47 0 46 1;
#X connect 48 0 7 0;
#X connect 48 1 24 0;
#X connect 51 0 52 0;
#X connect 52 0 38 0;
#X connect 52 1 39 0;
#X connect 52 2 40 0;
#X connect 52 3 47 0;
#X connect 53 0 54 0;
#X connect 54 0 22 0;
#X connect 55 0 56 0;
#X connect 56 0 23 0;
#X restore 343 9 pd record move;
#X obj -116 146 s \$0-tocheck;
#X obj 246 295 s \$0-beatnum;
#X obj 345 336 s \$0-beatnumcheck;
#X obj 108 198 hsl 50 15 2 16 0 0 empty empty num 10 7 0 10 -262144
-1 -1 0 1;
#X obj 167 198 hsl 50 15 0 16 0 0 empty empty beat 10 7 0 10 -262144
-1 -1 306 1;
#X floatatom 443 147 5 0 0 0 - - -, f 5;
#X floatatom 345 313 5 0 0 0 - - -, f 5;
#X obj 345 283 int;
#X obj 246 261 int;
#X obj 4 348 loadbang;
#X msg 4 370 2;
#X obj 398 197 moses 0;
#X obj 443 170 + 0.1;
#X msg 40 371 1;
#X obj 386 366 bng 15 250 50 0 empty empty empty 17 7 0 10 -262144
-1 -1;
#X msg 385 407 \; \$1-bb 0 \;;
#X obj 386 385 f \$0;
#X msg 362 -73 1.6;
#X obj 246 -96 sel 0 1 2 3 4;
#X obj 515 68 r save;
#X obj 547 145 f;
#X obj 547 114 t b b;
#X obj 638 239 v \$0-index;
#X obj 515 234 f;
#X obj 515 203 t b b;
#X obj 456 -158 r load;
#X obj 456 -105 v \$0-index;
#X obj 515 265 tabwrite ball_beat;
#X obj 547 174 tabwrite ball_num;
#X obj 439 -58 tabread ball_num;
#X obj 456 -9 tabread ball_beat;
#X floatatom 456 14 5 0 0 0 - - -, f 5;
#X floatatom 502 16 5 0 0 0 - - -, f 5;
#X obj 456 -131 bng 15 250 50 0 empty empty empty 17 7 0 10 -262144
-1 -1;
#X floatatom 547 236 5 0 0 0 - - -, f 5;
#X floatatom 578 149 5 0 0 0 - - -, f 5;
#X obj 515 90 t b b b;
#X obj 597 51 v speed-\$1;
#X obj 708 57 v \$0-index;
#X obj 593 24 t b b;
#X obj 598 84 tabwrite ball_speed;
#X obj 456 -82 t f f f;
#X obj 501 -41 tabread ball_speed;
#X floatatom 550 -81 5 0 0 0 - - -, f 5;
#X obj 635 142 v \$0-index;
#X obj -190 -112 spigot 1;
#X obj -121 -151 r \$0-pluse;
#X obj -41 -175 r \$0-resetcenter;
#X connect 0 0 55 0;
#X connect 1 0 71 0;
#X connect 2 0 15 0;
#X connect 2 0 34 0;
#X connect 3 0 22 0;
#X connect 3 0 31 0;
#X connect 4 0 10 0;
#X connect 4 0 33 0;
#X connect 5 0 46 0;
#X connect 6 0 35 0;
#X connect 7 0 36 0;
#X connect 8 0 9 0;
#X connect 8 1 17 0;
#X connect 11 0 52 0;
#X connect 13 0 48 0;
#X connect 16 0 13 0;
#X connect 17 0 0 0;
#X connect 17 0 56 0;
#X connect 18 0 21 0;
#X connect 18 0 24 0;
#X connect 20 0 1 0;
#X connect 24 0 19 0;
#X connect 25 0 30 0;
#X connect 26 0 25 0;
#X connect 27 0 28 0;
#X connect 28 0 29 0;
#X connect 29 0 25 0;
#X connect 31 0 0 1;
#X connect 32 0 4 0;
#X connect 33 0 26 0;
#X connect 34 0 23 0;
#X connect 35 0 2 0;
#X connect 36 0 2 0;
#X connect 36 1 37 0;
#X connect 37 0 2 0;
#X connect 38 0 39 0;
#X connect 38 0 49 0;
#X connect 40 0 41 0;
#X connect 41 0 39 0;
#X connect 42 0 18 0;
#X connect 43 0 18 0;
#X connect 43 1 78 0;
#X connect 43 1 109 0;
#X connect 43 2 86 0;
#X connect 43 2 110 0;
#X connect 44 0 47 0;
#X connect 47 0 14 1;
#X connect 47 1 5 1;
#X connect 48 0 14 0;
#X connect 48 1 55 1;
#X connect 49 0 50 0;
#X connect 52 0 120 0;
#X connect 53 0 3 0;
#X connect 54 0 53 0;
#X connect 55 0 17 1;
#X connect 56 0 45 0;
#X connect 56 1 5 0;
#X connect 56 2 70 0;
#X connect 56 2 75 0;
#X connect 57 0 61 0;
#X connect 58 0 3 0;
#X connect 59 0 3 0;
#X connect 60 0 3 0;
#X connect 61 0 62 0;
#X connect 62 0 63 0;
#X connect 63 0 65 0;
#X connect 64 0 93 0;
#X connect 66 0 64 0;
#X connect 67 0 72 0;
#X connect 68 0 69 0;
#X connect 69 0 4 0;
#X connect 70 0 57 0;
#X connect 72 0 73 0;
#X connect 72 1 74 0;
#X connect 73 0 68 0;
#X connect 78 0 83 0;
#X connect 79 0 82 0;
#X connect 80 0 87 0;
#X connect 81 0 77 0;
#X connect 82 0 81 0;
#X connect 82 0 89 0;
#X connect 83 0 76 0;
#X connect 83 0 80 0;
#X connect 83 0 89 0;
#X connect 84 0 85 0;
#X connect 84 0 88 0;
#X connect 85 0 78 0;
#X connect 86 0 79 0;
#X connect 87 0 86 1;
#X connect 88 0 79 0;
#X connect 89 0 91 0;
#X connect 91 0 90 0;
#X connect 92 0 3 0;
#X connect 93 0 53 0;
#X connect 93 1 58 0;
#X connect 93 2 59 0;
#X connect 93 3 60 0;
#X connect 93 4 92 0;
#X connect 94 0 111 0;
#X connect 95 0 103 0;
#X connect 96 0 95 0;
#X connect 96 1 119 0;
#X connect 97 0 102 1;
#X connect 98 0 102 0;
#X connect 99 0 98 0;
#X connect 99 1 97 0;
#X connect 100 0 108 0;
#X connect 101 0 116 0;
#X connect 101 0 118 0;
#X connect 104 0 107 0;
#X connect 105 0 106 0;
#X connect 106 0 43 0;
#X connect 107 0 43 1;
#X connect 108 0 101 0;
#X connect 109 0 98 1;
#X connect 110 0 95 1;
#X connect 111 0 99 0;
#X connect 111 1 96 0;
#X connect 111 2 114 0;
#X connect 112 0 115 0;
#X connect 113 0 115 1;
#X connect 114 0 112 0;
#X connect 114 1 113 0;
#X connect 116 0 104 0;
#X connect 116 1 105 0;
#X connect 116 2 117 0;
#X connect 117 0 3 0;
#X connect 119 0 103 1;
#X connect 120 0 8 0;
#X connect 121 0 120 1;
#X connect 122 0 17 0;
#X coords 0 -1 1 1 120 120 1 100 100;
