#N canvas 373 433 997 559 10;
#X obj 300 22 r all;
#X obj 100 70 unpack f f;
#X obj -80 248 osc~;
#X floatatom 100 95 5 0 0 0 - - -, f 5;
#X floatatom 64 147 5 0 0 0 - - -, f 5;
#X obj -80 279 *~;
#X msg 64 171 \$1 20;
#X obj 64 196 line~;
#X obj 379 81 unpack f f;
#X floatatom 379 106 5 0 0 0 - - -, f 5;
#X floatatom 457 118 5 0 0 0 - - -, f 5;
#X obj 424 363 *~;
#X msg 457 142 \$1 20;
#X obj 457 167 line~;
#X obj 219 60 unpack f f;
#X floatatom 219 85 5 0 0 0 - - -, f 5;
#X floatatom 299 149 5 0 0 0 - - -, f 5;
#X obj 220 271 *~;
#X msg 299 173 \$1 20;
#X obj 299 198 line~;
#X obj 107 157 noise~;
#X obj -16 397 throw~ s1;
#X obj 424 445 throw~ s2;
#X obj 218 410 throw~ s3;
#X obj 586 49 unpack f f;
#X obj 300 50 route /red\$1 /blue\$1 /green\$1 /pos\$1;
#X obj 596 418 throw~ s4;
#X obj 616 312 line~;
#X obj 661 179 tgl 15 0 empty empty empty 0 -6 0 10 -262144 -1 -1 1
1;
#X obj 596 339 *~;
#X obj 762 191 pipe 200;
#X obj 762 217 -;
#X obj 762 244 abs;
#X obj 762 143 * 1000;
#X floatatom 762 290 5 0 0 0 - - -, f 5;
#X obj 762 338 line~;
#X obj 762 166 t f f;
#X obj 661 229 t b b;
#X msg 762 314 \$1 1000;
#X obj 364 181 phasor~;
#X obj 364 207 expr~ if($v1>0.5 \, 0.5 \, -0.5);
#X floatatom 279 338 5 0 0 0 - - -, f 5;
#X obj 0 311 + 0.3;
#X obj 455 337 + 0.05;
#X obj 379 125 change;
#X floatatom 0 335 5 0 0 0 - - -, f 5;
#X floatatom 33 266 5 0 0 0 - - -, f 5;
#X obj 0 291 randomF 0.08;
#X obj -47 135 change;
#X obj -46 163 t f b f;
#X obj 32 246 k_range 100 1000 0.4 0.03;
#X obj 379 147 t f b f;
#X floatatom 484 298 5 0 0 0 - - -, f 5;
#X obj 455 317 randomF 0.05;
#X obj 354 269 k_range 100 600 0.3 0.02;
#X obj 107 182 bp~ 100 4;
#X obj 279 315 k_range 100 3000 0.5 0.02;
#X obj 298 238 phasor~ 100;
#X obj 201 176 *~;
#X msg 303 369 \$1 100;
#X obj 303 394 line~;
#X obj 220 362 *~;
#X msg 13 354 \$1 100;
#X obj 13 374 line~;
#X obj -16 366 *~;
#X msg 460 361 \$1 100;
#X obj 460 381 line~;
#X obj 424 391 *~;
#X obj 201 149 osc~ 10;
#X floatatom 524 125 5 0 0 0 - - -, f 5;
#X floatatom 762 120 5 0 0 0 - - -, f 5;
#X obj 683 142 > 0;
#X obj 683 166 change;
#X obj 424 416 *~ 0.4;
#X obj 567 260 osc~;
#X obj 196 197 noise~;
#X obj 196 219 vcf~ 1;
#X obj 220 331 *~ 1;
#X floatatom 569 132 5 0 0 0 - - -, f 5;
#X obj 569 110 + 48;
#X obj 567 211 mtof;
#X obj 762 267 / 1000;
#X obj 569 83 expr int(abs($f1*24));
#X obj 588 170 moses 84;
#X msg 625 196 84;
#X floatatom 567 233 5 0 0 0 - - -, f 5;
#X msg 520 181 48;
#X obj 520 159 moses 48;
#X obj 596 367 *~;
#X obj 661 202 metro 50;
#X msg 661 258 0.5 50;
#X obj 688 291 del 50;
#X msg 688 315 0 50;
#X obj 596 391 *~ 0.3;
#X connect 0 0 25 0;
#X connect 1 0 3 0;
#X connect 1 1 4 0;
#X connect 2 0 5 0;
#X connect 3 0 48 0;
#X connect 4 0 6 0;
#X connect 5 0 64 0;
#X connect 6 0 7 0;
#X connect 7 0 5 1;
#X connect 8 0 9 0;
#X connect 8 1 10 0;
#X connect 9 0 44 0;
#X connect 10 0 12 0;
#X connect 11 0 67 0;
#X connect 12 0 13 0;
#X connect 13 0 11 1;
#X connect 14 0 15 0;
#X connect 14 1 16 0;
#X connect 15 0 56 0;
#X connect 15 0 58 1;
#X connect 15 0 71 0;
#X connect 16 0 18 0;
#X connect 17 0 77 0;
#X connect 18 0 19 0;
#X connect 19 0 17 1;
#X connect 20 0 55 0;
#X connect 24 0 69 0;
#X connect 24 0 82 0;
#X connect 24 1 70 0;
#X connect 25 0 1 0;
#X connect 25 1 14 0;
#X connect 25 2 8 0;
#X connect 25 3 24 0;
#X connect 27 0 29 1;
#X connect 28 0 89 0;
#X connect 29 0 88 0;
#X connect 30 0 31 0;
#X connect 31 0 32 0;
#X connect 32 0 81 0;
#X connect 33 0 36 0;
#X connect 34 0 38 0;
#X connect 35 0 88 1;
#X connect 36 0 30 0;
#X connect 36 1 31 1;
#X connect 37 0 90 0;
#X connect 37 1 91 0;
#X connect 38 0 35 0;
#X connect 39 0 40 0;
#X connect 40 0 11 0;
#X connect 41 0 59 0;
#X connect 42 0 45 0;
#X connect 43 0 65 0;
#X connect 44 0 51 0;
#X connect 45 0 62 0;
#X connect 46 0 42 1;
#X connect 47 0 42 0;
#X connect 48 0 49 0;
#X connect 49 0 2 0;
#X connect 49 1 47 0;
#X connect 49 2 50 0;
#X connect 50 0 46 0;
#X connect 51 0 39 0;
#X connect 51 1 53 0;
#X connect 51 2 54 0;
#X connect 52 0 43 1;
#X connect 53 0 43 0;
#X connect 54 0 52 0;
#X connect 56 0 41 0;
#X connect 58 0 76 1;
#X connect 59 0 60 0;
#X connect 60 0 61 1;
#X connect 61 0 23 0;
#X connect 62 0 63 0;
#X connect 63 0 64 1;
#X connect 64 0 21 0;
#X connect 65 0 66 0;
#X connect 66 0 67 1;
#X connect 67 0 73 0;
#X connect 68 0 58 0;
#X connect 70 0 33 0;
#X connect 71 0 72 0;
#X connect 72 0 28 0;
#X connect 73 0 22 0;
#X connect 74 0 29 0;
#X connect 75 0 76 0;
#X connect 76 0 17 0;
#X connect 77 0 61 0;
#X connect 78 0 87 0;
#X connect 79 0 78 0;
#X connect 80 0 85 0;
#X connect 81 0 34 0;
#X connect 82 0 79 0;
#X connect 83 0 80 0;
#X connect 83 1 84 0;
#X connect 84 0 80 0;
#X connect 85 0 74 0;
#X connect 86 0 80 0;
#X connect 87 0 86 0;
#X connect 87 1 83 0;
#X connect 88 0 93 0;
#X connect 89 0 37 0;
#X connect 90 0 27 0;
#X connect 91 0 92 0;
#X connect 92 0 27 0;
#X connect 93 0 26 0;
