#N canvas 500 186 997 559 10;
#X obj 281 -47 r all;
#X obj -24 53 unpack f f;
#X obj -80 248 osc~;
#X floatatom -24 78 5 0 0 0 - - -, f 5;
#X floatatom 64 147 5 0 0 0 - - -, f 5;
#X obj -76 333 *~;
#X msg 64 171 \$1 20;
#X obj 64 196 line~;
#X obj 390 14 unpack f f;
#X floatatom 390 39 5 0 0 0 - - -, f 5;
#X floatatom 457 118 5 0 0 0 - - -, f 5;
#X obj 424 363 *~;
#X msg 457 142 \$1 20;
#X obj 457 167 line~;
#X obj 277 35 unpack f f;
#X floatatom 277 60 5 0 0 0 - - -, f 5;
#X floatatom 299 149 5 0 0 0 - - -, f 5;
#X obj 220 271 *~;
#X msg 299 173 \$1 20;
#X obj 299 198 line~;
#X obj -64 448 throw~ s1;
#X obj 424 445 throw~ s2;
#X obj 154 410 throw~ s3;
#X obj 586 49 unpack f f;
#X obj 596 418 throw~ s4;
#X obj 616 312 line~;
#X obj 742 408 tgl 15 0 empty empty empty 0 -6 0 10 -262144 -1 -1 1
1;
#X obj 596 339 *~;
#X obj 831 196 pipe 200;
#X obj 831 222 -;
#X obj 831 249 abs;
#X obj 831 148 * 1000;
#X floatatom 831 295 5 0 0 0 - - -, f 5;
#X obj 831 343 line~;
#X obj 831 171 t f f;
#X obj 742 458 t b b;
#X msg 831 319 \$1 1000;
#X obj 364 181 phasor~;
#X obj 364 207 expr~ if($v1>0.5 \, 0.5 \, -0.5);
#X floatatom 215 338 5 0 0 0 - - -, f 5;
#X obj 455 337 + 0.05;
#X obj 379 125 change;
#X floatatom 0 335 5 0 0 0 - - -, f 5;
#X floatatom 33 266 5 0 0 0 - - -, f 5;
#X obj 0 291 randomF 0.08;
#X obj -47 135 change;
#X obj -46 163 t f b f;
#X obj 379 147 t f b f;
#X floatatom 484 298 5 0 0 0 - - -, f 5;
#X obj 455 317 randomF 0.05;
#X obj 201 176 *~;
#X msg 239 369 \$1 100;
#X obj 239 394 line~;
#X obj 156 362 *~;
#X msg 13 354 \$1 100;
#X obj 13 374 line~;
#X obj -64 417 *~;
#X msg 460 361 \$1 100;
#X obj 460 381 line~;
#X obj 424 391 *~;
#X floatatom 819 100 5 0 0 0 - - -, f 5;
#X obj 746 360 > 0;
#X obj 746 384 change;
#X obj 424 416 *~ 0.4;
#X obj 145 70 noise~;
#X obj 156 331 *~ 1;
#X floatatom 569 132 5 0 0 0 - - -, f 5;
#X obj 578 170 mtof;
#X obj 831 272 / 1000;
#X floatatom 578 192 5 0 0 0 - - -, f 5;
#X obj 596 367 *~;
#X obj 742 431 metro 50;
#X msg 742 487 0.5 50;
#X obj 769 520 del 50;
#X msg 769 544 0 50;
#X msg 152 -61 /red/0 1 2;
#X obj 281 -19 route /red/\$1 /blue/\$1 /green/\$1 /pos/\$1;
#X obj -24 99 mtof;
#X obj 275 99 mtof;
#X obj 389 60 mtof;
#X obj 323 105 / 127;
#X obj 47 99 / 127;
#X obj 455 51 / 127;
#X obj -47 471 throw~ ss1;
#X obj 167 435 throw~ ss3;
#X obj 396 473 throw~ ss2;
#X floatatom 621 -72 5 0 0 0 - - -, f 5;
#X floatatom 621 -31 5 0 0 0 - - -, f 5;
#X obj 621 -53 k_range -5 5 0 36;
#X obj 621 -12 % 12;
#X floatatom 621 10 5 0 0 0 - - -, f 5;
#X obj 569 110 + 72;
#X obj 578 212 phasor~;
#X obj 577 234 expr~ if($v1>0.5 \, 1-$v1 \, $v1);
#X obj 364 229 *~ 2;
#X obj 0 311 + 0.5;
#X obj 484 270 k_range 100 600 0.4 0.02;
#X obj 215 315 k_range 100 3000 0.8 0.02;
#X obj 201 148 osc~ 20;
#X obj 145 92 vcf~ 1;
#X obj 596 391 *~ 0.2;
#X obj -80 270 *~;
#X obj -36 212 osc~ 5;
#X obj 32 246 k_range 100 1000 0.32 0.02;
#X obj 105 16 phasor~;
#X obj 105 38 expr~ if($v1>0.5 \, 1-$v1 \, $v1);
#X connect 0 0 76 0;
#X connect 1 0 3 0;
#X connect 1 1 81 0;
#X connect 2 0 101 0;
#X connect 3 0 77 0;
#X connect 4 0 6 0;
#X connect 5 0 56 0;
#X connect 6 0 7 0;
#X connect 7 0 5 1;
#X connect 8 0 9 0;
#X connect 8 1 82 0;
#X connect 9 0 79 0;
#X connect 10 0 12 0;
#X connect 11 0 59 0;
#X connect 12 0 13 0;
#X connect 13 0 11 1;
#X connect 14 0 15 0;
#X connect 14 1 80 0;
#X connect 15 0 61 0;
#X connect 15 0 78 0;
#X connect 16 0 18 0;
#X connect 17 0 65 0;
#X connect 18 0 19 0;
#X connect 19 0 17 1;
#X connect 23 0 86 0;
#X connect 23 1 60 0;
#X connect 25 0 27 1;
#X connect 26 0 71 0;
#X connect 27 0 70 0;
#X connect 28 0 29 0;
#X connect 29 0 30 0;
#X connect 30 0 68 0;
#X connect 31 0 34 0;
#X connect 32 0 36 0;
#X connect 33 0 70 1;
#X connect 34 0 28 0;
#X connect 34 1 29 1;
#X connect 35 0 72 0;
#X connect 35 1 73 0;
#X connect 36 0 33 0;
#X connect 37 0 38 0;
#X connect 38 0 94 0;
#X connect 39 0 51 0;
#X connect 40 0 57 0;
#X connect 41 0 47 0;
#X connect 42 0 54 0;
#X connect 43 0 95 1;
#X connect 44 0 95 0;
#X connect 45 0 46 0;
#X connect 46 0 2 0;
#X connect 46 1 44 0;
#X connect 46 2 103 0;
#X connect 47 0 37 0;
#X connect 47 1 49 0;
#X connect 47 2 96 0;
#X connect 48 0 40 1;
#X connect 49 0 40 0;
#X connect 50 0 99 1;
#X connect 51 0 52 0;
#X connect 52 0 53 1;
#X connect 53 0 22 0;
#X connect 53 0 84 0;
#X connect 54 0 55 0;
#X connect 55 0 56 1;
#X connect 56 0 20 0;
#X connect 56 0 83 0;
#X connect 57 0 58 0;
#X connect 58 0 59 1;
#X connect 59 0 63 0;
#X connect 60 0 31 0;
#X connect 61 0 62 0;
#X connect 62 0 26 0;
#X connect 63 0 21 0;
#X connect 63 0 85 0;
#X connect 64 0 99 0;
#X connect 65 0 53 0;
#X connect 66 0 67 0;
#X connect 67 0 69 0;
#X connect 68 0 32 0;
#X connect 69 0 92 0;
#X connect 70 0 100 0;
#X connect 71 0 35 0;
#X connect 72 0 25 0;
#X connect 73 0 74 0;
#X connect 74 0 25 0;
#X connect 75 0 76 0;
#X connect 76 0 1 0;
#X connect 76 1 14 0;
#X connect 76 2 8 0;
#X connect 76 3 23 0;
#X connect 77 0 45 0;
#X connect 78 0 50 1;
#X connect 78 0 97 0;
#X connect 78 0 104 0;
#X connect 79 0 41 0;
#X connect 80 0 16 0;
#X connect 81 0 4 0;
#X connect 82 0 10 0;
#X connect 86 0 88 0;
#X connect 87 0 89 0;
#X connect 88 0 87 0;
#X connect 89 0 90 0;
#X connect 90 0 91 0;
#X connect 91 0 66 0;
#X connect 92 0 93 0;
#X connect 93 0 27 0;
#X connect 94 0 11 0;
#X connect 95 0 42 0;
#X connect 96 0 48 0;
#X connect 97 0 39 0;
#X connect 98 0 50 0;
#X connect 100 0 24 0;
#X connect 101 0 5 0;
#X connect 102 0 101 1;
#X connect 103 0 43 0;
#X connect 104 0 105 0;
#X connect 105 0 17 0;
