#N canvas 379 65 660 607 10;
#X obj 300 -1 r all;
#X obj 196 88 random 5;
#X obj 196 113 sel 0 1 2 3 4;
#X msg 196 137 0;
#X msg 211 163 4;
#X msg 226 187 7;
#X msg 241 214 11;
#X msg 256 243 12;
#X obj 199 254 +;
#X floatatom 37 111 5 0 0 0 - - -, f 5;
#X obj 36 289 * 12;
#X obj 201 303 mtof;
#X obj 227 28 t b f;
#X obj 201 332 osc~;
#X obj 442 255 / 4;
#X obj 442 278 moses 1;
#X obj 442 330 + 0.1;
#X msg 482 302 0.9;
#X obj 201 361 *~ 0;
#X obj 331 364 expr 1-$f1;
#X obj 304 313 t f f;
#X obj 331 457 line~;
#X msg 331 390 \$1 50;
#X obj 239 481 *~;
#X obj 201 479 *~;
#X obj 286 399 line~;
#X msg 286 367 \$1 50;
#X obj 201 512 throw~ circleL;
#X obj 239 539 throw~ circleR;
#X obj 300 77 unpack f f f f;
#X obj 244 370 line~;
#X obj 201 388 *~;
#X msg 367 303 0;
#X obj 36 315 + 30;
#X floatatom 199 276 5 0 0 0 - - -, f 5;
#X floatatom 316 239 5 0 0 0 - - -, f 5;
#X obj 438 101 k_range;
#X floatatom 36 162 5 0 0 0 - - -, f 5;
#X obj 36 181 int;
#X floatatom 36 337 5 0 0 0 - - -, f 5;
#X floatatom 36 244 5 0 0 0 - - -, f 5;
#X obj 36 263 + 1;
#X floatatom 348 178 5 0 0 0 - - -, f 5;
#X obj 201 452 *~ 1;
#X obj 316 217 expr (($f1+4)/8)*4;
#X obj 316 258 fmod 1;
#X floatatom 316 280 5 0 0 0 - - -, f 5;
#X obj 37 81 k_speed 200;
#X obj 109 -40 loadbang;
#X obj 109 -18 random 6;
#X obj 109 4 + 2;
#X msg 244 338 \$1 2000;
#X obj 109 26 * 50;
#X obj 36 222 % 4;
#X obj 36 140 k_range -7.8 35 0 12;
#X obj 74 356 k_range 1 4 1 0.2;
#X floatatom 74 378 5 0 0 0 - - -, f 5;
#X msg 74 397 \$1 50;
#X obj 201 414 *~;
#X obj 74 419 line~;
#X obj 300 26 route /circle /circle-all;
#X obj 300 48 route \$1;
#X connect 0 0 60 0;
#X connect 1 0 2 0;
#X connect 2 0 3 0;
#X connect 2 1 4 0;
#X connect 2 2 5 0;
#X connect 2 3 6 0;
#X connect 2 4 7 0;
#X connect 3 0 8 0;
#X connect 4 0 8 0;
#X connect 5 0 8 0;
#X connect 6 0 8 0;
#X connect 7 0 8 0;
#X connect 8 0 34 0;
#X connect 9 0 54 0;
#X connect 10 0 33 0;
#X connect 11 0 13 0;
#X connect 12 0 1 0;
#X connect 12 1 8 1;
#X connect 13 0 18 0;
#X connect 14 0 15 0;
#X connect 15 0 16 0;
#X connect 15 1 17 0;
#X connect 16 0 18 1;
#X connect 17 0 16 0;
#X connect 18 0 31 0;
#X connect 19 0 22 0;
#X connect 20 0 26 0;
#X connect 20 1 19 0;
#X connect 21 0 23 1;
#X connect 22 0 21 0;
#X connect 23 0 28 0;
#X connect 24 0 27 0;
#X connect 25 0 24 1;
#X connect 26 0 25 0;
#X connect 29 0 47 0;
#X connect 29 1 44 0;
#X connect 29 2 14 0;
#X connect 29 3 42 0;
#X connect 30 0 31 1;
#X connect 31 0 58 0;
#X connect 32 0 26 0;
#X connect 32 0 22 0;
#X connect 33 0 39 0;
#X connect 34 0 11 0;
#X connect 35 0 45 0;
#X connect 37 0 38 0;
#X connect 38 0 53 0;
#X connect 39 0 12 0;
#X connect 40 0 41 0;
#X connect 41 0 10 0;
#X connect 41 0 55 0;
#X connect 42 0 51 0;
#X connect 43 0 24 0;
#X connect 43 0 23 0;
#X connect 44 0 35 0;
#X connect 45 0 46 0;
#X connect 46 0 20 0;
#X connect 47 0 9 0;
#X connect 48 0 49 0;
#X connect 49 0 50 0;
#X connect 50 0 52 0;
#X connect 51 0 30 0;
#X connect 52 0 47 1;
#X connect 53 0 40 0;
#X connect 54 0 37 0;
#X connect 55 0 56 0;
#X connect 56 0 57 0;
#X connect 57 0 59 0;
#X connect 58 0 43 0;
#X connect 59 0 58 1;
#X connect 60 0 61 0;
#X connect 60 1 32 0;
#X connect 61 0 29 0;
