#N canvas 256 186 533 542 10;
#X obj 300 22 r all;
#X obj 196 88 random 5;
#X obj 196 113 sel 0 1 2 3 4;
#X msg 196 137 0;
#X msg 211 163 4;
#X msg 226 187 7;
#X msg 241 214 11;
#X msg 256 243 12;
#X obj 201 279 +;
#X floatatom 334 118 5 0 0 0 - - -;
#X floatatom 333 170 5 0 0 0 - - -;
#X obj 333 192 * 12;
#X obj 201 303 mtof;
#X obj 333 243 t b f;
#X obj 201 332 osc~;
#X obj 400 200 / 4;
#X obj 400 223 moses 1;
#X obj 400 275 + 0.1;
#X msg 440 247 0.9;
#X obj 201 361 *~ 0;
#X obj 201 417 *~ 0.2;
#X obj 326 399 expr 1-$f1;
#X floatatom 299 319 5 0 0 0 - - -;
#X obj 299 348 t f f;
#X obj 326 457 line~;
#X msg 326 425 \$1 50;
#X obj 239 446 *~;
#X obj 201 444 *~;
#X obj 281 434 line~;
#X msg 281 402 \$1 50;
#X obj 201 477 throw~ circleL;
#X obj 239 504 throw~ circleR;
#X obj 300 49 route /circle-\$1 /circle-all;
#X obj 300 77 unpack f f f f;
#X obj 241 333 line~;
#X msg 241 301 \$1 50;
#X obj 201 388 *~;
#X obj 333 144 expr int(($f1+4)/8*5);
#X msg 362 338 0;
#X obj 333 218 + 30;
#X connect 0 0 32 0;
#X connect 1 0 2 0;
#X connect 2 0 3 0;
#X connect 2 1 4 0;
#X connect 2 2 5 0;
#X connect 2 3 6 0;
#X connect 2 4 7 0;
#X connect 3 0 8 0;
#X connect 4 0 8 0;
#X connect 5 0 8 0;
#X connect 6 0 8 0;
#X connect 7 0 8 0;
#X connect 8 0 12 0;
#X connect 9 0 37 0;
#X connect 10 0 11 0;
#X connect 11 0 39 0;
#X connect 12 0 14 0;
#X connect 13 0 1 0;
#X connect 13 1 8 1;
#X connect 14 0 19 0;
#X connect 15 0 16 0;
#X connect 16 0 17 0;
#X connect 16 1 18 0;
#X connect 17 0 19 1;
#X connect 18 0 17 0;
#X connect 19 0 36 0;
#X connect 20 0 27 0;
#X connect 20 0 26 0;
#X connect 21 0 25 0;
#X connect 22 0 23 0;
#X connect 23 0 29 0;
#X connect 23 1 21 0;
#X connect 24 0 26 1;
#X connect 25 0 24 0;
#X connect 26 0 31 0;
#X connect 27 0 30 0;
#X connect 28 0 27 1;
#X connect 29 0 28 0;
#X connect 32 0 33 0;
#X connect 32 1 38 0;
#X connect 33 0 22 0;
#X connect 33 1 9 0;
#X connect 33 2 15 0;
#X connect 33 3 35 0;
#X connect 34 0 36 1;
#X connect 35 0 34 0;
#X connect 36 0 20 0;
#X connect 37 0 10 0;
#X connect 38 0 29 0;
#X connect 38 0 25 0;
#X connect 39 0 13 0;
