#N canvas 593 407 524 568 10;
#X obj 130 -33 init \$1;
#X obj 130 -5 t f f;
#X obj 128 104 pack f f;
#X obj 69 384 t f b;
#X obj 69 420 tabwrite light;
#X obj 150 393 f \$1;
#X obj 69 222 tgl 15 0 empty empty empty 17 7 0 10 -262144 -1 -1 0
1;
#X obj 69 245 change;
#X msg 239 96 set \$1 \$2;
#X msg 241 117 -6 4;
#X obj 127 -57 bng 15 250 50 0 empty empty empty 17 7 0 10 -262144
-1 -1;
#X obj 52 103 r mouse;
#X obj 71 135 distance_n;
#X floatatom 69 156 5 0 0 0 - - -, f 5;
#X obj 69 314 line;
#X floatatom 69 268 5 0 0 0 - - -, f 5;
#X obj 69 193 expr if($f1<$f3 && $f1>$f2 \, 1 \, 0);
#X obj 166 163 t b f;
#X msg 69 290 \$1 500;
#X obj 264 163 r maxsize;
#X obj 166 140 r minsize;
#X obj 552 241 k_range 0 39 -7 7;
#X obj 69 357 + 0.2;
#X obj 69 336 * 0.8;
#X obj 169 -4 expr int($f1/34);
#X obj 167 65 k_range 0 19 4 -4;
#X obj 130 20 % 34;
#X obj 130 41 k_range 0 33 -5 5;
#X connect 0 0 1 0;
#X connect 1 0 26 0;
#X connect 1 1 24 0;
#X connect 2 0 8 0;
#X connect 2 0 12 1;
#X connect 3 0 4 0;
#X connect 3 1 5 0;
#X connect 5 0 4 1;
#X connect 6 0 7 0;
#X connect 7 0 15 0;
#X connect 8 0 9 0;
#X connect 10 0 0 0;
#X connect 11 0 12 0;
#X connect 12 0 13 0;
#X connect 13 0 16 0;
#X connect 14 0 23 0;
#X connect 15 0 18 0;
#X connect 16 0 6 0;
#X connect 17 0 13 0;
#X connect 17 1 16 1;
#X connect 18 0 14 0;
#X connect 19 0 16 2;
#X connect 20 0 17 0;
#X connect 22 0 3 0;
#X connect 23 0 22 0;
#X connect 24 0 25 0;
#X connect 25 0 2 1;
#X connect 26 0 27 0;
#X connect 27 0 2 0;
