#N canvas 0 22 450 300 12;
#X obj 161 423 i \$0;
#X obj 134 399 t a b;
#X msg 174 451 color \$1red \$1red \$1red \$1alpha;
#X msg 161 482 position \$1grid_x \$1grid_y \$1grid_z;
#X obj 134 376 alpha 1;
#X obj 295 175 tgl 15 0 empty empty empty 17 7 0 10 -262144 -1 -1 0
1;
#X obj 270 391 tabwrite \$0grid_z;
#X obj 295 255 f;
#X obj 323 253 + 1;
#X obj 295 282 t b f;
#X obj 540 120 bng 15 250 50 0 empty empty empty 17 7 0 10 -262144
-1 -1;
#X obj 540 173 f;
#X obj 568 171 + 1;
#X obj 540 96 loadbang;
#X obj 652 440 unpack f f;
#X obj 439 301 tabwrite \$0grid_x;
#X obj 457 388 tabwrite \$0grid_y;
#X obj 652 473 tabwrite \$0red;
#X obj 766 474 tabwrite \$0alpha;
#X obj 657 299 t f f f;
#X obj 652 388 sel 0;
#X obj 655 330 + 0;
#X obj 540 201 t f f f f f f f f;
#X obj 670 272 % 2;
#X obj 654 363 % 2;
#X msg 652 416 1 0.7;
#X msg 697 416 1 0.4;
#X obj 344 77 r voll;
#X obj 344 99 t f f;
#X floatatom 295 152 5 0 0 0 - - -, f 5;
#X obj 270 322 randomF 0.1;
#X obj 344 141 / 400;
#X obj 295 130 > 80;
#X obj 134 555 gemvertexbuffer 2000;
#X obj 540 143 repeat 2000;
#X obj 597 173 % 2000;
#X obj 440 244 % 60;
#X obj 458 341 expr int($f1/60)%30;
#X obj 670 250 expr int($f1/60)%30;
#X obj 44 51 table \$0grid_x 2000;
#X obj 45 76 table \$0grid_y 2000;
#X obj 45 122 table \$0red 2000;
#X obj 45 145 table \$0alpha 2000;
#X obj 352 255 % 2000;
#X obj 134 515 GEMglPointSize 1;
#X obj 295 198 metro 30;
#X obj 295 225 repeat 1000;
#X text 440 423 comment;
#X text 443 466 47 28;
#X obj 439 270 k_range 0 60 -8 8;
#X obj 457 364 k_range 0 30 -4 4;
#X obj 135 347 gemhead 1;
#X obj 45 100 table \$0grid_z 2000;
#X connect 0 0 3 0;
#X connect 0 0 2 0;
#X connect 1 0 44 0;
#X connect 1 1 0 0;
#X connect 2 0 33 0;
#X connect 3 0 33 0;
#X connect 4 0 1 0;
#X connect 5 0 45 0;
#X connect 7 0 8 0;
#X connect 7 0 9 0;
#X connect 8 0 43 0;
#X connect 9 0 30 0;
#X connect 9 1 6 1;
#X connect 10 0 34 0;
#X connect 11 0 12 0;
#X connect 11 0 22 0;
#X connect 12 0 35 0;
#X connect 13 0 10 0;
#X connect 14 0 17 0;
#X connect 14 1 18 0;
#X connect 19 0 21 0;
#X connect 19 1 17 1;
#X connect 19 2 18 1;
#X connect 20 0 25 0;
#X connect 20 1 26 0;
#X connect 21 0 24 0;
#X connect 22 0 36 0;
#X connect 22 1 37 0;
#X connect 22 3 15 1;
#X connect 22 4 16 1;
#X connect 22 6 19 0;
#X connect 22 7 38 0;
#X connect 23 0 21 1;
#X connect 24 0 20 0;
#X connect 25 0 14 0;
#X connect 26 0 14 0;
#X connect 27 0 28 0;
#X connect 28 0 31 0;
#X connect 28 1 32 0;
#X connect 29 0 5 0;
#X connect 31 0 30 1;
#X connect 32 0 29 0;
#X connect 34 0 11 0;
#X connect 35 0 11 1;
#X connect 36 0 49 0;
#X connect 37 0 50 0;
#X connect 38 0 23 0;
#X connect 43 0 7 1;
#X connect 44 0 33 0;
#X connect 45 0 46 0;
#X connect 46 0 7 0;
#X connect 49 0 15 0;
#X connect 50 0 16 0;
#X connect 51 0 4 0;
