#N canvas 883 23 345 707 10;
#X obj 32 125 gemwin;
#N canvas 414 141 928 651 dot&array 0;
#X obj 34 241 table r 192;
#X obj 35 262 table g 192;
#X obj 36 283 table b 192;
#X obj 36 305 table rr 192;
#X obj 36 326 table gg 192;
#X obj 36 346 table bb 192;
#X obj 219 326 translateXYZ;
#X obj 279 246 t f f;
#X obj 218 66 gemhead 100;
#X obj 279 202 / 192;
#X obj 219 180 t a b;
#X obj 310 155 f;
#X obj 339 155 + 1;
#X obj 369 155 % 192;
#X obj 219 300 separator;
#X obj 219 153 repeat 192;
#X obj 279 270 expr cos($f1)*3.35;
#X obj 304 297 expr sin($f1)*3.35;
#X obj 279 224 expr fmod($f1+0.06 \, 1)*2*3.14159;
#X obj 219 109 pix_texture;
#X obj 219 87 pix_image img/dot.png;
#X obj 219 129 alpha;
#X obj 219 429 colorRGB 1 1 1;
#X obj 245 357 tabread r;
#X obj 265 382 tabread g;
#X obj 288 402 tabread b;
#X obj 527 323 translateXYZ;
#X obj 587 243 t f f;
#X obj 526 63 gemhead 100;
#X obj 587 199 / 192;
#X obj 527 177 t a b;
#X obj 618 152 f;
#X obj 647 152 + 1;
#X obj 677 152 % 192;
#X obj 527 297 separator;
#X obj 527 150 repeat 192;
#X obj 587 221 expr fmod($f1+0.06 \, 1)*2*3.14159;
#X obj 527 106 pix_texture;
#X obj 527 84 pix_image img/dot.png;
#X obj 527 126 alpha;
#X obj 527 426 colorRGB 1 1 1;
#X obj 553 354 tabread rr;
#X obj 573 379 tabread gg;
#X obj 596 399 tabread bb;
#X obj 587 267 expr cos($f1)*3.55;
#X obj 612 294 expr sin($f1)*3.55;
#X obj 527 456 circle 0.07;
#X obj 219 459 circle 0.07;
#X obj 36 369 table a 192;
#X obj 36 389 table aa 192;
#X obj 358 402 tabread a;
#X obj 310 177 t f f f f f;
#X obj 676 401 tabread aa;
#X obj 618 174 t f f f f f;
#X msg 36 442 \; a const 1 \; \; aa const 1;
#X obj 36 417 loadbang;
#X connect 6 0 22 0;
#X connect 7 0 16 0;
#X connect 7 1 17 0;
#X connect 8 0 20 0;
#X connect 9 0 18 0;
#X connect 10 0 14 0;
#X connect 10 1 11 0;
#X connect 11 0 12 0;
#X connect 11 0 51 0;
#X connect 12 0 13 0;
#X connect 13 0 11 1;
#X connect 14 0 6 0;
#X connect 15 0 10 0;
#X connect 16 0 6 1;
#X connect 17 0 6 2;
#X connect 18 0 7 0;
#X connect 19 0 21 0;
#X connect 20 0 19 0;
#X connect 21 0 15 0;
#X connect 22 0 47 0;
#X connect 23 0 22 1;
#X connect 24 0 22 2;
#X connect 25 0 22 3;
#X connect 26 0 40 0;
#X connect 27 0 44 0;
#X connect 27 1 45 0;
#X connect 28 0 38 0;
#X connect 29 0 36 0;
#X connect 30 0 34 0;
#X connect 30 1 31 0;
#X connect 31 0 32 0;
#X connect 31 0 53 0;
#X connect 32 0 33 0;
#X connect 33 0 31 1;
#X connect 34 0 26 0;
#X connect 35 0 30 0;
#X connect 36 0 27 0;
#X connect 37 0 39 0;
#X connect 38 0 37 0;
#X connect 39 0 35 0;
#X connect 40 0 46 0;
#X connect 41 0 40 1;
#X connect 42 0 40 2;
#X connect 43 0 40 3;
#X connect 44 0 26 1;
#X connect 45 0 26 2;
#X connect 50 0 22 4;
#X connect 51 0 9 0;
#X connect 51 1 23 0;
#X connect 51 2 24 0;
#X connect 51 3 25 0;
#X connect 51 4 50 0;
#X connect 52 0 40 4;
#X connect 53 0 29 0;
#X connect 53 1 41 0;
#X connect 53 2 42 0;
#X connect 53 3 43 0;
#X connect 53 4 52 0;
#X connect 55 0 54 0;
#X restore 33 78 pd dot&array;
#X msg 32 103 destroy \, reset \, dimen 700 700 \, create \, 1;
#N canvas 232 124 631 440 comport 1;
#X obj 117 121 r net;
#X msg 52 186 devices;
#X msg 216 164 open 1 9600;
#X msg 206 200 9 1 20 1;
#X obj 117 245 comport 1 9600;
#X msg 193 132 close;
#X obj 193 99 sel 0 1;
#X obj 193 73 t f f;
#X obj 117 147 spigot;
#X obj 193 45 tgl 15 0 empty empty empty 17 7 0 10 -262144 -1 -1 1
1;
#X obj 193 19 inlet;
#X obj 361 286 pix_image img/24slides.png;
#X obj 361 308 pix_texture;
#X obj 361 380 square 4;
#X obj 361 264 gemhead 10;
#X obj 360 168 pix_texture;
#X obj 360 237 square 4;
#X obj 360 146 pix_image img/edge.png;
#X obj 360 124 gemhead 50;
#X obj 360 212 alpha;
#X obj 361 333 alpha;
#X obj 361 356 color 0.1 0.1 0.1;
#X obj 359 190 color 0.3 0.3 0.3;
#X obj 362 94 s gobalbang;
#X obj 362 47 tgl 15 0 empty empty empty 17 7 0 10 -262144 -1 -1 1
1;
#X obj 362 12 loadbang;
#X obj 362 71 metro 100;
#X connect 0 0 8 0;
#X connect 1 0 4 0;
#X connect 2 0 4 0;
#X connect 3 0 4 0;
#X connect 5 0 4 0;
#X connect 6 0 5 0;
#X connect 6 1 2 0;
#X connect 7 0 6 0;
#X connect 7 1 8 1;
#X connect 8 0 4 0;
#X connect 9 0 7 0;
#X connect 10 0 9 0;
#X connect 11 0 12 0;
#X connect 12 0 20 0;
#X connect 14 0 11 0;
#X connect 15 0 22 0;
#X connect 17 0 15 0;
#X connect 18 0 17 0;
#X connect 19 0 16 0;
#X connect 20 0 21 0;
#X connect 21 0 13 0;
#X connect 22 0 19 0;
#X connect 24 0 26 0;
#X connect 25 0 24 0;
#X connect 26 0 23 0;
#X restore 33 33 pd comport;
#X obj 33 13 tgl 15 0 empty empty empty 17 7 0 10 -262144 -1 -1 1 1
;
#N canvas 432 101 795 696 2.run 0;
#X obj 103 118 tgl 15 0 empty empty empty 17 7 0 10 -258113 -1 -1 1
1;
#X obj 143 317 + 1;
#X obj 177 317 % 192;
#N canvas 289 341 491 433 white 0;
#X obj 158 130 t f f f, f 9;
#X obj 162 83 inlet;
#X obj 267 84 inlet;
#X obj 161 214 tabwrite a;
#X obj 173 238 tabwrite aa;
#X obj 283 167 gate 2;
#X obj 316 190 expr 192-$f1;
#X obj 267 119 t f f;
#X obj 322 86 inlet;
#X obj 322 108 + 1;
#X connect 0 0 3 0;
#X connect 0 1 4 0;
#X connect 1 0 0 0;
#X connect 2 0 7 0;
#X connect 5 0 4 1;
#X connect 5 1 6 0;
#X connect 6 0 4 1;
#X connect 7 0 3 1;
#X connect 7 1 5 1;
#X connect 8 0 9 0;
#X connect 9 0 5 0;
#X restore 111 623 pd white;
#X obj 114 317 f 0;
#X obj 114 291 repeat 192;
#X obj 114 360 / 192;
#X obj 114 382 expr $f1*2*3.1415926;
#X obj 114 404 t f f;
#X obj 152 42 loadbang;
#X msg 152 75 0.1;
#X obj 273 362 expr $f1*2*3.1415926;
#X obj 273 386 t f f;
#X obj 273 409 expr cos($f1)*1;
#X obj 304 428 expr sin($f1)*1;
#X obj 147 454 expr sin($f1)*1;
#X obj 114 426 expr cos($f1)*1;
#X obj 242 244 + 1;
#X obj 213 244 f 0;
#X obj 276 244 % 360;
#X obj 213 266 / 360;
#X obj 125 139 hsl 80 15 0 1 0 0 empty empty speed 10 8 0 10 -262144
-1 -1 5790 1;
#X obj 125 118 hsl 80 15 0 1 0 0 empty empty width 10 8 0 10 -262144
-1 -1 6290 1;
#X obj 273 339 f;
#X floatatom 291 315 5 0 0 0 - - -, f 5;
#X obj 111 496 expr atan2($f2 \, $f1);
#X obj 273 455 expr atan2($f2 \, $f1);
#X obj 111 526 -;
#X obj 111 548 expr $f1*180/3.1415926;
#X obj 111 574 expr if($f1<0 \, 360+$f1 \, $f1);
#X msg 333 103 \$1 500;
#X obj 333 125 line;
#X obj 103 139 tgl 15 0 empty empty empty 17 7 0 10 -262144 -1 -1 0
1;
#X obj 272 145 sel 0 1;
#X msg 272 167 1;
#X msg 306 166 -1;
#X obj 212 208 *;
#X obj 260 207 * 20;
#X obj 111 597 expr if(($f1<$f2) \, 1-abs(($f1/$f2)-0.5)*2 \, 0);
#X obj 212 139 tgl 15 0 empty empty empty 17 7 0 10 -262144 -1 -1 0
1;
#X msg 68 59 0;
#X obj 110 237 spigot;
#X obj 95 183 r gobalbang;
#X obj 95 205 del 13;
#X obj 114 338 t f f b b;
#X floatatom 606 427 5 0 0 0 - - -, f 5;
#X obj 473 625 s net;
#X obj 110 259 t b b b;
#X obj 473 555 list;
#X obj 607 383 int;
#X obj 125 159 hsl 80 15 0 1 0 0 empty empty bright 10 8 0 10 -262144
-1 -1 7900 1;
#X obj 607 487 t b f;
#X obj 498 533 pack f f f;
#X obj 561 463 t b f;
#X obj 561 394 int;
#X obj 561 416 + 1;
#X obj 499 497 int;
#X obj 607 405 + 1;
#X obj 607 361 * 180;
#X obj 499 473 * 255;
#X msg 196 76 1;
#X obj 561 372 * 40;
#X msg 474 599 2 \$1 \$2 \$3 1;
#X connect 0 0 41 1;
#X connect 1 0 2 0;
#X connect 2 0 4 1;
#X connect 4 0 1 0;
#X connect 4 0 44 0;
#X connect 5 0 4 0;
#X connect 6 0 7 0;
#X connect 7 0 8 0;
#X connect 8 0 16 0;
#X connect 8 1 15 0;
#X connect 9 0 10 0;
#X connect 9 0 40 0;
#X connect 9 0 60 0;
#X connect 10 0 22 0;
#X connect 10 0 21 0;
#X connect 11 0 12 0;
#X connect 12 0 13 0;
#X connect 12 1 14 0;
#X connect 13 0 26 0;
#X connect 14 0 26 1;
#X connect 15 0 25 1;
#X connect 16 0 25 0;
#X connect 17 0 19 0;
#X connect 18 0 17 0;
#X connect 18 0 20 0;
#X connect 19 0 18 1;
#X connect 20 0 24 0;
#X connect 20 0 59 0;
#X connect 21 0 30 0;
#X connect 22 0 58 0;
#X connect 23 0 11 0;
#X connect 24 0 23 1;
#X connect 25 0 27 0;
#X connect 26 0 27 1;
#X connect 27 0 28 0;
#X connect 28 0 29 0;
#X connect 29 0 38 0;
#X connect 30 0 31 0;
#X connect 31 0 37 0;
#X connect 32 0 33 0;
#X connect 33 0 34 0;
#X connect 33 1 35 0;
#X connect 34 0 36 0;
#X connect 35 0 36 0;
#X connect 36 0 17 1;
#X connect 37 0 17 1;
#X connect 37 0 36 1;
#X connect 38 0 3 0;
#X connect 39 0 3 2;
#X connect 40 0 39 0;
#X connect 41 0 47 0;
#X connect 42 0 43 0;
#X connect 43 0 41 0;
#X connect 44 0 6 0;
#X connect 44 1 3 1;
#X connect 44 2 23 0;
#X connect 45 0 38 1;
#X connect 45 0 51 0;
#X connect 47 0 5 0;
#X connect 47 1 48 0;
#X connect 47 2 18 0;
#X connect 48 0 62 0;
#X connect 49 0 57 0;
#X connect 50 0 61 0;
#X connect 51 0 52 0;
#X connect 51 1 52 2;
#X connect 52 0 48 1;
#X connect 53 0 52 0;
#X connect 53 1 52 1;
#X connect 54 0 55 0;
#X connect 55 0 53 0;
#X connect 56 0 52 0;
#X connect 57 0 45 0;
#X connect 58 0 49 0;
#X connect 59 0 56 0;
#X connect 60 0 50 0;
#X connect 61 0 54 0;
#X connect 62 0 46 0;
#X coords 0 -1 1 1 130 80 1 100 100;
#X restore 162 305 pd 2.run;
#N canvas 399 23 580 649 12.rainbow 0;
#X obj 103 118 tgl 15 0 empty empty empty 17 7 0 10 -258113 -1 -1 0
1;
#X obj 143 317 + 1;
#X obj 177 317 % 192;
#X obj 114 317 f 0;
#X obj 114 291 repeat 192;
#X obj 114 366 / 192;
#X obj 152 42 loadbang;
#X msg 152 75 0.1;
#X obj 252 317 + 1;
#X obj 223 317 f 0;
#X obj 286 317 % 360;
#X obj 223 339 / 360;
#X obj 125 138 hsl 80 15 0 1 0 0 empty empty speed 10 8 0 10 -262144
-1 -1 790 1;
#X obj 125 118 hsl 80 15 0 1 0 0 empty empty step 10 8 0 10 -262144
-1 -1 790 1;
#X obj 103 139 tgl 15 0 empty empty empty 17 7 0 10 -262144 -1 -1 0
1;
#X obj 236 228 sel 0 1;
#X msg 236 250 1;
#X msg 270 249 -1;
#X obj 270 280 *;
#X obj 324 258 * 20;
#X obj 114 242 spigot;
#X obj 114 197 r gobalbang;
#X obj 127 560 tabwrite r;
#X obj 139 584 tabwrite g;
#X obj 156 608 tabwrite b;
#X obj 221 556 tabwrite rr;
#X obj 265 578 tabwrite gg;
#X obj 296 604 tabwrite bb, f 14;
#X obj 114 461 hsv2rgb;
#X obj 114 483 unpack f f f;
#X obj 114 338 t f f;
#X obj 212 484 t f f f;
#X obj 114 219 del 4;
#X obj 427 244 * 30;
#X obj 427 268 + 1;
#X obj 114 388 expr fmod($f1*$f2+$f3 \, 1);
#X floatatom 223 365 5 0 0 0 - - -, f 5;
#X obj 125 160 hsl 80 15 0 1 0 0 empty empty bright 10 8 0 10 -262144
-1 -1 7900 1;
#X obj 114 414 pack f f;
#X msg 114 437 \$1 1 \$2;
#X msg 185 82 1;
#X obj 370 381 t b b b;
#X obj 370 472 pack f f f;
#X obj 370 441 f 1;
#X obj 447 440 f 10;
#X obj 404 441 f 10;
#X obj 451 376 int;
#X obj 493 376 int;
#X obj 493 354 * 20;
#X obj 370 517 s net;
#X obj 114 264 t b b b;
#X obj 451 354 * 80;
#X obj 388 354 int;
#X obj 493 398 + 1;
#X obj 451 398 + 1;
#X floatatom 324 233 5 0 0 0 - - -, f 5;
#X msg 370 495 12 \$1 \$2 \$3 1;
#X connect 0 0 20 1;
#X connect 1 0 2 0;
#X connect 2 0 3 1;
#X connect 3 0 1 0;
#X connect 3 0 30 0;
#X connect 4 0 3 0;
#X connect 5 0 35 0;
#X connect 6 0 7 0;
#X connect 6 0 40 0;
#X connect 7 0 13 0;
#X connect 7 0 12 0;
#X connect 8 0 10 0;
#X connect 9 0 8 0;
#X connect 9 0 11 0;
#X connect 10 0 9 1;
#X connect 11 0 36 0;
#X connect 12 0 48 0;
#X connect 12 0 55 0;
#X connect 13 0 33 0;
#X connect 14 0 15 0;
#X connect 15 0 16 0;
#X connect 15 1 17 0;
#X connect 16 0 18 0;
#X connect 17 0 18 0;
#X connect 18 0 8 1;
#X connect 19 0 8 1;
#X connect 19 0 18 1;
#X connect 20 0 50 0;
#X connect 21 0 32 0;
#X connect 28 0 29 0;
#X connect 29 0 22 0;
#X connect 29 0 25 0;
#X connect 29 1 23 0;
#X connect 29 1 26 0;
#X connect 29 2 24 0;
#X connect 29 2 27 0;
#X connect 30 0 5 0;
#X connect 30 1 31 0;
#X connect 31 0 22 1;
#X connect 31 0 25 1;
#X connect 31 1 23 1;
#X connect 31 1 26 1;
#X connect 31 2 24 1;
#X connect 31 2 27 1;
#X connect 32 0 20 0;
#X connect 33 0 34 0;
#X connect 34 0 52 0;
#X connect 34 0 35 1;
#X connect 35 0 38 0;
#X connect 36 0 35 2;
#X connect 37 0 38 1;
#X connect 37 0 51 0;
#X connect 38 0 39 0;
#X connect 39 0 28 0;
#X connect 40 0 37 0;
#X connect 41 0 43 0;
#X connect 41 1 45 0;
#X connect 41 2 44 0;
#X connect 42 0 56 0;
#X connect 43 0 42 0;
#X connect 44 0 42 2;
#X connect 45 0 42 1;
#X connect 46 0 54 0;
#X connect 47 0 53 0;
#X connect 48 0 47 0;
#X connect 50 0 4 0;
#X connect 50 1 9 0;
#X connect 50 2 41 0;
#X connect 51 0 46 0;
#X connect 52 0 43 1;
#X connect 53 0 44 1;
#X connect 54 0 45 1;
#X connect 55 0 19 0;
#X connect 56 0 49 0;
#X coords 0 -1 1 1 130 80 1 100 100;
#X restore 24 221 pd 12.rainbow;
#N canvas 589 101 502 648 1.wihte&back 0;
#X obj 105 118 tgl 15 0 empty empty empty 17 7 0 10 -258113 -1 -1 1
1;
#X obj 295 285 + 1;
#X obj 329 285 % 192;
#X obj 266 285 f 0;
#X obj 266 259 repeat 192;
#X obj 152 42 loadbang;
#X msg 152 75 0.1;
#X obj 127 118 hsl 80 15 0 1 0 0 empty empty bright 10 8 0 10 -262144
-1 -1 4290 1;
#X obj 29 221 spigot;
#X obj 29 184 r gobalbang;
#X obj 29 270 t b b;
#X obj 74 396 s net;
#X obj 135 236 int;
#X floatatom 135 258 5 0 0 0 - - -, f 5;
#X obj 239 422 tabwrite a;
#X obj 273 447 tabwrite aa;
#X obj 172 396 f;
#X obj 239 388 t f f;
#X obj 266 310 t b f;
#X obj 165 453 tabwrite r;
#X obj 199 478 tabwrite rr;
#X obj 237 505 tabwrite g;
#X obj 271 530 tabwrite gg;
#X obj 324 558 tabwrite b;
#X obj 358 583 tabwrite bb;
#X obj 105 139 tgl 15 0 empty empty empty 17 7 0 10 -262144 -1 -1 0
1;
#X obj 128 139 hsl 80 15 0 1 0 0 empty empty flashSpeed 10 8 0 10 -262144
-1 -1 0 1;
#X obj 240 137 tgl 15 0 empty empty empty 17 7 0 10 -262144 -1 -1 0
1;
#X obj 329 66 int;
#X floatatom 329 105 5 0 0 0 - - -, f 5;
#X obj 328 129 * 50;
#X floatatom 328 151 5 0 0 0 - - -, f 5;
#X msg 240 157 \$1 100;
#X obj 240 179 line;
#X obj 329 85 + 2;
#X obj 240 115 metro 100;
#X obj 329 44 * 10;
#X msg 239 363 1;
#X obj 29 248 delay 13;
#X obj 135 214 * 30;
#X obj 74 316 bng 15 250 50 0 empty empty empty 17 7 0 10 -262144 -1
-1;
#X obj 135 277 + 1;
#X floatatom 135 299 5 0 0 0 - - -, f 5;
#X obj 74 347 f 1;
#X msg 74 374 1 1 \$1 2 1;
#X connect 0 0 8 1;
#X connect 1 0 2 0;
#X connect 2 0 3 1;
#X connect 3 0 1 0;
#X connect 3 0 18 0;
#X connect 4 0 3 0;
#X connect 5 0 6 0;
#X connect 6 0 7 0;
#X connect 7 0 16 1;
#X connect 7 0 39 0;
#X connect 8 0 38 0;
#X connect 9 0 8 0;
#X connect 10 0 43 0;
#X connect 10 1 4 0;
#X connect 12 0 13 0;
#X connect 13 0 41 0;
#X connect 16 0 19 0;
#X connect 16 0 20 0;
#X connect 16 0 21 0;
#X connect 16 0 22 0;
#X connect 16 0 23 0;
#X connect 16 0 24 0;
#X connect 17 0 14 0;
#X connect 17 1 15 0;
#X connect 18 0 16 0;
#X connect 18 0 37 0;
#X connect 18 1 14 1;
#X connect 18 1 15 1;
#X connect 18 1 19 1;
#X connect 18 1 20 1;
#X connect 18 1 21 1;
#X connect 18 1 22 1;
#X connect 18 1 23 1;
#X connect 18 1 24 1;
#X connect 25 0 35 0;
#X connect 26 0 36 0;
#X connect 27 0 32 0;
#X connect 28 0 34 0;
#X connect 29 0 30 0;
#X connect 30 0 31 0;
#X connect 31 0 35 1;
#X connect 32 0 33 0;
#X connect 33 0 7 0;
#X connect 34 0 29 0;
#X connect 35 0 27 0;
#X connect 36 0 28 0;
#X connect 37 0 17 0;
#X connect 38 0 10 0;
#X connect 39 0 12 0;
#X connect 40 0 43 0;
#X connect 41 0 42 0;
#X connect 42 0 43 1;
#X connect 43 0 44 0;
#X connect 44 0 11 0;
#X coords 0 -1 1 1 130 60 1 100 100;
#X restore 24 154 pd 1.wihte&back;
#N canvas 397 23 578 781 3.purecolor 0;
#X obj 130 118 hsl 80 15 0 1 0 0 empty empty r 10 8 0 10 -262144 -1
-1 7900 1;
#X obj 130 138 hsl 80 15 0 1 0 0 empty empty g 10 8 0 10 -262144 -1
-1 7900 1;
#X obj 130 158 hsl 80 15 0 1 0 0 empty empty b 10 8 0 10 -262144 -1
-1 7900 1;
#X obj 131 180 hsl 80 15 0 1 0 0 empty empty bright 10 8 0 10 -262144
-1 -1 7900 1;
#X obj 104 118 tgl 15 0 empty empty empty 17 7 0 10 -258113 -1 -1 0
1;
#X obj 414 48 r gobalbang;
#X obj 80 430 tabwrite r;
#X obj 92 453 tabwrite rr;
#X obj 443 206 + 1;
#X obj 477 206 % 192;
#X obj 414 206 f 0;
#X obj 414 180 repeat 192;
#X obj 80 399 f;
#X obj 80 344 t b f;
#X floatatom 129 313 5 0 0 0 - - -, f 5;
#X floatatom 223 321 5 0 0 0 - - -, f 5;
#X floatatom 370 254 5 0 0 0 - - -, f 5;
#X obj 171 383 f;
#X obj 171 347 t b f;
#X obj 353 326 f;
#X obj 353 301 t b f;
#X obj 171 411 tabwrite g;
#X obj 197 439 tabwrite gg;
#X obj 353 357 tabwrite b;
#X obj 407 387 tabwrite bb;
#X obj 414 98 spigot;
#X obj 318 200 t f f f;
#X obj 414 120 delay 1;
#X obj 129 345 * 1;
#X obj 293 17 loadbang;
#X msg 293 39 1 1 1 1;
#X obj 293 61 unpack f f f f;
#X obj 223 346 * 1;
#X obj 370 274 * 1;
#X obj 262 740 s net;
#X obj 315 654 int;
#X obj 262 687 pack f f;
#X obj 315 632 * 100;
#X msg 171 689 3 \$1 100 1;
#X floatatom 171 667 5 0 0 0 - - -, f 5;
#X obj 262 555 rgb2hsv;
#X obj 287 503 pack f f f;
#X msg 262 579 \$1;
#X obj 262 622 int;
#X obj 262 601 * 254;
#X obj 262 642 + 1;
#X floatatom 262 664 5 0 0 0 - - -, f 5;
#X obj 414 146 t b b;
#X obj 262 532 list;
#X obj 305 469 t b f;
#X obj 351 470 t b f;
#X msg 262 714 3 \$1 \$2 1 1;
#X connect 0 0 14 0;
#X connect 1 0 15 0;
#X connect 2 0 16 0;
#X connect 3 0 28 1;
#X connect 3 0 32 1;
#X connect 3 0 33 1;
#X connect 3 0 37 0;
#X connect 4 0 25 1;
#X connect 5 0 25 0;
#X connect 8 0 9 0;
#X connect 9 0 10 1;
#X connect 10 0 8 0;
#X connect 10 0 26 0;
#X connect 11 0 10 0;
#X connect 12 0 6 0;
#X connect 12 0 7 0;
#X connect 13 0 12 0;
#X connect 13 1 6 1;
#X connect 13 1 7 1;
#X connect 14 0 28 0;
#X connect 14 0 41 0;
#X connect 15 0 32 0;
#X connect 15 0 49 0;
#X connect 16 0 33 0;
#X connect 16 0 50 0;
#X connect 17 0 21 0;
#X connect 17 0 22 0;
#X connect 18 0 17 0;
#X connect 18 1 21 1;
#X connect 18 1 22 1;
#X connect 19 0 23 0;
#X connect 19 0 24 0;
#X connect 20 0 19 0;
#X connect 20 1 23 1;
#X connect 20 1 24 1;
#X connect 25 0 27 0;
#X connect 26 0 13 0;
#X connect 26 1 18 0;
#X connect 26 2 20 0;
#X connect 27 0 47 0;
#X connect 28 0 12 1;
#X connect 29 0 30 0;
#X connect 30 0 31 0;
#X connect 31 0 0 0;
#X connect 31 1 1 0;
#X connect 31 2 2 0;
#X connect 31 3 3 0;
#X connect 32 0 17 1;
#X connect 33 0 19 1;
#X connect 35 0 36 1;
#X connect 36 0 51 0;
#X connect 37 0 35 0;
#X connect 38 0 34 0;
#X connect 39 0 38 0;
#X connect 40 0 42 0;
#X connect 41 0 48 1;
#X connect 42 0 44 0;
#X connect 43 0 45 0;
#X connect 44 0 43 0;
#X connect 45 0 46 0;
#X connect 46 0 36 0;
#X connect 47 0 11 0;
#X connect 47 1 48 0;
#X connect 48 0 40 0;
#X connect 49 0 41 0;
#X connect 49 1 41 1;
#X connect 50 0 41 0;
#X connect 50 1 41 2;
#X connect 51 0 34 0;
#X coords 0 -1 1 1 130 100 1 100 100;
#X restore 24 307 pd 3.purecolor;
#N canvas 630 23 609 789 8.zebra 0;
#X obj 103 118 tgl 15 0 empty empty empty 17 7 0 10 -258113 -1 -1 0
1;
#X obj 136 358 + 1;
#X obj 170 358 % 192;
#X obj 107 358 f 0;
#X obj 107 332 repeat 192;
#X obj 107 407 / 192;
#X obj 152 42 loadbang;
#X obj 235 285 + 1;
#X obj 206 285 f 0;
#X obj 269 285 % 360;
#X obj 206 307 / 360;
#X obj 256 126 hsl 80 15 0 1 0 0 empty empty speed 10 8 0 10 -262144
-1 -1 6320 1;
#X obj 125 118 hsl 80 15 0 1 0 0 empty empty step 10 8 0 10 -262144
-1 -1 4400 1;
#X msg 253 169 \$1 500;
#X obj 253 191 line;
#X obj 253 248 * 20;
#X obj 107 286 spigot;
#X obj 107 237 r gobalbang;
#X obj 273 330 * 30;
#X obj 273 354 + 1;
#X obj 107 429 expr fmod($f1*$f2+$f3 \, 1);
#X floatatom 206 328 5 0 0 0 - - -, f 5;
#X obj 107 506 tabwrite aa;
#X obj 139 532 tabwrite a;
#X obj 107 259 del 9;
#X obj 125 140 hsl 80 15 0 1 0 0 empty empty pulse 10 8 0 10 -262144
-1 -1 3950 1;
#X floatatom 199 199 5 0 0 0 - - -, f 5;
#X msg 186 76 0.5;
#X obj 199 219 k_range 0 1 0.1 0.9;
#X obj 327 549 s net;
#X obj 352 476 pack f f f;
#X obj 107 308 t b b b;
#X obj 327 502 list;
#X obj 125 160 hsl 80 15 0 1 0 0 empty empty bright 10 8 0 10 -262144
-1 -1 7900 1;
#X obj 386 327 * 30;
#X obj 386 349 int;
#X obj 386 371 + 1;
#X msg 221 76 1;
#X obj 428 300 int;
#X obj 428 322 + 1;
#X obj 428 278 * 30;
#X obj 346 409 t b f;
#X obj 416 402 t b f;
#X obj 107 662 tabwrite r;
#X obj 119 686 tabwrite g;
#X obj 136 710 tabwrite b;
#X obj 201 658 tabwrite rr;
#X obj 245 680 tabwrite gg;
#X obj 276 706 tabwrite bb, f 14;
#X obj 192 586 t f f f;
#X obj 107 379 t f f f f;
#X obj 160 559 t b f;
#X msg 160 585 1;
#X obj 107 451 expr if($f1>$f2 \, 1 \, 0.2);
#X obj 107 477 t f f;
#X msg 152 75 0.8;
#X msg 327 524 8 \$1 \$2 \$3 1;
#X connect 0 0 16 1;
#X connect 1 0 2 0;
#X connect 2 0 3 1;
#X connect 3 0 1 0;
#X connect 3 0 50 0;
#X connect 4 0 3 0;
#X connect 5 0 20 0;
#X connect 6 0 55 0;
#X connect 6 0 27 0;
#X connect 6 0 37 0;
#X connect 7 0 9 0;
#X connect 8 0 7 0;
#X connect 8 0 10 0;
#X connect 9 0 8 1;
#X connect 10 0 21 0;
#X connect 11 0 13 0;
#X connect 12 0 18 0;
#X connect 13 0 14 0;
#X connect 14 0 15 0;
#X connect 15 0 7 1;
#X connect 16 0 31 0;
#X connect 17 0 24 0;
#X connect 18 0 19 0;
#X connect 19 0 20 1;
#X connect 19 0 30 0;
#X connect 20 0 53 0;
#X connect 21 0 20 2;
#X connect 24 0 16 0;
#X connect 25 0 26 0;
#X connect 26 0 28 0;
#X connect 26 0 40 0;
#X connect 27 0 25 0;
#X connect 28 0 53 1;
#X connect 30 0 32 1;
#X connect 31 0 4 0;
#X connect 31 1 8 0;
#X connect 31 2 32 0;
#X connect 32 0 56 0;
#X connect 33 0 34 0;
#X connect 34 0 35 0;
#X connect 35 0 36 0;
#X connect 36 0 41 0;
#X connect 37 0 33 0;
#X connect 38 0 39 0;
#X connect 39 0 42 0;
#X connect 40 0 38 0;
#X connect 41 0 30 0;
#X connect 41 1 30 1;
#X connect 42 0 30 0;
#X connect 42 1 30 2;
#X connect 49 0 43 1;
#X connect 49 0 46 1;
#X connect 49 1 44 1;
#X connect 49 1 47 1;
#X connect 49 2 45 1;
#X connect 49 2 48 1;
#X connect 50 0 5 0;
#X connect 50 1 22 1;
#X connect 50 2 23 1;
#X connect 50 3 51 0;
#X connect 51 0 52 0;
#X connect 51 1 49 0;
#X connect 52 0 43 0;
#X connect 52 0 44 0;
#X connect 52 0 45 0;
#X connect 52 0 46 0;
#X connect 52 0 47 0;
#X connect 52 0 48 0;
#X connect 53 0 54 0;
#X connect 54 0 22 0;
#X connect 54 1 23 0;
#X connect 55 0 12 0;
#X connect 55 0 11 0;
#X connect 56 0 29 0;
#X coords 0 -1 1 1 130 80 1 100 100;
#X restore 162 153 pd 8.zebra;
#N canvas 555 87 543 612 7.star 0;
#X obj 103 118 tgl 15 0 empty empty empty 17 7 0 10 -258113 -1 -1 0
1;
#X obj 100 360 + 1;
#X obj 134 360 % 192;
#N canvas 289 341 491 433 white 0;
#X obj 116 83 inlet;
#X obj 267 84 inlet;
#X obj 161 214 tabwrite a;
#X obj 173 238 tabwrite aa;
#X obj 169 85 inlet;
#X connect 0 0 2 0;
#X connect 1 0 2 1;
#X connect 1 0 3 1;
#X connect 4 0 3 0;
#X restore 75 577 pd white;
#X obj 71 360 f 0;
#X obj 71 334 repeat 192;
#X obj 152 42 loadbang;
#X obj 125 118 hsl 80 15 0 1 0 0 empty empty num 10 8 0 10 -262144
-1 -1 5450 1;
#X obj 324 320 int;
#X floatatom 324 344 5 0 0 0 - - -, f 5;
#X obj 114 237 spigot;
#X obj 114 200 r gobalbang;
#X obj 114 264 delay 3;
#X obj 308 514 s net;
#X obj 210 486 random 30;
#X obj 324 298 + 1;
#X obj 182 458 random 30;
#X obj 126 140 hsl 80 15 0 1 0 0 empty empty bright 10 8 0 10 -262144
-1 -1 3950 1;
#X obj 371 301 int;
#X obj 371 323 + 1;
#X floatatom 371 345 5 0 0 0 - - -, f 5;
#X obj 308 460 pack f f;
#X obj 308 431 f;
#X obj 71 381 t b b b b f b;
#X obj 2 486 sel 0 1;
#X obj 83 496 sel 0 1;
#X obj 110 536 f;
#X obj 34 514 f;
#X msg 2 514 0;
#X msg 77 535 0;
#X obj 371 279 * 40;
#X obj 114 286 t b b;
#X obj 83 472 < 15;
#X obj 2 464 < 15;
#X obj 324 276 * 29;
#X obj 83 450 random 30;
#X obj 2 442 random 30;
#X obj 318 200 expr 1-$f1;
#X msg 152 75 0.5;
#X msg 308 489 7 \$1 \$2 1 1;
#X connect 0 0 10 1;
#X connect 1 0 2 0;
#X connect 2 0 4 1;
#X connect 4 0 1 0;
#X connect 4 0 23 0;
#X connect 5 0 4 0;
#X connect 6 0 38 0;
#X connect 7 0 37 0;
#X connect 8 0 9 0;
#X connect 9 0 14 1;
#X connect 9 0 16 1;
#X connect 9 0 22 1;
#X connect 10 0 12 0;
#X connect 11 0 10 0;
#X connect 12 0 31 0;
#X connect 14 0 32 1;
#X connect 15 0 8 0;
#X connect 16 0 33 1;
#X connect 17 0 27 1;
#X connect 17 0 26 1;
#X connect 17 0 30 0;
#X connect 18 0 19 0;
#X connect 19 0 20 0;
#X connect 20 0 21 1;
#X connect 21 0 39 0;
#X connect 22 0 21 0;
#X connect 23 0 36 0;
#X connect 23 1 35 0;
#X connect 23 2 16 0;
#X connect 23 3 14 0;
#X connect 23 4 3 2;
#X connect 24 0 28 0;
#X connect 24 1 27 0;
#X connect 25 0 29 0;
#X connect 25 1 26 0;
#X connect 26 0 3 1;
#X connect 27 0 3 0;
#X connect 28 0 3 0;
#X connect 29 0 3 1;
#X connect 30 0 18 0;
#X connect 31 0 5 0;
#X connect 31 1 22 0;
#X connect 32 0 25 0;
#X connect 33 0 24 0;
#X connect 34 0 15 0;
#X connect 35 0 32 0;
#X connect 36 0 33 0;
#X connect 37 0 34 0;
#X connect 38 0 7 0;
#X connect 38 0 17 0;
#X connect 39 0 13 0;
#X coords 0 -1 1 1 130 60 1 100 100;
#X restore 162 240 pd 7.star;
#N canvas 490 102 274 575 17.up 0;
#X obj 103 118 tgl 15 0 empty empty empty 17 7 0 10 -258113 -1 -1 0
1;
#X obj 153 42 loadbang;
#X obj 125 139 hsl 80 15 0 1 0 0 empty empty right 10 8 0 10 -262144
-1 -1 3950 1;
#X obj 125 118 hsl 80 15 0 1 0 0 empty empty left 10 8 0 10 -262144
-1 -1 3950 1;
#X obj 6 379 s net;
#X obj 125 159 hsl 80 15 0 1 0 0 empty empty bright 10 8 0 10 -262144
-1 -1 3160 1;
#X obj 6 147 spigot;
#X obj 6 110 r gobalbang;
#X floatatom 6 304 5 0 0 0 - - -, f 5;
#X floatatom 54 298 5 0 0 0 - - -, f 5;
#X obj 6 205 t b b;
#X msg 89 70 0.5;
#X obj 6 249 f;
#X obj 54 254 f;
#X obj 80 218 int;
#X obj 116 282 int;
#X obj 6 327 pack f f f;
#X obj 155 284 * 30;
#X obj 155 306 int;
#X floatatom 155 328 5 0 0 0 - - -, f 5;
#X msg 153 69 0.4;
#X obj 54 277 + 96;
#X msg 6 353 17 \$1 \$3 \$2 1;
#X obj 80 196 * 95;
#X obj 116 260 * 95;
#X obj 119 221 expr 1-$f1;
#X obj 6 169 del 15;
#X connect 0 0 6 1;
#X connect 1 0 11 0;
#X connect 1 0 20 0;
#X connect 2 0 25 0;
#X connect 3 0 23 0;
#X connect 5 0 17 0;
#X connect 6 0 26 0;
#X connect 7 0 6 0;
#X connect 8 0 16 0;
#X connect 9 0 16 1;
#X connect 10 0 12 0;
#X connect 10 1 13 0;
#X connect 11 0 3 0;
#X connect 11 0 2 0;
#X connect 12 0 8 0;
#X connect 13 0 21 0;
#X connect 14 0 12 1;
#X connect 15 0 13 1;
#X connect 16 0 22 0;
#X connect 17 0 18 0;
#X connect 18 0 19 0;
#X connect 19 0 16 2;
#X connect 20 0 5 0;
#X connect 21 0 9 0;
#X connect 22 0 4 0;
#X connect 23 0 14 0;
#X connect 24 0 15 0;
#X connect 25 0 24 0;
#X connect 26 0 10 0;
#X coords 0 -1 1 1 130 80 1 100 100;
#X restore 23 416 pd 17.up;
#N canvas 490 102 274 575 18.up 0;
#X obj 103 118 tgl 15 0 empty empty empty 17 7 0 10 -258113 -1 -1 0
1;
#X obj 153 42 loadbang;
#X obj 125 139 hsl 80 15 0 1 0 0 empty empty right 10 8 0 10 -262144
-1 -1 3950 1;
#X obj 125 118 hsl 80 15 0 1 0 0 empty empty left 10 8 0 10 -262144
-1 -1 3950 1;
#X obj 6 379 s net;
#X obj 125 159 hsl 80 15 0 1 0 0 empty empty bright 10 8 0 10 -262144
-1 -1 3160 1;
#X obj 3 147 spigot;
#X obj 3 110 r gobalbang;
#X floatatom 6 304 5 0 0 0 - - -, f 5;
#X floatatom 54 298 5 0 0 0 - - -, f 5;
#X obj 6 205 t b b;
#X msg 89 70 0.5;
#X obj 6 249 f;
#X obj 54 254 f;
#X obj 6 274 + 48;
#X obj 80 218 int;
#X obj 116 269 int;
#X obj 6 327 pack f f f;
#X obj 155 284 * 30;
#X obj 155 306 int;
#X floatatom 155 328 5 0 0 0 - - -, f 5;
#X msg 153 69 0.4;
#X msg 6 353 18 \$1 \$3 \$2 1;
#X obj 80 196 * 47;
#X obj 116 247 * 47;
#X obj 54 277 + 96;
#X obj 120 207 expr 1-$f1;
#X obj 3 169 delay 11;
#X connect 0 0 6 1;
#X connect 1 0 11 0;
#X connect 1 0 21 0;
#X connect 2 0 26 0;
#X connect 3 0 23 0;
#X connect 5 0 18 0;
#X connect 6 0 27 0;
#X connect 7 0 6 0;
#X connect 8 0 17 0;
#X connect 9 0 17 1;
#X connect 10 0 12 0;
#X connect 10 1 13 0;
#X connect 11 0 3 0;
#X connect 11 0 2 0;
#X connect 12 0 14 0;
#X connect 13 0 25 0;
#X connect 14 0 8 0;
#X connect 15 0 12 1;
#X connect 16 0 13 1;
#X connect 17 0 22 0;
#X connect 18 0 19 0;
#X connect 19 0 20 0;
#X connect 20 0 17 2;
#X connect 21 0 5 0;
#X connect 22 0 4 0;
#X connect 23 0 15 0;
#X connect 24 0 16 0;
#X connect 25 0 9 0;
#X connect 26 0 24 0;
#X connect 27 0 10 0;
#X coords 0 -1 1 1 130 80 1 100 100;
#X restore 164 416 pd 18.up;
#X connect 2 0 0 0;
#X connect 4 0 3 0;
