#N canvas 227 214 936 525 12;
#N canvas 134 163 615 576 17.up 0;
#X obj 103 117 tgl 15 0 empty empty empty 17 7 0 10 -258113 -1 -1 0
1;
#X obj 153 42 loadbang;
#X obj 125 139 hsl 80 15 0 1 0 0 empty empty right 10 8 0 10 -262144
-1 -1 3950 1;
#X obj 125 118 hsl 80 15 0 1 0 0 empty empty left 10 8 0 10 -262144
-1 -1 3950 1;
#X obj 6 379 s net;
#X obj 125 159 hsl 80 15 0 1 0 0 empty empty bright 10 8 0 10 -262144
-1 -1 3160 1;
#X obj 6 147 spigot;
#X obj 6 110 r gobalbang;
#X floatatom 6 304 5 0 0 0 - - -, f 5;
#X floatatom 54 298 5 0 0 0 - - -, f 5;
#X obj 6 205 t b b;
#X msg 89 70 0.5;
#X obj 6 249 f;
#X obj 54 254 f;
#X obj 80 218 int;
#X obj 116 282 int;
#X obj 6 327 pack f f f;
#X obj 155 284 * 30;
#X obj 155 306 int;
#X floatatom 155 328 5 0 0 0 - - -, f 5;
#X msg 153 69 0.4;
#X obj 54 277 + 96;
#X msg 6 353 17 \$1 \$3 \$2 1;
#X obj 80 196 * 95;
#X obj 116 260 * 95;
#X obj 119 221 expr 1-$f1;
#X obj 235 -107 r pose2arduino;
#X obj 235 -31 unpack f f f;
#X floatatom 235 -9 5 0 0 0 - - -, f 5;
#X floatatom 286 15 5 0 0 0 - - -, f 5;
#X msg 235 -85 \$3 \$1 \$2;
#X obj 235 -61 route 1;
#X obj 235 44 / 100;
#X obj 286 44 / 100;
#X obj 138 -15 t b f;
#X obj 6 169 del 11;
#X obj 138 -41 k_speed 80;
#X connect 0 0 6 1;
#X connect 1 0 11 0;
#X connect 1 0 20 0;
#X connect 2 0 25 0;
#X connect 3 0 23 0;
#X connect 5 0 17 0;
#X connect 6 0 35 0;
#X connect 7 0 6 0;
#X connect 8 0 16 0;
#X connect 9 0 16 1;
#X connect 10 0 12 0;
#X connect 10 1 13 0;
#X connect 11 0 3 0;
#X connect 11 0 2 0;
#X connect 12 0 8 0;
#X connect 13 0 21 0;
#X connect 14 0 12 1;
#X connect 15 0 13 1;
#X connect 16 0 22 0;
#X connect 17 0 18 0;
#X connect 18 0 19 0;
#X connect 19 0 16 2;
#X connect 20 0 5 0;
#X connect 21 0 9 0;
#X connect 22 0 4 0;
#X connect 23 0 14 0;
#X connect 24 0 15 0;
#X connect 25 0 24 0;
#X connect 26 0 30 0;
#X connect 27 0 28 0;
#X connect 27 1 29 0;
#X connect 28 0 36 0;
#X connect 29 0 33 0;
#X connect 30 0 31 0;
#X connect 31 0 27 0;
#X connect 32 0 3 0;
#X connect 33 0 2 0;
#X connect 34 0 35 0;
#X connect 34 1 32 0;
#X connect 35 0 10 0;
#X connect 36 0 34 0;
#X coords 0 -1 1 1 130 80 1 100 100;
#X restore 20 322 pd 17.up;
#N canvas 525 186 453 424 18.up 0;
#X obj 103 118 tgl 15 0 empty empty empty 17 7 0 10 -258113 -1 -1 0
1;
#X obj 153 42 loadbang;
#X obj 125 139 hsl 80 15 0 1 0 0 empty empty right 10 8 0 10 -262144
-1 -1 3950 1;
#X obj 125 118 hsl 80 15 0 1 0 0 empty empty left 10 8 0 10 -262144
-1 -1 3950 1;
#X obj 6 379 s net;
#X obj 125 159 hsl 80 15 0 1 0 0 empty empty bright 10 8 0 10 -262144
-1 -1 3160 1;
#X obj 6 154 spigot;
#X obj 6 117 r gobalbang;
#X floatatom 6 304 5 0 0 0 - - -, f 5;
#X floatatom 54 298 5 0 0 0 - - -, f 5;
#X obj 6 205 t b b;
#X msg 206 68 0.5;
#X obj 6 249 f;
#X obj 54 254 f;
#X obj 6 274 + 48;
#X obj 80 218 int;
#X obj 152 275 int;
#X obj 6 327 pack f f f;
#X obj 198 256 * 30;
#X obj 198 278 int;
#X floatatom 198 300 5 0 0 0 - - -, f 5;
#X msg 153 69 0.4;
#X msg 6 353 18 \$1 \$3 \$2 1;
#X obj 80 196 * 47;
#X obj 152 253 * 47;
#X obj 54 277 + 96;
#X obj 152 223 expr 1-$f1;
#X obj 280 35 r pose2arduino;
#X obj 280 116 unpack f f f;
#X floatatom 280 138 5 0 0 0 - - -, f 5;
#X floatatom 345 250 5 0 0 0 - - -, f 5;
#X msg 280 62 \$3 \$1 \$2;
#X obj 286 223 / 100;
#X obj 345 279 / 100;
#X obj 280 86 route 2;
#X floatatom 286 245 5 0 0 0 - - -, f 5;
#X floatatom 345 301 5 0 0 0 - - -, f 5;
#X obj 254 197 t b f;
#X obj 6 180 delay 15;
#X obj 254 171 k_speed 80;
#X connect 0 0 6 1;
#X connect 1 0 11 0;
#X connect 1 0 21 0;
#X connect 2 0 26 0;
#X connect 3 0 23 0;
#X connect 5 0 18 0;
#X connect 6 0 38 0;
#X connect 7 0 6 0;
#X connect 8 0 17 0;
#X connect 9 0 17 1;
#X connect 10 0 12 0;
#X connect 10 1 13 0;
#X connect 11 0 3 0;
#X connect 11 0 2 0;
#X connect 12 0 14 0;
#X connect 13 0 25 0;
#X connect 14 0 8 0;
#X connect 15 0 12 1;
#X connect 16 0 13 1;
#X connect 17 0 22 0;
#X connect 18 0 19 0;
#X connect 19 0 20 0;
#X connect 20 0 17 2;
#X connect 21 0 5 0;
#X connect 22 0 4 0;
#X connect 23 0 15 0;
#X connect 24 0 16 0;
#X connect 25 0 9 0;
#X connect 26 0 24 0;
#X connect 27 0 31 0;
#X connect 28 0 29 0;
#X connect 28 1 30 0;
#X connect 29 0 39 0;
#X connect 30 0 33 0;
#X connect 31 0 34 0;
#X connect 32 0 35 0;
#X connect 33 0 36 0;
#X connect 34 0 28 0;
#X connect 35 0 3 0;
#X connect 36 0 2 0;
#X connect 37 0 38 0;
#X connect 37 1 32 0;
#X connect 38 0 10 0;
#X connect 39 0 37 0;
#X coords 0 -1 1 1 130 80 1 100 100;
#X restore 161 322 pd 18.up;
#X obj 322 64 table r 192;
#X obj 323 85 table g 192;
#X obj 324 106 table b 192;
#X obj 324 128 table rr 192;
#X obj 324 149 table gg 192;
#X obj 324 169 table bb 192;
#X obj 324 192 table a 192;
#X obj 324 212 table aa 192;
#X msg 324 265 \; a const 1 \; \; aa const 1;
#X obj 324 240 loadbang;
#N canvas 686 192 542 476 click 0;
#X obj 236 27 r signal;
#X obj 239 76 route 1 2 3 4;
#X obj 239 154 bng 15 250 50 0 empty empty empty 17 7 0 10 -262144
-1 -1;
#X obj 239 102 route 1;
#X obj 261 125 route 2 1;
#X obj 103 352 s net;
#X msg 324 314 3 40 150 1 1;
#X msg 103 304 1 1 1 2 1;
#X obj 273 248 del 30;
#X obj 324 249 del 15;
#X obj 379 249 del 50;
#X obj 433 249 del 0;
#X obj 239 180 t b b b b b b b;
#X obj 18 384 s tgllight;
#X msg 58 355 1;
#X msg 18 352 0;
#X obj 101 218 del 200;
#X obj 36 217 del 150;
#X obj 103 270 t b b;
#X obj 36 245 t b b;
#X obj 324 271 t b b;
#X connect 1 0 3 0;
#X connect 1 1 4 0;
#X connect 2 0 12 0;
#X connect 3 0 2 0;
#X connect 4 0 2 0;
#X connect 4 1 2 0;
#X connect 6 0 5 0;
#X connect 7 0 5 0;
#X connect 8 0 6 0;
#X connect 9 0 20 0;
#X connect 10 0 6 0;
#X connect 11 0 6 0;
#X connect 12 0 17 0;
#X connect 12 2 8 0;
#X connect 12 3 9 0;
#X connect 12 4 10 0;
#X connect 12 5 11 0;
#X connect 12 6 16 0;
#X connect 14 0 13 0;
#X connect 15 0 13 0;
#X connect 16 0 18 0;
#X connect 17 0 19 0;
#X connect 18 0 7 0;
#X connect 18 1 14 0;
#X connect 19 0 15 0;
#X connect 19 1 7 0;
#X connect 20 0 6 0;
#X connect 20 1 14 0;
#X restore 321 370 pd click;
#X msg 487 216 devices;
#X msg 641 230 9 1 20 1;
#X obj 552 275 comport 1 9600;
#X msg 628 162 close;
#X obj 628 129 sel 0 1;
#X obj 628 103 t f f;
#X obj 552 177 spigot;
#X obj 628 75 tgl 15 0 empty empty empty 17 7 0 10 -262144 -1 -1 1
1;
#X obj 746 129 s gobalbang;
#X obj 746 75 tgl 15 0 empty empty empty 17 7 0 10 -262144 -1 -1 1
1;
#X obj 746 50 loadbang;
#X obj 552 149 r net;
#X obj 628 49 loadbang;
#N canvas 432 101 795 696 2.run 0;
#X obj 103 118 tgl 15 0 empty empty empty 17 7 0 10 -258113 -1 -1 0
1;
#X obj 152 42 loadbang;
#X msg 152 75 0.1;
#X obj 242 244 + 1;
#X obj 213 244 f 0;
#X obj 276 244 % 360;
#X obj 213 266 / 360;
#X obj 125 139 hsl 80 15 0 1 0 0 empty empty speed 10 8 0 10 -262144
-1 -1 790 1;
#X obj 125 118 hsl 80 15 0 1 0 0 empty empty width 10 8 0 10 -262144
-1 -1 790 1;
#X msg 363 137 \$1 500;
#X obj 363 159 line;
#X obj 103 139 tgl 15 0 empty empty empty 17 7 0 10 -262144 -1 -1 0
1;
#X obj 271 94 sel 0 1;
#X msg 271 116 1;
#X msg 305 115 -1;
#X obj 235 207 *;
#X obj 294 207 * 20;
#X obj 212 139 tgl 15 0 empty empty empty 17 7 0 10 -262144 -1 -1 0
1;
#X msg 68 59 0;
#X obj 110 237 spigot;
#X obj 95 183 r gobalbang;
#X obj 95 205 del 13;
#X floatatom 606 427 5 0 0 0 - - -, f 5;
#X obj 473 625 s net;
#X obj 110 259 t b b b;
#X obj 473 555 list;
#X obj 607 383 int;
#X obj 125 159 hsl 80 15 0 1 0 0 empty empty bright 10 8 0 10 -262144
-1 -1 7900 1;
#X obj 607 487 t b f;
#X obj 498 533 pack f f f;
#X obj 561 463 t b f;
#X obj 561 394 int;
#X obj 561 416 + 1;
#X obj 499 497 int;
#X obj 607 405 + 1;
#X obj 607 361 * 180;
#X obj 499 473 * 255;
#X msg 196 76 1;
#X obj 561 372 * 40;
#X msg 474 599 2 \$1 \$2 \$3 1;
#X connect 0 0 19 1;
#X connect 1 0 2 0;
#X connect 1 0 18 0;
#X connect 1 0 37 0;
#X connect 2 0 8 0;
#X connect 2 0 7 0;
#X connect 3 0 5 0;
#X connect 4 0 3 0;
#X connect 4 0 6 0;
#X connect 5 0 4 1;
#X connect 6 0 36 0;
#X connect 7 0 9 0;
#X connect 8 0 35 0;
#X connect 9 0 10 0;
#X connect 10 0 16 0;
#X connect 11 0 12 0;
#X connect 12 0 13 0;
#X connect 12 1 14 0;
#X connect 13 0 15 0;
#X connect 14 0 15 0;
#X connect 15 0 3 1;
#X connect 16 0 3 1;
#X connect 16 0 15 1;
#X connect 18 0 17 0;
#X connect 19 0 24 0;
#X connect 20 0 21 0;
#X connect 21 0 19 0;
#X connect 22 0 28 0;
#X connect 24 1 25 0;
#X connect 24 2 4 0;
#X connect 25 0 39 0;
#X connect 26 0 34 0;
#X connect 27 0 38 0;
#X connect 28 0 29 0;
#X connect 28 1 29 2;
#X connect 29 0 25 1;
#X connect 30 0 29 0;
#X connect 30 1 29 1;
#X connect 31 0 32 0;
#X connect 32 0 30 0;
#X connect 33 0 29 0;
#X connect 34 0 22 0;
#X connect 35 0 26 0;
#X connect 36 0 33 0;
#X connect 37 0 27 0;
#X connect 38 0 31 0;
#X connect 39 0 23 0;
#X coords 0 -1 1 1 130 80 1 100 100;
#X restore 159 211 pd 2.run;
#N canvas 399 23 580 649 12.rainbow 0;
#X obj 103 118 tgl 15 0 empty empty empty 17 7 0 10 -258113 -1 -1 0
1;
#X obj 152 42 loadbang;
#X msg 152 75 0.1;
#X obj 125 138 hsl 80 15 0 1 0 0 empty empty speed 10 8 0 10 -262144
-1 -1 790 1;
#X obj 125 118 hsl 80 15 0 1 0 0 empty empty step 10 8 0 10 -262144
-1 -1 790 1;
#X obj 114 242 spigot;
#X obj 114 197 r gobalbang;
#X obj 114 219 del 4;
#X obj 427 244 * 30;
#X obj 427 268 + 1;
#X obj 125 160 hsl 80 15 0 1 0 0 empty empty bright 10 8 0 10 -262144
-1 -1 7900 1;
#X msg 185 82 1;
#X obj 370 381 t b b b;
#X obj 370 472 pack f f f;
#X obj 370 441 f 1;
#X obj 447 440 f 10;
#X obj 404 441 f 10;
#X obj 451 376 int;
#X obj 493 376 int;
#X obj 493 354 * 20;
#X obj 370 517 s net;
#X obj 451 354 * 80;
#X obj 388 354 int;
#X obj 493 398 + 1;
#X obj 451 398 + 1;
#X msg 370 495 12 \$1 \$2 \$3 1;
#X connect 0 0 5 1;
#X connect 1 0 2 0;
#X connect 1 0 11 0;
#X connect 2 0 4 0;
#X connect 2 0 3 0;
#X connect 3 0 19 0;
#X connect 4 0 8 0;
#X connect 5 0 12 0;
#X connect 6 0 7 0;
#X connect 7 0 5 0;
#X connect 8 0 9 0;
#X connect 9 0 22 0;
#X connect 10 0 21 0;
#X connect 11 0 10 0;
#X connect 12 0 14 0;
#X connect 12 1 16 0;
#X connect 12 2 15 0;
#X connect 13 0 25 0;
#X connect 14 0 13 0;
#X connect 15 0 13 2;
#X connect 16 0 13 1;
#X connect 17 0 24 0;
#X connect 18 0 23 0;
#X connect 19 0 18 0;
#X connect 21 0 17 0;
#X connect 22 0 14 1;
#X connect 23 0 15 1;
#X connect 24 0 16 1;
#X connect 25 0 20 0;
#X coords 0 -1 1 1 130 80 1 100 100;
#X restore 21 127 pd 12.rainbow;
#N canvas 529 23 502 648 1.wihte&back 0;
#X obj 105 118 tgl 15 0 empty empty empty 17 7 0 10 -258113 -1 -1 0
1;
#X obj 219 5 loadbang;
#X msg 219 38 0.1;
#X obj 127 118 hsl 80 15 0 1 0 0 empty empty bright 10 8 0 10 -262144
-1 -1 790 1;
#X obj 29 221 spigot;
#X obj 29 184 r gobalbang;
#X obj 74 396 s net;
#X obj 135 236 int;
#X floatatom 135 258 5 0 0 0 - - -, f 5;
#X obj 105 139 tgl 15 0 empty empty empty 17 7 0 10 -262144 -1 -1 0
1;
#X obj 128 139 hsl 80 15 0 1 0 0 empty empty flashSpeed 10 8 0 10 -262144
-1 -1 0 1;
#X obj 240 137 tgl 15 0 empty empty empty 17 7 0 10 -262144 -1 -1 0
1;
#X obj 329 66 int;
#X floatatom 329 105 5 0 0 0 - - -, f 5;
#X obj 328 129 * 50;
#X floatatom 328 151 5 0 0 0 - - -, f 5;
#X msg 240 157 \$1 100;
#X obj 240 179 line;
#X obj 329 85 + 2;
#X obj 240 115 metro 100;
#X obj 329 44 * 10;
#X obj 29 248 delay 13;
#X obj 135 214 * 30;
#X obj 74 316 bng 15 250 50 0 empty empty empty 17 7 0 10 -262144 -1
-1;
#X obj 135 277 + 1;
#X floatatom 135 299 5 0 0 0 - - -, f 5;
#X obj 74 347 f 1;
#X msg 74 374 1 1 \$1 2 1;
#X connect 0 0 4 1;
#X connect 1 0 2 0;
#X connect 2 0 3 0;
#X connect 3 0 22 0;
#X connect 4 0 21 0;
#X connect 5 0 4 0;
#X connect 7 0 8 0;
#X connect 8 0 24 0;
#X connect 9 0 19 0;
#X connect 10 0 20 0;
#X connect 11 0 16 0;
#X connect 12 0 18 0;
#X connect 13 0 14 0;
#X connect 14 0 15 0;
#X connect 15 0 19 1;
#X connect 16 0 17 0;
#X connect 17 0 3 0;
#X connect 18 0 13 0;
#X connect 19 0 11 0;
#X connect 20 0 12 0;
#X connect 21 0 23 0;
#X connect 22 0 7 0;
#X connect 23 0 26 0;
#X connect 24 0 25 0;
#X connect 25 0 26 1;
#X connect 26 0 27 0;
#X connect 27 0 6 0;
#X coords 0 -1 1 1 130 60 1 100 100;
#X restore 15 48 pd 1.wihte&back;
#N canvas 397 23 578 781 3.purecolor 0;
#X obj 130 118 hsl 80 15 0 1 0 0 empty empty r 10 8 0 10 -262144 -1
-1 7900 1;
#X obj 130 138 hsl 80 15 0 1 0 0 empty empty g 10 8 0 10 -262144 -1
-1 7900 1;
#X obj 130 158 hsl 80 15 0 1 0 0 empty empty b 10 8 0 10 -262144 -1
-1 7900 1;
#X obj 131 180 hsl 80 15 0 1 0 0 empty empty bright 10 8 0 10 -262144
-1 -1 7900 1;
#X obj 104 118 tgl 15 0 empty empty empty 17 7 0 10 -258113 -1 -1 0
1;
#X obj 261 126 r gobalbang;
#X floatatom 366 227 5 0 0 0 - - -, f 5;
#X obj 261 176 spigot;
#X obj 261 198 delay 1;
#X obj 293 17 loadbang;
#X msg 293 39 1 1 1 1;
#X obj 293 61 unpack f f f f;
#X obj 263 542 s net;
#X obj 316 456 int;
#X obj 263 489 pack f f;
#X obj 316 434 * 100;
#X obj 263 357 rgb2hsv;
#X obj 288 305 pack f f f;
#X msg 263 381 \$1;
#X obj 263 424 int;
#X obj 263 403 * 254;
#X obj 263 444 + 1;
#X floatatom 263 466 5 0 0 0 - - -, f 5;
#X obj 263 334 list;
#X obj 318 256 t b f;
#X obj 364 257 t b f;
#X msg 263 516 3 \$1 \$2 1 1;
#X connect 0 0 17 0;
#X connect 1 0 24 0;
#X connect 2 0 6 0;
#X connect 3 0 15 0;
#X connect 4 0 7 1;
#X connect 5 0 7 0;
#X connect 6 0 25 0;
#X connect 7 0 8 0;
#X connect 8 0 23 0;
#X connect 9 0 10 0;
#X connect 10 0 11 0;
#X connect 11 0 0 0;
#X connect 11 1 1 0;
#X connect 11 2 2 0;
#X connect 11 3 3 0;
#X connect 13 0 14 1;
#X connect 14 0 26 0;
#X connect 15 0 13 0;
#X connect 16 0 18 0;
#X connect 17 0 23 1;
#X connect 18 0 20 0;
#X connect 19 0 21 0;
#X connect 20 0 19 0;
#X connect 21 0 22 0;
#X connect 22 0 14 0;
#X connect 23 0 16 0;
#X connect 24 0 17 0;
#X connect 24 1 17 1;
#X connect 25 0 17 0;
#X connect 25 1 17 2;
#X connect 26 0 12 0;
#X coords 0 -1 1 1 130 100 1 100 100;
#X restore 21 213 pd 3.purecolor;
#N canvas 630 23 609 789 8.zebra 0;
#X obj 103 118 tgl 15 0 empty empty empty 17 7 0 10 -258113 -1 -1 0
1;
#X obj 152 42 loadbang;
#X obj 125 118 hsl 80 15 0 1 0 0 empty empty step 10 8 0 10 -262144
-1 -1 6320 1;
#X obj 117 307 * 30;
#X obj 117 331 + 1;
#X obj 125 140 hsl 80 15 0 1 0 0 empty empty pulse 10 8 0 10 -262144
-1 -1 3950 1;
#X floatatom 228 217 5 0 0 0 - - -, f 5;
#X msg 186 76 0.5;
#X obj 127 520 s net;
#X obj 152 447 pack f f f;
#X obj 127 473 list;
#X obj 125 160 hsl 80 15 0 1 0 0 empty empty bright 10 8 0 10 -262144
-1 -1 7900 1;
#X obj 186 298 * 30;
#X obj 186 320 int;
#X obj 186 342 + 1;
#X msg 221 76 1;
#X obj 228 271 int;
#X obj 228 293 + 1;
#X obj 228 249 * 30;
#X obj 146 380 t b f;
#X obj 216 373 t b f;
#X msg 152 75 0.8;
#X msg 127 495 8 \$1 \$2 \$3 1;
#X obj 29 221 spigot;
#X obj 29 184 r gobalbang;
#X obj 29 248 delay 13;
#X connect 0 0 23 1;
#X connect 1 0 21 0;
#X connect 1 0 7 0;
#X connect 1 0 15 0;
#X connect 2 0 3 0;
#X connect 3 0 4 0;
#X connect 4 0 9 0;
#X connect 5 0 6 0;
#X connect 6 0 18 0;
#X connect 7 0 5 0;
#X connect 9 0 10 1;
#X connect 10 0 22 0;
#X connect 11 0 12 0;
#X connect 12 0 13 0;
#X connect 13 0 14 0;
#X connect 14 0 19 0;
#X connect 15 0 11 0;
#X connect 16 0 17 0;
#X connect 17 0 20 0;
#X connect 18 0 16 0;
#X connect 19 0 9 0;
#X connect 19 1 9 1;
#X connect 20 0 9 0;
#X connect 20 1 9 2;
#X connect 21 0 2 0;
#X connect 22 0 8 0;
#X connect 23 0 25 0;
#X connect 24 0 23 0;
#X connect 25 0 10 0;
#X coords 0 -1 1 1 130 80 1 100 100;
#X restore 161 56 pd 8.zebra;
#N canvas 555 87 543 612 7.star 0;
#X obj 103 118 tgl 15 0 empty empty empty 17 7 0 10 -258113 -1 -1 0
1;
#X obj 152 42 loadbang;
#X obj 125 118 hsl 80 15 0 1 0 0 empty empty num 10 8 0 10 -262144
-1 -1 3950 1;
#X obj 324 320 int;
#X floatatom 324 344 5 0 0 0 - - -, f 5;
#X obj 114 237 spigot;
#X obj 114 200 r gobalbang;
#X obj 114 264 delay 3;
#X obj 308 514 s net;
#X obj 324 298 + 1;
#X obj 126 140 hsl 80 15 0 1 0 0 empty empty bright 10 8 0 10 -262144
-1 -1 3950 1;
#X obj 371 301 int;
#X obj 371 323 + 1;
#X floatatom 371 345 5 0 0 0 - - -, f 5;
#X obj 308 460 pack f f;
#X obj 308 431 f;
#X obj 371 279 * 40;
#X obj 114 286 t b b;
#X obj 324 276 * 29;
#X obj 318 200 expr 1-$f1;
#X msg 152 75 0.5;
#X msg 308 489 7 \$1 \$2 1 1;
#X connect 0 0 5 1;
#X connect 1 0 20 0;
#X connect 2 0 19 0;
#X connect 3 0 4 0;
#X connect 4 0 15 1;
#X connect 5 0 7 0;
#X connect 6 0 5 0;
#X connect 7 0 17 0;
#X connect 9 0 3 0;
#X connect 10 0 16 0;
#X connect 11 0 12 0;
#X connect 12 0 13 0;
#X connect 13 0 14 1;
#X connect 14 0 21 0;
#X connect 15 0 14 0;
#X connect 16 0 11 0;
#X connect 17 1 15 0;
#X connect 18 0 9 0;
#X connect 19 0 18 0;
#X connect 20 0 2 0;
#X connect 20 0 10 0;
#X connect 21 0 8 0;
#X coords 0 -1 1 1 130 60 1 100 100;
#X restore 159 146 pd 7.star;
#X msg 651 194 open 1 57600;
#X obj 746 99 metro 80;
#X obj 595 419 udpsend;
#X msg 512 315 send /light \$1 \$2 \$3 \$4 \$5;
#X obj 512 337 packOSC;
#X msg 686 390 connect 10.0.0.5 10005;
#X obj 595 441 tgl 15 0 empty empty empty 17 7 0 10 -262144 -1 -1 1
1;
#X msg 628 365 disconnect;
#X obj 512 362 spigot;
#X connect 11 0 10 0;
#X connect 13 0 15 0;
#X connect 14 0 15 0;
#X connect 16 0 15 0;
#X connect 17 0 16 0;
#X connect 17 0 39 0;
#X connect 17 1 32 0;
#X connect 17 1 37 0;
#X connect 18 0 17 0;
#X connect 18 1 19 1;
#X connect 19 0 15 0;
#X connect 19 0 35 0;
#X connect 20 0 18 0;
#X connect 22 0 33 0;
#X connect 23 0 22 0;
#X connect 24 0 19 0;
#X connect 25 0 20 0;
#X connect 32 0 15 0;
#X connect 33 0 21 0;
#X connect 34 0 38 0;
#X connect 35 0 36 0;
#X connect 36 0 40 0;
#X connect 37 0 34 0;
#X connect 38 0 40 1;
#X connect 39 0 34 0;
#X connect 40 0 34 0;
